<svg xmlns="http://www.w3.org/2000/svg" xmlns:xlink="http://www.w3.org/1999/xlink" width="113" height="113" viewBox="0 0 113 113">
  <defs>
    <filter id="Trazado_982547" x="0" y="0" width="113" height="113" filterUnits="userSpaceOnUse">
      <feOffset dy="3" input="SourceAlpha"/>
      <feGaussianBlur stdDeviation="3" result="blur"/>
      <feFlood flood-opacity="0.161"/>
      <feComposite operator="in" in2="blur"/>
      <feComposite in="SourceGraphic"/>
    </filter>
  </defs>
  <g id="Grupo_1175414" data-name="Grupo 1175414" transform="translate(-586.5 -2607.015)">
    <g id="Grupo_1173989" data-name="Grupo 1173989" transform="translate(595.5 2613.015)">
      <g id="Grupo_1172010" data-name="Grupo 1172010">
        <g id="Grupo_1171046" data-name="Grupo 1171046">
          <g id="Grupo_1148525" data-name="Grupo 1148525">
            <g transform="matrix(1, 0, 0, 1, -9, -6)" filter="url(#Trazado_982547)">
              <g id="Trazado_982547-2" data-name="Trazado 982547" transform="translate(9 6)" fill="#f4fdfe">
                <path d="M 47.5 93.5 C 41.28937149047852 93.5 35.26533508300781 92.28397369384766 29.59518623352051 89.88570404052734 C 24.11771965026855 87.56893157958984 19.19813346862793 84.25196075439453 14.97309303283691 80.02691650390625 C 10.74804019927979 75.80186462402344 7.431066513061523 70.88229370117188 5.114293098449707 65.40481567382812 C 2.716026782989502 59.73468017578125 1.5 53.71062850952148 1.5 47.5 C 1.5 41.28937149047852 2.716026782989502 35.26533508300781 5.114293098449707 29.59518623352051 C 7.431066513061523 24.11771965026855 10.74804019927979 19.19813346862793 14.97309303283691 14.97309303283691 C 19.19813346862793 10.74804019927979 24.11771965026855 7.431066513061523 29.59518623352051 5.114293098449707 C 35.26533508300781 2.716026782989502 41.28937149047852 1.5 47.5 1.5 C 53.71062850952148 1.5 59.73468017578125 2.716026782989502 65.40481567382812 5.114293098449707 C 70.88229370117188 7.431066513061523 75.80186462402344 10.74804019927979 80.02691650390625 14.97309303283691 C 84.25196075439453 19.19813346862793 87.56893157958984 24.11771965026855 89.88570404052734 29.59518623352051 C 92.28397369384766 35.26533508300781 93.5 41.28937149047852 93.5 47.5 C 93.5 53.71062850952148 92.28397369384766 59.73468017578125 89.88570404052734 65.40481567382812 C 87.56893157958984 70.88229370117188 84.25196075439453 75.80186462402344 80.02691650390625 80.02691650390625 C 75.80186462402344 84.25196075439453 70.88229370117188 87.56893157958984 65.40481567382812 89.88570404052734 C 59.73468017578125 92.28397369384766 53.71062850952148 93.5 47.5 93.5 Z" stroke="none"/>
                <path d="M 47.5 3 C 41.49121475219727 3 35.66376876831055 4.176155090332031 30.17950439453125 6.495796203613281 C 24.88084411621094 8.736953735351562 20.12152099609375 11.94598388671875 16.03375244140625 16.03375244140625 C 11.94598388671875 20.12152099609375 8.736953735351562 24.88084411621094 6.495796203613281 30.17950439453125 C 4.176155090332031 35.66376876831055 3 41.49121475219727 3 47.5 C 3 53.50878524780273 4.176155090332031 59.33623123168945 6.495796203613281 64.82049560546875 C 8.736953735351562 70.11915588378906 11.94598388671875 74.87847900390625 16.03375244140625 78.96624755859375 C 20.12152099609375 83.05401611328125 24.88084411621094 86.26304626464844 30.17950439453125 88.50419616699219 C 35.66376876831055 90.82384490966797 41.49121475219727 92 47.5 92 C 53.50878524780273 92 59.33623123168945 90.82384490966797 64.82049560546875 88.50419616699219 C 70.11915588378906 86.26304626464844 74.87847900390625 83.05401611328125 78.96624755859375 78.96624755859375 C 83.05401611328125 74.87847900390625 86.26304626464844 70.11915588378906 88.50419616699219 64.82049560546875 C 90.82384490966797 59.33623123168945 92 53.50878524780273 92 47.5 C 92 41.49121475219727 90.82384490966797 35.66376876831055 88.50419616699219 30.17950439453125 C 86.26304626464844 24.88084411621094 83.05401611328125 20.12152099609375 78.96624755859375 16.03375244140625 C 74.87847900390625 11.94598388671875 70.11915588378906 8.736953735351562 64.82049560546875 6.495796203613281 C 59.33623123168945 4.176155090332031 53.50878524780273 3 47.5 3 M 47.5 0 C 73.7335205078125 0 95 21.2664794921875 95 47.5 C 95 73.7335205078125 73.7335205078125 95 47.5 95 C 21.2664794921875 95 0 73.7335205078125 0 47.5 C 0 21.2664794921875 21.2664794921875 0 47.5 0 Z" stroke="none" fill="#56838a"/>
              </g>
            </g>
          </g>
        </g>
      </g>
    </g>
    <g id="Layer_x0020_1" transform="translate(612.541 2629.441)">
      <path id="Trazado_1026350" data-name="Trazado 1026350" d="M10.592,28.1a3.207,3.207,0,0,1,2.726-4.876.768.768,0,1,1,0,1.536,1.689,1.689,0,0,0,.038,3.378h6.488a2.9,2.9,0,0,0,0-5.8.768.768,0,1,1,0-1.536,4.443,4.443,0,0,1,3.34,7.333h6.3a4.424,4.424,0,0,1,3.34-7.333.768.768,0,0,1,0,1.536,2.9,2.9,0,1,0,.077,5.8h8.753a4.817,4.817,0,0,0,1.958-.384,14.8,14.8,0,0,1-7.486-14.4,4.327,4.327,0,0,0-2.611,0,5.546,5.546,0,0,1-3.186,4.453.764.764,0,0,1-.653-1.382c4.377-2,2.035-9.176-3.378-9.176a5.629,5.629,0,0,0-5.567,4.876,5.464,5.464,0,0,1,2.687,4.722.768.768,0,0,1-1.536,0,4.061,4.061,0,0,0-2.227-3.57,5.192,5.192,0,0,0-1.113-.154,4.049,4.049,0,0,0-3.993,3.494,3.943,3.943,0,0,0,2.3,3.609.782.782,0,0,1-.653,1.42A5.524,5.524,0,0,1,13.011,17.2a5.648,5.648,0,1,0-2.419,10.9Zm43.766-6.411H51.748a2.563,2.563,0,0,1-4.876,0h-.845a3.782,3.782,0,1,1,0-7.563h7.755a2.246,2.246,0,0,0,0-4.492h-.845a2.571,2.571,0,0,1-4.914,0H44.492a.768.768,0,1,1,0-1.536h3.57a2.544,2.544,0,0,1,4.837,0h.883a3.782,3.782,0,1,1,0,7.563H46.028a2.246,2.246,0,0,0,0,4.492h.845a2.557,2.557,0,0,1,4.876,0h2.611a2.555,2.555,0,1,1,0,1.536Zm-4.031-.729a1.019,1.019,0,1,0-2.035-.038A1.019,1.019,0,0,0,50.328,20.962ZM49.483,8.83a1.019,1.019,0,1,0,2.035.077A1.019,1.019,0,0,0,49.483,8.83Zm7.333,11.057a1.017,1.017,0,0,0,0,2.035A1.017,1.017,0,0,0,56.816,19.887ZM45.375,28.6a7.117,7.117,0,0,1-3.724,1.075H11.015a7.19,7.19,0,0,1-6.642-4.453A23.759,23.759,0,0,0,2.185,40.58a10.165,10.165,0,0,0,3.724,6.3c1.92-2.035,2.419-7.947,2.073-10.1-.115-.653.384-1.574,1.229-1.42a5.215,5.215,0,0,1,3.34,1.612c1.459-2.534.576-3.186,1.574-3.609a.934.934,0,0,1,1.037.154c5.567,4.453,16.086,7.486,21.384,1.5,1.881-2.15,2.918-.845,4.569.5,6.565,5.413.691,7.448,5.605,12.247,5.221-3.916,6.565-11.748,4.876-18.121A14.75,14.75,0,0,1,45.375,28.6Zm7.755.883c1.8,7.064.154,15.549-5.759,19.695-1.651,9.79-9.943,16.355-20.655,16.355-11.1,0-19.465-6.757-21.422-17.238A11.436,11.436,0,0,1,.687,40.925a25.463,25.463,0,0,1,3.148-17.89,2.906,2.906,0,0,1-.038-.576A7.2,7.2,0,0,1,13.2,15.625a5.592,5.592,0,0,1,6.027-3.993,7.206,7.206,0,0,1,14.2.154,5.786,5.786,0,0,1,2.918.038A14.837,14.837,0,1,1,53.13,29.485ZM50.865,1.536A13.3,13.3,0,1,0,64.187,14.819,13.288,13.288,0,0,0,50.865,1.536Zm-5.029,47.49c-5.874-5.567.23-7.448-5.72-12.324C38.273,35.167,38.5,35.09,37.7,36.05c-5.72,6.411-16.585,3.724-22.766-.806a14.376,14.376,0,0,1-1.612,3.494.781.781,0,0,1-1.382.038,3.426,3.426,0,0,0-2.38-1.8c.307,2.8-.307,8.945-2.726,11.172C8.749,57.971,16.351,64,26.793,64,36.814,63.96,44.262,58.086,45.836,49.026Zm-19.5,11.94c-1.92,0-5.3-1.19-4.3-2.419.845-1.075,1.382.883,4.3.883,2.879,0,3.455-1.958,4.261-.883C31.592,59.814,28.176,60.966,26.333,60.966Z" transform="translate(0)" fill-rule="evenodd"/>
      <path id="Trazado_1026351" data-name="Trazado 1026351" d="M161.972,204.088a2.9,2.9,0,1,0,.077,5.8H170.8a4.817,4.817,0,0,0,1.958-.384,14.8,14.8,0,0,1-7.486-14.4,4.327,4.327,0,0,0-2.611,0,5.546,5.546,0,0,1-3.186,4.453.764.764,0,0,1-.653-1.382c4.377-2,2.035-9.176-3.378-9.176a5.629,5.629,0,0,0-5.567,4.876,5.464,5.464,0,0,1,2.687,4.722.768.768,0,0,1-1.536,0,4.061,4.061,0,0,0-2.227-3.57,5.192,5.192,0,0,0-1.113-.154,4.049,4.049,0,0,0-3.993,3.494,3.943,3.943,0,0,0,2.3,3.609.782.782,0,0,1-.653,1.421,5.524,5.524,0,0,1-3.187-4.453,5.648,5.648,0,1,0-2.419,10.9,3.207,3.207,0,0,1,2.726-4.876.768.768,0,1,1,0,1.536,1.689,1.689,0,0,0,.038,3.378H149a2.9,2.9,0,0,0,0-5.8.768.768,0,1,1,0-1.536,4.443,4.443,0,0,1,3.34,7.333h6.3a4.424,4.424,0,0,1,3.34-7.333A.768.768,0,0,1,161.972,204.088Z" transform="translate(-129.151 -181.744)" fill="#ffa721" fill-rule="evenodd"/>
      <path id="Trazado_1026352" data-name="Trazado 1026352" d="M1449.758,518a1.017,1.017,0,0,0,0,2.035A1.017,1.017,0,0,0,1449.758,518Z" transform="translate(-1392.942 -498.113)" fill="#ff3e1a" fill-rule="evenodd"/>
      <path id="Trazado_1026353" data-name="Trazado 1026353" d="M1253,518.719a1.018,1.018,0,0,0,2.035.038A1.018,1.018,0,1,0,1253,518.719Z" transform="translate(-1204.707 -497.795)" fill="#ff3e1a" fill-rule="evenodd"/>
      <path id="Trazado_1026354" data-name="Trazado 1026354" d="M983.291,58.62a2.557,2.557,0,0,1,4.876,0h2.611a2.555,2.555,0,1,1,0,1.536h-2.611a2.563,2.563,0,0,1-4.876,0h-.845a3.782,3.782,0,1,1,0-7.563H990.2a2.246,2.246,0,0,0,0-4.492h-.845a2.571,2.571,0,0,1-4.914,0H980.91a.768.768,0,1,1,0-1.536h3.57a2.544,2.544,0,0,1,4.837,0h.883a3.782,3.782,0,1,1,0,7.563h-7.755a2.246,2.246,0,0,0,0,4.492ZM974,53.283A13.3,13.3,0,1,0,987.283,40,13.321,13.321,0,0,0,974,53.283Z" transform="translate(-936.418 -38.464)" fill="#f1f1ff" fill-rule="evenodd"/>
      <path id="Trazado_1026355" data-name="Trazado 1026355" d="M1284,206.419a1.019,1.019,0,1,0,2.035.077A1.019,1.019,0,0,0,1284,206.419Z" transform="translate(-1234.517 -197.589)" fill="#ff3e1a" fill-rule="evenodd"/>
      <path id="Trazado_1026356" data-name="Trazado 1026356" d="M204.79,918.806c-5.682,6.411-16.508,3.724-22.728-.806a11.2,11.2,0,0,1-1.612,3.455.739.739,0,0,1-1.344.038,3.481,3.481,0,0,0-2.38-1.766c.307,2.764-.307,8.945-2.726,11.172,1.92,9.79,9.483,15.817,19.925,15.779,10.02,0,17.468-5.874,19.042-14.934-5.912-5.528.23-7.41-5.72-12.285C205.4,917.923,205.635,917.846,204.79,918.806ZM189.2,941.265c.806-1.075,1.344.883,4.261.883,2.879,0,3.455-1.958,4.262-.883,1,1.267-2.419,2.419-4.262,2.419C191.545,943.684,188.2,942.494,189.2,941.265Z" transform="translate(-167.132 -882.757)" fill="#ffc06d" fill-rule="evenodd"/>
      <path id="Trazado_1026357" data-name="Trazado 1026357" d="M54.47,665.293c5.567,4.453,16.048,7.486,21.307,1.5,1.92-2.15,2.956-.845,4.569.5,6.565,5.413.691,7.448,5.644,12.208,5.221-3.878,6.527-11.709,4.837-18.083a4.166,4.166,0,0,1-.691.038,15.179,15.179,0,0,1-5.49-1.036,7.483,7.483,0,0,1-3.762,1.036H50.324A7.19,7.19,0,0,1,43.682,657a23.758,23.758,0,0,0-2.188,15.357,10.128,10.128,0,0,0,3.724,6.258c1.92-2.035,2.419-7.947,2.073-10.1-.115-.614.384-1.536,1.229-1.382a4.945,4.945,0,0,1,3.3,1.612c1.459-2.534.576-3.187,1.612-3.609A.944.944,0,0,1,54.47,665.293Z" transform="translate(-39.271 -631.777)" fill="#a98356" fill-rule="evenodd"/>
    </g>
  </g>
</svg>
