<svg xmlns="http://www.w3.org/2000/svg" xmlns:xlink="http://www.w3.org/1999/xlink" width="113" height="113" viewBox="0 0 113 113">
  <defs>
    <filter id="Trazado_982547" x="0" y="0" width="113" height="113" filterUnits="userSpaceOnUse">
      <feOffset dy="3" input="SourceAlpha"/>
      <feGaussianBlur stdDeviation="3" result="blur"/>
      <feFlood flood-opacity="0.161"/>
      <feComposite operator="in" in2="blur"/>
      <feComposite in="SourceGraphic"/>
    </filter>
    <clipPath id="clip-path">
      <path id="path9126" d="M0-682.665H58.411v58.411H0Z" transform="translate(0 682.665)"/>
    </clipPath>
  </defs>
  <g id="Grupo_1175352" data-name="Grupo 1175352" transform="translate(-743.5 -1962.175)">
    <g id="Grupo_1173869" data-name="Grupo 1173869" transform="translate(752.5 1968.175)">
      <g id="Grupo_1172010" data-name="Grupo 1172010">
        <g id="Grupo_1171046" data-name="Grupo 1171046">
          <g id="Grupo_1148525" data-name="Grupo 1148525">
            <g transform="matrix(1, 0, 0, 1, -9, -6)" filter="url(#Trazado_982547)">
              <g id="Trazado_982547-2" data-name="Trazado 982547" transform="translate(9 6)" fill="#f4fdfe">
                <path d="M 47.5 93.5 C 41.28937149047852 93.5 35.26533508300781 92.28397369384766 29.59518623352051 89.88570404052734 C 24.11771965026855 87.56893157958984 19.19813346862793 84.25196075439453 14.97309303283691 80.02691650390625 C 10.74804019927979 75.80186462402344 7.431066513061523 70.88229370117188 5.114293098449707 65.40481567382812 C 2.716026782989502 59.73468017578125 1.5 53.71062850952148 1.5 47.5 C 1.5 41.28937149047852 2.716026782989502 35.26533508300781 5.114293098449707 29.59518623352051 C 7.431066513061523 24.11771965026855 10.74804019927979 19.19813346862793 14.97309303283691 14.97309303283691 C 19.19813346862793 10.74804019927979 24.11771965026855 7.431066513061523 29.59518623352051 5.114293098449707 C 35.26533508300781 2.716026782989502 41.28937149047852 1.5 47.5 1.5 C 53.71062850952148 1.5 59.73468017578125 2.716026782989502 65.40481567382812 5.114293098449707 C 70.88229370117188 7.431066513061523 75.80186462402344 10.74804019927979 80.02691650390625 14.97309303283691 C 84.25196075439453 19.19813346862793 87.56893157958984 24.11771965026855 89.88570404052734 29.59518623352051 C 92.28397369384766 35.26533508300781 93.5 41.28937149047852 93.5 47.5 C 93.5 53.71062850952148 92.28397369384766 59.73468017578125 89.88570404052734 65.40481567382812 C 87.56893157958984 70.88229370117188 84.25196075439453 75.80186462402344 80.02691650390625 80.02691650390625 C 75.80186462402344 84.25196075439453 70.88229370117188 87.56893157958984 65.40481567382812 89.88570404052734 C 59.73468017578125 92.28397369384766 53.71062850952148 93.5 47.5 93.5 Z" stroke="none"/>
                <path d="M 47.5 3 C 41.49121475219727 3 35.66376876831055 4.176155090332031 30.17950439453125 6.495796203613281 C 24.88084411621094 8.736953735351562 20.12152099609375 11.94598388671875 16.03375244140625 16.03375244140625 C 11.94598388671875 20.12152099609375 8.736953735351562 24.88084411621094 6.495796203613281 30.17950439453125 C 4.176155090332031 35.66376876831055 3 41.49121475219727 3 47.5 C 3 53.50878524780273 4.176155090332031 59.33623123168945 6.495796203613281 64.82049560546875 C 8.736953735351562 70.11915588378906 11.94598388671875 74.87847900390625 16.03375244140625 78.96624755859375 C 20.12152099609375 83.05401611328125 24.88084411621094 86.26304626464844 30.17950439453125 88.50419616699219 C 35.66376876831055 90.82384490966797 41.49121475219727 92 47.5 92 C 53.50878524780273 92 59.33623123168945 90.82384490966797 64.82049560546875 88.50419616699219 C 70.11915588378906 86.26304626464844 74.87847900390625 83.05401611328125 78.96624755859375 78.96624755859375 C 83.05401611328125 74.87847900390625 86.26304626464844 70.11915588378906 88.50419616699219 64.82049560546875 C 90.82384490966797 59.33623123168945 92 53.50878524780273 92 47.5 C 92 41.49121475219727 90.82384490966797 35.66376876831055 88.50419616699219 30.17950439453125 C 86.26304626464844 24.88084411621094 83.05401611328125 20.12152099609375 78.96624755859375 16.03375244140625 C 74.87847900390625 11.94598388671875 70.11915588378906 8.736953735351562 64.82049560546875 6.495796203613281 C 59.33623123168945 4.176155090332031 53.50878524780273 3 47.5 3 M 47.5 0 C 73.7335205078125 0 95 21.2664794921875 95 47.5 C 95 73.7335205078125 73.7335205078125 95 47.5 95 C 21.2664794921875 95 0 73.7335205078125 0 47.5 C 0 21.2664794921875 21.2664794921875 0 47.5 0 Z" stroke="none" fill="#56838a"/>
              </g>
            </g>
          </g>
        </g>
      </g>
    </g>
    <g id="g9120" transform="translate(770.794 2669.134)">
      <g id="g9122" transform="translate(0 -682.665)">
        <g id="g9124" clip-path="url(#clip-path)">
          <g id="g9130" transform="translate(0.856 1.769)">
            <path id="path9132" d="M-159.042-325.727c-4.489,1.954-7.957,1.415-10.35.328a3.889,3.889,0,0,1-2-5.061c.488-1.122.63-2.765-.369-5.081-2.331-5.4-3.977-14.7,1.639-18.9a8.8,8.8,0,0,1,9.255-.826,4.4,4.4,0,0,0,3.652,0,8.809,8.809,0,0,1,9.257.827c6.044,4.494,3.97,13.494,1.639,18.9-1,2.315-.857,3.959-.369,5.081a3.889,3.889,0,0,1-2,5.061c-2.393,1.087-5.861,1.626-10.35-.328" transform="translate(173.923 356.205)" fill="#ffd52b"/>
          </g>
          <g id="g9134" transform="translate(19.786 1.769)">
            <path id="path9136" d="M-75.163-18.894a8.453,8.453,0,0,0-6.893-1.6,8.759,8.759,0,0,1,3.47,1.6C-72.541-14.4-74.615-5.4-76.946,0c-1,2.315-.857,3.959-.369,5.08a3.889,3.889,0,0,1-2,5.061A10.848,10.848,0,0,1-82.2,11a11.2,11.2,0,0,0,6.3-.852,3.889,3.889,0,0,0,2-5.061c-.488-1.122-.63-2.765.369-5.08,2.331-5.4,4.4-14.4-1.639-18.9" transform="translate(82.196 20.661)" fill="#fcca00"/>
          </g>
          <g id="g9138" transform="translate(4.655 26.734)">
            <path id="path9140" d="M0-329.4v-20.566a5.847,5.847,0,0,1,5.846-5.847H8.536v-4.409h5.092v4.409h2.689a5.847,5.847,0,0,1,5.846,5.846v12.523l5.606-10.507a2.047,2.047,0,0,1,2.843-.8,2.047,2.047,0,0,1,.768,2.732l-6.04,11.269q-.051.094-.1.187a4.568,4.568,0,0,1-6.576,1.343l-.606-.43v4.251Z" transform="translate(0 360.222)" fill="#ffe5c9"/>
          </g>
          <g id="g9142" transform="translate(7.477 30.689)">
            <path id="path9144" d="M-13.774-287.132v-12.459a4.305,4.305,0,0,1-1.289-3.077,4.305,4.305,0,0,1,1.289-3.077V-314h1.811A5.249,5.249,0,0,0-6.8-310.026,5.249,5.249,0,0,0-1.641-314H.169v8.254a4.305,4.305,0,0,1,1.289,3.077,4.305,4.305,0,0,1-1.289,3.077v12.459Z" transform="translate(15.063 313.999)" fill="#a6d4ff"/>
          </g>
          <g id="g9146" transform="translate(19.286 30.689)">
            <path id="path9148" d="M-36.577-88.214v-8.254h-1.81A5.733,5.733,0,0,1-40-93.789v5.575a4.305,4.305,0,0,1,1.289,3.077A4.305,4.305,0,0,1-40-82.06V-69.6h3.423V-82.06a4.305,4.305,0,0,0,1.289-3.077,4.305,4.305,0,0,0-1.289-3.077" transform="translate(40 96.468)" fill="#96ccff"/>
          </g>
          <g id="g9150" transform="translate(6.655 9.873)">
            <path id="path9152" d="M-194.121-42.735v5.479a9.069,9.069,0,0,1-9.069,9.069h-.026a9.069,9.069,0,0,1-9.069-9.069v-5.479a4,4,0,0,1,4-4h10.166a4,4,0,0,1,4,4" transform="translate(212.285 46.733)" fill="#ffe5c9"/>
          </g>
          <g id="g9154" transform="translate(14.026 9.873)">
            <path id="path9156" d="M-72.615,0h-3.423a4,4,0,0,1,4,4V9.477a9.07,9.07,0,0,1-7.371,8.908,9.112,9.112,0,0,0,1.7.161h.026a9.069,9.069,0,0,0,9.069-9.069V4a4,4,0,0,0-4-4" transform="translate(79.409)" fill="#ffdbb5"/>
          </g>
          <g id="g9158" transform="translate(33.439 0.856)">
            <path id="path9160" d="M-88.54-1.222A9.646,9.646,0,0,0-96.6,9.784a9.608,9.608,0,0,0,1.59,4l-1.813,5.372,4.5-2.762A9.608,9.608,0,0,0-85.6,17.845,9.646,9.646,0,0,0-77.535,6.84,9.646,9.646,0,0,0-88.54-1.222" transform="translate(96.825 1.336)" fill="#ff428e"/>
          </g>
          <g id="g9162" transform="translate(41.482 0.856)">
            <path id="path9164" d="M-120.205-87.378a9.646,9.646,0,0,0-11.005-8.062c-.078.012-.156.025-.233.039a9.65,9.65,0,0,1,7.816,8.023,9.646,9.646,0,0,1-7.825,10.965,9.619,9.619,0,0,0,3.186.04,9.646,9.646,0,0,0,8.062-11.005" transform="translate(131.453 95.554)" fill="#f52779"/>
          </g>
          <g id="g9166" transform="translate(39.182 46.427)">
            <path id="path9168" d="M-35.8-118.93l-3.349-4.963v-1.667a4.5,4.5,0,0,1,4.5-4.5h8.057a4.5,4.5,0,0,1,4.5,4.5v1.667l-3.349,4.963Z" transform="translate(39.145 130.058)" fill="#5d76cf"/>
          </g>
          <g id="g9170" transform="translate(48.315 46.427)">
            <path id="path9172" d="M-36.577,0H-40a4.5,4.5,0,0,1,4.5,4.5v6.629h.073l3.35-4.963V4.5a4.5,4.5,0,0,0-4.5-4.5" transform="translate(40 0)" fill="#4d69cf"/>
          </g>
          <g id="g9174" transform="translate(45.87 43.914)">
            <path id="path9176" d="M-19.684-43.3h-.005a1.836,1.836,0,0,1-1.837-1.837v-2.215h3.678v2.215A1.836,1.836,0,0,1-19.684-43.3" transform="translate(21.525 47.353)" fill="#ffdbb5"/>
          </g>
          <g id="g9178" transform="translate(39.934 25.621)">
            <path id="path9180" d="M-81.844-198.789h-.022a7.636,7.636,0,0,1-7.636-7.636v-3.328a7.636,7.636,0,0,1,7.636-7.636h.022a7.636,7.636,0,0,1,7.636,7.636v3.328a7.636,7.636,0,0,1-7.636,7.636" transform="translate(89.502 217.39)" fill="#ffe5c9"/>
          </g>
          <g id="g9182" transform="translate(45.869 25.621)">
            <path id="path9184" d="M-18.407,0h-.022a7.654,7.654,0,0,0-1.7.192,7.637,7.637,0,0,1,5.936,7.444v3.328a7.637,7.637,0,0,1-5.936,7.444,7.654,7.654,0,0,0,1.7.192h.022a7.636,7.636,0,0,0,7.636-7.636V7.636A7.636,7.636,0,0,0-18.407,0" transform="translate(20.129)" fill="#ffdbb5"/>
          </g>
          <path id="path9186" d="M457.927-68h3.349v4.963h-3.349Z" transform="translate(-418.745 120.593)" fill="#ffdbb5"/>
          <path id="path9188" d="M618.1-68h3.349v4.963H618.1Z" transform="translate(-565.212 120.593)" fill="#ffdbb5"/>
          <g id="g9190" transform="translate(35.606 21.931)">
            <path id="path9192" d="M0-59.558s0,5.239,4.944,6.049c4.506.739,6.957-2.8,9.583-2.864,4.124-.1,5.1,4.233,5.1,6.435,0,0,1.9-1.307,2.282-4.877.365-3.425-1.383-9.9-8.157-10.3C7.854-65.461,5.078-59.947,2.949-59A2.73,2.73,0,0,1,0-59.558" transform="translate(0 65.131)" fill="#ffd52b"/>
          </g>
          <g id="g9194" transform="translate(40.047 30.687)">
            <path id="path9196" d="M-71.209-.018c-2,.048-3.891,2.1-6.663,2.762.162.039.329.073.5.1,3.665.6,5.97-1.628,8.116-2.515a4.641,4.641,0,0,0-1.955-.349" transform="translate(77.872 0.02)" fill="#fcca00"/>
          </g>
          <g id="g9198" transform="translate(47.166 21.931)">
            <path id="path9200" d="M-23.375-.165a8.517,8.517,0,0,0-2.187.148c5.753,1.064,7.263,6.945,6.921,10.152-.017.161-.038.315-.061.467a8.507,8.507,0,0,1,1.2,4.411s1.9-1.307,2.282-4.877c.365-3.425-1.383-9.9-8.157-10.3" transform="translate(25.563 0.181)" fill="#fcca00"/>
          </g>
          <g id="g9202" transform="translate(0.871 1.774)">
            <path id="path9204" d="M0-106.981a12.3,12.3,0,0,1,1.458-5.608,8.879,8.879,0,0,1,5.214-4.1,9.24,9.24,0,0,1,6.178.546,4.657,4.657,0,0,0,3.842.082,11.268,11.268,0,0,1,2.69-.826,8.709,8.709,0,0,1,6.934,1.94,9.606,9.606,0,0,1,3.148,4.952,15.523,15.523,0,0,1,.3,5.952,27.187,27.187,0,0,1-1.413,5.776c-.7,1.974-1.841,3.932-1.411,6.1a8.855,8.855,0,0,1,.573,2.817,3.958,3.958,0,0,1-1.489,2.665,5.733,5.733,0,0,1-1.626.821" transform="translate(0 116.992)" fill="none" stroke="#000" stroke-linecap="round" stroke-linejoin="round" stroke-miterlimit="10" stroke-width="1.4"/>
          </g>
          <g id="g9206" transform="translate(1.318 16.95)">
            <path id="path9208" d="M-53.3-170.922a4.556,4.556,0,0,1-2.883-2.33,4.185,4.185,0,0,1,.065-3.355c.841-2.331-.45-4.534-1.191-6.692a27.958,27.958,0,0,1-.978-3.616" transform="translate(58.292 186.916)" fill="none" stroke="#000" stroke-linecap="round" stroke-linejoin="round" stroke-miterlimit="10" stroke-width="1.4"/>
          </g>
          <g id="g9210" transform="translate(22.709 31.405)">
            <path id="path9212" d="M0,0A5.849,5.849,0,0,1,4.11,5.584V18.108L9.716,7.6a2.047,2.047,0,1,1,3.61,1.931L7.287,20.8q-.051.095-.1.187A4.568,4.568,0,0,1,.606,22.329L0,21.9v4.251" fill="none" stroke="#000" stroke-linecap="round" stroke-linejoin="round" stroke-miterlimit="10" stroke-width="1.4"/>
          </g>
          <g id="g9214" transform="translate(18.283 28.217)">
            <path id="path9216" d="M0,0V2.926H2.184" fill="none" stroke="#000" stroke-linecap="round" stroke-linejoin="round" stroke-miterlimit="10" stroke-width="1.4"/>
          </g>
          <g id="g9218" transform="translate(10.952 28.217)">
            <path id="path9220" d="M0-31.27H2.239V-34.2" transform="translate(0 34.196)" fill="none" stroke="#000" stroke-linecap="round" stroke-linejoin="round" stroke-miterlimit="10" stroke-width="1.4"/>
          </g>
          <g id="g9222" transform="translate(4.655 31.405)">
            <path id="path9224" d="M0-279.478v-20.566a5.849,5.849,0,0,1,4.11-5.584" transform="translate(0 305.629)" fill="none" stroke="#000" stroke-linecap="round" stroke-linejoin="round" stroke-miterlimit="10" stroke-width="1.4"/>
          </g>
          <g id="g9226" transform="translate(7.477 30.689)">
            <path id="path9228" d="M-13.774-287.132v-12.459a4.305,4.305,0,0,1-1.289-3.077,4.305,4.305,0,0,1,1.289-3.077V-314h1.811A5.249,5.249,0,0,0-6.8-310.026,5.249,5.249,0,0,0-1.641-314H.169v8.254a4.305,4.305,0,0,1,1.289,3.077,4.305,4.305,0,0,1-1.289,3.077v12.459" transform="translate(15.063 313.999)" fill="none" stroke="#000" stroke-linecap="round" stroke-linejoin="round" stroke-miterlimit="10" stroke-width="1.4"/>
          </g>
          <g id="g9230" transform="translate(11.796 43.785)">
            <path id="path9232" d="M-84.244-27.287a4.319,4.319,0,0,1-3.941-2.553,4.319,4.319,0,0,1-3.941,2.553" transform="translate(92.126 29.84)" fill="none" stroke="#000" stroke-linecap="round" stroke-linejoin="round" stroke-miterlimit="10" stroke-width="1.4"/>
          </g>
          <g id="g9234" transform="translate(6.655 9.873)">
            <path id="path9236" d="M-194.121-42.735v5.479a9.069,9.069,0,0,1-9.069,9.069h-.026a9.069,9.069,0,0,1-9.069-9.069v-5.479a4,4,0,0,1,4-4h10.166A4,4,0,0,1-194.121-42.735Z" transform="translate(212.285 46.733)" fill="none" stroke="#000" stroke-linecap="round" stroke-linejoin="round" stroke-miterlimit="10" stroke-width="1.4"/>
          </g>
          <g id="g9238" transform="translate(14.241 20.82)">
            <path id="path9240" d="M0-24.384C0-23.124.67-22.1,1.5-22.1s1.5-1.022,1.5-2.282-.67-2.282-1.5-2.282S0-25.644,0-24.384Z" transform="translate(0 26.665)" fill="none" stroke="#000" stroke-linecap="round" stroke-linejoin="round" stroke-miterlimit="10" stroke-width="1.4"/>
          </g>
          <g id="g9242" transform="translate(33.439 0.856)">
            <path id="path9244" d="M-88.54-1.222A9.646,9.646,0,0,0-96.6,9.784a9.608,9.608,0,0,0,1.59,4l-1.813,5.372,4.5-2.762A9.608,9.608,0,0,0-85.6,17.845,9.646,9.646,0,0,0-77.535,6.84,9.646,9.646,0,0,0-88.54-1.222Z" transform="translate(96.825 1.336)" fill="none" stroke="#000" stroke-linecap="round" stroke-linejoin="round" stroke-miterlimit="10" stroke-width="1.4"/>
          </g>
          <g id="g9246" transform="translate(43.267 6.083)">
            <path id="path9248" d="M0-64.976v-6.08" transform="translate(0 71.056)" fill="none" stroke="#000" stroke-linecap="round" stroke-linejoin="round" stroke-miterlimit="10" stroke-width="1.4"/>
          </g>
          <g id="g9250" transform="translate(42.44 14.274)">
            <path id="path9252" d="M-8.833-18.289a.856.856,0,0,0,0-1.711.856.856,0,0,0,0,1.711" transform="translate(9.66 20)"/>
          </g>
          <g id="g9254" transform="translate(49.548 46.427)">
            <path id="path9256" d="M0,0H2.189a4.5,4.5,0,0,1,4.5,4.5v6.629" fill="none" stroke="#000" stroke-linecap="round" stroke-linejoin="round" stroke-miterlimit="10" stroke-width="1.4"/>
          </g>
          <g id="g9258" transform="translate(39.182 46.427)">
            <path id="path9260" d="M0-118.93v-6.629a4.5,4.5,0,0,1,4.5-4.5h1.9" transform="translate(0 130.058)" fill="none" stroke="#000" stroke-linecap="round" stroke-linejoin="round" stroke-miterlimit="10" stroke-width="1.4"/>
          </g>
          <g id="g9262" transform="translate(45.87 44.256)">
            <path id="path9264" d="M-39.31,0V1.873a1.836,1.836,0,0,1-1.837,1.837h-.005a1.836,1.836,0,0,1-1.836-1.837V0" transform="translate(42.988)" fill="none" stroke="#000" stroke-linecap="round" stroke-linejoin="round" stroke-miterlimit="10" stroke-width="1.4"/>
          </g>
          <g id="g9266" transform="translate(39.934 33.6)">
            <path id="path9268" d="M-125.9-100.622a7.727,7.727,0,0,1-8.288-.014,7.8,7.8,0,0,1-3.492-6.674v-2.727" transform="translate(137.677 110.037)" fill="none" stroke="#000" stroke-linecap="round" stroke-linejoin="round" stroke-miterlimit="10" stroke-width="1.4"/>
          </g>
          <g id="g9270" transform="translate(54.787 36.586)">
            <path id="path9272" d="M-4.717,0a7.659,7.659,0,0,1-.441,2.564" transform="translate(5.159)" fill="none" stroke="#000" stroke-linecap="round" stroke-linejoin="round" stroke-miterlimit="10" stroke-width="1.4"/>
          </g>
          <g id="g9274" transform="translate(45.808 38.835)">
            <path id="path9276" d="M-37.884-7.83a2.51,2.51,0,0,0-3.545,0" transform="translate(41.429 8.563)" fill="none" stroke="#000" stroke-linecap="round" stroke-linejoin="round" stroke-miterlimit="10" stroke-width="1.4"/>
          </g>
          <g id="g9278" transform="translate(39.182 52.593)">
            <path id="path9280" d="M0-53.037V-58H3.349v4.963" transform="translate(0 58)" fill="none" stroke="#000" stroke-linecap="round" stroke-linejoin="round" stroke-miterlimit="10" stroke-width="1.4"/>
          </g>
          <g id="g9282" transform="translate(52.887 52.593)">
            <path id="path9284" d="M0-53.037V-58H3.349v4.963" transform="translate(0 58)" fill="none" stroke="#000" stroke-linecap="round" stroke-linejoin="round" stroke-miterlimit="10" stroke-width="1.4"/>
          </g>
          <g id="g9286" transform="translate(35.606 21.931)">
            <path id="path9288" d="M0-59.558s0,5.239,4.944,6.049c4.506.739,6.957-2.8,9.583-2.864,4.124-.1,5.1,4.233,5.1,6.435,0,0,1.9-1.307,2.282-4.877.365-3.425-1.383-9.9-8.157-10.3C7.854-65.461,5.078-59.947,2.949-59A2.73,2.73,0,0,1,0-59.558Z" transform="translate(0 65.131)" fill="none" stroke="#000" stroke-linecap="round" stroke-linejoin="round" stroke-miterlimit="10" stroke-width="1.4"/>
          </g>
        </g>
      </g>
    </g>
  </g>
</svg>
