<svg xmlns="http://www.w3.org/2000/svg" xmlns:xlink="http://www.w3.org/1999/xlink" width="400" height="308" viewBox="0 0 400 308">
  <defs>
    <clipPath id="clip-path">
      <rect id="Rectángulo_415389" data-name="Rectángulo 415389" width="400" height="308" transform="translate(1020 1976)" fill="#fff" stroke="#707070" stroke-width="1" opacity="0.38"/>
    </clipPath>
    <clipPath id="clip-path-2">
      <rect id="Rectángulo_415721" data-name="Rectángulo 415721" width="280.229" height="300.543" fill="none"/>
    </clipPath>
    <clipPath id="clip-path-4">
      <rect id="Rectángulo_415716" data-name="Rectángulo 415716" width="165.37" height="217.738" fill="none"/>
    </clipPath>
    <clipPath id="clip-path-5">
      <rect id="Rectángulo_415718" data-name="Rectángulo 415718" width="9.036" height="33.738" fill="none"/>
    </clipPath>
    <clipPath id="clip-path-6">
      <rect id="Rectángulo_415719" data-name="Rectángulo 415719" width="29.684" height="13.434" fill="none"/>
    </clipPath>
    <clipPath id="clip-path-7">
      <rect id="Rectángulo_415737" data-name="Rectángulo 415737" width="366.169" height="213.002" fill="none"/>
    </clipPath>
    <clipPath id="clip-path-9">
      <rect id="Rectángulo_415726" data-name="Rectángulo 415726" width="11.868" height="2.653" fill="none"/>
    </clipPath>
    <clipPath id="clip-path-10">
      <rect id="Rectángulo_415727" data-name="Rectángulo 415727" width="11.126" height="3.025" fill="none"/>
    </clipPath>
    <clipPath id="clip-path-11">
      <rect id="Rectángulo_415728" data-name="Rectángulo 415728" width="10.592" height="8.992" fill="none"/>
    </clipPath>
    <clipPath id="clip-path-12">
      <rect id="Rectángulo_415729" data-name="Rectángulo 415729" width="26.828" height="3.329" fill="none"/>
    </clipPath>
    <clipPath id="clip-path-13">
      <rect id="Rectángulo_415730" data-name="Rectángulo 415730" width="5.276" height="2.009" fill="none"/>
    </clipPath>
    <clipPath id="clip-path-14">
      <rect id="Rectángulo_415731" data-name="Rectángulo 415731" width="3.916" height="3.896" fill="none"/>
    </clipPath>
  </defs>
  <g id="Enmascarar_grupo_1098742" data-name="Enmascarar grupo 1098742" transform="translate(-1020 -1976)" clip-path="url(#clip-path)">
    <g id="Grupo_1176273" data-name="Grupo 1176273" transform="translate(1079.886 1976.21)">
      <g id="Grupo_1176284" data-name="Grupo 1176284" clip-path="url(#clip-path-2)">
        <rect id="Rectángulo_415714" data-name="Rectángulo 415714" width="277.454" height="162.712" transform="translate(2.775 0.001)" fill="#b2b2b2"/>
        <rect id="Rectángulo_415715" data-name="Rectángulo 415715" width="270.279" height="155.605" transform="translate(6.363 3.553)" fill="#5c844c"/>
        <g id="Grupo_1176283" data-name="Grupo 1176283">
          <g id="Grupo_1176282" data-name="Grupo 1176282" clip-path="url(#clip-path-2)">
            <path id="Trazado_1033829" data-name="Trazado 1033829" d="M114.15,130.594c-9.341-7.592-18.636-15.229-27.3-23.683C77.713,98,70.116,87.786,62.558,77.4,56.828,69.525,51.572,61.292,46.4,53,42.1,46.1,37.98,38.972,33.415,32.23c-3.891-4.871-8.123-9.43-12.224-14.1-2.6-2.958-5.148-5.966-7.528-9.123-1.3-1.727-2.62-3.462-3.92-5.218H6.777V159.391H155.514a339.368,339.368,0,0,1-41.364-28.8" transform="translate(-0.415 -0.232)" fill="#4b6b3c"/>
            <path id="Trazado_1033830" data-name="Trazado 1033830" d="M81.659,92.993q-5.65,1.894-11.3,3.79A234.557,234.557,0,0,1,63.5,60.28q-.572-5.389-.9-10.8c-.063-1.053-1.727-1.061-1.663,0a237.107,237.107,0,0,0,5.409,38.065q1.2,5.289,2.638,10.52a.84.84,0,0,0,1.021.576q6.047-2.031,12.092-4.058c1.008-.337.576-1.929-.441-1.588" transform="translate(-3.729 -2.979)" fill="#e0e0e0"/>
            <path id="Trazado_1033831" data-name="Trazado 1033831" d="M97.151,90.176c-2.218,1.054-5.014,2.359-7.4,1A3.3,3.3,0,0,1,88.2,88.966q1.8-1.515,3.463-3.183a19.181,19.181,0,0,0,3.258-3.868,5.087,5.087,0,0,0,.482-4.373A3.534,3.534,0,0,0,92.048,75.3c-3.476.031-4.955,3.491-5.454,6.383a22.787,22.787,0,0,0-.279,5.712c.025.311.056.625.1.94a.714.714,0,0,0,.185,1.021,4.937,4.937,0,0,0,1.353,2.526,6.086,6.086,0,0,0,4.4,1.509A14.873,14.873,0,0,0,97.992,91.6c.964-.459.121-1.88-.84-1.424m-9.137-6.7c.219-2.211.713-5.675,3.273-6.412a2.023,2.023,0,0,1,2.538.973,3.5,3.5,0,0,1-.427,3.2,19.522,19.522,0,0,1-3.118,3.59q-1.132,1.124-2.334,2.176a21.6,21.6,0,0,1,.069-3.529" transform="translate(-5.277 -4.607)" fill="#e0e0e0"/>
            <path id="Trazado_1033832" data-name="Trazado 1033832" d="M110.168,82.349c-1.751-.89-3.905-1.55-4.944-3.346a2.222,2.222,0,0,1,.046-2.525,2.362,2.362,0,0,1,2.3-.907c1.042.228,1.488-1.36.441-1.588a4.06,4.06,0,0,0-4.466,2.162,4.44,4.44,0,0,0,1.418,5.119c1.571,1.435,3.652,1.972,5.417,3.1,1.217.776,2.792,2.706,1.67,4.17a2.537,2.537,0,0,1-2.486.713,7.376,7.376,0,0,1-3.109-1.809c-.811-.686-1.993.475-1.178,1.164,1.636,1.386,3.525,2.66,5.782,2.269a3.514,3.514,0,0,0,2.929-4.126c-.34-2.09-2.017-3.481-3.817-4.4" transform="translate(-6.314 -4.521)" fill="#e0e0e0"/>
            <path id="Trazado_1033833" data-name="Trazado 1033833" d="M122.616,82.46c-1.665-1.295-4.32-1.533-5.411-3.483a3.874,3.874,0,0,1,.77-4.749,3.125,3.125,0,0,1,3.111-.577,2.29,2.29,0,0,1,1.374,2.429c-.215,1.036,1.388,1.477,1.6.437a3.992,3.992,0,0,0-3.637-4.691,5.048,5.048,0,0,0-5.127,3.6,5.523,5.523,0,0,0,1.511,5.676,13.22,13.22,0,0,0,3.3,1.8,4.632,4.632,0,0,1,2.5,2.062,1.9,1.9,0,0,1-1.3,2.457c-1.415.573-3.047.013-4.423-.4a.825.825,0,0,0-.442,1.589c2.294.7,5.025,1.266,6.938-.6a3.273,3.273,0,0,0,1-2.838,4.373,4.373,0,0,0-1.765-2.709" transform="translate(-7.04 -4.394)" fill="#e0e0e0"/>
            <path id="Trazado_1033834" data-name="Trazado 1033834" d="M134.54,72.531a7.483,7.483,0,0,0-6.542,1.5,6.882,6.882,0,0,0-2.541,7.029c.615,2.709,2.928,6.1,6.092,5.978,3.013-.114,4.681-3.614,5.508-6.068.966-2.874.974-6.265-1.283-8.554a.8.8,0,0,0-1.234.11m1.225,6.922a12.86,12.86,0,0,1-1.233,3.169,5.538,5.538,0,0,1-2.234,2.6c-2.341,1.029-4.419-2.026-5.025-3.84a5.256,5.256,0,0,1,1.367-5.721,5.784,5.784,0,0,1,5.986-1.363.681.681,0,0,0,.526-.026,6.574,6.574,0,0,1,.613,5.184" transform="translate(-7.665 -4.416)" fill="#e0e0e0"/>
            <path id="Trazado_1033835" data-name="Trazado 1033835" d="M154.945,67.855q.2,5.389-.073,10.777-1.414-1.662-2.826-3.324c-.688-.808-1.373-1.617-2.062-2.425a15.186,15.186,0,0,0-1.888-2.1,2.953,2.953,0,0,0-2.111-.791,1.629,1.629,0,0,0-1.308.959.92.92,0,0,0-.877-.268.844.844,0,0,0-.58,1.013,124.215,124.215,0,0,1,1.119,13.17.833.833,0,0,0,1.665,0q.049-5.515.1-11.029.006-.649.012-1.3c0-.142-.084-.814.05-.91.262-.185.987.509,1.146.675,1.263,1.309,2.379,2.789,3.556,4.174l4.121,4.852c.5.591,1.376.066,1.419-.584a121.64,121.64,0,0,0,.2-12.885c-.039-1.057-1.7-1.063-1.662,0" transform="translate(-8.762 -4.103)" fill="#e0e0e0"/>
            <path id="Trazado_1033836" data-name="Trazado 1033836" d="M204.46,66.848q-3.785.49-7.541,1.161.231-2.371.529-4.737,1.543-.193,3.084-.412a.829.829,0,0,0,.581-1.014.855.855,0,0,0-1.023-.575q-1.212.172-2.427.328.47-3.519,1.08-7.02c.18-1.037-1.422-1.482-1.6-.438q-.663,3.82-1.17,7.666-2.854.337-5.719.582a56.564,56.564,0,0,1,.528-7.846.852.852,0,0,0-.58-1.014.839.839,0,0,0-1.023.575,59.9,59.9,0,0,0-.563,8.416q-3.787.289-7.584.418c-1.067.037-1.071,1.684,0,1.648q3.812-.13,7.612-.422.086,2.736.421,5.456-3.435.8-6.833,1.752a.825.825,0,0,0,.442,1.588q3.288-.925,6.618-1.7a58.349,58.349,0,0,0,2.015,8.7c.316,1.008,1.922.579,1.6-.438a57.844,57.844,0,0,1-2-8.631q2.076-.463,4.165-.869-.263,3.04-.428,6.088c-.055,1.06,1.607,1.057,1.665,0q.172-3.207.455-6.406,3.832-.7,7.7-1.2a.857.857,0,0,0,.833-.824.833.833,0,0,0-.833-.823m-13.778,2.405q-.321-2.6-.4-5.223,2.742-.235,5.479-.553-.3,2.418-.529,4.843-2.281.432-4.545.932" transform="translate(-11.027 -3.274)" fill="#e0e0e0"/>
            <path id="Trazado_1033837" data-name="Trazado 1033837" d="M235.867,82.3l-6.634.295a154.312,154.312,0,0,1,5.5-30.853c.392-1.372.833-2.729,1.235-4.1a4.786,4.786,0,0,0-.085-3.771.845.845,0,0,0-1.137-.3q-8.508,5.261-16.788,10.873c-.879.594-.049,2.023.838,1.422q7.835-5.309,15.877-10.305a6.878,6.878,0,0,1-.472,2.165q-.558,1.78-1.073,3.572-1.06,3.7-1.932,7.454-1.757,7.566-2.751,15.277-.562,4.3-.883,8.634l-12.807.568c-1.067.047-1.073,1.7,0,1.649l21.109-.939c1.066-.047,1.072-1.695,0-1.648" transform="translate(-13.091 -2.66)" fill="#e0e0e0"/>
            <g id="Grupo_1176275" data-name="Grupo 1176275" transform="translate(6.697 41.719)" opacity="0.2">
              <g id="Grupo_1176274" data-name="Grupo 1176274">
                <g id="Grupo_1176273-2" data-name="Grupo 1176273" clip-path="url(#clip-path-4)">
                  <path id="Trazado_1033838" data-name="Trazado 1033838" d="M143.548,98.082a2.767,2.767,0,0,0-2.662-2.747l31.617-50.9-38.1,52.2a1.838,1.838,0,0,0-1.944.607,12.666,12.666,0,0,1-4.836,3.85c-3.217.836-7.946,5.946-7.843,10.413a6.469,6.469,0,0,1-1.061,3.586,11.309,11.309,0,0,1-.159-2.159c-18.916,22.456-27.1,30.476-28.048,4.733.2-2.782.317-4.395.317-4.395a14.223,14.223,0,0,0-.4-3.5c0-.025,0-.05,0-.075l-.018,0c-1.8-7.148-9.09-10.8-15.543-12.1A14.905,14.905,0,0,0,67.2,94.856l-.015,1.1V94.823c4.118-1.506,7.165-6.74,7.165-11.83l-.2-9.342c2.168-.8,2.857-2.8,2.857-5.142,0-2.3-.669-4.271-2.748-5.1.315-9.03-5.609-14.358-14.773-14.358-9.979,0-13.206,4.318-14.981,8.452q-.2.435-.363.884c-.013.038-.029.076-.043.115a14.5,14.5,0,0,0-.831,4.734c-2.353.691-3.237,2.786-3.237,5.269,0,2.511.9,4.629,3.317,5.295v9.261c0,4.849,2.4,9.7,6.283,11.486V95.5a6.578,6.578,0,0,0-4.29,1.251l-.017-.038-7.452.729c-4.847.6-8.635,2.143-11.361,4.392A8.561,8.561,0,0,0,23.408,105q-1.024,1.812-2.046,3.605c-4.459,7.845-8.67,15.255-11.331,21.827-2.543,6.28-5.142,15.333.33,22.434,3.659,4.747,10.653,5.991,17.921,5.667l.158.989c1.354,11.459,1.127,14.118,1.431,19.663a11.867,11.867,0,0,0,2.179,1.284c.039.594.121,1.446.279,2.659l.386,4.569c-.2,12.107.088,23.073.088,23.073a440.734,440.734,0,0,0,1.574,51.4H53.772c.049-15.846.144-36.33.215-50.206.027-4.854.053-7.179.075-10.909q1.681.221,3.533.359c1.171.084,2.282.139,3.345.167-.134,4.083-.21,6.3-.252,10.762.024,13.634.151,33.41-.143,49.828H78.787c1.726-19.828,2.289-32.73,2.289-48.587l-.02-.089h.021c.192-7.15.362-13.982.559-20.189l.848-10.442h0l.215-2.652a14.432,14.432,0,0,0,4.977-2.7c.066-7.316.358-15.776.74-24.1C97.847,157.9,111.537,151.7,128,128.294a5.086,5.086,0,0,1-3.142-1.284l3.988-4.581a3.529,3.529,0,0,1,1.146-.636c4.925-2.555,7.837-3.4,10.371-4.954,1.954-1.2,2.159-2.7.973-4.6,2.228-1.45,2.413-3.877.439-5.494,2.039-2.3,1.706-3.364-.439-5.038a5,5,0,0,0,2.212-3.629" transform="translate(-7.134 -44.438)" fill="#1d1d1b"/>
                </g>
              </g>
            </g>
            <path id="Trazado_1033839" data-name="Trazado 1033839" d="M51.96,315.222a6.347,6.347,0,0,1-5.565,3.624c-2.846.272-7.652.6-11.983-1.907-2.86-1.654-3.333-3.558-3.981-5.639-1.208-5.663,1.587-7.6,2.8-9.17,1.737,2.649,4.129,3.356,7.312,1.714.97,2.86,8.053,5.138,10.282,4.818,2.438-.35,1.133,6.56,1.133,6.56" transform="translate(-1.844 -18.486)" fill="#161616"/>
            <path id="Trazado_1033840" data-name="Trazado 1033840" d="M51.823,312.737c-1.049,2.028-2.915,3.085-5.53,3.335-2.846.272-8.136.085-11.009-1.652a9.822,9.822,0,0,1-4.925-6.36c-.258-3.981,1.272-7.51,1.642-9.139,1.737,2.649,12.123,1.1,15.307-.545.307,2.5,0,5.334,1.887,6.648,4.663,3.244,2.627,7.715,2.627,7.715" transform="translate(-1.856 -18.257)" fill="#2c2c2d"/>
            <path id="Trazado_1033841" data-name="Trazado 1033841" d="M88.806,314.618a2.008,2.008,0,0,1-.6,1.1c-1.63,1.521-3.411,1.892-7.45,2.109a52.015,52.015,0,0,1-16.5-2.378c-4.83-1.6-7.16-3.094-8.684-4.994-.746-4.232.2-6.823,2.259-8.326,2.95,2.528,7.013,3.2,12.421,1.635,1.648,2.728,10.091,4.816,13.877,4.511,4.142-.334,5.616,2.605,4.676,6.344" transform="translate(-3.385 -18.486)" fill="#161616"/>
            <path id="Trazado_1033842" data-name="Trazado 1033842" d="M89.3,311.957c-1.781,1.934-4.86,2.97-9.3,3.209A46.156,46.156,0,0,1,64.48,312.75c-4.83-1.6-7.383-3.057-8.907-4.957-.746-4.232.2-6.824,2.258-8.326,2.951,2.528,7.014,3.2,12.422,1.635,1.647,2.728,9.127,4.948,12.912,4.643,4.142-.334,7.073,2.473,6.132,6.211" transform="translate(-3.385 -18.323)" fill="#2c2c2d"/>
            <path id="Trazado_1033843" data-name="Trazado 1033843" d="M25.927,181.418l1.241,14.663c-.2,12.108.086,23.074.086,23.074-1.07,30.452,2.333,60.529,3.826,73.587,4.994,2,11.416,1.276,17.124-.979-.057-9.777.122-49.122.236-71.412.028-4.853.053-7.179.075-10.908q1.681.22,3.533.358c1.17.084,2.282.139,3.345.168-.134,4.083-.209,6.3-.251,10.762.037,21.1.322,56.92-1.091,72.223a21.292,21.292,0,0,0,17.061.011c3.419-34,4.415-49.871,4.415-70.995-.006-.03-.012-.059-.018-.089l.02,0c.192-7.151.361-13.983.558-20.19l1.647-20.275Z" transform="translate(-1.586 -11.1)" fill="#3f3a48"/>
            <path id="Trazado_1033844" data-name="Trazado 1033844" d="M26.816,191.912s24.868,6.532,50.154-.262l.225-3.633-50.672-.06a16.8,16.8,0,0,0,.293,3.955" transform="translate(-1.622 -11.5)" fill="#2c2835"/>
            <path id="Trazado_1033845" data-name="Trazado 1033845" d="M49.436,294.889l-.528,5.485c-6.559,2.933-11.977,2.8-18.353,0l.044-5.485c6.209,1.425,11.717,1.2,18.836,0" transform="translate(-1.87 -18.043)" fill="#2c2835"/>
            <path id="Trazado_1033846" data-name="Trazado 1033846" d="M74.439,295.37l-.527,5.484c-4.213,3.216-11.977,2.8-18.354,0l.305-5.964a43.98,43.98,0,0,0,18.575.481" transform="translate(-3.399 -18.043)" fill="#2c2835"/>
            <path id="Trazado_1033847" data-name="Trazado 1033847" d="M118.647,117.4s1.856.029,6.469,7.559c4.321,7.056,2.966,7.8,2.966,7.8s-3.67.5-7.631-4.662-2.23-10.484-1.8-10.7" transform="translate(-7.214 -7.183)" fill="#182138"/>
            <path id="Trazado_1033848" data-name="Trazado 1033848" d="M129.351,107.572l-9.72,11.664,4.577,8.173,15.535-7.1v-16.4Z" transform="translate(-7.32 -6.358)" fill="#9b472a"/>
            <path id="Trazado_1033849" data-name="Trazado 1033849" d="M124.9,110.318a2.822,2.822,0,0,0,.224,3.617,3.177,3.177,0,0,0,4.966-.452l42.891-69.045Z" transform="translate(-7.608 -2.719)" fill="#54443b"/>
            <path id="Trazado_1033850" data-name="Trazado 1033850" d="M141.243,105.028a5,5,0,0,0,2.212-3.629,2.833,2.833,0,0,0-3.374-2.723l-2.853.442a2.783,2.783,0,0,0-2.417,2.7,2.812,2.812,0,0,0,2.88,2.739h.94l-6.77,2.983a2.353,2.353,0,0,0-1.437,2.14,2.46,2.46,0,0,0,3.232,2.247l1.6-.484-3.985,1.955a2.275,2.275,0,0,0-1.3,2.1,2.384,2.384,0,0,0,2.969,2.161l4.02-.921c-1.652.68-2.7.669-4.147,1.643-.7.472-1.715,2.989,1.412,3.166-1.629,1.412-3.68.529-4.522.863-.647.257-2.1.657-2.738.913-1.389.555-3.4-.482-4.586-2.217-.749-1.1-.377-2.381.061-3.634,1.871-5.348,6.672-8.37,11.541-12.4a2.175,2.175,0,0,0-.358-3.188c-.913-.69-2.441-.821-3.076.11a12.666,12.666,0,0,1-4.836,3.85c-3.217.836-6.117,4.515-6.014,8.983a6.907,6.907,0,0,1-1.9,4.695l-2.723,3.039,7.881,9.852,5.8-6.664a3.524,3.524,0,0,1,1.147-.636c4.924-2.556,7.836-3.4,10.37-4.954,1.954-1.2,2.16-2.7.973-4.6,2.229-1.45,2.413-3.877.439-5.494,2.039-2.3,1.706-3.364-.439-5.038" transform="translate(-7.041 -6.035)" fill="#af5936"/>
            <path id="Trazado_1033851" data-name="Trazado 1033851" d="M115.812,117.187c-20.654,24.519-28.526,31.832-28.147-3.229l-15.99,3.229c-1.747,39.593,20.221,62.763,53.572,15.361-5.047,0-9.615-10.406-9.435-15.361" transform="translate(-4.38 -6.973)" fill="#1e2744"/>
            <rect id="Rectángulo_415717" data-name="Rectángulo 415717" width="17.549" height="25.803" transform="translate(42.506 73.14)" fill="#af5936"/>
            <path id="Trazado_1033852" data-name="Trazado 1033852" d="M72.122,102.323c-.83-.556-10.257-3.1-10.359-3.005C61.7,101.49,60.1,103.2,57.4,104.576a19.144,19.144,0,0,1-13.328-4.693,79.084,79.084,0,0,1-15.914,2.395c-.562.037,0,79.564,0,79.564s20.775,2.148,29.983,1.975a92.352,92.352,0,0,0,19.241-2.9Z" transform="translate(-1.708 -6.077)" fill="#fff"/>
            <path id="Trazado_1033853" data-name="Trazado 1033853" d="M61.527,182.907l1.878,0c-.786-9.292-1.993-38.715-2.251-58.313a154.717,154.717,0,0,0-1.44-19.821l-.832.27.416-.135-.424.1c.069.334.695,8.382.931,19.467.384,18.053.707,45.177,1.723,58.428" transform="translate(-3.602 -6.411)" fill="#e1e7f1"/>
            <g id="Grupo_1176278" data-name="Grupo 1176278" transform="translate(53.387 106.982)" opacity="0.2">
              <g id="Grupo_1176277" data-name="Grupo 1176277">
                <g id="Grupo_1176276" data-name="Grupo 1176276" clip-path="url(#clip-path-5)">
                  <path id="Trazado_1033854" data-name="Trazado 1033854" d="M57.454,113.955l-.587,23,5.4,10.738L65.9,136.486l-4.592-22.517Z" transform="translate(-56.867 -113.955)" fill="#1d1d1b"/>
                </g>
              </g>
            </g>
            <path id="Trazado_1033855" data-name="Trazado 1033855" d="M58.079,112.98l-.587,23,5.4,10.738,3.638-11.208-4.592-22.517Z" transform="translate(-3.518 -6.913)" fill="#11588e"/>
            <path id="Trazado_1033856" data-name="Trazado 1033856" d="M55.924,112.611s.475,1.944,3.546,1.944c3.266,0,3.9-1.91,4.2-2.728l-4.549-6.908Z" transform="translate(-3.422 -6.42)" fill="#0b4a70"/>
            <path id="Trazado_1033857" data-name="Trazado 1033857" d="M56.059,112.3s.347,1.884,3.418,1.884c3.266,0,3.711-1.834,4.008-2.652l-4.359-6.618Z" transform="translate(-3.43 -6.42)" fill="#11588e"/>
            <path id="Trazado_1033858" data-name="Trazado 1033858" d="M63.684,99.319c-.115,1.951-1.216,3.5-4.359,5.257l4.789,7.272c5.079-3.379,6.094-7.6,5.533-10.972Z" transform="translate(-3.63 -6.077)" fill="#e1e7f1"/>
            <path id="Trazado_1033859" data-name="Trazado 1033859" d="M58.072,104.613l-3.411,8.214c-8.616-1.438-13.6-5.88-15.828-11.646l5.911-1.26a20.052,20.052,0,0,0,13.328,4.692" transform="translate(-2.376 -6.114)" fill="#e1e7f1"/>
            <g id="Grupo_1176281" data-name="Grupo 1176281" transform="translate(36.457 93.806)" opacity="0.2">
              <g id="Grupo_1176280" data-name="Grupo 1176280">
                <g id="Grupo_1176279" data-name="Grupo 1176279" clip-path="url(#clip-path-6)">
                  <path id="Trazado_1033860" data-name="Trazado 1033860" d="M68.393,101.477,62.43,99.92c-.11,1.876-1.093,3.2-4.358,4.693-4.547.014-9.674-.986-13.328-4.128l-5.911,1.261c2.226,5.765,7.691,10.17,16.307,11.608l2.644-6.367a.6.6,0,0,1,1.064-.1l3.774,5.73c5.078-3.378,6.332-7.77,5.772-11.139" transform="translate(-38.833 -99.92)" fill="#1d1d1b"/>
                </g>
              </g>
            </g>
            <path id="Trazado_1033861" data-name="Trazado 1033861" d="M63.684,99.319c-.115,1.951-1.216,3.5-4.359,5.257l4.789,7.272c5.079-3.379,6.094-7.6,5.533-10.972L65.3,99.5Z" transform="translate(-3.63 -6.077)" fill="#e1e7f1"/>
            <path id="Trazado_1033862" data-name="Trazado 1033862" d="M58.072,104.613l-3.411,8.214c-8.616-1.438-13.6-5.88-15.828-11.646l5.911-1.26a20.052,20.052,0,0,0,13.328,4.692" transform="translate(-2.376 -6.114)" fill="#e1e7f1"/>
            <path id="Trazado_1033863" data-name="Trazado 1033863" d="M56.622,137.842l-17.5-37.727-7.451.729C19.316,102.38,13.8,109.987,15.4,119.974l6.829,42.957c1.354,11.46,1.127,14.118,1.43,19.663,5.268,4.013,18.251,4.784,32.959,3.322Z" transform="translate(-0.926 -6.126)" fill="#1b4372"/>
            <path id="Trazado_1033864" data-name="Trazado 1033864" d="M70.34,100.79c.678,5.409,2.141,13.013,1.477,20.589a120.111,120.111,0,0,1-4.242,23.474c-.007.022-.01.038-.01.038l.222,40.081c9.271.637,14.843-2.138,16.887-4.008.228-25.294,3.161-64.246,3.161-64.246.062-10.193-9.744-14.791-17.5-15.929" transform="translate(-4.134 -6.167)" fill="#1b4372"/>
            <path id="Trazado_1033865" data-name="Trazado 1033865" d="M63.968,99.247c7.166.748,8.8,18.6,3.377,45.484l8.677-25.775-2.687-4.664s1.679.767,3.9,1.5c2.493-11.97-7.7-17.489-13.265-17.649Z" transform="translate(-3.914 -6.005)" fill="#1e2744"/>
            <path id="Trazado_1033866" data-name="Trazado 1033866" d="M44.807,98.823v1.148C37.38,100.9,49.673,115.43,58,137.763L44.323,121.075l1.831-4.23-2.974,1.992C34.1,109.1,37.2,98.5,44.807,98.823" transform="translate(-2.301 -6.046)" fill="#1e2744"/>
            <path id="Trazado_1033867" data-name="Trazado 1033867" d="M84.5,131.539l-.014,6.651a4.753,4.753,0,0,1-3.817,4.894l-1.181.165c-2.9.407-5.394-2.124-5.312-5.4l.16-6.277Z" transform="translate(-4.538 -8.048)" fill="#11588e"/>
            <path id="Trazado_1033868" data-name="Trazado 1033868" d="M35.741,183.328H46.6a4.945,4.945,0,0,0,4.945-4.945V163.736H30.8v14.647a4.945,4.945,0,0,0,4.945,4.945" transform="translate(-1.884 -10.018)" fill="#11588e"/>
            <path id="Trazado_1033869" data-name="Trazado 1033869" d="M59.981,144.2a1.82,1.82,0,0,0,1.068-1.757l0-.03a1.83,1.83,0,0,0-1.961-1.727l-6.068.643,2.609-1.947,3.67-1.158c.606-.178,2.367-1.109,1.756-2.736-.918-1.779-2.807-1.241-4.392-.323l-3.12.61a73.074,73.074,0,0,1-7.766,3.606c-3.153,1.89-2.68,3.39-4.145,6.305l-3.386.99L42.8,157.066l6.829-1.635a18.162,18.162,0,0,0,5.082-1.3c3.744-.358,3.538-3.121,2.432-2.914,3.041-.3,2.086-2.871,1.576-3.048a1.791,1.791,0,0,0,1.778-1.837c-.008-.127-.016-.254-.024-.381a1.459,1.459,0,0,0-1.125-1.274c-.04-.011-.063-.027-.063-.05,0-.091.317-.252.7-.422" transform="translate(-2.34 -8.219)" fill="#af5936"/>
            <path id="Trazado_1033870" data-name="Trazado 1033870" d="M34.618,142.3c-12.944,3.959-14.9,3.258-17.284,3.062a34.113,34.113,0,0,1,2.621-7.3c2.314-5.062,5.688-11,9.26-17.282q1.029-1.81,2.066-3.643a8.618,8.618,0,0,0-15.005-8.479q-1.025,1.812-2.046,3.605C9.77,120.115,5.559,127.524,2.9,134.1c-2.543,6.279-5.142,15.332.33,22.434,7.051,9.152,26.509,5.286,36.431,2.251,4.551-1.391-.491-17.875-5.041-16.482" transform="translate(0 -6.381)" fill="#1e2744"/>
            <path id="Trazado_1033871" data-name="Trazado 1033871" d="M72.027,68.832c0-2.342-.69-4.343-2.857-5.141V62.4C69.145,55.73,62.811,49.706,55,49.706H52.516c-7.814,0-14.148,6.024-14.148,13.455v.376c-2.415.666-3.318,2.784-3.318,5.295s.9,4.629,3.318,5.294v4.1S38.3,95.1,53.467,95.1c15.7,0,15.7-16.9,15.7-16.9V73.973c2.167-.8,2.857-2.8,2.857-5.141" transform="translate(-2.145 -3.041)" fill="#af5936"/>
            <path id="Trazado_1033872" data-name="Trazado 1033872" d="M47.22,97.123a27.458,27.458,0,0,0,13.5,0c4.947-.507,8.856-6.461,8.856-12.226l-.194-9.343c-.008,2.923-5.226,9.856-7.943,7.706l-.4-.433c-3.894-4.3-8.7-4.762-13.83,0l-.47.49c-3.407,1.931-7.758-5.6-8.16-7.609v9.261c0,5.764,3.386,11.528,8.636,12.154" transform="translate(-2.361 -4.623)" fill="#2a1301"/>
            <path id="Trazado_1033873" data-name="Trazado 1033873" d="M39.039,69.7s-1.414-6.484.289-10.889,4.6-9.451,15.387-9.451c10.612,0,16.887,7.139,14.15,18.9h-.638s-.7-7.712-3.653-9.395c-3.641,3.683-14.41,3.48-20.442,0,0,0-3.433,1.943-4.494,10.83Z" transform="translate(-2.355 -3.02)" fill="#2a1301"/>
            <path id="Trazado_1033874" data-name="Trazado 1033874" d="M70.042,68.975s.836,7.24-1.017,11.049a5.476,5.476,0,0,0,2.224-4.871,48.584,48.584,0,0,1-.47-5.892Z" transform="translate(-4.223 -4.22)" fill="#2a1301"/>
            <path id="Trazado_1033875" data-name="Trazado 1033875" d="M39.816,68.975s-.836,7.24,1.017,11.049a5.476,5.476,0,0,1-2.224-4.871,48.584,48.584,0,0,0,.47-5.892Z" transform="translate(-2.362 -4.22)" fill="#2a1301"/>
            <path id="Trazado_1033876" data-name="Trazado 1033876" d="M51.975,77.221c-.517,0-.768.879-.407,1.4a3.615,3.615,0,0,0,6.377,0c.361-.526.11-1.4-.407-1.4h-.077c-.31,0-.565-.345-.578-.785l-1-3.353c-.013-.438-.269-.785-.578-.785H54.2a.591.591,0,0,0-.512.437l-1.2,4.046a.589.589,0,0,1-.512.438Z" transform="translate(-3.145 -4.424)" fill="#9b472a"/>
            <path id="Trazado_1033877" data-name="Trazado 1033877" d="M60.143,84.917c0,1.42-2.382,3.89-5.393,3.885-3.026,0-5.053-2.416-5.244-3.911a1.84,1.84,0,0,1-.016-.248,26.919,26.919,0,0,0,10.624.02.871.871,0,0,1,.023.137,1.118,1.118,0,0,1,.007.117" transform="translate(-3.028 -5.179)" fill="#fff"/>
            <path id="Trazado_1033878" data-name="Trazado 1033878" d="M60.143,84.917c0,1.42-2.339,4.289-5.349,4.284a5.736,5.736,0,0,1-5.287-4.31,1.84,1.84,0,0,1-.016-.248,7.145,7.145,0,0,0,10.624.02.871.871,0,0,1,.023.137,1.118,1.118,0,0,1,.007.117" transform="translate(-3.028 -5.179)" fill="#c63300"/>
            <path id="Trazado_1033879" data-name="Trazado 1033879" d="M48.49,72.472c0,.8-.4,1.45-.894,1.45s-.894-.649-.894-1.45.4-1.45.894-1.45.894.649.894,1.45" transform="translate(-2.858 -4.346)" fill="#2a1301"/>
            <path id="Trazado_1033880" data-name="Trazado 1033880" d="M47.9,71.893a.26.26,0,1,1-.26-.259.26.26,0,0,1,.26.259" transform="translate(-2.899 -4.383)" fill="#fff"/>
            <path id="Trazado_1033881" data-name="Trazado 1033881" d="M63.05,72.472c0,.8-.4,1.45-.894,1.45s-.894-.649-.894-1.45.4-1.45.894-1.45.894.649.894,1.45" transform="translate(-3.748 -4.346)" fill="#2a1301"/>
            <path id="Trazado_1033882" data-name="Trazado 1033882" d="M62.457,71.893a.259.259,0,1,1-.259-.259.26.26,0,0,1,.259.259" transform="translate(-3.79 -4.383)" fill="#fff"/>
            <path id="Trazado_1033883" data-name="Trazado 1033883" d="M64.953,69.382a.522.522,0,0,1-.342-.127,3.654,3.654,0,0,0-5.213-.032.522.522,0,0,1-.749-.727,4.744,4.744,0,0,1,6.646-.031.522.522,0,0,1-.342.916" transform="translate(-3.579 -4.106)" fill="#2a1301"/>
            <path id="Trazado_1033884" data-name="Trazado 1033884" d="M50.393,69.376a.519.519,0,0,1-.356-.14A3.806,3.806,0,0,0,47.3,68.042,3.914,3.914,0,0,0,44.85,69.2a.522.522,0,0,1-.775-.7A4.926,4.926,0,0,1,47.248,67a4.79,4.79,0,0,1,3.5,1.474.522.522,0,0,1-.356.9" transform="translate(-2.689 -4.099)" fill="#2a1301"/>
          </g>
        </g>
      </g>
    </g>
    <g id="Grupo_1176274-2" data-name="Grupo 1176274" transform="translate(1035.511 2114.542)">
      <g id="Grupo_1176306" data-name="Grupo 1176306" clip-path="url(#clip-path-7)">
        <g id="Grupo_1176305" data-name="Grupo 1176305">
          <g id="Grupo_1176304" data-name="Grupo 1176304" clip-path="url(#clip-path-7)">
            <path id="Trazado_1033885" data-name="Trazado 1033885" d="M366.169,203.745,304.235,157.68H282.764c2.316-1.859,3.613-3.94,3.613-6.136,0-7.9-16.787-14.311-37.5-14.311s-37.494,6.408-37.494,14.311c0,2.2,1.3,4.277,3.614,6.136H150.325c2.318-1.859,3.615-3.94,3.615-6.136,0-7.9-16.789-14.311-37.5-14.311S78.95,143.641,78.95,151.544c0,2.2,1.3,4.277,3.613,6.136H61.933L0,203.745H48.617a10.1,10.1,0,0,0-1.839,5.643c0,4.464,3.337,8.6,9.028,12.01h83.06c5.69-3.406,9.028-7.546,9.028-12.01a10.111,10.111,0,0,0-1.839-5.643H213.64a10.111,10.111,0,0,0-1.839,5.643c0,4.464,3.337,8.6,9.028,12.01h83.06c5.69-3.406,9.028-7.546,9.028-12.01a10.111,10.111,0,0,0-1.839-5.643Z" transform="translate(0 -8.397)" fill="#5f6275" opacity="0.49"/>
            <path id="Trazado_1033886" data-name="Trazado 1033886" d="M119.938,107.446h0a2.874,2.874,0,0,1-2.874-2.874V69.425a2.874,2.874,0,0,1,5.747,0v35.147a2.874,2.874,0,0,1-2.874,2.874" transform="translate(-7.163 -4.072)" fill="#9d9d9c"/>
            <path id="Trazado_1033887" data-name="Trazado 1033887" d="M166.729,107.446h0a2.874,2.874,0,0,1-2.874-2.874V69.425a2.874,2.874,0,0,1,5.747,0v35.147a2.874,2.874,0,0,1-2.874,2.874" transform="translate(-10.026 -4.072)" fill="#9d9d9c"/>
            <path id="Trazado_1033888" data-name="Trazado 1033888" d="M119.938,66.551h0a2.874,2.874,0,0,0-2.874,2.874v35.147a2.874,2.874,0,0,0,2.874,2.874Z" transform="translate(-7.163 -4.072)" fill="#b2b2b2"/>
            <path id="Trazado_1033889" data-name="Trazado 1033889" d="M166.729,66.551h0a2.874,2.874,0,0,0-2.874,2.874v35.147a2.874,2.874,0,0,0,2.874,2.874Z" transform="translate(-10.026 -4.072)" fill="#b2b2b2"/>
            <path id="Trazado_1033890" data-name="Trazado 1033890" d="M112.212,154.523h-.492a2.627,2.627,0,0,1-2.627-2.627V113.63h5.746V151.9a2.627,2.627,0,0,1-2.627,2.627" transform="translate(-6.675 -6.953)" fill="#9d9d9c"/>
            <path id="Trazado_1033891" data-name="Trazado 1033891" d="M174.946,154.523h-.492a2.627,2.627,0,0,1-2.627-2.627V113.63h5.746V151.9a2.627,2.627,0,0,1-2.627,2.627" transform="translate(-10.514 -6.953)" fill="#9d9d9c"/>
            <path id="Trazado_1033892" data-name="Trazado 1033892" d="M111.967,113.63h-2.873V151.9a2.627,2.627,0,0,0,2.627,2.627h.246Z" transform="translate(-6.675 -6.953)" fill="#b2b2b2"/>
            <rect id="Rectángulo_415722" data-name="Rectángulo 415722" width="5.745" height="3.66" transform="translate(102.419 106.677)" fill="#706f6f"/>
            <path id="Trazado_1033893" data-name="Trazado 1033893" d="M174.7,113.63h-2.873V151.9a2.627,2.627,0,0,0,2.627,2.627h.246Z" transform="translate(-10.514 -6.953)" fill="#b2b2b2"/>
            <rect id="Rectángulo_415723" data-name="Rectángulo 415723" width="5.745" height="3.66" transform="translate(161.314 106.677)" fill="#706f6f"/>
            <path id="Trazado_1033894" data-name="Trazado 1033894" d="M161.935,38.476H120.369c-8.591,0-15.555,6.651-15.555,14.858V75.677a14.388,14.388,0,0,0,3.235,9.07A15.642,15.642,0,0,0,122,93.025H160.3a15.64,15.64,0,0,0,13.949-8.278,14.377,14.377,0,0,0,3.235-9.07V53.334c0-8.207-6.964-14.858-15.553-14.858" transform="translate(-6.413 -2.354)" fill="#3e6380"/>
            <path id="Trazado_1033895" data-name="Trazado 1033895" d="M173.09,112.984H109.214a4.4,4.4,0,0,1-4.4-4.4v-1.115a4.4,4.4,0,0,1,4.4-4.4H173.09a4.4,4.4,0,0,1,4.4,4.4v1.115a4.4,4.4,0,0,1-4.4,4.4" transform="translate(-6.413 -6.306)" fill="#3d4a6a"/>
            <path id="Trazado_1033896" data-name="Trazado 1033896" d="M151.019,130.21h0a5.089,5.089,0,0,0,1.212-3.3l.164-7.577a2.245,2.245,0,0,0-2.2-2.292l-1.766-.035a2.243,2.243,0,0,0-2.281,2.077l-.566,7.621a4.583,4.583,0,0,0,.837,3l.226.317a2.775,2.775,0,0,0,4.373.188" transform="translate(-8.907 -7.159)" fill="#26291f"/>
            <path id="Trazado_1033897" data-name="Trazado 1033897" d="M151.019,129.056h0a5.089,5.089,0,0,0,1.212-3.3l.164-7.577a2.245,2.245,0,0,0-2.2-2.292l-1.766-.035a2.243,2.243,0,0,0-2.281,2.077l-.566,7.621a4.583,4.583,0,0,0,.837,3l.226.317a2.774,2.774,0,0,0,4.373.188" transform="translate(-8.907 -7.089)" fill="#3d4a6a"/>
            <path id="Trazado_1033898" data-name="Trazado 1033898" d="M150.745,88.929a2.946,2.946,0,0,0-3.092,2.8l-1.378,27.491a2.948,2.948,0,0,0,2.8,3.092c.05,0,.1,0,.149,0a2.947,2.947,0,0,0,2.942-2.8l1.378-27.491a2.948,2.948,0,0,0-2.8-3.092" transform="translate(-8.95 -5.441)" fill="#ffbf94"/>
            <path id="Trazado_1033899" data-name="Trazado 1033899" d="M137.436,128.461h0a5.089,5.089,0,0,0,.84-3.41L137.6,117.5a2.242,2.242,0,0,0-2.437-2.034l-1.759.161a2.242,2.242,0,0,0-2.038,2.315l.279,7.637a4.581,4.581,0,0,0,1.163,2.886l.259.29a2.774,2.774,0,0,0,4.367-.3" transform="translate(-8.038 -7.064)" fill="#26291f"/>
            <path id="Trazado_1033900" data-name="Trazado 1033900" d="M137.308,127.313h0a5.083,5.083,0,0,0,.84-3.41l-.674-7.549a2.242,2.242,0,0,0-2.437-2.034l-1.759.161a2.242,2.242,0,0,0-2.038,2.315l.279,7.638a4.58,4.58,0,0,0,1.163,2.885l.259.291a2.775,2.775,0,0,0,4.367-.3" transform="translate(-8.03 -6.994)" fill="#3d4a6a"/>
            <path id="Trazado_1033901" data-name="Trazado 1033901" d="M135.754,90.156a2.948,2.948,0,0,0-5.883.406l1.9,27.519a2.949,2.949,0,0,0,2.938,2.746c.068,0,.137,0,.206-.008a2.948,2.948,0,0,0,2.739-3.143Z" transform="translate(-7.946 -5.348)" fill="#ffbf94"/>
            <path id="Trazado_1033902" data-name="Trazado 1033902" d="M152.136,53.258l.606-5.35-8.835-.974L143.3,52.31c-2.628.695-4.5,2.269-4.674,4.246-.263,2.941,3.314,5.656,7.988,6.067s8.677-1.642,8.94-4.582c.166-1.86-1.205-3.629-3.417-4.782" transform="translate(-8.481 -2.872)" fill="#ffbf94"/>
            <path id="Trazado_1033903" data-name="Trazado 1033903" d="M153.05,47.613l-.424,3.743a10.76,10.76,0,0,1-8.834-.973l.565-4.991Z" transform="translate(-8.798 -2.777)" fill="#e5a173"/>
            <path id="Trazado_1033904" data-name="Trazado 1033904" d="M153.058,81.82l4.335-11.73c.952-2.29,1.957-5.42,1.668-7.883-.487-4.151-2.086-6.193-7.089-8.218a6.4,6.4,0,0,1-6.506,2.484c-2.126-.437-4.3-1.759-5.089-3.562-7.285,1.239-9.261,1.772-10.985,8.623-.54,4.033.576,15.156.751,18.678,0,0-9.255,1.06-13.512,8.057,0,0,22.084,15.33,50.081.116a70.949,70.949,0,0,0-13.654-6.565" transform="translate(-7.136 -3.237)" fill="#5bc2ef"/>
            <path id="Trazado_1033905" data-name="Trazado 1033905" d="M141.676,52.857a16.087,16.087,0,0,0-3.3.61,10.706,10.706,0,0,0,3.813,5.9,1.919,1.919,0,0,0,2.515-.151l2.7-2.7,2.39,3.221a1.5,1.5,0,0,0,1.878.436c2.4-1.236,4.236-2.768,4.657-4.746a17.928,17.928,0,0,0-3.053-1.495c-3.846,2.759-7.713,2.137-11.6-1.078" transform="translate(-8.467 -3.234)" fill="#fff"/>
            <path id="Trazado_1033906" data-name="Trazado 1033906" d="M173.944,54.03c-3.99-2.133-1.035-15.855-8.309-15.133,14.231-15.261-4.946-37.416-19.45-30.218-8.1-3.589-23.3,12.916-15.278,26.052-6.49.968-14.953,10.4-4.718,16.983-.43-5.276,10.145-5.271,6.774-14.029,0,0,3.6,6.822,14.089,8.127,12.907,1.606,15.327-5.085,15.327-5.085-2.894,5.579.725,15.6,11.565,13.3" transform="translate(-7.429 -0.445)" fill="#3c3d42"/>
            <path id="Trazado_1033907" data-name="Trazado 1033907" d="M167.368,34.627c.118-.581.208-1.158.273-1.724.858-7.57-1.779-19.921-16.278-20.225C137.4,12.386,132.775,21.4,131.917,28.97c-.062.548-.1,1.111-.117,1.683a2.214,2.214,0,1,0-.407,4.41,2.365,2.365,0,0,0,.771-.043c1.22,6.145,5.62,12.19,15.647,13.294,10,1.1,15.623-3.779,18.2-9.467a2.391,2.391,0,0,0,.344.067,2.264,2.264,0,0,0,2.527-1.951,2.222,2.222,0,0,0-1.512-2.335" transform="translate(-7.915 -0.775)" fill="#ffbf94"/>
            <path id="Trazado_1033908" data-name="Trazado 1033908" d="M157.419,18.245c-.56,9.946,11.987,9.044,10.092,16.182,1.8-6.317,2.125-12.091-2.739-19.181-2.393-3.666-8.785-5.9-15.242-5.825a19.2,19.2,0,0,0-9.663,2.875,17.3,17.3,0,0,0-8.183,14.8v3.324c1.3-11.505,22.044-1.93,25.734-12.176" transform="translate(-8.057 -0.576)" fill="#3c3d42"/>
            <path id="Trazado_1033909" data-name="Trazado 1033909" d="M149.741,36.586a1.019,1.019,0,0,1-.852-.627.277.277,0,0,1,.317-.353,3,3,0,0,0,1.276.141.275.275,0,0,1,.231.413,1.029,1.029,0,0,1-.972.426" transform="translate(-9.109 -2.178)" fill="#e5a173"/>
            <path id="Trazado_1033910" data-name="Trazado 1033910" d="M141.458,34.878c.162-.95-.757-1.893-2.053-2.106s-2.48.385-2.643,1.335.757,1.894,2.053,2.106,2.48-.385,2.643-1.335" transform="translate(-8.367 -2.003)" fill="#fc7e72"/>
            <path id="Trazado_1033911" data-name="Trazado 1033911" d="M162.076,37.415c.109-.958-.863-1.85-2.169-1.995s-2.454.516-2.563,1.474.863,1.85,2.17,1.995,2.453-.516,2.562-1.474" transform="translate(-9.627 -2.166)" fill="#fc7e72"/>
            <path id="Trazado_1033912" data-name="Trazado 1033912" d="M142.375,30.429c-.045.786.337,1.448.855,1.478s.975-.582,1.02-1.368-.338-1.449-.855-1.479-.974.583-1.02,1.369" transform="translate(-8.711 -1.778)" fill="#1c1c1c"/>
            <path id="Trazado_1033913" data-name="Trazado 1033913" d="M156.867,32.256c-.045.786.338,1.448.855,1.478s.974-.582,1.02-1.369-.338-1.448-.855-1.478-.974.583-1.02,1.369" transform="translate(-9.598 -1.89)" fill="#1c1c1c"/>
            <path id="Trazado_1033914" data-name="Trazado 1033914" d="M160.118,30.135a.269.269,0,0,1-.231-.131,2.8,2.8,0,0,0-2.544-1.445.268.268,0,0,1-.264-.271.271.271,0,0,1,.271-.265,3.338,3.338,0,0,1,3,1.707.268.268,0,0,1-.23.406" transform="translate(-9.611 -1.715)" fill="#3c3d42"/>
            <path id="Trazado_1033915" data-name="Trazado 1033915" d="M141.543,27.948a.268.268,0,0,1-.194-.453,3.351,3.351,0,0,1,3.3-1.012.268.268,0,1,1-.11.524,2.815,2.815,0,0,0-2.806.857.268.268,0,0,1-.194.084" transform="translate(-8.644 -1.615)" fill="#3c3d42"/>
            <path id="Trazado_1033916" data-name="Trazado 1033916" d="M143.685,40.2c.977,3.957,8.7,5.547,11.066,1.435Z" transform="translate(-8.792 -2.46)" fill="#fff"/>
            <path id="Trazado_1033917" data-name="Trazado 1033917" d="M149.937,44.3a8.172,8.172,0,0,1-1.129-.079c-2.279-.32-4.833-1.672-5.4-3.969a.268.268,0,0,1,.52-.129c.507,2.054,2.854,3.272,4.954,3.567,1.947.273,4.447-.161,5.62-2.2a.268.268,0,1,1,.465.267,5.564,5.564,0,0,1-5.029,2.543" transform="translate(-8.774 -2.442)" fill="#fc7e72"/>
            <path id="Trazado_1033918" data-name="Trazado 1033918" d="M109.331,44.912l2.56-1.066c-.3,1.535,3.443,2.06,6.835,3.518,5.552,2.173,8.887,7.108,8.341,12.988l-3.23-.686Z" transform="translate(-6.69 -2.683)" fill="#fff"/>
            <path id="Trazado_1033919" data-name="Trazado 1033919" d="M107.373,45.675l2.56-1.066c-.3,1.536,3.443,2.06,6.836,3.518,5.552,2.173,8.887,7.108,8.341,12.988l-3.23-.686Z" transform="translate(-6.57 -2.729)" fill="#edeceb"/>
            <path id="Trazado_1033920" data-name="Trazado 1033920" d="M128.225,59.573c7.322-7.486,16.434-9.615,27.222-6.729a34.415,34.415,0,0,0,12.232,1.2L167.27,55.8l-37.3,5.525Z" transform="translate(-7.846 -3.158)" fill="#fff"/>
            <path id="Trazado_1033921" data-name="Trazado 1033921" d="M128.225,61.367c7.322-7.485,16.434-9.615,27.222-6.729a34.415,34.415,0,0,0,12.232,1.2L167.27,57.6l-37.3,5.525Z" transform="translate(-7.846 -3.267)" fill="#edeceb"/>
            <path id="Trazado_1033922" data-name="Trazado 1033922" d="M107.373,45.7l1.838-.716L124.326,59.46l-2.52.353Z" transform="translate(-6.57 -2.752)" fill="#d8d8d8"/>
            <path id="Trazado_1033923" data-name="Trazado 1033923" d="M130.173,60.542l41.071-5.45-.36,2.09-39.029,5.142-1.621-1.717Z" transform="translate(-7.965 -3.371)" fill="#d8d8d8"/>
            <path id="Trazado_1033924" data-name="Trazado 1033924" d="M122.712,60.214a9.911,9.911,0,0,1,9.771,2.4l-4.256.268-3.569-.832-1.943-1.757Z" transform="translate(-7.508 -3.661)" fill="#b2b2b2"/>
            <path id="Trazado_1033925" data-name="Trazado 1033925" d="M127.74,63.635a11.1,11.1,0,0,1-3.109-.438,7.715,7.715,0,0,1-3.938-2.471,6.455,6.455,0,0,0-.512-.568l-13.559-13.02a1.019,1.019,0,0,1,1.411-1.469l13.559,13.02a8.378,8.378,0,0,1,.681.752,5.649,5.649,0,0,0,2.928,1.8,9.344,9.344,0,0,0,3.934.259L169.8,55.974a1.018,1.018,0,0,1,.273,2.018l-40.656,5.524a12.044,12.044,0,0,1-1.673.118" transform="translate(-6.505 -2.777)" fill="#e56d4b"/>
            <path id="Trazado_1033926" data-name="Trazado 1033926" d="M121.487,60.162,106.96,46.2a.55.55,0,0,0-.924.488l7.508,44.467a2.948,2.948,0,0,0,1.014,1.772l13.056,10.944c.054.053.111.1.165.155L121.887,60.6q-.206-.208-.4-.44" transform="translate(-6.488 -2.817)" fill="#ed854b"/>
            <path id="Trazado_1033927" data-name="Trazado 1033927" d="M180.25,100.4,174.09,59.317a1.933,1.933,0,0,0-2.171-1.629l-38.8,5.233v0l6.634,45.125c.311-.055.628-.118.956-.2l37.893-5.247a1.934,1.934,0,0,0,1.647-2.2" transform="translate(-8.145 -3.529)" fill="#ed854b"/>
            <path id="Trazado_1033928" data-name="Trazado 1033928" d="M122.921,61.551l5.893,43.424c2.516,2.366,5.383,4.185,10.317,3.31L132.5,63.159c-4.654.927-7.483.531-9.575-1.608" transform="translate(-7.521 -3.766)" fill="#e56d4b"/>
            <path id="Trazado_1033929" data-name="Trazado 1033929" d="M123.806,68.413c2.178,2.029,5.651,1.773,9.607,1.064l.742,5.045c-4.341.873-7.915.975-9.654-.986Z" transform="translate(-7.575 -4.186)" fill="#fff3de"/>
            <path id="Trazado_1033930" data-name="Trazado 1033930" d="M124.785,75.555c2.178,2.029,5.7,1.621,9.657.912l.3,2.03c-3.245,1.024-7.924,1.25-9.662-.712Z" transform="translate(-7.635 -4.623)" fill="#fff3de"/>
            <path id="Trazado_1033931" data-name="Trazado 1033931" d="M168.638,67.935a.537.537,0,0,0-.6-.457l-25.658,3.575a.536.536,0,0,0,.073,1.066.656.656,0,0,0,.074,0l25.658-3.575a.535.535,0,0,0,.457-.6" transform="translate(-8.683 -4.128)" fill="#fff3de"/>
            <path id="Trazado_1033932" data-name="Trazado 1033932" d="M169.709,72.754a.537.537,0,0,0-.6-.457l-25.658,3.575a.536.536,0,0,0,.073,1.066.656.656,0,0,0,.074,0l25.658-3.575a.536.536,0,0,0,.457-.6" transform="translate(-8.749 -4.423)" fill="#fff3de"/>
            <path id="Trazado_1033933" data-name="Trazado 1033933" d="M170.656,77.985a.538.538,0,0,0-.606-.457L144.393,81.1a.536.536,0,0,0,.073,1.067.672.672,0,0,0,.075,0L170.2,78.589a.536.536,0,0,0,.458-.6" transform="translate(-8.807 -4.743)" fill="#fff3de"/>
            <path id="Trazado_1033934" data-name="Trazado 1033934" d="M162.527,84.083l-10.407,1.45a.536.536,0,0,0,.073,1.067.494.494,0,0,0,.074-.006l10.407-1.45a.536.536,0,1,0-.147-1.062" transform="translate(-9.279 -5.144)" fill="#fff3de"/>
            <path id="Trazado_1033935" data-name="Trazado 1033935" d="M245.434,107.446h0a2.874,2.874,0,0,1-2.874-2.874V69.425a2.874,2.874,0,0,1,5.747,0v35.147a2.874,2.874,0,0,1-2.874,2.874" transform="translate(-14.841 -4.072)" fill="#9d9d9c"/>
            <path id="Trazado_1033936" data-name="Trazado 1033936" d="M292.225,107.446h0a2.873,2.873,0,0,1-2.873-2.874V69.425a2.873,2.873,0,1,1,5.746,0v35.147a2.874,2.874,0,0,1-2.874,2.874" transform="translate(-17.704 -4.072)" fill="#9d9d9c"/>
            <path id="Trazado_1033937" data-name="Trazado 1033937" d="M245.434,66.551h0a2.874,2.874,0,0,0-2.874,2.874v35.147a2.874,2.874,0,0,0,2.874,2.874Z" transform="translate(-14.841 -4.072)" fill="#b2b2b2"/>
            <path id="Trazado_1033938" data-name="Trazado 1033938" d="M292.225,66.551h0a2.873,2.873,0,0,0-2.873,2.874v35.147a2.874,2.874,0,0,0,2.873,2.874Z" transform="translate(-17.704 -4.072)" fill="#b2b2b2"/>
            <path id="Trazado_1033939" data-name="Trazado 1033939" d="M237.708,154.523h-.492a2.627,2.627,0,0,1-2.627-2.627V113.63h5.746V151.9a2.627,2.627,0,0,1-2.627,2.627" transform="translate(-14.354 -6.953)" fill="#9d9d9c"/>
            <path id="Trazado_1033940" data-name="Trazado 1033940" d="M300.442,154.523h-.492a2.627,2.627,0,0,1-2.627-2.627V113.63h5.746V151.9a2.627,2.627,0,0,1-2.627,2.627" transform="translate(-18.192 -6.953)" fill="#9d9d9c"/>
            <path id="Trazado_1033941" data-name="Trazado 1033941" d="M237.463,113.63H234.59V151.9a2.627,2.627,0,0,0,2.627,2.627h.246Z" transform="translate(-14.354 -6.953)" fill="#b2b2b2"/>
            <rect id="Rectángulo_415724" data-name="Rectángulo 415724" width="5.745" height="3.66" transform="translate(220.236 106.677)" fill="#706f6f"/>
            <path id="Trazado_1033942" data-name="Trazado 1033942" d="M300.2,113.63h-2.873V151.9a2.627,2.627,0,0,0,2.627,2.627h.246Z" transform="translate(-18.192 -6.953)" fill="#b2b2b2"/>
            <rect id="Rectángulo_415725" data-name="Rectángulo 415725" width="5.745" height="3.66" transform="translate(279.132 106.677)" fill="#706f6f"/>
            <path id="Trazado_1033943" data-name="Trazado 1033943" d="M287.431,38.476H245.866c-8.591,0-15.555,6.651-15.555,14.858V75.677a14.377,14.377,0,0,0,3.235,9.07A15.64,15.64,0,0,0,247.5,93.025H285.8a15.64,15.64,0,0,0,13.949-8.278,14.377,14.377,0,0,0,3.235-9.07V53.334c0-8.207-6.964-14.858-15.553-14.858" transform="translate(-14.092 -2.354)" fill="#3e6380"/>
            <path id="Trazado_1033944" data-name="Trazado 1033944" d="M298.586,112.984H234.71a4.4,4.4,0,0,1-4.4-4.4v-1.115a4.4,4.4,0,0,1,4.4-4.4h63.876a4.4,4.4,0,0,1,4.4,4.4v1.115a4.4,4.4,0,0,1-4.4,4.4" transform="translate(-14.092 -6.306)" fill="#3d4a6a"/>
            <path id="Trazado_1033945" data-name="Trazado 1033945" d="M296.574,7.136A7.135,7.135,0,0,0,282.4,5.957a11.924,11.924,0,0,0-6.751-.638,25.024,25.024,0,0,0-14.141.1,7.135,7.135,0,1,0-10.372,7.968c-6.259,9.452-4.944,23.852,5.976,30.715,5.742,4.725,14.193,4.2,14.193,4.2a19.864,19.864,0,0,0,14.969-6.728c9.639-9.812,9.416-20.373,5.2-27.595a7.138,7.138,0,0,0,5.093-6.837" transform="translate(-15.137 0)" fill="#2a1301"/>
            <path id="Trazado_1033946" data-name="Trazado 1033946" d="M277.5,55.67l-9.73.2-.269-6.29,9.73-.2Z" transform="translate(-16.367 -3.021)" fill="#af5936"/>
            <path id="Trazado_1033947" data-name="Trazado 1033947" d="M267.479,48.562l.161,4.122a11.647,11.647,0,0,0,9.669-.2l-.133-5.5Z" transform="translate(-16.366 -2.875)" fill="#8c3d22"/>
            <path id="Trazado_1033948" data-name="Trazado 1033948" d="M289.963,31.048c.029-.555.037-1.1.023-1.641-.2-8.339-9.912-18.643-20.776-18.416s-18.769,10.9-18.567,19.242q.02.811.1,1.649a2.442,2.442,0,0,0-2.059,2.437,2.48,2.48,0,0,0,2.568,2.373,2.647,2.647,0,0,0,.508-.061c2.2,6.548,7.864,12.565,19.014,12.331,11.128-.234,16.51-6.494,18.4-13.134a2.6,2.6,0,0,0,.583.055,2.421,2.421,0,0,0,.2-4.836" transform="translate(-15.216 -0.672)" fill="#af5936"/>
            <path id="Trazado_1033949" data-name="Trazado 1033949" d="M272.426,35.808a1.115,1.115,0,0,0,.99-.6.3.3,0,0,0-.312-.415,3.271,3.271,0,0,1-1.405.029.3.3,0,0,0-.292.428,1.125,1.125,0,0,0,1.02.56" transform="translate(-16.604 -2.129)" fill="#9b472a"/>
            <path id="Trazado_1033950" data-name="Trazado 1033950" d="M281.413,34.736c-.085-1.052,1.009-1.991,2.444-2.1s2.667.66,2.753,1.712-1.009,1.991-2.444,2.1-2.667-.66-2.753-1.712" transform="translate(-17.218 -1.996)" fill="#9b472a"/>
            <path id="Trazado_1033951" data-name="Trazado 1033951" d="M258.679,35.5c-.025-1.055,1.12-1.935,2.559-1.965s2.626.8,2.651,1.856-1.12,1.934-2.559,1.965-2.626-.8-2.651-1.856" transform="translate(-15.828 -2.052)" fill="#9b472a"/>
            <path id="Trazado_1033952" data-name="Trazado 1033952" d="M281.051,29.8c-.026.862-.509,1.546-1.076,1.529s-1.006-.73-.98-1.592.509-1.546,1.076-1.528,1.006.729.98,1.591" transform="translate(-17.071 -1.726)" fill="#1c1c1c"/>
            <path id="Trazado_1033953" data-name="Trazado 1033953" d="M265.069,30.389c-.027.862-.51,1.546-1.077,1.529s-1.006-.73-.979-1.592.509-1.546,1.076-1.529,1.005.73.98,1.592" transform="translate(-16.093 -1.762)" fill="#1c1c1c"/>
            <path id="Trazado_1033954" data-name="Trazado 1033954" d="M261.646,27.84a.373.373,0,0,1-.3-.591,3.73,3.73,0,0,1,3.506-1.6.373.373,0,1,1-.056.744,2.981,2.981,0,0,0-2.844,1.3.373.373,0,0,1-.3.155" transform="translate(-15.986 -1.568)" fill="#2a1301"/>
            <path id="Trazado_1033955" data-name="Trazado 1033955" d="M282.106,27.242a.37.37,0,0,1-.292-.141,3.009,3.009,0,0,0-2.906-1.177.373.373,0,1,1-.088-.742,3.751,3.751,0,0,1,3.578,1.454.373.373,0,0,1-.292.606" transform="translate(-17.04 -1.539)" fill="#2a1301"/>
            <path id="Trazado_1033956" data-name="Trazado 1033956" d="M277.6,39.525h0a1.991,1.991,0,0,0-.207-.156,1.879,1.879,0,0,0-1.448-.226,17.523,17.523,0,0,1-7.535.1,2.177,2.177,0,0,0-2.084.654,2.31,2.31,0,0,0-.223.3h0a2.377,2.377,0,0,0-.318,1.755,4.136,4.136,0,0,0,1.331,2.3,5.205,5.205,0,0,0,.548.425,8.834,8.834,0,0,0,4.4,1.139,9.617,9.617,0,0,0,4.4-1.149,4.935,4.935,0,0,0,.933-.785,3.689,3.689,0,0,0,.978-2.132,2.389,2.389,0,0,0-.77-2.219" transform="translate(-16.26 -2.392)" fill="#c63300"/>
            <path id="Trazado_1033957" data-name="Trazado 1033957" d="M272.187,43.635c2.121,0,3.626.41,4.4,1.3a6.211,6.211,0,0,1-.6.346,9.024,9.024,0,0,1-7.341.143,5.977,5.977,0,0,1-.853-.479c.827-.88,2.365-1.314,4.4-1.314" transform="translate(-16.385 -2.67)" fill="#a52402"/>
            <path id="Trazado_1033958" data-name="Trazado 1033958" d="M266.122,40.194h0a2.4,2.4,0,0,1,.221-.3,2.2,2.2,0,0,1,2.07-.725,17.286,17.286,0,0,0,7.483-.025,1.86,1.86,0,0,1,1.718.376,2.043,2.043,0,0,1,.536.659,6.963,6.963,0,0,1-1.691.979,12.073,12.073,0,0,1-8.542.143,6.713,6.713,0,0,1-1.632-.9c-.066-.051-.129-.1-.192-.156l.028-.047" transform="translate(-16.281 -2.391)" fill="#fff"/>
            <path id="Trazado_1033959" data-name="Trazado 1033959" d="M263.239,14.988c-.355,10.9-13.771,8.63-12.4,16.6a32.378,32.378,0,0,1-.411-8.92c.659-7.633,2.465-15.254,20.912-15.928,9.99-.365,19.083,7.74,19.325,17.733l-.543,6.29c-.306-12.674-23.854-4.243-26.885-15.776" transform="translate(-15.315 -0.412)" fill="#2a1301"/>
            <path id="Trazado_1033960" data-name="Trazado 1033960" d="M305.258,41.878l1.25-4.406a2.376,2.376,0,0,0-.115-1.459L303.9,29.944a1.025,1.025,0,0,1,.459-1.283,1.092,1.092,0,0,1,1.518.464l1.094,2.308a.2.2,0,0,0,.385-.054l1.283-7.6a.9.9,0,0,1,1.094-.7.865.865,0,0,1,.678.953l-.7,5.175,1.692-5.879a.961.961,0,0,1,1.151-.672.923.923,0,0,1,.708,1.108l-1.62,6.071,1.767-5.091a.9.9,0,0,1,1.06-.568.863.863,0,0,1,.652,1.073l-1.513,5.27,1.425-3.429a.786.786,0,0,1,.906-.453.749.749,0,0,1,.568.931l-2.082,7.277a4.027,4.027,0,0,1-1,1.6l-.11.108a2.191,2.191,0,0,0-.553.893l-1.8,5.62Z" transform="translate(-18.59 -1.385)" fill="#af5936"/>
            <path id="Trazado_1033961" data-name="Trazado 1033961" d="M285.562,65.089l-.482-7.3c7.16-.472,11.532-1.172,14.126-3.511,2.689-2.425,4.22-7.283,5.12-16.246l7.28.731c-1.113,11.078-3.287,17.147-7.5,20.948-4.6,4.146-11.118,4.888-18.544,5.378" transform="translate(-17.443 -2.327)" fill="#fc9f9f"/>
            <path id="Trazado_1033962" data-name="Trazado 1033962" d="M282.551,110.492l-7.438.27s.084,12.568.068,21.554l7.446.013c.017-9.442-.075-21.838-.075-21.838" transform="translate(-16.833 -6.761)" fill="#af5936"/>
            <path id="Trazado_1033963" data-name="Trazado 1033963" d="M282.689,132.375h-7.562V124.63a7.4,7.4,0,0,0,7.562,0Z" transform="translate(-16.834 -7.626)" fill="#fff"/>
            <path id="Trazado_1033964" data-name="Trazado 1033964" d="M283.453,132.709c4.455,2.793,4.254,2.769,5.417,3.983a2.439,2.439,0,0,1-.466,3.76,4.44,4.44,0,0,1-2.929.589c-1.955-.236-5.47-2.508-9.726-5.625a1.95,1.95,0,0,1-.751-1.149,3.327,3.327,0,0,1,.219-2.328,14.4,14.4,0,0,0,5.9,2.083,2.585,2.585,0,0,0,.994-.193.92.92,0,0,0,.3-1.547c-.545-.495,1.143.621,1.044.428" transform="translate(-16.819 -8.073)" fill="#58585a"/>
            <path id="Trazado_1033965" data-name="Trazado 1033965" d="M282.673,130.431a36.847,36.847,0,0,1,6.191,4.479,2.441,2.441,0,0,1-.462,3.763,4.449,4.449,0,0,1-2.93.589c-1.954-.236-5.467-2.507-9.72-5.623A1.945,1.945,0,0,1,275,132.5a3.289,3.289,0,0,1,.113-2.238,6.958,6.958,0,0,0,6.392,2.013,1.63,1.63,0,0,0,1.053-.867,2.439,2.439,0,0,0,.116-.975" transform="translate(-16.818 -7.97)" fill="#f49292"/>
            <path id="Trazado_1033966" data-name="Trazado 1033966" d="M282.234,133.908a.448.448,0,0,1-.168-.864c1.155-.466,1.468-.907,1.634-1.315a.448.448,0,0,1,.83.339,3.388,3.388,0,0,1-2.129,1.807.438.438,0,0,1-.167.033" transform="translate(-17.242 -8.043)" fill="#fff"/>
            <path id="Trazado_1033967" data-name="Trazado 1033967" d="M283.542,134.954a.448.448,0,0,1-.168-.864c1.155-.466,1.468-.908,1.634-1.315a.448.448,0,0,1,.83.339,3.388,3.388,0,0,1-2.129,1.807.438.438,0,0,1-.167.033" transform="translate(-17.322 -8.107)" fill="#fff"/>
            <path id="Trazado_1033968" data-name="Trazado 1033968" d="M262.081,131.969l7.445.118c.133-8.443-.059-21.332-.059-21.332l-7.461-.264s.214,12.689.075,21.477" transform="translate(-16.031 -6.761)" fill="#af5936"/>
            <path id="Trazado_1033969" data-name="Trazado 1033969" d="M269.671,131.887h-7.563v-7.746a7.4,7.4,0,0,0,7.563,0Z" transform="translate(-16.038 -7.596)" fill="#fff"/>
            <path id="Trazado_1033970" data-name="Trazado 1033970" d="M260.848,132.448c-4.455,2.793-4.254,2.769-5.416,3.983a2.439,2.439,0,0,0,.465,3.76,4.439,4.439,0,0,0,2.929.589c1.955-.236,5.47-2.508,9.726-5.625a1.953,1.953,0,0,0,.751-1.149,3.333,3.333,0,0,0-.218-2.328,14.408,14.408,0,0,1-5.9,2.083,2.6,2.6,0,0,1-.994-.193.92.92,0,0,1-.3-1.547c.545-.495-1.143.621-1.044.428" transform="translate(-15.587 -8.057)" fill="#58585a"/>
            <path id="Trazado_1033971" data-name="Trazado 1033971" d="M261.663,130.141a37.417,37.417,0,0,0-6.229,4.5,2.44,2.44,0,0,0,.463,3.763,4.445,4.445,0,0,0,2.929.589c1.955-.236,5.468-2.506,9.72-5.623a1.945,1.945,0,0,0,.754-1.14,5.066,5.066,0,0,0-.08-2.3c-.56.829-3.643,2.876-6.424,2.075a1.493,1.493,0,0,1-.944-.895,2.765,2.765,0,0,1-.189-.971" transform="translate(-15.587 -7.95)" fill="#f49292"/>
            <path id="Trazado_1033972" data-name="Trazado 1033972" d="M262.84,133.647a.438.438,0,0,1-.167-.033,3.389,3.389,0,0,1-2.129-1.807.448.448,0,0,1,.83-.339c.166.408.48.85,1.634,1.315a.448.448,0,0,1-.168.864" transform="translate(-15.94 -8.027)" fill="#fff"/>
            <path id="Trazado_1033973" data-name="Trazado 1033973" d="M261.533,134.693a.438.438,0,0,1-.167-.033,3.388,3.388,0,0,1-2.129-1.807.448.448,0,1,1,.829-.339c.167.408.481.85,1.635,1.315a.448.448,0,0,1-.168.864" transform="translate(-15.86 -8.091)" fill="#fff"/>
            <path id="Trazado_1033974" data-name="Trazado 1033974" d="M265.9,55.341a15.222,15.222,0,0,1,6.5-1.08,11.334,11.334,0,0,1,6.39,1.356c1.435.9-2.535,3.486-6.232,3.433s-8.215-3.035-6.658-3.709" transform="translate(-16.25 -3.32)" fill="#af5936"/>
            <path id="Trazado_1033975" data-name="Trazado 1033975" d="M255.595,63.558c1.059-4.5,3.075-6.549,8.833-8.146a7.086,7.086,0,0,0,6.842,3.552c2.395-.213,4.949-1.393,6.048-3.276,6.534,2.479,7.522,1.909,8.554,9.662.085,4.5-3.47,12.814-4.106,16.665,1.952,9.929,17.27,16.547,16.654,24.5-10.92,3.481-45.747,4.535-56.836,0-.892-6.705,18.216-17.765,18.819-24.5l-3.966-9.576c-.759-2.639-1.469-6.208-.841-8.881" transform="translate(-14.78 -3.39)" fill="#fcbebe"/>
            <path id="Trazado_1033976" data-name="Trazado 1033976" d="M278.578,55.688a17.893,17.893,0,0,1,3.555,1.087,11.852,11.852,0,0,1-4.937,6.009,2.125,2.125,0,0,1-2.748-.483l-2.627-3.307-3.035,3.242a1.66,1.66,0,0,1-2.12.242c-2.486-1.663-4.31-3.578-4.524-5.807a19.77,19.77,0,0,1,3.546-1.259c3.883,3.519,8.215,3.322,12.89.276" transform="translate(-16.04 -3.39)" fill="#fc9f9f"/>
            <path id="Trazado_1033977" data-name="Trazado 1033977" d="M261.608,83.749c8,1.448,12.99,1.268,21.364,0l.353,1.171c-7.831,1.114-13.541,1.827-22.056-.1Z" transform="translate(-15.986 -5.124)" fill="#fc9f9f"/>
            <path id="Trazado_1033978" data-name="Trazado 1033978" d="M273.22,62.377a.9.9,0,1,1-.9-.9.9.9,0,0,1,.9.9" transform="translate(-16.607 -3.761)" fill="#fc9f9f"/>
            <path id="Trazado_1033979" data-name="Trazado 1033979" d="M273.22,65.863a.9.9,0,1,1-.9-.9.9.9,0,0,1,.9.9" transform="translate(-16.607 -3.975)" fill="#fc9f9f"/>
            <path id="Trazado_1033980" data-name="Trazado 1033980" d="M273.22,69.35a.9.9,0,1,1-.9-.9.9.9,0,0,1,.9.9" transform="translate(-16.607 -4.188)" fill="#f49292"/>
            <path id="Trazado_1033981" data-name="Trazado 1033981" d="M285.379,84.709H82.694L33.45,110.392H333.527Z" transform="translate(-2.047 -5.183)" fill="#9a7759"/>
            <path id="Trazado_1033982" data-name="Trazado 1033982" d="M333.527,112.066H33.451v6.451H57.7v73.65c0,3.729,3.319,6.75,7.412,6.75h2.071c4.093,0,7.411-3.021,7.411-6.75v-73.65H291.863v73.65c0,3.729,3.319,6.75,7.412,6.75h2.07c4.094,0,7.413-3.021,7.413-6.75v-73.65h24.769Z" transform="translate(-2.047 -6.857)" fill="#644d3b"/>
            <path id="Trazado_1033983" data-name="Trazado 1033983" d="M307.578,65.3c16.377-.149,15.462,36.617,3.49,27.81l.643-3.208c8.235,8.812,6.694-19.254-1.051-22.071Z" transform="translate(-18.82 -3.995)" fill="#e0b500"/>
            <path id="Trazado_1033984" data-name="Trazado 1033984" d="M299.415,63.747h-1.493a4.106,4.106,0,0,1,4.019-4.456,3.736,3.736,0,0,1,2.685,1.11,4.447,4.447,0,0,1,1.187,3.206h-1.494c0-1.95-1.194-2.823-2.378-2.823-1.217,0-2.526.928-2.526,2.963" transform="translate(-18.229 -3.628)" fill="#efc200"/>
            <path id="Trazado_1033985" data-name="Trazado 1033985" d="M299.676,94.338h6.986a5.427,5.427,0,0,0,5.426-5.427V68.658a5.427,5.427,0,0,0-5.426-5.426h-1.835a10.577,10.577,0,0,0-10.578,10.577v15.1a5.427,5.427,0,0,0,5.427,5.427" transform="translate(-18.004 -3.869)" fill="#efc200"/>
            <path id="Trazado_1033986" data-name="Trazado 1033986" d="M295.933,94.179h6.986a5.427,5.427,0,0,0,5.427-5.427V68.5a5.427,5.427,0,0,0-5.427-5.426h-1.835A10.577,10.577,0,0,0,290.506,73.65v15.1a5.427,5.427,0,0,0,5.427,5.427" transform="translate(-17.775 -3.859)" fill="#efd400"/>
            <path id="Trazado_1033987" data-name="Trazado 1033987" d="M291.923,80.3h9.292a2.825,2.825,0,0,0,2.816-2.816V72.843a2.825,2.825,0,0,0-2.816-2.816h-9.292a2.825,2.825,0,0,0-2.816,2.816V77.48a2.825,2.825,0,0,0,2.816,2.816" transform="translate(-17.689 -4.285)" fill="#e0b500"/>
            <path id="Trazado_1033988" data-name="Trazado 1033988" d="M301.723,73.262H289.937a.947.947,0,0,1-.83-1.027v6.436a.947.947,0,0,0,.83,1.026h11.786a.947.947,0,0,0,.83-1.026V72.235a.947.947,0,0,1-.83,1.027" transform="translate(-17.689 -4.42)" fill="#efc200"/>
            <path id="Trazado_1033989" data-name="Trazado 1033989" d="M301.723,70.027H289.937a.947.947,0,0,0-.83,1.026v1.782a.947.947,0,0,0,.83,1.027h11.786a.947.947,0,0,0,.83-1.027V71.053a.947.947,0,0,0-.83-1.026" transform="translate(-17.689 -4.285)" fill="#efe100"/>
            <path id="Trazado_1033990" data-name="Trazado 1033990" d="M296.224,75.825H295.6a1.262,1.262,0,0,1-1.259-1.259v-.288a1.262,1.262,0,0,1,1.259-1.259h.624a1.263,1.263,0,0,1,1.259,1.259v.288a1.263,1.263,0,0,1-1.259,1.259" transform="translate(-18.01 -4.468)" fill="#efd400"/>
            <g id="Grupo_1176288" data-name="Grupo 1176288" transform="translate(162.619 88.666)" opacity="0.5">
              <g id="Grupo_1176287" data-name="Grupo 1176287">
                <g id="Grupo_1176286" data-name="Grupo 1176286" clip-path="url(#clip-path-9)">
                  <path id="Trazado_1033991" data-name="Trazado 1033991" d="M173.218,95.912,178.2,97.1l6.883-.592-3.322-2.06Z" transform="translate(-173.218 -94.445)"/>
                </g>
              </g>
            </g>
            <path id="Trazado_1033992" data-name="Trazado 1033992" d="M178.529,90.665v6.173l4-1.186V90.191Z" transform="translate(-10.924 -5.518)" fill="#933214"/>
            <path id="Trazado_1033993" data-name="Trazado 1033993" d="M173.218,89.77l4.985.869v6.173l-4.985-1.186Z" transform="translate(-10.599 -5.493)" fill="#e8431b"/>
            <path id="Trazado_1033994" data-name="Trazado 1033994" d="M173.218,89.726l4.352-.674,4.629,1.069-4,.474Z" transform="translate(-10.599 -5.449)" fill="#dc8e76"/>
            <g id="Grupo_1176291" data-name="Grupo 1176291" transform="translate(144.183 84.535)" opacity="0.5">
              <g id="Grupo_1176290" data-name="Grupo 1176290">
                <g id="Grupo_1176289" data-name="Grupo 1176289" clip-path="url(#clip-path-10)">
                  <path id="Trazado_1033995" data-name="Trazado 1033995" d="M164.706,91.556c0,.836-2.49,1.513-5.563,1.513s-5.562-.677-5.562-1.513,2.49-1.512,5.562-1.512,5.563.677,5.563,1.512" transform="translate(-153.58 -90.045)"/>
                </g>
              </g>
            </g>
            <path id="Trazado_1033996" data-name="Trazado 1033996" d="M162.48,85.091a6.015,6.015,0,1,1-6.014-6,6,6,0,0,1,6.014,6" transform="translate(-9.206 -4.84)" fill="#8476bc"/>
            <path id="Trazado_1033997" data-name="Trazado 1033997" d="M156.534,79.1a6,6,0,0,0-4,1.519,6.006,6.006,0,0,0,9.045,7.736,5.938,5.938,0,0,0,.969-3.26,6.006,6.006,0,0,0-6.014-6" transform="translate(-9.274 -4.84)" fill="#76bc8b"/>
            <path id="Trazado_1033998" data-name="Trazado 1033998" d="M156.587,79.1a6,6,0,0,0-3.358,1.021,6.009,6.009,0,0,0,8.57,7.963,5.991,5.991,0,0,0-5.212-8.984" transform="translate(-9.326 -4.84)" fill="#c4c7b2"/>
            <g id="Grupo_1176294" data-name="Grupo 1176294" transform="translate(142.683 77.254)" opacity="0.2">
              <g id="Grupo_1176293" data-name="Grupo 1176293">
                <g id="Grupo_1176292" data-name="Grupo 1176292" clip-path="url(#clip-path-11)">
                  <path id="Trazado_1033999" data-name="Trazado 1033999" d="M161.766,82.289c-.039,3.024-3.025,5.611-6.176,6.242a20.342,20.342,0,0,1-3.608.642,6.018,6.018,0,0,0,10.592-3.887,5.944,5.944,0,0,0-.807-3" transform="translate(-151.982 -82.289)"/>
                </g>
              </g>
            </g>
            <g id="Grupo_1176297" data-name="Grupo 1176297" transform="translate(187.482 92.753)" opacity="0.5">
              <g id="Grupo_1176296" data-name="Grupo 1176296">
                <g id="Grupo_1176295" data-name="Grupo 1176295" clip-path="url(#clip-path-12)">
                  <path id="Trazado_1034000" data-name="Trazado 1034000" d="M199.7,101.028l9.924,1.1,16.9-1.1-6.914-1.881-4.547-.348-.961,1.025-2.919-.2Z" transform="translate(-199.701 -98.798)"/>
                </g>
              </g>
            </g>
            <path id="Trazado_1034001" data-name="Trazado 1034001" d="M209.139,101.245,200,100.56V91.153l9.137.667Z" transform="translate(-12.237 -5.577)" fill="#ffb76a"/>
            <path id="Trazado_1034002" data-name="Trazado 1034002" d="M212.992,99.16l-3.258,2.071V91.824l3.258-.905Z" transform="translate(-12.833 -5.563)" fill="#843f1b"/>
            <path id="Trazado_1034003" data-name="Trazado 1034003" d="M200,91.1l3.86-.815,8.534.6-3.258.885Z" transform="translate(-12.237 -5.524)" fill="#f7e8a6"/>
            <g id="Grupo_1176300" data-name="Grupo 1176300" transform="translate(191.626 85.356)" opacity="0.5">
              <g id="Grupo_1176299" data-name="Grupo 1176299">
                <g id="Grupo_1176298" data-name="Grupo 1176298" clip-path="url(#clip-path-13)">
                  <path id="Trazado_1034004" data-name="Trazado 1034004" d="M209.391,91.832l-5.276-.913c1.771.3,3.547,1.576,5.276,2.009Z" transform="translate(-204.115 -90.919)"/>
                </g>
              </g>
            </g>
            <path id="Trazado_1034005" data-name="Trazado 1034005" d="M208.006,91.194l-3.891-.821V81.978l3.891.639Z" transform="translate(-12.489 -5.016)" fill="#f4a053"/>
            <path id="Trazado_1034006" data-name="Trazado 1034006" d="M208.26,82.624l5.685-.547v8.082L208.26,91.2Z" transform="translate(-12.743 -5.022)" fill="#bf6725"/>
            <path id="Trazado_1034007" data-name="Trazado 1034007" d="M204.115,81.946l4.867-.5,4.709.592-5.685.547Z" transform="translate(-12.489 -4.983)" fill="#e8d379"/>
            <g id="Grupo_1176303" data-name="Grupo 1176303" transform="translate(191.626 76.962)" opacity="0.5">
              <g id="Grupo_1176302" data-name="Grupo 1176302">
                <g id="Grupo_1176301" data-name="Grupo 1176301" clip-path="url(#clip-path-14)">
                  <path id="Trazado_1034008" data-name="Trazado 1034008" d="M207.469,85.874l.562-2.235v-1.37l-3.916-.291v2.29Z" transform="translate(-204.115 -81.978)"/>
                </g>
              </g>
            </g>
            <path id="Trazado_1034009" data-name="Trazado 1034009" d="M202.813,80.815l4.35,1.252,1.468-12.073Z" transform="translate(-12.409 -4.283)" fill="#efd565"/>
            <path id="Trazado_1034010" data-name="Trazado 1034010" d="M212.581,80.884l-5.167,1.2,1.469-12.074Z" transform="translate(-12.691 -4.283)" fill="#d37d42"/>
            <path id="Trazado_1034011" data-name="Trazado 1034011" d="M86.51,191.848s-2.557,10.748-1.242,14.331,14.915,2.34,15.281-.585.512-10.967-1.608-15.354Z" transform="translate(-5.194 -11.64)" fill="#1e2744" fill-rule="evenodd"/>
            <path id="Trazado_1034012" data-name="Trazado 1034012" d="M124.655,191.1s2.558,10.748,1.244,14.331-14.916,2.34-15.282-.584-.511-10.968,1.609-15.355Z" transform="translate(-6.755 -11.595)" fill="#1e2744" fill-rule="evenodd"/>
            <path id="Trazado_1034013" data-name="Trazado 1034013" d="M97.395,188.018c.644-6.231,2.452-25.538,1.48-37.055l-15.213-.12c-.272,8.289-.059,23.708,4.013,38.433Z" transform="translate(-5.114 -9.23)" fill="#f8a185" fill-rule="evenodd"/>
            <path id="Trazado_1034014" data-name="Trazado 1034014" d="M124,188.62a186.572,186.572,0,0,0,3.772-38.067l-14.442.335c-.762,5.5-1.483,16.464-.095,36.34Z" transform="translate(-6.88 -9.212)" fill="#f8a185" fill-rule="evenodd"/>
            <path id="Trazado_1034015" data-name="Trazado 1034015" d="M97.516,189.757c.225-2.186.6-5.984.937-10.489L85.567,180.9A102.136,102.136,0,0,0,87.8,191.015Z" transform="translate(-5.236 -10.969)" fill="#fdfdfd" fill-rule="evenodd"/>
            <path id="Trazado_1034016" data-name="Trazado 1034016" d="M124.011,190.381c.459-2.128,1.108-5.454,1.74-9.762L112.7,179.327q.187,4.436.547,9.661Z" transform="translate(-6.896 -10.972)" fill="#fdfdfd" fill-rule="evenodd"/>
            <path id="Trazado_1034017" data-name="Trazado 1034017" d="M92.069,186.049h1.806a1.33,1.33,0,0,1,1.327,1.326v6.853a1.33,1.33,0,0,1-1.327,1.326H92.069a1.331,1.331,0,0,1-1.327-1.326v-6.853a1.331,1.331,0,0,1,1.327-1.326" transform="translate(-5.552 -11.384)" fill="#11588e" fill-rule="evenodd"/>
            <path id="Trazado_1034018" data-name="Trazado 1034018" d="M117.965,185.3h1.808a1.331,1.331,0,0,1,1.327,1.327v6.852a1.33,1.33,0,0,1-1.327,1.326h-1.808a1.33,1.33,0,0,1-1.326-1.326v-6.852a1.33,1.33,0,0,1,1.326-1.327" transform="translate(-7.137 -11.338)" fill="#1b4872" fill-rule="evenodd"/>
            <path id="Trazado_1034019" data-name="Trazado 1034019" d="M67.575,94.124c-11.081-1.514-12.993-15-13.31-18.679a4.156,4.156,0,0,0,.8-3.528,21.79,21.79,0,0,1-.119-8.575,26.407,26.407,0,0,0,.792-3.6c0-1.926-.147-2.377-1.818-2.41-1.262-.025-2.51,4.219-2.528,5.218-.026,1.4-1.805-2.155-1.847-2.226C48.6,58.645,46.438,54.3,44.241,54.3c-4.586,0,2.342,5.181,1.91,6.358-.533,1.456-5.073-5.271-5.97-5.34-2.719-.208-1.922,2.207-1.077,2.9,1.109.905,4.46,3.294,4.46,4.71,0,1.694-3.231-1.657-3.549-2.035-.392-.466-2.243-2.527-2.783-2.535-1.544-.022-.833,1.173-.554,1.84.68,1.633,3.779,3.826,3.779,5.082,0,1.4-1.778.009-1.915-.191-.662-.974-4.138-3.234-3.6-.838a2.872,2.872,0,0,0,.409,1.14,9.759,9.759,0,0,0,1.47,2.044c.466.414,3.46,3,3.617,3.226.652.941,1.946,1.66,2.318,2.172a13.161,13.161,0,0,0,4.2,3.363A48.385,48.385,0,0,0,47.988,88.7c2.666,14.581,14.71,15.867,19.974,15.712a31.042,31.042,0,0,1-.388-10.29" transform="translate(-2.135 -3.322)" fill="#ffbda9" fill-rule="evenodd"/>
            <path id="Trazado_1034020" data-name="Trazado 1034020" d="M142.1,154.308c3.087-10.778-.191-32.683-1.41-39.9-3,2.418-7.507,3.445-9.133,3.751a76.012,76.012,0,0,0,1.988,16.331c1.242,6.069-.221,18.938-.221,18.938a4.874,4.874,0,0,0-3.329,2.8c.217,2.314.391,4.943.483,7.864,1.979,2.418,5.47,4.286,8.842,1.477,5.265-4.388,2.779-11.26,2.779-11.26" transform="translate(-7.954 -7)" fill="#ffbda9" fill-rule="evenodd"/>
            <path id="Trazado_1034021" data-name="Trazado 1034021" d="M101.573,30.344c9.829,0,18.028,9.134,19.916,21.271a3.4,3.4,0,0,1,1.99-.294c2.557.419,4.12,3.873,3.49,7.712s-3.215,6.612-5.771,6.193c-.1-.016-.192-.038-.284-.062-1.979,8-6.776,14.348-12.86,17.026l.25,2.911,4.332,0c-1.8,2.908-5.6,4.915-10.009,4.915a12.175,12.175,0,0,1-9.211-3.83l2.459-.722.06-2.935c-5.5-2.076-10.044-7.111-12.558-13.706a3.354,3.354,0,0,1-1.648.786c-2.555.42-5.139-2.353-5.769-6.192s.93-7.293,3.489-7.712a3.359,3.359,0,0,1,1.816.22c.413-14.221,9.347-25.584,20.308-25.584" transform="translate(-4.639 -1.857)" fill="#ffbda9" fill-rule="evenodd"/>
            <path id="Trazado_1034022" data-name="Trazado 1034022" d="M85.426,70c-1.8-2.187-.76-13.024-7.321-13.978-.953-.139-6.355-30.026,25.017-30.026,19.355,0,20.81,23.085,19.355,25.016-5.792,7.687,0,10.894-3.429,16.252-1.9,2.964-4.755,11.222-17.115,11.222C93.249,78.48,90.705,76.4,85.426,70" transform="translate(-4.721 -1.59)" fill="#2d2a17" fill-rule="evenodd"/>
            <path id="Trazado_1034023" data-name="Trazado 1034023" d="M95.662,26.884s3.412,14.277,5.5,30.875c0,0-1.719-23.2,1.327-31.768a24.919,24.919,0,0,0-6.823.893" transform="translate(-5.853 -1.59)" fill="#2d2317"/>
            <path id="Trazado_1034024" data-name="Trazado 1034024" d="M81.776,146.012a126.8,126.8,0,0,0,43.285.146s1.565,2.307,2.2,10.165a16.421,16.421,0,0,1-16.28,17.7l-14.022.091A16.418,16.418,0,0,1,80.416,157.4a55.284,55.284,0,0,1,1.36-11.391" transform="translate(-4.92 -8.934)" fill="#403a48" fill-rule="evenodd"/>
            <path id="Trazado_1034025" data-name="Trazado 1034025" d="M124.389,142.65s1.023-27.128,0-30.49l2.852,4.533s7.677-1.1,11.04-5.118c0,0-6.6-21.675-26.039-22.9-1.8,2.908-5.6,4.916-10.009,4.916a12.173,12.173,0,0,1-9.21-3.83A167.24,167.24,0,0,0,69.99,94.319s-1.9,8.774,1.316,15.939l10.382-.585L81.1,142.5a126.8,126.8,0,0,0,43.285.146" transform="translate(-4.248 -5.426)" fill="#2cccae" fill-rule="evenodd"/>
            <path id="Trazado_1034026" data-name="Trazado 1034026" d="M103.964,98.906c7.035,0,12.823-4.236,13.546-9.674a25.729,25.729,0,0,0-3.97-.559c-1.8,2.908-5.6,4.915-10.009,4.915a12.173,12.173,0,0,1-9.21-3.829c-1.266.161-2.5.334-3.7.514,1.274,4.928,6.763,8.633,13.342,8.633" transform="translate(-5.545 -5.426)" fill="#14a89c" fill-rule="evenodd"/>
            <path id="Trazado_1034027" data-name="Trazado 1034027" d="M75.312,110.319a20.294,20.294,0,0,1-.424-16.972c-3.088.732-4.9,1.258-4.9,1.258s-.155.717-.3,1.908a31.042,31.042,0,0,0,.388,10.29,19.777,19.777,0,0,0,1.23,3.741Z" transform="translate(-4.248 -5.712)" fill="#14a89c" fill-rule="evenodd"/>
            <path id="Trazado_1034028" data-name="Trazado 1034028" d="M131.511,117.9c1.626-.305,6.135-1.333,9.133-3.751a9.3,9.3,0,0,0,1.3-1.26,29.7,29.7,0,0,0-1.059-2.781,25.232,25.232,0,0,1-11.674,5.208l1.693,2.692s.224-.032.612-.107" transform="translate(-7.906 -6.737)" fill="#14a89c" fill-rule="evenodd"/>
            <path id="Trazado_1034029" data-name="Trazado 1034029" d="M74.943,222.952H74.15a2.476,2.476,0,0,1-2.476-2.476V182.059h5.745v38.417a2.476,2.476,0,0,1-2.476,2.476" transform="translate(-4.385 -11.14)" fill="#9d9d9c"/>
            <path id="Trazado_1034030" data-name="Trazado 1034030" d="M137.678,222.952h-.8a2.476,2.476,0,0,1-2.476-2.476V182.059h5.746v38.417a2.476,2.476,0,0,1-2.476,2.476" transform="translate(-8.224 -11.14)" fill="#9d9d9c"/>
            <path id="Trazado_1034031" data-name="Trazado 1034031" d="M74.546,182.059H71.673v38.417a2.476,2.476,0,0,0,2.477,2.476h.4Z" transform="translate(-4.385 -11.14)" fill="#b2b2b2"/>
            <path id="Trazado_1034032" data-name="Trazado 1034032" d="M137.28,182.059h-2.873v38.417a2.476,2.476,0,0,0,2.476,2.476h.4Z" transform="translate(-8.224 -11.14)" fill="#b2b2b2"/>
            <rect id="Rectángulo_415732" data-name="Rectángulo 415732" width="5.745" height="9.623" transform="translate(67.289 166.394)" fill="#706f6f"/>
            <rect id="Rectángulo_415733" data-name="Rectángulo 415733" width="5.745" height="9.623" transform="translate(126.184 166.394)" fill="#706f6f"/>
            <path id="Trazado_1034033" data-name="Trazado 1034033" d="M122.991,112.045h-38.3c-8.592,0-15.556,6.651-15.556,14.856v20.011a14.242,14.242,0,0,0,1.606,6.578,15.637,15.637,0,0,0,13.95,8.278h38.3a15.641,15.641,0,0,0,13.95-8.278,14.264,14.264,0,0,0,1.605-6.578V126.9c0-8.205-6.965-14.856-15.555-14.856" transform="translate(-4.23 -6.856)" fill="#3d4a6a"/>
            <path id="Trazado_1034034" data-name="Trazado 1034034" d="M136.083,181.413h-64.7a3.986,3.986,0,0,1-3.986-3.985v-1.943a3.986,3.986,0,0,1,3.986-3.986h64.7a3.985,3.985,0,0,1,3.985,3.986v1.943a3.985,3.985,0,0,1-3.985,3.985" transform="translate(-4.124 -10.493)" fill="#3d4a6a"/>
            <path id="Trazado_1034035" data-name="Trazado 1034035" d="M82.518,175.874h0A2.874,2.874,0,0,1,79.644,173V137.853a2.874,2.874,0,0,1,5.747,0V173a2.874,2.874,0,0,1-2.874,2.874" transform="translate(-4.873 -8.259)" fill="#9d9d9c"/>
            <path id="Trazado_1034036" data-name="Trazado 1034036" d="M129.308,175.874h0A2.874,2.874,0,0,1,126.434,173V137.853a2.874,2.874,0,0,1,5.747,0V173a2.874,2.874,0,0,1-2.874,2.874" transform="translate(-7.736 -8.259)" fill="#9d9d9c"/>
            <path id="Trazado_1034037" data-name="Trazado 1034037" d="M82.518,134.979a2.874,2.874,0,0,0-2.874,2.874V173a2.874,2.874,0,0,0,2.874,2.874Z" transform="translate(-4.873 -8.259)" fill="#b2b2b2"/>
            <path id="Trazado_1034038" data-name="Trazado 1034038" d="M129.308,134.979h0a2.874,2.874,0,0,0-2.874,2.874V173a2.874,2.874,0,0,0,2.874,2.874Z" transform="translate(-7.736 -8.259)" fill="#b2b2b2"/>
            <path id="Trazado_1034039" data-name="Trazado 1034039" d="M140.07,121.762c0-8.2-6.964-14.858-15.554-14.858H82.951c-8.59,0-15.554,6.653-15.554,14.858v22.344a14.372,14.372,0,0,0,3.235,9.07,14.242,14.242,0,0,1-1.607-6.578V126.586c0-8.205,6.964-14.856,15.556-14.856h38.3c8.591,0,15.555,6.651,15.555,14.856V146.6a14.264,14.264,0,0,1-1.605,6.578,14.372,14.372,0,0,0,3.235-9.07Z" transform="translate(-4.124 -6.541)" fill="#3e6380"/>
            <path id="Trazado_1034040" data-name="Trazado 1034040" d="M242.18,222.952h-.793a2.476,2.476,0,0,1-2.476-2.476V182.059h5.745v38.417a2.476,2.476,0,0,1-2.476,2.476" transform="translate(-14.618 -11.14)" fill="#9d9d9c"/>
            <path id="Trazado_1034041" data-name="Trazado 1034041" d="M304.916,222.952h-.8a2.476,2.476,0,0,1-2.475-2.476V182.059h5.746v38.417a2.476,2.476,0,0,1-2.476,2.476" transform="translate(-18.457 -11.14)" fill="#9d9d9c"/>
            <path id="Trazado_1034042" data-name="Trazado 1034042" d="M241.784,182.059h-2.872v38.417a2.475,2.475,0,0,0,2.475,2.476h.4Z" transform="translate(-14.618 -11.14)" fill="#b2b2b2"/>
            <path id="Trazado_1034043" data-name="Trazado 1034043" d="M304.517,182.059h-2.873v38.417a2.476,2.476,0,0,0,2.476,2.476h.4Z" transform="translate(-18.457 -11.14)" fill="#b2b2b2"/>
            <rect id="Rectángulo_415734" data-name="Rectángulo 415734" width="5.745" height="9.623" transform="translate(224.293 166.394)" fill="#706f6f"/>
            <rect id="Rectángulo_415735" data-name="Rectángulo 415735" width="5.745" height="9.623" transform="translate(283.189 166.394)" fill="#706f6f"/>
            <path id="Trazado_1034044" data-name="Trazado 1034044" d="M290.228,112.045h-38.3c-8.592,0-15.556,6.651-15.556,14.856v20.011a14.231,14.231,0,0,0,1.607,6.578,15.634,15.634,0,0,0,13.949,8.278h38.3a15.64,15.64,0,0,0,13.95-8.278,14.264,14.264,0,0,0,1.605-6.578V126.9c0-8.205-6.965-14.856-15.555-14.856" transform="translate(-14.463 -6.856)" fill="#3d4a6a"/>
            <path id="Trazado_1034045" data-name="Trazado 1034045" d="M303.321,181.413h-64.7a3.986,3.986,0,0,1-3.986-3.985v-1.943a3.986,3.986,0,0,1,3.986-3.986h64.7a3.985,3.985,0,0,1,3.985,3.986v1.943a3.985,3.985,0,0,1-3.985,3.985" transform="translate(-14.356 -10.493)" fill="#3d4a6a"/>
            <path id="Trazado_1034046" data-name="Trazado 1034046" d="M249.755,175.874h0A2.873,2.873,0,0,1,246.882,173V137.853a2.873,2.873,0,1,1,5.746,0V173a2.874,2.874,0,0,1-2.874,2.874" transform="translate(-15.106 -8.259)" fill="#9d9d9c"/>
            <path id="Trazado_1034047" data-name="Trazado 1034047" d="M296.546,175.874h0A2.874,2.874,0,0,1,293.672,173V137.853a2.873,2.873,0,1,1,5.746,0V173a2.873,2.873,0,0,1-2.873,2.874" transform="translate(-17.969 -8.259)" fill="#9d9d9c"/>
            <path id="Trazado_1034048" data-name="Trazado 1034048" d="M249.755,134.979a2.873,2.873,0,0,0-2.873,2.874V173a2.874,2.874,0,0,0,2.873,2.874Z" transform="translate(-15.106 -8.259)" fill="#b2b2b2"/>
            <path id="Trazado_1034049" data-name="Trazado 1034049" d="M296.546,134.979h0a2.874,2.874,0,0,0-2.874,2.874V173a2.874,2.874,0,0,0,2.874,2.874Z" transform="translate(-17.969 -8.259)" fill="#b2b2b2"/>
            <path id="Trazado_1034050" data-name="Trazado 1034050" d="M307.307,121.762c0-8.2-6.964-14.858-15.554-14.858H250.188c-8.59,0-15.554,6.653-15.554,14.858v22.344a14.372,14.372,0,0,0,3.235,9.07,14.242,14.242,0,0,1-1.607-6.578V126.586c0-8.205,6.964-14.856,15.556-14.856h38.3c8.591,0,15.555,6.651,15.555,14.856V146.6a14.264,14.264,0,0,1-1.605,6.578,14.372,14.372,0,0,0,3.235-9.07Z" transform="translate(-14.356 -6.541)" fill="#3e6380"/>
            <path id="Trazado_1034051" data-name="Trazado 1034051" d="M270.719,90.686c.821.218,1.585,1.672,3.482,1.419,1.651-.221,3.708.376,2.59,1.09-1.212.524-1.888.977.739,1.728,2.474,1.473,2.383,3.2,1.7,5.043-.3.817-2.484.866-3.349.758-3.147-.391-4.772-3.724-5.084-4.322,0,0-1.385-2.508-2.707-2.557s2.632-3.159,2.632-3.159" transform="translate(-16.387 -5.549)" fill="#af5936"/>
            <path id="Trazado_1034052" data-name="Trazado 1034052" d="M262.33,66.188c.2-2.364-1.307-7.424-1.848-8.723l-2.336,1.374a7.691,7.691,0,0,0-2.739,5.457c-.122,1.549-.013,3.118-.025,4.187-.179,15.836,6.239,18.883,12.564,25.88l5.426-4.906c-5.289-5.852-12.185-9.572-11.043-23.269" transform="translate(-15.624 -3.516)" fill="#fc9f9f"/>
          </g>
        </g>
      </g>
    </g>
  </g>
</svg>
