<svg xmlns="http://www.w3.org/2000/svg" xmlns:xlink="http://www.w3.org/1999/xlink" width="113" height="113" viewBox="0 0 113 113">
  <defs>
    <filter id="Trazado_982547" x="0" y="0" width="113" height="113" filterUnits="userSpaceOnUse">
      <feOffset dy="3" input="SourceAlpha"/>
      <feGaussianBlur stdDeviation="3" result="blur"/>
      <feFlood flood-opacity="0.161"/>
      <feComposite operator="in" in2="blur"/>
      <feComposite in="SourceGraphic"/>
    </filter>
  </defs>
  <g id="Grupo_1175226" data-name="Grupo 1175226" transform="translate(-586.5 -2607.015)">
    <g id="Grupo_1173989" data-name="Grupo 1173989" transform="translate(595.5 2613.015)">
      <g id="Grupo_1172010" data-name="Grupo 1172010">
        <g id="Grupo_1171046" data-name="Grupo 1171046">
          <g id="Grupo_1148525" data-name="Grupo 1148525">
            <g transform="matrix(1, 0, 0, 1, -9, -6)" filter="url(#Trazado_982547)">
              <g id="Trazado_982547-2" data-name="Trazado 982547" transform="translate(9 6)" fill="#f4fdfe">
                <path d="M 47.5 93.5 C 41.28937149047852 93.5 35.26533508300781 92.28397369384766 29.59518623352051 89.88570404052734 C 24.11771965026855 87.56893157958984 19.19813346862793 84.25196075439453 14.97309303283691 80.02691650390625 C 10.74804019927979 75.80186462402344 7.431066513061523 70.88229370117188 5.114293098449707 65.40481567382812 C 2.716026782989502 59.73468017578125 1.5 53.71062850952148 1.5 47.5 C 1.5 41.28937149047852 2.716026782989502 35.26533508300781 5.114293098449707 29.59518623352051 C 7.431066513061523 24.11771965026855 10.74804019927979 19.19813346862793 14.97309303283691 14.97309303283691 C 19.19813346862793 10.74804019927979 24.11771965026855 7.431066513061523 29.59518623352051 5.114293098449707 C 35.26533508300781 2.716026782989502 41.28937149047852 1.5 47.5 1.5 C 53.71062850952148 1.5 59.73468017578125 2.716026782989502 65.40481567382812 5.114293098449707 C 70.88229370117188 7.431066513061523 75.80186462402344 10.74804019927979 80.02691650390625 14.97309303283691 C 84.25196075439453 19.19813346862793 87.56893157958984 24.11771965026855 89.88570404052734 29.59518623352051 C 92.28397369384766 35.26533508300781 93.5 41.28937149047852 93.5 47.5 C 93.5 53.71062850952148 92.28397369384766 59.73468017578125 89.88570404052734 65.40481567382812 C 87.56893157958984 70.88229370117188 84.25196075439453 75.80186462402344 80.02691650390625 80.02691650390625 C 75.80186462402344 84.25196075439453 70.88229370117188 87.56893157958984 65.40481567382812 89.88570404052734 C 59.73468017578125 92.28397369384766 53.71062850952148 93.5 47.5 93.5 Z" stroke="none"/>
                <path d="M 47.5 3 C 41.49121475219727 3 35.66376876831055 4.176155090332031 30.17950439453125 6.495796203613281 C 24.88084411621094 8.736953735351562 20.12152099609375 11.94598388671875 16.03375244140625 16.03375244140625 C 11.94598388671875 20.12152099609375 8.736953735351562 24.88084411621094 6.495796203613281 30.17950439453125 C 4.176155090332031 35.66376876831055 3 41.49121475219727 3 47.5 C 3 53.50878524780273 4.176155090332031 59.33623123168945 6.495796203613281 64.82049560546875 C 8.736953735351562 70.11915588378906 11.94598388671875 74.87847900390625 16.03375244140625 78.96624755859375 C 20.12152099609375 83.05401611328125 24.88084411621094 86.26304626464844 30.17950439453125 88.50419616699219 C 35.66376876831055 90.82384490966797 41.49121475219727 92 47.5 92 C 53.50878524780273 92 59.33623123168945 90.82384490966797 64.82049560546875 88.50419616699219 C 70.11915588378906 86.26304626464844 74.87847900390625 83.05401611328125 78.96624755859375 78.96624755859375 C 83.05401611328125 74.87847900390625 86.26304626464844 70.11915588378906 88.50419616699219 64.82049560546875 C 90.82384490966797 59.33623123168945 92 53.50878524780273 92 47.5 C 92 41.49121475219727 90.82384490966797 35.66376876831055 88.50419616699219 30.17950439453125 C 86.26304626464844 24.88084411621094 83.05401611328125 20.12152099609375 78.96624755859375 16.03375244140625 C 74.87847900390625 11.94598388671875 70.11915588378906 8.736953735351562 64.82049560546875 6.495796203613281 C 59.33623123168945 4.176155090332031 53.50878524780273 3 47.5 3 M 47.5 0 C 73.7335205078125 0 95 21.2664794921875 95 47.5 C 95 73.7335205078125 73.7335205078125 95 47.5 95 C 21.2664794921875 95 0 73.7335205078125 0 47.5 C 0 21.2664794921875 21.2664794921875 0 47.5 0 Z" stroke="none" fill="#56838a"/>
              </g>
            </g>
          </g>
        </g>
      </g>
    </g>
    <g id="personality_10946924" transform="translate(607.165 2622.681)">
      <g id="Grupo_1174791" data-name="Grupo 1174791" transform="translate(7.5 7.499)">
        <path id="Trazado_1032042" data-name="Trazado 1032042" d="M112.467,377.132a3.1,3.1,0,0,1-3.115,3.079H90.692c-1.774-.064-6.383-.416-7.334-2.786-1.092-2.722,2.8-7.711,10.349-11.869a9.19,9.19,0,0,0,8.976-1.975C108.388,365.79,112.482,370.984,112.467,377.132Z" transform="translate(-74.242 -321.54)" fill="#83deff"/>
        <path id="Trazado_1032043" data-name="Trazado 1032043" d="M67.313,377.1a3.105,3.105,0,0,0,3.116,3.111H63.317A3.105,3.105,0,0,1,60.2,377.1c0-6.079,4.035-11.3,9.784-13.52a9.679,9.679,0,0,0,3.459,1.975A14.24,14.24,0,0,0,67.313,377.1Z" transform="translate(-53.979 -321.54)" fill="#2ecefb"/>
        <path id="Trazado_1032044" data-name="Trazado 1032044" d="M166.187,350.705a6.231,6.231,0,0,1-11.006,3.716,6.62,6.62,0,0,1,8.322-5.184,8.847,8.847,0,0,1,2,1.221C165.617,350.495,165.731,350.535,166.187,350.705Z" transform="translate(-137.745 -308.665)" fill="#ffccbf"/>
        <path id="Trazado_1032045" data-name="Trazado 1032045" d="M152.823,345.473a8.884,8.884,0,0,0-2.028,1.246,16.141,16.141,0,0,0-6.294,3.939,6.2,6.2,0,0,1-1.43-3.715q.3-.117.612-.223A8.762,8.762,0,0,1,152.823,345.473Z" transform="translate(-127.065 -304.901)" fill="#ffbbae"/>
        <path id="Trazado_1032046" data-name="Trazado 1032046" d="M112.7,30.134a34.247,34.247,0,0,1-30.887,5.059,18.807,18.807,0,0,1-2.871-14.267C81.112,11.16,90.7,7.718,91.254,7.53A20.45,20.45,0,0,1,112.7,30.134Z" transform="translate(-70.148 -7.499)" fill="#7a8fa5"/>
        <path id="Trazado_1032047" data-name="Trazado 1032047" d="M32.433,35.425a34.9,34.9,0,0,1-9.773-5.059,20.449,20.449,0,0,1,19.213-22.6C33.639,12.788,30.176,24.915,32.433,35.425Z" transform="translate(-20.765 -7.73)" fill="#5b778f"/>
        <path id="Trazado_1032048" data-name="Trazado 1032048" d="M12.435,202.558a3.557,3.557,0,1,1,.189-6.472c2.421.72,3.509,3.059,2.88,4.613A3.441,3.441,0,0,1,12.435,202.558Z" transform="translate(-7.5 -173.5)" fill="#ffbbae"/>
        <path id="Trazado_1032049" data-name="Trazado 1032049" d="M329.046,202.55a3.557,3.557,0,1,0-.185-6.474C326.813,197.928,326.653,200.955,329.046,202.55Z" transform="translate(-289.533 -173.491)" fill="#ffccbf"/>
        <path id="Trazado_1032050" data-name="Trazado 1032050" d="M92.424,186.268a15.627,15.627,0,0,1-10.451-24.074,3.529,3.529,0,0,1,3.111,0,18.15,18.15,0,0,0,16.03,0,3.539,3.539,0,0,1,3.909.537,12.768,12.768,0,0,0,3.652,2.27,3.525,3.525,0,0,1,2.2,3.194A17.73,17.73,0,0,1,92.424,186.268Z" transform="translate(-70.875 -143.61)" fill="#ffded0"/>
        <path id="Trazado_1032051" data-name="Trazado 1032051" d="M62.251,188.975a17.781,17.781,0,0,1-17.1-18.027,3.551,3.551,0,0,1,2.2-3.242c2.759-1.126,3.413-2.3,4.45-2.805-.072.863-.109,1.741-.109,2.63C51.691,177.188,56.049,185.469,62.251,188.975Z" transform="translate(-40.702 -146.318)" fill="#ffccbf"/>
        <path id="Trazado_1032052" data-name="Trazado 1032052" d="M409.748,430.878l-2.67-2.671a1.774,1.774,0,0,1,.062-2.567,1.806,1.806,0,0,1,2.481.095l.673.674a.59.59,0,0,0,.881-.051,34.922,34.922,0,0,1,3.974-4.277,1.773,1.773,0,0,1,2.386,2.624,31.492,31.492,0,0,0-5.055,5.9A1.773,1.773,0,0,1,409.748,430.878Z" transform="translate(-359.444 -372.726)" fill="#8ce09f"/>
        <path id="Trazado_1032053" data-name="Trazado 1032053" d="M409.748,310.408l-2.67-2.671a1.774,1.774,0,0,1,.062-2.567,1.806,1.806,0,0,1,2.481.095l.673.674a.59.59,0,0,0,.881-.051,34.921,34.921,0,0,1,3.974-4.277,1.773,1.773,0,1,1,2.386,2.624,31.492,31.492,0,0,0-5.055,5.9A1.773,1.773,0,0,1,409.748,310.408Z" transform="translate(-359.444 -266.479)" fill="#8ce09f"/>
        <path id="Trazado_1032054" data-name="Trazado 1032054" d="M89.592,242.892c0,1.587-1.614,2.873-3.606,2.874s-3.608-1.284-3.609-2.871,1.614-2.873,3.606-2.874S89.591,241.305,89.592,242.892Z" transform="translate(-73.537 -212.569)" fill="#ffa1ac"/>
        <path id="Trazado_1032055" data-name="Trazado 1032055" d="M247.987,242.812c0,1.587,1.616,2.872,3.609,2.871s3.607-1.288,3.606-2.874-1.616-2.872-3.609-2.871S247.986,241.226,247.987,242.812Z" transform="translate(-219.594 -212.495)" fill="#ffa1ac"/>
        <path id="Trazado_1032056" data-name="Trazado 1032056" d="M172.852,235.452c0-2.185-1.584-2.39-3.537-2.389s-3.536.207-3.535,2.392a3.558,3.558,0,1,0,7.072,0Z" transform="translate(-147.093 -206.432)" fill="#495560"/>
      </g>
      <g id="Grupo_1174795" data-name="Grupo 1174795" transform="translate(7.5 7.499)">
        <path id="Trazado_1032057" data-name="Trazado 1032057" d="M71.126,369.654a15.537,15.537,0,0,1,9.105-7.964" transform="translate(-63.614 -319.873)" fill="none" stroke="#000" stroke-linecap="round" stroke-linejoin="round" stroke-miterlimit="10" stroke-width="1"/>
        <path id="Trazado_1032058" data-name="Trazado 1032058" d="M81.741,361.483c6.056,2.047,10.481,7.407,10.466,13.8a3.105,3.105,0,0,1-3.115,3.079H63.32a3.1,3.1,0,0,1-3.115-3.111,13.576,13.576,0,0,1,.183-2.223" transform="translate(-53.982 -319.69)" fill="none" stroke="#000" stroke-linecap="round" stroke-linejoin="round" stroke-miterlimit="10" stroke-width="1"/>
        <path id="Trazado_1032059" data-name="Trazado 1032059" d="M22.615,165.618a20.717,20.717,0,0,0,.043,3.967" transform="translate(-20.765 -146.95)" fill="none" stroke="#000" stroke-linecap="round" stroke-linejoin="round" stroke-miterlimit="10" stroke-width="1"/>
        <path id="Trazado_1032060" data-name="Trazado 1032060" d="M68.561,30.135a20.451,20.451,0,0,0-40.076-7.523" transform="translate(-26.007 -7.5)" fill="none" stroke="#000" stroke-linecap="round" stroke-linejoin="round" stroke-miterlimit="10" stroke-width="1"/>
        <path id="Trazado_1032061" data-name="Trazado 1032061" d="M12.435,202.557a3.557,3.557,0,1,1,.189-6.472" transform="translate(-7.5 -173.499)" fill="none" stroke="#000" stroke-linecap="round" stroke-linejoin="round" stroke-miterlimit="10" stroke-width="1"/>
        <path id="Trazado_1032062" data-name="Trazado 1032062" d="M340.794,202.55a3.557,3.557,0,1,0-.185-6.474" transform="translate(-301.281 -173.492)" fill="none" stroke="#000" stroke-linecap="round" stroke-linejoin="round" stroke-miterlimit="10" stroke-width="1"/>
        <g id="Grupo_1174792" data-name="Grupo 1174792" transform="translate(12.831 25.473)">
          <path id="Trazado_1032063" data-name="Trazado 1032063" d="M172.852,235.452c0-2.185-1.584-2.39-3.537-2.389s-3.536.207-3.535,2.392a3.558,3.558,0,1,0,7.072,0Z" transform="translate(-159.924 -231.905)" fill="none" stroke="#000" stroke-linecap="round" stroke-linejoin="round" stroke-miterlimit="10" stroke-width="1"/>
          <path id="Trazado_1032064" data-name="Trazado 1032064" d="M119.616,225.04a1.717,1.717,0,0,0-3.434,0" transform="translate(-116.182 -223.316)" fill="none" stroke="#000" stroke-linecap="round" stroke-linejoin="round" stroke-miterlimit="10" stroke-width="1"/>
          <path id="Trazado_1032065" data-name="Trazado 1032065" d="M246.177,224.976a1.717,1.717,0,1,1,3.434,0" transform="translate(-230.829 -223.258)" fill="none" stroke="#000" stroke-linecap="round" stroke-linejoin="round" stroke-miterlimit="10" stroke-width="1"/>
        </g>
        <path id="Trazado_1032066" data-name="Trazado 1032066" d="M47.351,165A12.794,12.794,0,0,0,51,162.728a3.54,3.54,0,0,1,3.909-.538,18.15,18.15,0,0,0,16.029,0,3.54,3.54,0,0,1,3.909.538A12.8,12.8,0,0,0,78.5,165a3.525,3.525,0,0,1,2.2,3.193,17.779,17.779,0,1,1-35.554.048A3.549,3.549,0,0,1,47.351,165Z" transform="translate(-40.703 -143.609)" fill="none" stroke="#000" stroke-linecap="round" stroke-linejoin="round" stroke-miterlimit="10" stroke-width="1"/>
        <path id="Trazado_1032067" data-name="Trazado 1032067" d="M155.509,363.578a6.223,6.223,0,0,1-12.435,0" transform="translate(-127.068 -321.538)" fill="none" stroke="#000" stroke-linecap="round" stroke-linejoin="round" stroke-miterlimit="10" stroke-width="1"/>
        <g id="Grupo_1174793" data-name="Grupo 1174793" transform="translate(47.114 48.892)">
          <path id="Trazado_1032068" data-name="Trazado 1032068" d="M409.748,430.877l-2.67-2.671a1.774,1.774,0,0,1,.062-2.567,1.806,1.806,0,0,1,2.481.095l.673.674a.59.59,0,0,0,.881-.051,34.922,34.922,0,0,1,3.974-4.277,1.773,1.773,0,0,1,2.386,2.624,31.492,31.492,0,0,0-5.055,5.9A1.773,1.773,0,0,1,409.748,430.877Z" transform="translate(-406.559 -421.618)" fill="none" stroke="#000" stroke-linecap="round" stroke-linejoin="round" stroke-miterlimit="10" stroke-width="1"/>
        </g>
        <g id="Grupo_1174794" data-name="Grupo 1174794" transform="translate(47.114 34.669)">
          <path id="Trazado_1032069" data-name="Trazado 1032069" d="M409.748,310.406l-2.67-2.671a1.774,1.774,0,0,1,.062-2.567,1.806,1.806,0,0,1,2.481.095l.673.673a.59.59,0,0,0,.881-.051,34.919,34.919,0,0,1,3.974-4.276,1.773,1.773,0,1,1,2.386,2.624,31.492,31.492,0,0,0-5.055,5.9A1.773,1.773,0,0,1,409.748,310.406Z" transform="translate(-406.559 -301.147)" fill="none" stroke="#000" stroke-linecap="round" stroke-linejoin="round" stroke-miterlimit="10" stroke-width="1"/>
        </g>
        <line id="Línea_881" data-name="Línea 881" x2="7.112" transform="translate(36.447 42.67)" fill="none" stroke="#000" stroke-linecap="round" stroke-linejoin="round" stroke-miterlimit="10" stroke-width="1"/>
        <line id="Línea_882" data-name="Línea 882" x2="1.778" transform="translate(41.781 55.115)" fill="none" stroke="#000" stroke-linecap="round" stroke-linejoin="round" stroke-miterlimit="10" stroke-width="1"/>
      </g>
    </g>
  </g>
</svg>
