<svg xmlns="http://www.w3.org/2000/svg" xmlns:xlink="http://www.w3.org/1999/xlink" width="93.934" height="93.934" viewBox="0 0 93.934 93.934">
  <defs>
    <filter id="Trazado_982547" x="0" y="0" width="93.934" height="93.934" filterUnits="userSpaceOnUse">
      <feOffset dy="3" input="SourceAlpha"/>
      <feGaussianBlur stdDeviation="3" result="blur"/>
      <feFlood flood-opacity="0.161"/>
      <feComposite operator="in" in2="blur"/>
      <feComposite in="SourceGraphic"/>
    </filter>
  </defs>
  <g id="Grupo_1175132" data-name="Grupo 1175132" transform="translate(-189.033 -1986)">
    <g id="Grupo_1167337" data-name="Grupo 1167337" transform="translate(198.033 1992)">
      <g id="Grupo_1166720" data-name="Grupo 1166720">
        <g id="Grupo_1164305" data-name="Grupo 1164305">
          <g id="Grupo_1163948" data-name="Grupo 1163948">
            <g id="Grupo_1158168" data-name="Grupo 1158168">
              <g id="Grupo_1152576" data-name="Grupo 1152576">
                <g id="Grupo_1148633" data-name="Grupo 1148633">
                  <g id="Grupo_1148525" data-name="Grupo 1148525">
                    <g transform="matrix(1, 0, 0, 1, -9, -6)" filter="url(#Trazado_982547)">
                      <g id="Trazado_982547-2" data-name="Trazado 982547" transform="translate(9 6)" fill="#fefcf6">
                        <path d="M 37.966796875 74.43359375 C 33.04315185546875 74.43359375 28.26757431030273 73.46962738037109 23.77274131774902 71.56847381591797 C 19.43047523498535 69.73184967041016 15.53040790557861 67.10224914550781 12.18087482452393 63.75271987915039 C 8.831341743469238 60.4031867980957 6.201741218566895 56.50312042236328 4.365118980407715 52.16086196899414 C 2.463963508605957 47.66601943969727 1.499996900558472 42.89044189453125 1.499996900558472 37.966796875 C 1.499996900558472 33.04315185546875 2.463963508605957 28.26757431030273 4.365118980407715 23.77274131774902 C 6.201741218566895 19.43047523498535 8.831341743469238 15.53040790557861 12.18087482452393 12.18087482452393 C 15.53040790557861 8.831341743469238 19.43047523498535 6.201741218566895 23.77274131774902 4.365118980407715 C 28.26757431030273 2.463963508605957 33.04315185546875 1.499996900558472 37.966796875 1.499996900558472 C 42.89044189453125 1.499996900558472 47.66601943969727 2.463963508605957 52.16086196899414 4.365118980407715 C 56.50312042236328 6.201741218566895 60.4031867980957 8.831341743469238 63.75271987915039 12.18087482452393 C 67.10224914550781 15.53040790557861 69.73184967041016 19.43047523498535 71.56847381591797 23.77274131774902 C 73.46962738037109 28.26757431030273 74.43359375 33.04315185546875 74.43359375 37.966796875 C 74.43359375 42.89044189453125 73.46962738037109 47.66601943969727 71.56847381591797 52.16086196899414 C 69.73184967041016 56.50313186645508 67.10224914550781 60.4031867980957 63.75271987915039 63.75271987915039 C 60.4031867980957 67.10224914550781 56.50313186645508 69.73184967041016 52.16086196899414 71.56847381591797 C 47.66601943969727 73.46962738037109 42.89044189453125 74.43359375 37.966796875 74.43359375 Z" stroke="none"/>
                        <path d="M 37.966796875 3 C 33.2449836730957 3 28.66600799560547 3.924095153808594 24.35705947875977 5.746635437011719 C 20.19359588623047 7.507637023925781 16.45379638671875 10.02928161621094 13.24153518676758 13.24153518676758 C 10.02927398681641 16.45379638671875 7.507621765136719 20.19359588623047 5.746635437011719 24.35705947875977 C 3.924095153808594 28.66600799560547 3 33.2449836730957 3 37.966796875 C 3 42.6886100769043 3.924095153808594 47.26758575439453 5.746635437011719 51.57653427124023 C 7.507621765136719 55.73999786376953 10.02927398681641 59.47979736328125 13.24153518676758 62.69205856323242 C 16.45379638671875 65.90431976318359 20.19359588623047 68.42597198486328 24.35705947875977 70.18695831298828 C 28.66600799560547 72.00949859619141 33.2449836730957 72.93359375 37.966796875 72.93359375 C 42.6886100769043 72.93359375 47.26758575439453 72.00949859619141 51.57653427124023 70.18695831298828 C 55.73999786376953 68.42597198486328 59.47979736328125 65.90431976318359 62.69205856323242 62.69205856323242 C 65.90431976318359 59.47979736328125 68.42597198486328 55.73999786376953 70.18695831298828 51.57653427124023 C 72.00949859619141 47.26758575439453 72.93359375 42.6886100769043 72.93359375 37.966796875 C 72.93359375 33.2449836730957 72.00949859619141 28.66600799560547 70.18695831298828 24.35705947875977 C 68.42597198486328 20.19359588623047 65.90431976318359 16.45379638671875 62.69205856323242 13.24153518676758 C 59.47979736328125 10.02928161621094 55.73999786376953 7.507637023925781 51.57653427124023 5.746635437011719 C 47.26758575439453 3.924095153808594 42.6886100769043 3 37.966796875 3 M 37.966796875 0 C 58.93528366088867 0 75.93359375 16.99832153320312 75.93359375 37.966796875 C 75.93359375 58.93528366088867 58.93528366088867 75.93359375 37.966796875 75.93359375 C 16.99831008911133 75.93359375 0 58.93528366088867 0 37.966796875 C 0 16.99832153320312 16.99831008911133 0 37.966796875 0 Z" stroke="none" fill="#86815c"/>
                      </g>
                    </g>
                  </g>
                </g>
              </g>
            </g>
          </g>
        </g>
      </g>
    </g>
    <g id="inspire-idea_14781822" transform="translate(205.392 1998.876)">
      <g id="Grupo_1173645" data-name="Grupo 1173645" transform="translate(7.75 7.5)">
        <path id="Trazado_1029719" data-name="Trazado 1029719" d="M118.589,344.22v-3.348a2.036,2.036,0,0,0,1.655-2v-5.757h10.516v5.757a2.036,2.036,0,0,0,1.655,2l.286,2.884Z" transform="translate(-108.383 -303.133)" fill="#ca6e59"/>
        <path id="Trazado_1029720" data-name="Trazado 1029720" d="M57.955,16.562c0,6.625-3.565,14.495-12.641,11.892L37.74,25.009a2.991,2.991,0,0,1-.2-4.422l.764-.211.529-.526a3.16,3.16,0,0,1,.633-5.421.279.279,0,0,0,.163-.324,3,3,0,0,1-.084-.706,2.92,2.92,0,0,1,2.888-2.95,2.89,2.89,0,0,1,.562.056,1.371,1.371,0,0,1,.218-.221A1.166,1.166,0,0,0,43.7,9.267a3.254,3.254,0,0,1,4.559-.322.275.275,0,0,0,.412-.066,2.857,2.857,0,0,1,4.89,0,.275.275,0,0,0,.413.066,3.244,3.244,0,0,1,.649-.431C57.955,9.524,57.955,14.172,57.955,16.562Z" transform="translate(-33.998 -7.5)" fill="#73788c"/>
        <path id="Trazado_1029721" data-name="Trazado 1029721" d="M150.9,29.246a2.968,2.968,0,0,1-1.08,2.3l-8.662,4.707h-7.743l-2.775-1.262a13.605,13.605,0,0,0,9.309-19.94,3.223,3.223,0,0,1,1.466-.351,3.267,3.267,0,0,1,2.445,1.1l.152.743.551.5a2.888,2.888,0,0,1,.561-.056,2.92,2.92,0,0,1,2.888,2.95,3.016,3.016,0,0,1-.152.944,3.157,3.157,0,0,1,.865,5.507A2.94,2.94,0,0,1,150.9,29.246Z" transform="translate(-119.325 -14.037)" fill="#5e6577"/>
        <path id="Trazado_1029722" data-name="Trazado 1029722" d="M65.409,199.449a5.041,5.041,0,0,0,3.84-4.9h0a2,2,0,0,0-2-2H65.409l-20.193,0H43.379a2,2,0,0,0-2,2h0a5.041,5.041,0,0,0,3.84,4.9Z" transform="translate(-38.279 -175.51)" fill="#ca6e59"/>
        <path id="Trazado_1029723" data-name="Trazado 1029723" d="M98.235,130.93a2,2,0,0,1,2.6.858,8.008,8.008,0,0,0,.668,1.015l.435.579c.184.538.594,3.049,1.163,3.049v7.648a6.38,6.38,0,0,1-2.179,4.8l-3.962,3.467a4.253,4.253,0,0,1-2.8,1.052h-2.35a4.253,4.253,0,0,1-2.8-1.052l-3.962-3.467a6.38,6.38,0,0,1-2.179-4.8v-7.648a1.354,1.354,0,0,0,1.258-.925l.873-3.4a1.994,1.994,0,0,1,2.747-1.153l.127.061,1.026.393a11.364,11.364,0,0,0,8.132,0l1.026-.393Z" transform="translate(-75.958 -119.392)" fill="#d78878"/>
        <path id="Trazado_1029724" data-name="Trazado 1029724" d="M170.412,299.769c-2.184,0-2.282-2.016-2.245-2.748a.276.276,0,0,1,.276-.261h3.932a.275.275,0,0,1,.276.268C172.669,297.765,172.525,299.769,170.412,299.769Z" transform="translate(-153.392 -270.126)" fill="#eaf6ff"/>
        <path id="Trazado_1029725" data-name="Trazado 1029725" d="M13.806,438.989l-5.779-.013a.276.276,0,0,1-.276-.276v-5.131a.277.277,0,0,1,.148-.246,8.932,8.932,0,0,1,2.408-.829l.666-.133,5.873,2.178Z" transform="translate(-7.75 -393.24)" fill="#9be69d"/>
        <path id="Trazado_1029726" data-name="Trazado 1029726" d="M296.482,434.9l-2.23,3.638-7.7.006-2.785-4.876c.03-.031,5.629-1.789,5.629-1.789l.38.073a8.935,8.935,0,0,1,2.517.886Z" transform="translate(-258.357 -392.805)" fill="#9be69d"/>
        <path id="Trazado_1029727" data-name="Trazado 1029727" d="M120.537,418.39l.841,4.225-3.04,3.68-9.23.011-3.5-3.859,1.306-4.035A9.454,9.454,0,0,0,120.537,418.39Z" transform="translate(-96.597 -380.557)" fill="#eaf6ff"/>
        <path id="Trazado_1029728" data-name="Trazado 1029728" d="M48.14,407.905l-2.514-9.041a1.012,1.012,0,0,0-1.269-.7l-5.589,1.7a.438.438,0,0,0-.274.6l1.179,2.67a.276.276,0,0,0,.191.158l2.873.659a.276.276,0,0,1,.165.427l-1.559,2.234a.276.276,0,0,0-.034.251l.375,1.038Z" transform="translate(-35.628 -362.156)" fill="#bbf49b"/>
        <path id="Trazado_1029729" data-name="Trazado 1029729" d="M243.879,407.687l2.517-9.051a1.011,1.011,0,0,1,1.269-.7l5.589,1.7a.439.439,0,0,1,.274.6l-1.179,2.67a.276.276,0,0,1-.191.158l-2.873.659a.276.276,0,0,0-.165.427l1.559,2.235a.276.276,0,0,1,.033.251l-.377,1.051Z" transform="translate(-222.137 -361.949)" fill="#bbf49b"/>
        <g id="Grupo_1173642" data-name="Grupo 1173642" transform="translate(34.085 24.978)">
          <path id="Trazado_1029730" data-name="Trazado 1029730" d="M388.874,387.922v3.541a10.787,10.787,0,0,1-.243,2.147,7.541,7.541,0,0,1-.872,1.569c-.558.939-.314,1.906-.31,3l-.708.452h-6.978v-1.516a3.808,3.808,0,0,0-1-2.574,3.152,3.152,0,0,1-.828-2.127v-1.526a1.867,1.867,0,0,1,.8-1.53Z" transform="translate(-377.933 -377.872)" fill="#d78878"/>
          <g id="Grupo_1173641" data-name="Grupo 1173641" transform="translate(8.516 5.945)">
            <path id="Trazado_1029731" data-name="Trazado 1029731" d="M472.849,343.944v3.511a.736.736,0,0,1-.3.659c-.221.221-1-.117-1.334-.114l-.6-.642-.194-2.282.637-.492a1.235,1.235,0,0,1,1.2-1.233C472.67,343.5,472.849,343.709,472.849,343.944Z" transform="translate(-470.425 -343.35)" fill="#d78878"/>
            <path id="Trazado_1029732" data-name="Trazado 1029732" d="M481.368,344.574v2.774a1.236,1.236,0,0,1-2.235.726l-.079-.084a1.235,1.235,0,0,0,1.225-1.236v-2.772a1.228,1.228,0,0,0-.18-.642h.033A1.235,1.235,0,0,1,481.368,344.574Z" transform="translate(-478.259 -343.34)" fill="#ca6e59"/>
          </g>
          <path id="Trazado_1029733" data-name="Trazado 1029733" d="M476.374,386.87v3.693a6.023,6.023,0,0,1-.847,3.08,6.024,6.024,0,0,0-.846,3.1l0,.651a.276.276,0,0,1-.276.277h-.85l0-.928a6.033,6.033,0,0,1,.847-3.1,6.022,6.022,0,0,0,.847-3.08v-3.534Z" transform="translate(-464.749 -376.916)" fill="#ca6e59"/>
          <path id="Trazado_1029734" data-name="Trazado 1029734" d="M391.174,281.216v9.974c0,.716-1.172,1.3-1.888,1.3l.609-1.627-.842-.8v-8.848a1.3,1.3,0,0,1,.768-1.186A1.2,1.2,0,0,1,391.174,281.216Z" transform="translate(-388.028 -279.914)" fill="#d78878"/>
          <path id="Trazado_1029735" data-name="Trazado 1029735" d="M417.409,332.037v3.272c0,.528-.857.984-1.31,1.188a1.305,1.305,0,0,1-.771-1.188l-.318-.07v-3.09l.318-.113a1.3,1.3,0,0,1,.771-1.187C417.192,330.99,417.409,331.51,417.409,332.037Z" transform="translate(-411.597 -326.055)" fill="#d78878"/>
          <path id="Trazado_1029736" data-name="Trazado 1029736" d="M447,332.037v3.47c0,.527-.953.983-1.406,1.187a1.3,1.3,0,0,1-.771-1.187l-.31-.2v-3.132l.31-.141a1.3,1.3,0,0,1,.771-1.187C446.829,331.018,447,331.51,447,332.037Z" transform="translate(-438.383 -326.055)" fill="#d78878"/>
          <path id="Trazado_1029737" data-name="Trazado 1029737" d="M399.334,280.072v9.443a.589.589,0,0,1-1.173,0v-9.443a1.305,1.305,0,0,0-.767-1.186,1.282,1.282,0,0,1,.534-.116h.1A1.305,1.305,0,0,1,399.334,280.072Z" transform="translate(-395.602 -278.77)" fill="#ca6e59"/>
          <path id="Trazado_1029738" data-name="Trazado 1029738" d="M428.772,330.9v3.272a1.306,1.306,0,0,1-1.3,1.3h-.1a1.271,1.271,0,0,1-.531-.115,1.305,1.305,0,0,0,.771-1.188V330.9a1.3,1.3,0,0,0-.771-1.187,1.271,1.271,0,0,1,.531-.115h.1A1.306,1.306,0,0,1,428.772,330.9Z" transform="translate(-422.331 -324.92)" fill="#ca6e59"/>
          <path id="Trazado_1029739" data-name="Trazado 1029739" d="M458.192,330.9v3.47a1.306,1.306,0,0,1-1.3,1.3h-.1a1.268,1.268,0,0,1-.531-.115,1.3,1.3,0,0,0,.77-1.187V330.9a1.3,1.3,0,0,0-.77-1.187,1.269,1.269,0,0,1,.531-.115h.1A1.307,1.307,0,0,1,458.192,330.9Z" transform="translate(-449.042 -324.92)" fill="#ca6e59"/>
          <path id="Trazado_1029740" data-name="Trazado 1029740" d="M398.193,366.892a2.8,2.8,0,0,1-.059.573c-.242,1.158-1.965,1.3-3.186,1.429a3.9,3.9,0,0,0-2.308-.314c-.73.226-1.188,1.4-1.2,1.39l-2.39-1.25v-1.177l2.308-1.659a2.586,2.586,0,0,1,1.478-.481l3.832-.036A1.528,1.528,0,0,1,398.193,366.892Z" transform="translate(-388.026 -357.393)" fill="#ca6e59"/>
          <path id="Trazado_1029741" data-name="Trazado 1029741" d="M390.105,380.45l1.09-1.467a.276.276,0,0,1,.188-.109l2.356-.286a1.87,1.87,0,0,0,1.289-1.793.629.629,0,0,0-.633-.615h-3.466a2.339,2.339,0,0,0-1.342.423l-2.992,2.094Z" transform="translate(-385.797 -367.21)" fill="#d78878"/>
        </g>
        <g id="Grupo_1173644" data-name="Grupo 1173644" transform="translate(25.3 1.301)">
          <path id="Trazado_1029742" data-name="Trazado 1029742" d="M300.985,29.012A10.726,10.726,0,0,1,290.335,39.9c-1.943,0-6.208-1.426-6.763-2.974l.1-.424a.274.274,0,0,0-.024-.192,10.054,10.054,0,0,1,15.568-12.172A9.544,9.544,0,0,1,300.985,29.012Z" transform="translate(-282.517 -21.635)" fill="#eaf6ff"/>
          <path id="Trazado_1029743" data-name="Trazado 1029743" d="M303.638,58.536a10.07,10.07,0,0,1-15.091,6.43.275.275,0,0,0-.2-.036l-4.146.79a.277.277,0,0,1-.32-.338l.922-3.729a10.843,10.843,0,0,0,15.649-12.788A10.03,10.03,0,0,1,303.638,58.536Z" transform="translate(-283.751 -46.358)" fill="#d8ecfe"/>
        </g>
        <path id="Trazado_1030505" data-name="Trazado 1030505" d="M2.61-3.9H1.76L1.4-12.136H2.969ZM1.245-1.541a.982.982,0,0,1,.265-.776.976.976,0,0,1,.663-.23.979.979,0,0,1,.659.23.974.974,0,0,1,.269.776,1.015,1.015,0,0,1-.269.784.942.942,0,0,1-.659.246A.938.938,0,0,1,1.51-.757,1.024,1.024,0,0,1,1.245-1.541Z" transform="translate(33.185 17.056)" fill="#0b0a0a"/>
      </g>
      <g id="Grupo_1173654" data-name="Grupo 1173654" transform="translate(7.75 7.5)">
        <g id="Grupo_1173646" data-name="Grupo 1173646" transform="translate(3.096 17.041)">
          <path id="Trazado_1029750" data-name="Trazado 1029750" d="M45.17,199.466a5.041,5.041,0,0,1-3.794-4.884h0a2,2,0,0,1,2-2h1.836" transform="translate(-41.376 -192.577)" fill="none" stroke="#000" stroke-linecap="round" stroke-linejoin="round" stroke-miterlimit="10" stroke-width="1.3"/>
          <path id="Trazado_1029751" data-name="Trazado 1029751" d="M306.566,232.041a5.05,5.05,0,0,1-3.509,3.249" transform="translate(-278.962 -228.407)" fill="none" stroke="#000" stroke-linecap="round" stroke-linejoin="round" stroke-miterlimit="10" stroke-width="1.3"/>
        </g>
        <path id="Trazado_1029752" data-name="Trazado 1029752" d="M209.872,132.043a11.361,11.361,0,0,0,2.47-.64l1.026-.393.17-.08a1.994,1.994,0,0,1,2.735,1.158" transform="translate(-191.261 -119.392)" fill="none" stroke="#000" stroke-linecap="round" stroke-linejoin="round" stroke-miterlimit="10" stroke-width="1.3"/>
        <path id="Trazado_1029753" data-name="Trazado 1029753" d="M103.106,140.281v3.932a6.38,6.38,0,0,1-2.179,4.8l-3.962,3.467a4.253,4.253,0,0,1-2.8,1.052h-2.35a4.253,4.253,0,0,1-2.8-1.052l-3.962-3.467a6.38,6.38,0,0,1-2.179-4.8v-7.648a1.354,1.354,0,0,0,1.258-.925l.873-3.4a1.994,1.994,0,0,1,2.747-1.153l.127.061,1.026.393a11.359,11.359,0,0,0,2.455.638" transform="translate(-75.958 -119.526)" fill="none" stroke="#000" stroke-linecap="round" stroke-linejoin="round" stroke-miterlimit="10" stroke-width="1.3"/>
        <g id="Grupo_1173648" data-name="Grupo 1173648" transform="translate(11.189 16.166)">
          <g id="Grupo_1173647" data-name="Grupo 1173647">
            <path id="Trazado_1029754" data-name="Trazado 1029754" d="M184.025,262.089a2.135,2.135,0,0,1-1.936,0" transform="translate(-177.225 -254.813)" fill="none" stroke="#000" stroke-linecap="round" stroke-linejoin="round" stroke-miterlimit="10" stroke-width="1.3"/>
            <path id="Trazado_1029755" data-name="Trazado 1029755" d="M132.806,183.527a3.682,3.682,0,0,0-3.54,0" transform="translate(-129.266 -183.073)" fill="none" stroke="#000" stroke-linecap="round" stroke-linejoin="round" stroke-miterlimit="10" stroke-width="1.3"/>
            <path id="Trazado_1029756" data-name="Trazado 1029756" d="M221.026,183.527a3.682,3.682,0,0,0-3.54,0" transform="translate(-209.363 -183.073)" fill="none" stroke="#000" stroke-linecap="round" stroke-linejoin="round" stroke-miterlimit="10" stroke-width="1.3"/>
            <line id="Línea_797" data-name="Línea 797" y1="1.568" transform="translate(9.893 2.659)" fill="none" stroke="#000" stroke-linecap="round" stroke-linejoin="round" stroke-miterlimit="10" stroke-width="1.3"/>
            <line id="Línea_798" data-name="Línea 798" y1="1.568" transform="translate(1.77 2.659)" fill="none" stroke="#000" stroke-linecap="round" stroke-linejoin="round" stroke-miterlimit="10" stroke-width="1.3"/>
          </g>
          <path id="Trazado_1029757" data-name="Trazado 1029757" d="M170.413,299.769c-2.669,0-2.222-3.009-2.222-3.009h4.444S173,299.769,170.413,299.769Z" transform="translate(-164.581 -286.292)" fill="none" stroke="#000" stroke-linecap="round" stroke-linejoin="round" stroke-miterlimit="10" stroke-width="1.3"/>
        </g>
        <path id="Trazado_1029758" data-name="Trazado 1029758" d="M62,11.482a2.847,2.847,0,0,0-2.757-.976,3.314,3.314,0,0,0-3.147-2.343,3.261,3.261,0,0,0-2.364,1.018,2.863,2.863,0,0,0-5.215,0,3.261,3.261,0,0,0-2.364-1.018A3.314,3.314,0,0,0,43,10.506a2.845,2.845,0,0,0-.562-.056,2.919,2.919,0,0,0-2.888,2.95,3,3,0,0,0,.152.944,3.157,3.157,0,0,0-.865,5.508,2.975,2.975,0,0,0-1.1,5.159" transform="translate(-34.002 -7.5)" fill="none" stroke="#000" stroke-linecap="round" stroke-linejoin="round" stroke-miterlimit="10" stroke-width="1.3"/>
        <path id="Trazado_1029759" data-name="Trazado 1029759" d="M61.63,142.169a2.89,2.89,0,0,1-1.3-.528" transform="translate(-55.486 -129.29)" fill="none" stroke="#000" stroke-linecap="round" stroke-linejoin="round" stroke-miterlimit="10" stroke-width="1.3"/>
        <path id="Trazado_1029760" data-name="Trazado 1029760" d="M105.6,40.2a2.74,2.74,0,0,1,1.737,1.154" transform="translate(-96.59 -37.188)" fill="none" stroke="#000" stroke-linecap="round" stroke-linejoin="round" stroke-miterlimit="10" stroke-width="1.3"/>
        <path id="Trazado_1029761" data-name="Trazado 1029761" d="M267.941,40.183a2.744,2.744,0,0,0-1.4,1.063" transform="translate(-242.717 -37.174)" fill="none" stroke="#000" stroke-linecap="round" stroke-linejoin="round" stroke-miterlimit="10" stroke-width="1.3"/>
        <path id="Trazado_1029762" data-name="Trazado 1029762" d="M299.877,31.809q-.046.292-.11.584a10.365,10.365,0,0,1-15.63,6.561l-4.812.917,1.188-4.81a10.339,10.339,0,0,1,7.4-15.06" transform="translate(-254.292 -18.851)" fill="none" stroke="#000" stroke-linecap="round" stroke-linejoin="round" stroke-miterlimit="10" stroke-width="1.3"/>
        <path id="Trazado_1029763" data-name="Trazado 1029763" d="M407.545,19.544q.372.053.744.134a10.351,10.351,0,0,1,8.032,8.493" transform="translate(-370.733 -18.435)" fill="none" stroke="#000" stroke-linecap="round" stroke-linejoin="round" stroke-miterlimit="10" stroke-width="1.3"/>
        <path id="Trazado_1029767" data-name="Trazado 1029767" d="M346.53,432.195l.231.044a8.915,8.915,0,0,1,2.516.886" transform="translate(-315.336 -393.091)" fill="none" stroke="#000" stroke-linecap="round" stroke-linejoin="round" stroke-miterlimit="10" stroke-width="1.3"/>
        <path id="Trazado_1029768" data-name="Trazado 1029768" d="M250.768,358.351v3.433a2.036,2.036,0,0,0,1.655,2" transform="translate(-228.392 -326.046)" fill="none" stroke="#000" stroke-linecap="round" stroke-linejoin="round" stroke-miterlimit="10" stroke-width="1.3"/>
        <path id="Trazado_1029769" data-name="Trazado 1029769" d="M118.589,417.362h0a9.456,9.456,0,0,0,13.825,0h0" transform="translate(-108.383 -379.623)" fill="none" stroke="#000" stroke-linecap="round" stroke-linejoin="round" stroke-miterlimit="10" stroke-width="1.3"/>
        <path id="Trazado_1029770" data-name="Trazado 1029770" d="M10.669,365.226l-.362.073a8.917,8.917,0,0,0-2.556.907m11.86-7.855v3.433a2.036,2.036,0,0,1-1.655,2l-.106.02" transform="translate(-7.75 -326.046)" fill="none" stroke="#000" stroke-linecap="round" stroke-linejoin="round" stroke-miterlimit="10" stroke-width="1.3"/>
        <g id="Grupo_1173650" data-name="Grupo 1173650" transform="translate(2.574 35.967)">
          <path id="Trazado_1029771" data-name="Trazado 1029771" d="M44.318,404.06l-1.445-5.2a1.012,1.012,0,0,0-1.269-.7l-5.589,1.7a.438.438,0,0,0-.274.6l1.235,2.8,3.407.782-1.875,2.687.425,1.185" transform="translate(-35.703 -398.124)" fill="none" stroke="#000" stroke-linecap="round" stroke-linejoin="round" stroke-miterlimit="10" stroke-width="1.3"/>
          <line id="Línea_801" data-name="Línea 801" x1="0.21" y1="0.754" transform="translate(9.479 9.041)" fill="none" stroke="#000" stroke-linecap="round" stroke-linejoin="round" stroke-miterlimit="10" stroke-width="1.3"/>
          <path id="Trazado_1029772" data-name="Trazado 1029772" d="M244.868,407.919l2.518-9.054a1.011,1.011,0,0,1,1.269-.7l5.589,1.7a.439.439,0,0,1,.274.6l-1.235,2.8-3.407.781,1.875,2.687-.425,1.185" transform="translate(-225.609 -398.125)" fill="none" stroke="#000" stroke-linecap="round" stroke-linejoin="round" stroke-miterlimit="10" stroke-width="1.3"/>
        </g>
        <g id="Grupo_1173653" data-name="Grupo 1173653" transform="translate(34.091 25.004)">
          <g id="Grupo_1173651" data-name="Grupo 1173651" transform="translate(9.154 5.945)">
            <path id="Trazado_1029773" data-name="Trazado 1029773" d="M479.883,344.86a1.234,1.234,0,0,0-1.234-1.234h0a1.236,1.236,0,0,0-1.236,1.236v2.771a1.236,1.236,0,0,0,1.236,1.236h0a1.236,1.236,0,0,0,1.236-1.236Z" transform="translate(-477.412 -343.626)" fill="none" stroke="#000" stroke-linecap="round" stroke-linejoin="round" stroke-miterlimit="10" stroke-width="1.3"/>
            <path id="Trazado_1029774" data-name="Trazado 1029774" d="M490.831,400.563" transform="translate(-489.595 -395.32)" fill="none" stroke="#000" stroke-linecap="round" stroke-linejoin="round" stroke-miterlimit="10" stroke-width="1.3"/>
          </g>
          <g id="Grupo_1173652" data-name="Grupo 1173652" transform="translate(9.931 9.988)">
            <path id="Trazado_1029775" data-name="Trazado 1029775" d="M487.551,387.53v3.693a6,6,0,0,1-.847,3.046h0a6.027,6.027,0,0,0-.847,3.1l0,.928" transform="translate(-485.858 -387.53)" fill="none" stroke="#000" stroke-linecap="round" stroke-linejoin="round" stroke-miterlimit="10" stroke-width="1.3"/>
          </g>
          <path id="Trazado_1029776" data-name="Trazado 1029776" d="M433.859,414.75a5.052,5.052,0,0,1,1.079,4.619l-.038.147" transform="translate(-428.716 -402.256)" fill="none" stroke="#000" stroke-linecap="round" stroke-linejoin="round" stroke-miterlimit="10" stroke-width="1.3"/>
          <path id="Trazado_1029777" data-name="Trazado 1029777" d="M389.115,290.326v-9.967a1.306,1.306,0,0,1,1.3-1.3h.1a1.306,1.306,0,0,1,1.3,1.3v8.1" transform="translate(-388.091 -279.057)" fill="none" stroke="#000" stroke-linecap="round" stroke-linejoin="round" stroke-miterlimit="10" stroke-width="1.3"/>
          <path id="Trazado_1029778" data-name="Trazado 1029778" d="M418.532,331.2a1.306,1.306,0,0,1,1.3-1.3h.1a1.306,1.306,0,0,1,1.3,1.3v2.964" transform="translate(-414.8 -325.212)" fill="none" stroke="#000" stroke-linecap="round" stroke-linejoin="round" stroke-miterlimit="10" stroke-width="1.3"/>
          <path id="Trazado_1029779" data-name="Trazado 1029779" d="M447.947,334.127V331.2a1.306,1.306,0,0,1,1.3-1.3h.1a1.306,1.306,0,0,1,1.3,1.3v1.243" transform="translate(-441.506 -325.212)" fill="none" stroke="#000" stroke-linecap="round" stroke-linejoin="round" stroke-miterlimit="10" stroke-width="1.3"/>
          <path id="Trazado_1029780" data-name="Trazado 1029780" d="M382.307,380.739l1.161-1.562,2.326-.3a1.87,1.87,0,0,0,1.289-1.776.633.633,0,0,0-.633-.632h-3.319a2.339,2.339,0,0,0-1.342.423l-2.992,2.094a1.869,1.869,0,0,0-.8,1.531v1.525a3.148,3.148,0,0,0,.828,2.127,3.809,3.809,0,0,1,1,2.574v1.515" transform="translate(-377.999 -367.499)" fill="none" stroke="#000" stroke-linecap="round" stroke-linejoin="round" stroke-miterlimit="10" stroke-width="1.3"/>
        </g>
      </g>
    </g>
  </g>
</svg>
