<svg xmlns="http://www.w3.org/2000/svg" xmlns:xlink="http://www.w3.org/1999/xlink" width="113" height="113" viewBox="0 0 113 113">
  <defs>
    <filter id="Trazado_982547" x="0" y="0" width="113" height="113" filterUnits="userSpaceOnUse">
      <feOffset dy="3" input="SourceAlpha"/>
      <feGaussianBlur stdDeviation="3" result="blur"/>
      <feFlood flood-opacity="0.161"/>
      <feComposite operator="in" in2="blur"/>
      <feComposite in="SourceGraphic"/>
    </filter>
  </defs>
  <g id="Grupo_1175412" data-name="Grupo 1175412" transform="translate(9 6)">
    <g id="Grupo_1172010" data-name="Grupo 1172010">
      <g id="Grupo_1171046" data-name="Grupo 1171046">
        <g id="Grupo_1148525" data-name="Grupo 1148525">
          <g transform="matrix(1, 0, 0, 1, -9, -6)" filter="url(#Trazado_982547)">
            <g id="Trazado_982547-2" data-name="Trazado 982547" transform="translate(9 6)" fill="#f4fdfe">
              <path d="M 47.5 93.5 C 41.28937149047852 93.5 35.26533508300781 92.28397369384766 29.59518623352051 89.88570404052734 C 24.11771965026855 87.56893157958984 19.19813346862793 84.25196075439453 14.97309303283691 80.02691650390625 C 10.74804019927979 75.80186462402344 7.431066513061523 70.88229370117188 5.114293098449707 65.40481567382812 C 2.716026782989502 59.73468017578125 1.5 53.71062850952148 1.5 47.5 C 1.5 41.28937149047852 2.716026782989502 35.26533508300781 5.114293098449707 29.59518623352051 C 7.431066513061523 24.11771965026855 10.74804019927979 19.19813346862793 14.97309303283691 14.97309303283691 C 19.19813346862793 10.74804019927979 24.11771965026855 7.431066513061523 29.59518623352051 5.114293098449707 C 35.26533508300781 2.716026782989502 41.28937149047852 1.5 47.5 1.5 C 53.71062850952148 1.5 59.73468017578125 2.716026782989502 65.40481567382812 5.114293098449707 C 70.88229370117188 7.431066513061523 75.80186462402344 10.74804019927979 80.02691650390625 14.97309303283691 C 84.25196075439453 19.19813346862793 87.56893157958984 24.11771965026855 89.88570404052734 29.59518623352051 C 92.28397369384766 35.26533508300781 93.5 41.28937149047852 93.5 47.5 C 93.5 53.71062850952148 92.28397369384766 59.73468017578125 89.88570404052734 65.40481567382812 C 87.56893157958984 70.88229370117188 84.25196075439453 75.80186462402344 80.02691650390625 80.02691650390625 C 75.80186462402344 84.25196075439453 70.88229370117188 87.56893157958984 65.40481567382812 89.88570404052734 C 59.73468017578125 92.28397369384766 53.71062850952148 93.5 47.5 93.5 Z" stroke="none"/>
              <path d="M 47.5 3 C 41.49121475219727 3 35.66376876831055 4.176155090332031 30.17950439453125 6.495796203613281 C 24.88084411621094 8.736953735351562 20.12152099609375 11.94598388671875 16.03375244140625 16.03375244140625 C 11.94598388671875 20.12152099609375 8.736953735351562 24.88084411621094 6.495796203613281 30.17950439453125 C 4.176155090332031 35.66376876831055 3 41.49121475219727 3 47.5 C 3 53.50878524780273 4.176155090332031 59.33623123168945 6.495796203613281 64.82049560546875 C 8.736953735351562 70.11915588378906 11.94598388671875 74.87847900390625 16.03375244140625 78.96624755859375 C 20.12152099609375 83.05401611328125 24.88084411621094 86.26304626464844 30.17950439453125 88.50419616699219 C 35.66376876831055 90.82384490966797 41.49121475219727 92 47.5 92 C 53.50878524780273 92 59.33623123168945 90.82384490966797 64.82049560546875 88.50419616699219 C 70.11915588378906 86.26304626464844 74.87847900390625 83.05401611328125 78.96624755859375 78.96624755859375 C 83.05401611328125 74.87847900390625 86.26304626464844 70.11915588378906 88.50419616699219 64.82049560546875 C 90.82384490966797 59.33623123168945 92 53.50878524780273 92 47.5 C 92 41.49121475219727 90.82384490966797 35.66376876831055 88.50419616699219 30.17950439453125 C 86.26304626464844 24.88084411621094 83.05401611328125 20.12152099609375 78.96624755859375 16.03375244140625 C 74.87847900390625 11.94598388671875 70.11915588378906 8.736953735351562 64.82049560546875 6.495796203613281 C 59.33623123168945 4.176155090332031 53.50878524780273 3 47.5 3 M 47.5 0 C 73.7335205078125 0 95 21.2664794921875 95 47.5 C 95 73.7335205078125 73.7335205078125 95 47.5 95 C 21.2664794921875 95 0 73.7335205078125 0 47.5 C 0 21.2664794921875 21.2664794921875 0 47.5 0 Z" stroke="none" fill="#56838a"/>
            </g>
          </g>
        </g>
      </g>
    </g>
    <g id="problem-solving_16135307" transform="translate(18.067 16.799)">
      <g id="Grupo_1176332" data-name="Grupo 1176332" transform="translate(0.923 0.923)">
        <g id="Grupo_1176330" data-name="Grupo 1176330" transform="translate(0 11.87)">
          <path id="Trazado_1034093" data-name="Trazado 1034093" d="M62.385,116.844l3.636,4.86v37.461c-8.562-2.52-17.669-5.326-26.072-.437a4.82,4.82,0,0,1-4.875,0c-8.4-4.889-17.51-2.083-26.072.437V121.7l3.636-4.86q15.12-4.451,24.874,1.648Q47.265,112.394,62.385,116.844Z" transform="translate(-9.001 -114.966)" fill="#64b5f6" fill-rule="evenodd"/>
          <path id="Trazado_1034094" data-name="Trazado 1034094" d="M66.021,453.969v2.309c-8.562-2.521-17.669-5.326-26.072-.437a4.819,4.819,0,0,1-4.875,0c-8.4-4.889-17.51-2.084-26.072.437v-2.309c8.562-2.52,17.669-5.326,26.072-.437a4.819,4.819,0,0,0,4.875,0C48.352,448.643,57.459,451.45,66.021,453.969Z" transform="translate(-9.002 -412.08)" fill="#42a5f5" fill-rule="evenodd"/>
          <path id="Trazado_1034095" data-name="Trazado 1034095" d="M64.764,155.585Q55.15,149.992,40.5,154.3V116.843q15.12-4.451,24.874,1.648,9.754-6.1,24.874-1.648V154.3q-14.651-4.313-24.265,1.281A1.184,1.184,0,0,1,64.764,155.585Z" transform="translate(-36.863 -114.965)" fill="#eff4f7" fill-rule="evenodd"/>
          <path id="Trazado_1034096" data-name="Trazado 1034096" d="M64.764,429.484Q55.15,423.89,40.5,428.2v-1.721q14.651-4.313,24.265,1.281a1.186,1.186,0,0,0,1.219,0q9.613-5.593,24.265-1.281V428.2q-14.652-4.312-24.265,1.282A1.186,1.186,0,0,1,64.764,429.484Z" transform="translate(-36.863 -388.865)" fill="#ddd" fill-rule="evenodd"/>
          <path id="Trazado_1034097" data-name="Trazado 1034097" d="M256,118.492q9.754-6.1,24.874-1.648v37.461q-14.652-4.313-24.265,1.281a1.209,1.209,0,0,1-.61.169Z" transform="translate(-227.49 -114.966)" fill="#ddd" fill-rule="evenodd"/>
          <path id="Trazado_1034098" data-name="Trazado 1034098" d="M280.874,131.234V168.7q-14.651-4.313-24.265,1.281a1.2,1.2,0,0,1-.609.169v-1.721a1.2,1.2,0,0,0,.609-.169q9.614-5.593,24.265-1.281Z" transform="translate(-227.49 -129.356)" fill="#bdbdbd" fill-rule="evenodd"/>
        </g>
        <g id="Grupo_1176331" data-name="Grupo 1176331" transform="translate(15.285 0)">
          <path id="Trazado_1034099" data-name="Trazado 1034099" d="M231.688,266.136v3.306a2.685,2.685,0,0,1-2.679,2.679h-1.9a2.684,2.684,0,0,1-2.679-2.679v-2.406Z" transform="translate(-214.85 -236.817)" fill="#465759" fill-rule="evenodd"/>
          <path id="Trazado_1034100" data-name="Trazado 1034100" d="M256.405,266.136v3.306a2.685,2.685,0,0,1-2.679,2.678h-1.353a2.685,2.685,0,0,0,2.679-2.678V266.3Z" transform="translate(-239.567 -236.816)" fill="#3a484a" fill-rule="evenodd"/>
          <path id="Trazado_1034101" data-name="Trazado 1034101" d="M154.635,12.127a13.211,13.211,0,0,1,6.753,24.566,2.615,2.615,0,0,0-1.308,2.3v3.221a1.819,1.819,0,0,1-1.816,1.816h-7.258a1.819,1.819,0,0,1-1.816-1.816V38.994a2.616,2.616,0,0,0-1.308-2.3,13.211,13.211,0,0,1,6.752-24.566Z" transform="translate(-141.426 -12.127)" fill="#ffda2d" fill-rule="evenodd"/>
          <path id="Trazado_1034102" data-name="Trazado 1034102" d="M247.748,12.127A13.211,13.211,0,0,1,254.5,36.693a2.615,2.615,0,0,0-1.308,2.3v3.221a1.819,1.819,0,0,1-1.816,1.816h-2.119a1.819,1.819,0,0,0,1.816-1.816V38.994a2.616,2.616,0,0,1,1.308-2.3,13.211,13.211,0,0,0-5.693-24.523Q247.213,12.128,247.748,12.127Z" transform="translate(-234.539 -12.127)" fill="#ffc700" fill-rule="evenodd"/>
          <path id="Trazado_1034103" data-name="Trazado 1034103" d="M148.3,20.511A2.786,2.786,0,0,1,150.2,25.34h4.465V20.875a2.786,2.786,0,1,0,0-3.788V12.126a13.213,13.213,0,0,0-13.236,13.21c0,.007,4.564,0,4.983,0a2.786,2.786,0,0,1,1.894-4.829Z" transform="translate(-141.425 -12.126)" fill="#fc685b" fill-rule="evenodd"/>
          <path id="Trazado_1034104" data-name="Trazado 1034104" d="M262.457,131.433a2.786,2.786,0,0,1-1.895-4.829H256.1v.692h3.152a3.479,3.479,0,1,0,6.412,0h3.63q.019-.344.019-.692H264.35a2.785,2.785,0,0,1-1.893,4.829Z" transform="translate(-242.862 -113.391)" fill="#ffc700" fill-rule="evenodd"/>
          <path id="Trazado_1034105" data-name="Trazado 1034105" d="M149.833,95.957a2.786,2.786,0,0,1,4.829-1.894V89.6H150.2a2.786,2.786,0,1,0-3.788,0h-4.983a13.2,13.2,0,0,0,6.457,11.352,2.615,2.615,0,0,1,1.308,2.3v3.221a1.819,1.819,0,0,0,1.816,1.816h3.655V97.851a2.786,2.786,0,0,1-4.829-1.894Z" transform="translate(-141.426 -76.384)" fill="#64b5f6" fill-rule="evenodd"/>
          <path id="Trazado_1034106" data-name="Trazado 1034106" d="M208.955,132.964a2.786,2.786,0,0,1,4.829-1.894v-4.464h-.693v3.152a3.479,3.479,0,1,0,0,6.413v8.246q.345.018.693.019v-9.578a2.786,2.786,0,0,1-4.829-1.894Z" transform="translate(-200.548 -113.392)" fill="#42a5f5" fill-rule="evenodd"/>
          <path id="Trazado_1034107" data-name="Trazado 1034107" d="M148.3,20.511A2.786,2.786,0,0,1,150.2,25.34h4.465V20.875a2.786,2.786,0,1,0,0-3.788V12.126a13.213,13.213,0,0,0-13.236,13.21c0,.007,4.564,0,4.983,0a2.786,2.786,0,0,1,1.894-4.829Z" transform="translate(-141.425 -12.126)" fill="#fc685b" fill-rule="evenodd"/>
          <path id="Trazado_1034108" data-name="Trazado 1034108" d="M148.472,79.463a2.786,2.786,0,0,1,1.894,4.829h4.465V83.6h-3.153a3.478,3.478,0,1,0-6.413,0h-3.629q-.019.344-.019.693h4.961a2.786,2.786,0,0,1,1.894-4.829Z" transform="translate(-141.595 -71.079)" fill="#f35244" fill-rule="evenodd"/>
          <path id="Trazado_1034109" data-name="Trazado 1034109" d="M247.749,12.127h.026V12.3c-.357-.058-.719-.1-1.086-.132Q247.214,12.128,247.749,12.127Z" transform="translate(-234.54 -12.127)" fill="#f35244" fill-rule="evenodd"/>
          <path id="Trazado_1034110" data-name="Trazado 1034110" d="M260.925,18.982a2.786,2.786,0,0,1-4.829,1.894v4.465h4.464a2.786,2.786,0,1,0,3.788,0c.415,0,4.931,0,4.931,0A13.21,13.21,0,0,0,256.1,12.127v4.961a2.786,2.786,0,0,1,4.829,1.894Z" transform="translate(-242.86 -12.127)" fill="#72d561" fill-rule="evenodd"/>
          <path id="Trazado_1034111" data-name="Trazado 1034111" d="M260.925,18.982a2.786,2.786,0,0,1-4.829,1.894v4.465h.693V22.188a3.478,3.478,0,1,0,0-6.413V12.146c-.229-.012-.461-.019-.693-.019v4.961a2.786,2.786,0,0,1,4.829,1.894Z" transform="translate(-242.86 -12.127)" fill="#57ca5a" fill-rule="evenodd"/>
          <path id="Trazado_1034112" data-name="Trazado 1034112" d="M256.1,12.13a13.209,13.209,0,0,1,13.183,13.209v0h-2.119v0A13.212,13.212,0,0,0,256.1,12.3Z" transform="translate(-242.86 -12.13)" fill="#57ca5a" fill-rule="evenodd"/>
          <path id="Trazado_1034113" data-name="Trazado 1034113" d="M256.1,12.13c.232,0,.464.007.693.019v.288c-.229-.05-.46-.095-.693-.133Z" transform="translate(-242.86 -12.13)" fill="#3cbe52" fill-rule="evenodd"/>
          <path id="Trazado_1034114" data-name="Trazado 1034114" d="M208.7,255.219v2.029a1.819,1.819,0,0,0,1.816,1.816h7.258a1.819,1.819,0,0,0,1.816-1.816v-2.029Z" transform="translate(-200.934 -227.161)" fill="#ffc700" fill-rule="evenodd"/>
          <path id="Trazado_1034115" data-name="Trazado 1034115" d="M268.948,259.065h2.119a1.819,1.819,0,0,0,1.815-1.816v-2.029h-2.119v2.029A1.82,1.82,0,0,1,268.948,259.065Z" transform="translate(-254.229 -227.161)" fill="#fdb800" fill-rule="evenodd"/>
        </g>
      </g>
      <path id="Trazado_1034116" data-name="Trazado 1034116" d="M46.33,21.6a36.3,36.3,0,0,1,5.127.887.96.96,0,0,0,.22.027.924.924,0,0,0,.217-1.822,38.227,38.227,0,0,0-5.389-.93A.923.923,0,0,0,46.33,21.6Zm5.554,9.1a33.813,33.813,0,0,0-11.667-.8.923.923,0,0,0,.225,1.833,31.977,31.977,0,0,1,11.026.765.954.954,0,0,0,.209.024.924.924,0,0,0,.207-1.824Zm-8.17-5.13a.922.922,0,0,0,.891.954,35.131,35.131,0,0,1,6.858.971.9.9,0,0,0,.214.026A.924.924,0,0,0,51.89,25.7a36.947,36.947,0,0,0-7.222-1.019A.924.924,0,0,0,43.715,25.567Zm8.143,25.139c-6.7-1.347-12.783-1.137-18.076.624a.923.923,0,0,0,.291,1.8.912.912,0,0,0,.292-.047c4.983-1.658,10.746-1.848,17.129-.566a.923.923,0,1,0,.364-1.811ZM51.879,35.7a33.7,33.7,0,0,0-13.392-.519A.923.923,0,0,0,38.818,37a31.868,31.868,0,0,1,12.656.5.923.923,0,1,0,.4-1.8Zm-.014,10c-6.726-1.4-12.816-1.17-18.1.695a.924.924,0,0,0,.307,1.795.934.934,0,0,0,.308-.053c4.96-1.752,10.715-1.963,17.106-.629a.923.923,0,1,0,.378-1.807Zm.007-5c-6.758-1.462-12.856-1.2-18.122.765a.924.924,0,0,0,.323,1.789A.912.912,0,0,0,34.4,43.2c4.929-1.844,10.678-2.076,17.085-.69a.924.924,0,0,0,.39-1.806Zm6.152-16.737v35.92a63.438,63.438,0,0,0-12.31-2.7,21.9,21.9,0,0,0-13.3,2.7,3.885,3.885,0,0,1-3.947,0,21.9,21.9,0,0,0-13.3-2.7,63.448,63.448,0,0,0-12.311,2.7V23.964L4.64,21.573V56.258a.923.923,0,0,0,1.184.886c9.469-2.787,17.388-2.387,23.54,1.193a2.115,2.115,0,0,0,2.148,0c6.151-3.578,14.07-3.98,23.54-1.193a.924.924,0,0,0,1.184-.886V21.573ZM16.3,18.263c0-.134,0-.267.006-.4a41.924,41.924,0,0,0-9.823,1.631V55.038C15.563,52.582,23.3,53.01,29.515,56.31V41.276h-.027a3.606,3.606,0,0,1-3.6-3.556,2.743,2.743,0,0,1-1.817-2.579V31.92a1.7,1.7,0,0,0-.857-1.507A14.13,14.13,0,0,1,16.3,18.263Zm1.881-.923H20.57a3.71,3.71,0,1,1,7.071,0h1.9V13.8a.923.923,0,0,1,1.6-.628,1.845,1.845,0,0,0,1.366.6,1.863,1.863,0,0,0,0-3.726,1.845,1.845,0,0,0-1.366.6.923.923,0,0,1-1.6-.628v-4A12.305,12.305,0,0,0,18.186,17.34Zm13.2-11.327V8.369a3.71,3.71,0,1,1,0,7.071v1.9h3.541a.923.923,0,0,1,.628,1.6,1.843,1.843,0,0,0-.6,1.365,1.863,1.863,0,1,0,3.725,0,1.846,1.846,0,0,0-.6-1.365.924.924,0,0,1,.628-1.6H42.69A12.306,12.306,0,0,0,31.387,6.013ZM27.746,37.881H33.13a1.757,1.757,0,0,1-1.742,1.549h-1.9a1.757,1.757,0,0,1-1.742-1.549Zm-1.829-3.142v.4a.893.893,0,0,0,.892.892h7.258a.894.894,0,0,0,.893-.892v-.4Zm7.2-14.433a3.709,3.709,0,1,0,7.245-1.119h2.329a12.36,12.36,0,0,1-5.97,9.639A3.53,3.53,0,0,0,34.96,31.92v.972H31.387V26.515a.923.923,0,0,0-1.6-.628,1.846,1.846,0,0,1-1.366.6,1.862,1.862,0,1,1,0-3.725,1.845,1.845,0,0,1,1.366.6.923.923,0,0,0,1.6-.628V19.186h1.9a3.681,3.681,0,0,0-.174,1.119ZM23.071,18.6a.922.922,0,0,1-.86.586H18.188a12.361,12.361,0,0,0,5.97,9.639,3.53,3.53,0,0,1,1.759,3.094v.972h3.624V28.157a3.709,3.709,0,1,1,0-7.071v-1.9H26a.924.924,0,0,1-.628-1.6,1.844,1.844,0,0,0,.6-1.365,1.863,1.863,0,0,0-3.725,0,1.843,1.843,0,0,0,.6,1.365.924.924,0,0,1,.231,1.015Zm21.495-.738a41.932,41.932,0,0,1,9.824,1.631V55.038c-9.075-2.456-16.811-2.028-23.028,1.272V41.276h.027a3.605,3.605,0,0,0,3.6-3.556,2.743,2.743,0,0,0,1.818-2.579V31.92a1.7,1.7,0,0,1,.856-1.507,14.13,14.13,0,0,0,6.908-12.15C44.571,18.129,44.569,18,44.565,17.862ZM59.87,23.656V61.119A.922.922,0,0,1,58.687,62l-.423-.124c-8.359-2.462-17-5.008-24.924-.4a5.706,5.706,0,0,1-5.8,0c-7.921-4.609-16.565-2.063-24.924.4L2.189,62a.923.923,0,0,1-1.184-.885V23.656a.921.921,0,0,1,.184-.553l3.635-4.859a.92.92,0,0,1,.479-.334,44.141,44.141,0,0,1,11.182-1.9,14.134,14.134,0,0,1,27.906,0,44.156,44.156,0,0,1,11.182,1.9.919.919,0,0,1,.477.334L59.687,23.1a.926.926,0,0,1,.184.553ZM27.11,46.4c-5.283-1.865-11.373-2.1-18.1-.695a.923.923,0,1,0,.377,1.807c6.392-1.334,12.147-1.122,17.107.629A.923.923,0,0,0,27.11,46.4ZM9,40.7a.924.924,0,0,0,.39,1.806c6.407-1.387,12.155-1.155,17.085.69a.91.91,0,0,0,.323.059.924.924,0,0,0,.323-1.789C21.859,39.5,15.762,39.24,9,40.7Zm18.09,10.63C21.8,49.57,15.72,49.36,9.017,50.706a.923.923,0,1,0,.364,1.811c6.383-1.282,12.146-1.092,17.129.566a.91.91,0,0,0,.292.047.923.923,0,0,0,.291-1.8ZM8.986,25.7A.924.924,0,0,0,9.2,27.518a.9.9,0,0,0,.214-.026,35.119,35.119,0,0,1,6.858-.971.923.923,0,0,0-.063-1.846A36.942,36.942,0,0,0,8.986,25.7ZM9,35.7a.923.923,0,1,0,.4,1.8A31.866,31.866,0,0,1,22.057,37a.923.923,0,0,0,.332-1.817A33.7,33.7,0,0,0,9,35.7Zm-.7-3.9a.925.925,0,0,0,.9.717.939.939,0,0,0,.208-.024,31.972,31.972,0,0,1,11.026-.765.923.923,0,1,0,.225-1.833,33.808,33.808,0,0,0-11.666.8A.923.923,0,0,0,8.3,31.8Zm0-10a.923.923,0,0,0,.9.705.951.951,0,0,0,.219-.027,36.341,36.341,0,0,1,5.128-.887.923.923,0,0,0-.175-1.838,38.259,38.259,0,0,0-5.39.93A.924.924,0,0,0,8.3,21.809Z" transform="translate(-1.005 -4.129)" fill-rule="evenodd"/>
    </g>
  </g>
</svg>
