<svg xmlns="http://www.w3.org/2000/svg" xmlns:xlink="http://www.w3.org/1999/xlink" width="113" height="113" viewBox="0 0 113 113">
  <defs>
    <filter id="Trazado_982547" x="0" y="0" width="113" height="113" filterUnits="userSpaceOnUse">
      <feOffset dy="3" input="SourceAlpha"/>
      <feGaussianBlur stdDeviation="3" result="blur"/>
      <feFlood flood-opacity="0.161"/>
      <feComposite operator="in" in2="blur"/>
      <feComposite in="SourceGraphic"/>
    </filter>
  </defs>
  <g id="Grupo_1175413" data-name="Grupo 1175413" transform="translate(9 6)">
    <g id="Grupo_1172010" data-name="Grupo 1172010">
      <g id="Grupo_1171046" data-name="Grupo 1171046">
        <g id="Grupo_1148525" data-name="Grupo 1148525">
          <g transform="matrix(1, 0, 0, 1, -9, -6)" filter="url(#Trazado_982547)">
            <g id="Trazado_982547-2" data-name="Trazado 982547" transform="translate(9 6)" fill="#f4fdfe">
              <path d="M 47.5 93.5 C 41.28937149047852 93.5 35.26533508300781 92.28397369384766 29.59518623352051 89.88570404052734 C 24.11771965026855 87.56893157958984 19.19813346862793 84.25196075439453 14.97309303283691 80.02691650390625 C 10.74804019927979 75.80186462402344 7.431066513061523 70.88229370117188 5.114293098449707 65.40481567382812 C 2.716026782989502 59.73468017578125 1.5 53.71062850952148 1.5 47.5 C 1.5 41.28937149047852 2.716026782989502 35.26533508300781 5.114293098449707 29.59518623352051 C 7.431066513061523 24.11771965026855 10.74804019927979 19.19813346862793 14.97309303283691 14.97309303283691 C 19.19813346862793 10.74804019927979 24.11771965026855 7.431066513061523 29.59518623352051 5.114293098449707 C 35.26533508300781 2.716026782989502 41.28937149047852 1.5 47.5 1.5 C 53.71062850952148 1.5 59.73468017578125 2.716026782989502 65.40481567382812 5.114293098449707 C 70.88229370117188 7.431066513061523 75.80186462402344 10.74804019927979 80.02691650390625 14.97309303283691 C 84.25196075439453 19.19813346862793 87.56893157958984 24.11771965026855 89.88570404052734 29.59518623352051 C 92.28397369384766 35.26533508300781 93.5 41.28937149047852 93.5 47.5 C 93.5 53.71062850952148 92.28397369384766 59.73468017578125 89.88570404052734 65.40481567382812 C 87.56893157958984 70.88229370117188 84.25196075439453 75.80186462402344 80.02691650390625 80.02691650390625 C 75.80186462402344 84.25196075439453 70.88229370117188 87.56893157958984 65.40481567382812 89.88570404052734 C 59.73468017578125 92.28397369384766 53.71062850952148 93.5 47.5 93.5 Z" stroke="none"/>
              <path d="M 47.5 3 C 41.49121475219727 3 35.66376876831055 4.176155090332031 30.17950439453125 6.495796203613281 C 24.88084411621094 8.736953735351562 20.12152099609375 11.94598388671875 16.03375244140625 16.03375244140625 C 11.94598388671875 20.12152099609375 8.736953735351562 24.88084411621094 6.495796203613281 30.17950439453125 C 4.176155090332031 35.66376876831055 3 41.49121475219727 3 47.5 C 3 53.50878524780273 4.176155090332031 59.33623123168945 6.495796203613281 64.82049560546875 C 8.736953735351562 70.11915588378906 11.94598388671875 74.87847900390625 16.03375244140625 78.96624755859375 C 20.12152099609375 83.05401611328125 24.88084411621094 86.26304626464844 30.17950439453125 88.50419616699219 C 35.66376876831055 90.82384490966797 41.49121475219727 92 47.5 92 C 53.50878524780273 92 59.33623123168945 90.82384490966797 64.82049560546875 88.50419616699219 C 70.11915588378906 86.26304626464844 74.87847900390625 83.05401611328125 78.96624755859375 78.96624755859375 C 83.05401611328125 74.87847900390625 86.26304626464844 70.11915588378906 88.50419616699219 64.82049560546875 C 90.82384490966797 59.33623123168945 92 53.50878524780273 92 47.5 C 92 41.49121475219727 90.82384490966797 35.66376876831055 88.50419616699219 30.17950439453125 C 86.26304626464844 24.88084411621094 83.05401611328125 20.12152099609375 78.96624755859375 16.03375244140625 C 74.87847900390625 11.94598388671875 70.11915588378906 8.736953735351562 64.82049560546875 6.495796203613281 C 59.33623123168945 4.176155090332031 53.50878524780273 3 47.5 3 M 47.5 0 C 73.7335205078125 0 95 21.2664794921875 95 47.5 C 95 73.7335205078125 73.7335205078125 95 47.5 95 C 21.2664794921875 95 0 73.7335205078125 0 47.5 C 0 21.2664794921875 21.2664794921875 0 47.5 0 Z" stroke="none" fill="#56838a"/>
            </g>
          </g>
        </g>
      </g>
    </g>
    <g id="conversation_2845945_1_" data-name="conversation_2845945 (1)" transform="translate(18.5 18.5)">
      <g id="Grupo_1176357" data-name="Grupo 1176357" transform="translate(1.919 1.919)">
        <g id="Grupo_1176333" data-name="Grupo 1176333" transform="translate(0 0)">
          <path id="Trazado_1034117" data-name="Trazado 1034117" d="M51.645,2H3.839A1.844,1.844,0,0,0,2,3.839V25.471a1.815,1.815,0,0,0,.193.818L7.967,37.836a1.7,1.7,0,0,0,3.227-.763V34.931a2.609,2.609,0,0,1-1.03-.644,2.754,2.754,0,0,1,.055-3.953l.055-4.431H35.86l16.732-.267H52.6a1.843,1.843,0,0,0,.883-1.572V3.839A1.844,1.844,0,0,0,51.645,2Z" transform="translate(-2 -2)" fill="#e6e9ed"/>
        </g>
        <g id="Grupo_1176334" data-name="Grupo 1176334" transform="translate(5.516 5.516)">
          <circle id="Elipse_12382" data-name="Elipse 12382" cx="3.5" cy="3.5" r="3.5" transform="translate(0.064 0.064)" fill="#ff826e"/>
        </g>
        <g id="Grupo_1176335" data-name="Grupo 1176335" transform="translate(16.548 5.516)">
          <circle id="Elipse_12383" data-name="Elipse 12383" cx="3.5" cy="3.5" r="3.5" transform="translate(0.032 0.064)" fill="#ff826e"/>
        </g>
        <g id="Grupo_1176336" data-name="Grupo 1176336" transform="translate(27.581 5.516)">
          <circle id="Elipse_12384" data-name="Elipse 12384" cx="3.5" cy="3.5" r="3.5" transform="translate(0 0.064)" fill="#ff826e"/>
        </g>
        <g id="Grupo_1176337" data-name="Grupo 1176337" transform="translate(38.613 5.516)">
          <circle id="Elipse_12385" data-name="Elipse 12385" cx="3.5" cy="3.5" r="3.5" transform="translate(-0.032 0.064)" fill="#ff826e"/>
        </g>
        <g id="Grupo_1176338" data-name="Grupo 1176338" transform="translate(33.097 18.387)">
          <path id="Trazado_1034118" data-name="Trazado 1034118" d="M45.438,27.5l-.975.239A3.686,3.686,0,0,0,41.677,31.3v3.567a5.465,5.465,0,0,0,1.618,3.9,5.049,5.049,0,0,0,1.112.855l-.009.009-.524,2.629a2.764,2.764,0,0,1-1.269,1.811,2.7,2.7,0,0,1-.892.349l-.037.009-1.921.377A17.337,17.337,0,0,1,38,37.2v-6a9.084,9.084,0,0,1,.772-3.677,9.192,9.192,0,0,1,17.615,3.677v6a17.337,17.337,0,0,1-1.756,7.612l-1.921-.377-.037-.009a2.7,2.7,0,0,1-.892-.349,2.764,2.764,0,0,1-1.269-1.811l-.524-2.629-.009-.009a5.478,5.478,0,0,0,2.73-4.753V33.63a2.767,2.767,0,0,0-2.418-2.74L47.5,30.541a2.442,2.442,0,0,1-1.526-.809,2.417,2.417,0,0,1-.616-1.609,2.283,2.283,0,0,1,.083-.625Z" transform="translate(-38 -22)" fill="#656d78"/>
        </g>
        <g id="Grupo_1176339" data-name="Grupo 1176339" transform="translate(3.677 40.792)">
          <path id="Trazado_1034119" data-name="Trazado 1034119" d="M26.226,57.062V60.74H11.516V57.062H6V53.146a6.447,6.447,0,0,1,5.176-6.316l2.216-.441a.17.17,0,0,0,.064-.018v.009l1.738,6.086,3.677-2.758,3.677,2.758,1.738-6.086V46.37a.171.171,0,0,0,.064.018l2.216.441a6.447,6.447,0,0,1,5.176,6.316v3.916Z" transform="translate(-6 -46.37)" fill="#fcd770"/>
        </g>
        <g id="Grupo_1176340" data-name="Grupo 1176340" transform="translate(16.548 40.461)">
          <path id="Trazado_1034120" data-name="Trazado 1034120" d="M25.415,46.341v.009l-1.738,6.086L20,49.678l4.588-3.668a2.52,2.52,0,0,0,.827.331Z" transform="translate(-20 -46.01)" fill="#ffc729"/>
        </g>
        <g id="Grupo_1176341" data-name="Grupo 1176341" transform="translate(11.133 40.461)">
          <path id="Trazado_1034121" data-name="Trazado 1034121" d="M19.525,49.678l-3.677,2.758L14.11,46.35v-.009a2.52,2.52,0,0,0,.827-.331Z" transform="translate(-14.11 -46.01)" fill="#ffc729"/>
        </g>
        <g id="Grupo_1176342" data-name="Grupo 1176342" transform="translate(3.677 51.484)">
          <path id="Trazado_1034122" data-name="Trazado 1034122" d="M6,58h5.516v3.677H6Z" transform="translate(-6 -58)" fill="#f0d0b4"/>
        </g>
        <g id="Grupo_1176343" data-name="Grupo 1176343" transform="translate(23.903 51.484)">
          <path id="Trazado_1034123" data-name="Trazado 1034123" d="M28,58h5.516v3.677H28Z" transform="translate(-28 -58)" fill="#f0d0b4"/>
        </g>
        <g id="Grupo_1176344" data-name="Grupo 1176344" transform="translate(29.419 51.484)">
          <path id="Trazado_1034124" data-name="Trazado 1034124" d="M40.435,61.677H34V58h5.682A20.565,20.565,0,0,0,40.435,61.677Z" transform="translate(-34 -58)" fill="#f0d0b4"/>
        </g>
        <g id="Grupo_1176345" data-name="Grupo 1176345" transform="translate(48.726 51.484)">
          <path id="Trazado_1034125" data-name="Trazado 1034125" d="M61.435,58v3.677H55A20.564,20.564,0,0,0,55.754,58Z" transform="translate(-55 -58)" fill="#f0d0b4"/>
        </g>
        <g id="Grupo_1176346" data-name="Grupo 1176346" transform="translate(29.419 40.819)">
          <path id="Trazado_1034126" data-name="Trazado 1034126" d="M54.309,46.786l.257.046a6.447,6.447,0,0,1,5.176,6.316v3.916H54.06a20.565,20.565,0,0,1-.754,3.677H40.435a20.565,20.565,0,0,1-.754-3.677H34V53.148a6.447,6.447,0,0,1,5.176-6.316l.257-.046v-.009l1.921-.377v2.547a2.6,2.6,0,0,0,4.44,1.839l1.076-1.076,1.076,1.076a2.6,2.6,0,0,0,4.44-1.839V46.4l1.921.377Z" transform="translate(-34 -46.4)" fill="#b4dd7f"/>
        </g>
        <g id="Grupo_1176347" data-name="Grupo 1176347" transform="translate(36.774 40.461)">
          <path id="Trazado_1034127" data-name="Trazado 1034127" d="M47.516,49.678,46.44,50.754A2.6,2.6,0,0,1,42,48.915V46.369l.037-.009a2.7,2.7,0,0,0,.892-.349Z" transform="translate(-42 -46.01)" fill="#a0d468"/>
        </g>
        <g id="Grupo_1176348" data-name="Grupo 1176348" transform="translate(42.29 40.461)">
          <path id="Trazado_1034128" data-name="Trazado 1034128" d="M53.516,46.369v2.547a2.6,2.6,0,0,1-4.44,1.839L48,49.678l4.588-3.668a2.7,2.7,0,0,0,.892.349Z" transform="translate(-48 -46.01)" fill="#a0d468"/>
        </g>
        <g id="Grupo_1176349" data-name="Grupo 1176349" transform="translate(7.355 18.387)">
          <path id="Trazado_1034129" data-name="Trazado 1034129" d="M28.387,23.839v.919a4.6,4.6,0,0,1-3.677,4.5,4.332,4.332,0,0,1-.919.092h-4.6a1.852,1.852,0,0,1-1.839-1.839l-.892.221a3.7,3.7,0,0,0-2.786,3.457h-.919a2.765,2.765,0,0,0-1.894.754l-.542-1.618a6.44,6.44,0,0,1-.322-2A6.325,6.325,0,0,1,16.325,22H26.548A1.844,1.844,0,0,1,28.387,23.839Z" transform="translate(-10 -22)" fill="#656d78"/>
        </g>
        <g id="Grupo_1176350" data-name="Grupo 1176350" transform="translate(22.065 21.145)">
          <path id="Trazado_1034130" data-name="Trazado 1034130" d="M29.641,27.758a17.71,17.71,0,0,1-.827,4.431,2.765,2.765,0,0,0-1.894-.754H26V29.5A4.6,4.6,0,0,0,29.677,25v1.692C29.677,27.05,29.668,27.4,29.641,27.758Z" transform="translate(-26 -25)" fill="#656d78"/>
        </g>
        <g id="Grupo_1176351" data-name="Grupo 1176351" transform="translate(21.752 27.581)">
          <path id="Trazado_1034131" data-name="Trazado 1034131" d="M28.841,36.707a2.751,2.751,0,0,1-1.949.809H25.66a5.555,5.555,0,0,0,.313-1.839V32h.919a2.756,2.756,0,0,1,1.949,4.707Z" transform="translate(-25.66 -32)" fill="#f0d0b4"/>
        </g>
        <g id="Grupo_1176352" data-name="Grupo 1176352" transform="translate(7.355 27.581)">
          <path id="Trazado_1034132" data-name="Trazado 1034132" d="M13.677,35.677a5.555,5.555,0,0,0,.313,1.839H12.758a2.548,2.548,0,0,1-.919-.165,2.609,2.609,0,0,1-1.03-.644A2.757,2.757,0,0,1,12.758,32h.919v3.677Z" transform="translate(-10 -32)" fill="#f0d0b4"/>
        </g>
        <g id="Grupo_1176353" data-name="Grupo 1176353" transform="translate(11.961 36.011)">
          <path id="Trazado_1034133" data-name="Trazado 1034133" d="M24.185,45.62,19.6,49.288,15.01,45.62a2.764,2.764,0,0,0,1.269-1.811l.524-2.629.009-.009a5.466,5.466,0,0,0,5.571,0l.009.009.524,2.629A2.764,2.764,0,0,0,24.185,45.62Z" transform="translate(-15.01 -41.17)" fill="#f0d0b4"/>
        </g>
        <g id="Grupo_1176354" data-name="Grupo 1176354" transform="translate(11.032 23.903)">
          <path id="Trazado_1034134" data-name="Trazado 1034134" d="M25.032,31.677v3.677a5.476,5.476,0,0,1-2.73,4.753,5.466,5.466,0,0,1-5.571,0,5.049,5.049,0,0,1-1.112-.855A5.463,5.463,0,0,1,14,35.355V31.677a3.7,3.7,0,0,1,2.786-3.457L17.677,28a1.852,1.852,0,0,0,1.839,1.839h4.6a4.332,4.332,0,0,0,.919-.092Z" transform="translate(-14 -28)" fill="#f0d0b4"/>
        </g>
        <g id="Grupo_1176355" data-name="Grupo 1176355" transform="translate(37.703 36.011)">
          <path id="Trazado_1034135" data-name="Trazado 1034135" d="M52.185,45.62,47.6,49.288,43.01,45.62a2.764,2.764,0,0,0,1.269-1.811l.524-2.629.009-.009a5.466,5.466,0,0,0,5.571,0l.009.009.524,2.629a2.764,2.764,0,0,0,1.269,1.811Z" transform="translate(-43.01 -41.17)" fill="#f0d0b4"/>
        </g>
        <g id="Grupo_1176356" data-name="Grupo 1176356" transform="translate(36.774 23.885)">
          <path id="Trazado_1034136" data-name="Trazado 1034136" d="M53.032,34.112v1.241a5.478,5.478,0,0,1-2.73,4.753,5.466,5.466,0,0,1-5.571,0,5.049,5.049,0,0,1-1.112-.855A5.465,5.465,0,0,1,42,35.353V31.786a3.686,3.686,0,0,1,2.786-3.567l.975-.239a2.283,2.283,0,0,0-.083.625,2.417,2.417,0,0,0,.616,1.609,2.442,2.442,0,0,0,1.526.809l2.795.349a2.767,2.767,0,0,1,2.418,2.74Z" transform="translate(-42 -27.98)" fill="#f0d0b4"/>
        </g>
      </g>
      <g id="Grupo_1176358" data-name="Grupo 1176358" transform="translate(1 1)">
        <path id="Trazado_1034137" data-name="Trazado 1034137" d="M52.931,42.5a18.454,18.454,0,0,0,1.392-7v-6a10.041,10.041,0,0,0-.706-3.688,2.73,2.73,0,0,0,.706-1.829V3.758A2.761,2.761,0,0,0,51.565,1H3.758A2.761,2.761,0,0,0,1,3.758V25.389a2.771,2.771,0,0,0,.291,1.233L7.06,38.162a2.624,2.624,0,0,0,4.972-1.173V35.935h.63a6.474,6.474,0,0,0,2,2.416l-.407,2.036a1.835,1.835,0,0,1-1.442,1.442l-2.217.443a7.375,7.375,0,0,0-5.912,7.211V58H58V49.485A7.373,7.373,0,0,0,52.931,42.5Zm3.231,6.983v3H52.41c.045-.58.074-1.194.074-1.839H50.645a22.657,22.657,0,0,1-.694,5.516H38.468a22.5,22.5,0,0,1-.694-5.516H35.935c0,.644.028,1.259.074,1.839H32.258v-3a5.53,5.53,0,0,1,4.434-5.409l1.082-.216v1.427a3.52,3.52,0,0,0,6.009,2.489l.427-.428.428.428a3.52,3.52,0,0,0,6.008-2.489V43.86l1.082.216A5.531,5.531,0,0,1,56.161,49.485ZM26.742,54.323h3.677v1.839H26.742Zm5.516,0h3.961c.111.726.238,1.35.354,1.839H32.258Zm-15.291-8.3-1.659,1.245-.952-3.334Zm5.614-2.09-.952,3.334-1.659-1.245Zm1.548-2.1a1.834,1.834,0,0,1-1.442-1.442l-.407-2.036a6.474,6.474,0,0,0,2-2.416H24.9a3.681,3.681,0,0,0,3.677-3.677,3.643,3.643,0,0,0-.769-2.224,18.8,18.8,0,0,0,.651-3.292h6.026A10.047,10.047,0,0,0,34.1,29.5v6a18.449,18.449,0,0,0,1.392,7,7.375,7.375,0,0,0-4.15,3.44,7.365,7.365,0,0,0-4.993-3.668Zm2.413-14.489c-.077.5-.181,1-.3,1.5a3.645,3.645,0,0,0-1.335-.26v-.322a5.521,5.521,0,0,0,1.639-.918ZM24.9,33.177V30.419a1.839,1.839,0,1,1,0,3.677H24.83A6.459,6.459,0,0,0,24.9,33.177ZM52.484,29.5v6a16.6,16.6,0,0,1-1.374,6.577l-1.239-.248a1.834,1.834,0,0,1-1.442-1.442l-.407-2.036a6.426,6.426,0,0,0,2.624-5.174V31.934a3.682,3.682,0,0,0-3.221-3.649l-2.8-.35a1.522,1.522,0,0,1,.189-3.032h.316V23.065h-.316a3.365,3.365,0,0,0-3.057,1.965l-.5.125a4.588,4.588,0,0,0-3.483,4.459v3.564A6.424,6.424,0,0,0,40.4,38.352l-.407,2.036a1.835,1.835,0,0,1-1.442,1.442l-1.24.248A16.6,16.6,0,0,1,35.935,35.5v-6a8.274,8.274,0,1,1,16.548,0ZM44.21,37.774a4.6,4.6,0,0,1-4.6-4.6V29.613A2.754,2.754,0,0,1,41.5,27a3.368,3.368,0,0,0,2.9,2.764l2.8.35a1.841,1.841,0,0,1,1.611,1.824v1.243a4.6,4.6,0,0,1-4.6,4.6Zm-2.115,1.474a6.313,6.313,0,0,0,4.231,0l.3,1.5a3.663,3.663,0,0,0,.752,1.589L44.21,44.872l-3.167-2.535a3.673,3.673,0,0,0,.752-1.589Zm-2.481,4.3,3.221,2.576-.35.351a1.682,1.682,0,0,1-2.87-1.189Zm9.194,0v1.738a1.682,1.682,0,0,1-2.87,1.189l-.351-.351Zm-38.613-6.56a.785.785,0,0,1-1.488.35L2.935,25.8a.934.934,0,0,1-.1-.411V3.758a.92.92,0,0,1,.919-.919H51.565a.92.92,0,0,1,.919.919V23.7a10.092,10.092,0,0,0-17.271,1.2H28.574c0-.05.006-.1.006-.149V22.145a2.761,2.761,0,0,0-2.758-2.758H15.6a7.249,7.249,0,0,0-6.876,9.539L9.1,30.058a3.632,3.632,0,0,0,1.09,5.366ZM12.032,34.1a1.839,1.839,0,1,1,0-3.677v2.758a6.459,6.459,0,0,0,.074.919Zm.131-5.516h-.131a3.665,3.665,0,0,0-1.39.277l-.171-.513A5.408,5.408,0,0,1,15.6,21.226h10.22a.92.92,0,0,1,.919.919v.919a3.681,3.681,0,0,1-3.677,3.677h-4.6a.919.919,0,0,1,0-1.839h.919V23.065h-.919a2.754,2.754,0,0,0-2.642,2.012l-.312.078a4.577,4.577,0,0,0-3.35,3.426Zm1.707,4.6V29.613a2.752,2.752,0,0,1,2.08-2.673,2.758,2.758,0,0,0,2.516,1.64h4.6v4.6a4.6,4.6,0,1,1-9.194,0Zm4.6,6.435a6.379,6.379,0,0,0,2.115-.365l.3,1.5a3.663,3.663,0,0,0,.752,1.589l-3.168,2.535L15.3,42.337a3.673,3.673,0,0,0,.752-1.589l.3-1.5A6.369,6.369,0,0,0,18.468,39.613ZM10.95,44.076l1.45-.29,1.873,6.557,4.177-3.132.018.014.018-.015,4.177,3.132,1.873-6.556,1.45.29a5.531,5.531,0,0,1,4.434,5.409v3H26.742V50.645H24.9v5.516H12.032V50.645H10.194v1.839H6.516v-3A5.531,5.531,0,0,1,10.95,44.076ZM6.516,54.323h3.677v1.839H6.516Zm45.331,1.839c.115-.489.243-1.112.354-1.839h3.961v1.839Z" transform="translate(-1 -1)"/>
        <path id="Trazado_1034138" data-name="Trazado 1034138" d="M16.194,11.6a4.6,4.6,0,1,0-4.6,4.6A4.6,4.6,0,0,0,16.194,11.6Zm-7.355,0A2.758,2.758,0,1,1,11.6,14.355,2.761,2.761,0,0,1,8.839,11.6Z" transform="translate(-1.484 -1.484)"/>
        <path id="Trazado_1034139" data-name="Trazado 1034139" d="M23.6,16.194A4.6,4.6,0,1,0,19,11.6,4.6,4.6,0,0,0,23.6,16.194Zm0-7.355A2.758,2.758,0,1,1,20.839,11.6,2.761,2.761,0,0,1,23.6,8.839Z" transform="translate(-2.452 -1.484)"/>
        <path id="Trazado_1034140" data-name="Trazado 1034140" d="M35.6,16.194A4.6,4.6,0,1,0,31,11.6,4.6,4.6,0,0,0,35.6,16.194Zm0-7.355A2.758,2.758,0,1,1,32.839,11.6,2.761,2.761,0,0,1,35.6,8.839Z" transform="translate(-3.419 -1.484)"/>
        <path id="Trazado_1034141" data-name="Trazado 1034141" d="M47.6,16.194A4.6,4.6,0,1,0,43,11.6,4.6,4.6,0,0,0,47.6,16.194Zm0-7.355A2.758,2.758,0,1,1,44.839,11.6,2.761,2.761,0,0,1,47.6,8.839Z" transform="translate(-4.387 -1.484)"/>
      </g>
    </g>
  </g>
</svg>
