<svg xmlns="http://www.w3.org/2000/svg" xmlns:xlink="http://www.w3.org/1999/xlink" width="103" height="103" viewBox="0 0 103 103">
  <defs>
    <filter id="Trazado_978624" x="0" y="0" width="103" height="103" filterUnits="userSpaceOnUse">
      <feOffset dy="3" input="SourceAlpha"/>
      <feGaussianBlur stdDeviation="3" result="blur"/>
      <feFlood flood-opacity="0.161"/>
      <feComposite operator="in" in2="blur"/>
      <feComposite in="SourceGraphic"/>
    </filter>
  </defs>
  <g id="Grupo_1164359" data-name="Grupo 1164359" transform="translate(9 6)">
    <g id="Grupo_1144531" data-name="Grupo 1144531">
      <g transform="matrix(1, 0, 0, 1, -9, -6)" filter="url(#Trazado_978624)">
        <g id="Trazado_978624-2" data-name="Trazado 978624" transform="translate(9 6)" fill="#fcf9e5">
          <path d="M 42.5 83.5 C 36.96437835693359 83.5 31.59512901306152 82.41617584228516 26.54141235351562 80.27863311767578 C 21.65934181213379 78.21369171142578 17.27447128295898 75.25723266601562 13.50862312316895 71.49137878417969 C 9.742764472961426 67.72553253173828 6.786305904388428 63.34066009521484 4.721364498138428 58.45858764648438 C 2.583823442459106 53.40486907958984 1.5 48.03562164306641 1.5 42.5 C 1.5 36.96437835693359 2.583823442459106 31.59512901306152 4.721364498138428 26.54141235351562 C 6.786305904388428 21.65934181213379 9.742764472961426 17.27447128295898 13.50862312316895 13.50862312316895 C 17.27447128295898 9.742764472961426 21.65934181213379 6.786305904388428 26.54141235351562 4.721364498138428 C 31.59512901306152 2.583823442459106 36.96437835693359 1.5 42.5 1.5 C 48.03562164306641 1.5 53.40486907958984 2.583823442459106 58.45858764648438 4.721364498138428 C 63.34066009521484 6.786305904388428 67.72553253173828 9.742764472961426 71.49137878417969 13.50862312316895 C 75.25723266601562 17.27447128295898 78.21369171142578 21.65934181213379 80.27863311767578 26.54141235351562 C 82.41617584228516 31.59512901306152 83.5 36.96437835693359 83.5 42.5 C 83.5 48.03562164306641 82.41617584228516 53.40486907958984 80.27863311767578 58.45858764648438 C 78.21369171142578 63.34066009521484 75.25723266601562 67.72553253173828 71.49137878417969 71.49137878417969 C 67.72553253173828 75.25723266601562 63.34066009521484 78.21369171142578 58.45858764648438 80.27863311767578 C 53.40486907958984 82.41617584228516 48.03562164306641 83.5 42.5 83.5 Z" stroke="none"/>
          <path d="M 42.5 3 C 37.16621398925781 3 31.99356079101562 4.043960571289062 27.125732421875 6.102882385253906 C 22.42246627807617 8.092185974121094 18.19785308837891 10.94070434570312 14.56928253173828 14.56928253173828 C 10.94070434570312 18.19785308837891 8.092185974121094 22.42246627807617 6.102882385253906 27.125732421875 C 4.043960571289062 31.99356079101562 3 37.16621398925781 3 42.5 C 3 47.83378601074219 4.043960571289062 53.00643920898438 6.102882385253906 57.87425231933594 C 8.092185974121094 62.57753372192383 10.94070434570312 66.80213165283203 14.56928253173828 70.43071746826172 C 18.19786834716797 74.05929565429688 22.42246627807617 76.90781402587891 27.125732421875 78.89711761474609 C 31.99356079101562 80.95603942871094 37.16621398925781 82 42.5 82 C 47.83378601074219 82 53.00642395019531 80.95603942871094 57.87425231933594 78.89711761474609 C 62.57753372192383 76.90781402587891 66.80213165283203 74.05929565429688 70.43071746826172 70.43071746826172 C 74.05929565429688 66.80213165283203 76.90781402587891 62.57753372192383 78.89711761474609 57.87425231933594 C 80.95603942871094 53.00642395019531 82 47.83378601074219 82 42.5 C 82 37.16621398925781 80.95603942871094 31.99356079101562 78.89711761474609 27.125732421875 C 76.90781402587891 22.42246627807617 74.05929565429688 18.19786834716797 70.43071746826172 14.56928253173828 C 66.80213165283203 10.94070434570312 62.57753372192383 8.092185974121094 57.87425231933594 6.102882385253906 C 53.00643920898438 4.043960571289062 47.83378601074219 3 42.5 3 M 42.5 0 C 65.97209167480469 0 85 19.02789306640625 85 42.5 C 85 65.97209167480469 65.97209167480469 85 42.5 85 C 19.02789306640625 85 0 65.97209167480469 0 42.5 C 0 19.02789306640625 19.02789306640625 0 42.5 0 Z" stroke="none" fill="#bcac89"/>
        </g>
      </g>
    </g>
    <g id="inspire-idea_14781819" transform="translate(10.007 9.56)">
      <g id="Grupo_1174884" data-name="Grupo 1174884" transform="translate(8.053 7.501)">
        <path id="Trazado_1032544" data-name="Trazado 1032544" d="M87.124,15.525c0,10.028-10.747,25.5-20.775,25.5-1.446,0-2.817-4.425-4.175-9.78V17.6a10.1,10.1,0,0,1,13.5-9.5l.768,1.048L77.206,8.1a10,10,0,0,1,6.45-.1A8.754,8.754,0,0,1,87.124,15.525Z" transform="translate(-56.633 -7.503)" fill="#d78878"/>
        <path id="Trazado_1032545" data-name="Trazado 1032545" d="M90.68,21.9V55.6H62.173V35.542A18.172,18.172,0,0,0,83.654,12.29,10.079,10.079,0,0,1,90.68,21.9Z" transform="translate(-56.633 -11.8)" fill="#ca6e59"/>
        <path id="Trazado_1032546" data-name="Trazado 1032546" d="M68.07,416.678l.617.974c1.127,3.224-2.653,2.74-2.8,5.493l-1.815.724H39.38l-.959-.4c-2.837-1.752-4.836-1.862-2.978-6.764,1.614-1.1,3.631-1.423,5.5-1.905.489-.127,21.377-.137,21.941,0A17.728,17.728,0,0,1,68.07,416.678Z" transform="translate(-31.992 -373.019)" fill="#8ac9fe"/>
        <path id="Trazado_1032547" data-name="Trazado 1032547" d="M15.441,441.125v.314H8.34a.286.286,0,0,1-.287-.287,8.836,8.836,0,0,1,.83-3.805,7.722,7.722,0,0,1,2.5-2.984l.119-.083C15.441,436.19,15.294,438.372,15.441,441.125Z" transform="translate(-8.053 -390.589)" fill="#60b7ff"/>
        <path id="Trazado_1032548" data-name="Trazado 1032548" d="M330.794,440.5l-2.552.661H321.4v-.314c.148-2.753,0-4.934,3.937-6.845l.062-.032a7.139,7.139,0,0,1,1.688,1.448Z" transform="translate(-289.325 -390.311)" fill="#60b7ff"/>
        <path id="Trazado_1032549" data-name="Trazado 1032549" d="M119.885,342.2a2.458,2.458,0,0,0,1.955-2.327c0-.027,0-.051,0-.074v-4.85h8.547v4.85c0,.02,0,.041,0,.063a2.454,2.454,0,0,0,1.971,2.33l1.846.385-2.335,3.345-5.679.2-6.94-.166-1.737-3.322Z" transform="translate(-106.31 -301.427)" fill="#ffb09e"/>
        <path id="Trazado_1032550" data-name="Trazado 1032550" d="M49.175,185.419A5.85,5.85,0,0,1,44.68,179.8h0a2.3,2.3,0,0,1,2.309-2.3H49.1l2.67,4.512Z" transform="translate(-40.93 -160.102)" fill="#ffb09e"/>
        <path id="Trazado_1032551" data-name="Trazado 1032551" d="M108.833,90.691a8.167,8.167,0,0,0,2.31-5.69V78.17a1.491,1.491,0,0,1-1.416-1.016l-.884-2.638a7.816,7.816,0,0,0-3.405-4.229l-5.772-3.4a.307.307,0,0,0-.312,0l-5.726,3.374a7.824,7.824,0,0,0-3.451,4.258l-.884,2.638a1.491,1.491,0,0,1-1.416,1.016V85a8.177,8.177,0,0,0,2.6,5.979L94.4,94.639a7.495,7.495,0,0,0,10.213,0Z" transform="translate(-79.706 -60.767)" fill="#ffcebf"/>
        <path id="Trazado_1032552" data-name="Trazado 1032552" d="M182.578,275.4a.306.306,0,0,1,.307.293c.034.815-.092,3.049-2.491,3.049-2.379,0-2.518-2.231-2.489-3.047a.306.306,0,0,1,.307-.295Z" transform="translate(-160.514 -247.979)" fill="#eaf6ff"/>
        <path id="Trazado_1032553" data-name="Trazado 1032553" d="M187.912,444.479v3.161a1.781,1.781,0,0,1-1.784,1.8h0a1.781,1.781,0,0,1-1.784-1.777v-3.189l1.835-.369Z" transform="translate(-166.296 -399.413)" fill="#c4e2ff"/>
        <path id="Trazado_1032554" data-name="Trazado 1032554" d="M94.634,399.993l-2.839.614a.6.6,0,0,0-.465.673l.094.619a5.613,5.613,0,0,0,8.03,4.188l3.227-1.589h0a10.434,10.434,0,0,1-7.44-4.273A.6.6,0,0,0,94.634,399.993Z" transform="translate(-82.799 -359.8)" fill="#eaf6ff"/>
        <path id="Trazado_1032555" data-name="Trazado 1032555" d="M210.316,399.993l2.839.614a.6.6,0,0,1,.465.673l-.094.619a5.613,5.613,0,0,1-8.03,4.188l-3.227-1.589h0a10.434,10.434,0,0,0,7.44-4.273A.6.6,0,0,1,210.316,399.993Z" transform="translate(-182.386 -359.8)" fill="#eaf6ff"/>
        <g id="Grupo_1174881" data-name="Grupo 1174881" transform="translate(36.882 27.771)">
          <path id="Trazado_1032556" data-name="Trazado 1032556" d="M380.487,387.922v3.937a11.991,11.991,0,0,1-.27,2.387,8.387,8.387,0,0,1-.97,1.745c-.62,1.044-.349,2.119-.345,3.333l-.787.5h-7.759v-1.685a4.234,4.234,0,0,0-1.114-2.861,3.5,3.5,0,0,1-.92-2.365v-1.7a2.076,2.076,0,0,1,.887-1.7Z" transform="translate(-368.323 -376.748)" fill="#ffcebf"/>
          <g id="Grupo_1174880" data-name="Grupo 1174880" transform="translate(9.469 6.61)">
            <path id="Trazado_1032557" data-name="Trazado 1032557" d="M463.511,344.01v3.9a.819.819,0,0,1-.329.733c-.246.246-1.109-.13-1.484-.127l-.667-.714-.216-2.538.708-.547a1.373,1.373,0,0,1,1.337-1.371C463.311,343.517,463.511,343.749,463.511,344.01Z" transform="translate(-460.815 -343.35)" fill="#ffcebf"/>
            <path id="Trazado_1032558" data-name="Trazado 1032558" d="M472.016,344.712V347.8a1.374,1.374,0,0,1-2.485.807l-.088-.093a1.374,1.374,0,0,0,1.362-1.374v-3.081a1.365,1.365,0,0,0-.2-.714h.037A1.373,1.373,0,0,1,472.016,344.712Z" transform="translate(-468.56 -343.34)" fill="#ffb09e"/>
          </g>
          <path id="Trazado_1032559" data-name="Trazado 1032559" d="M467.078,386.87v4.106a6.694,6.694,0,0,1-.942,3.424,6.7,6.7,0,0,0-.941,3.45l0,.724a.307.307,0,0,1-.307.308h-.945l0-1.032a6.709,6.709,0,0,1,.942-3.45,6.7,6.7,0,0,0,.942-3.424v-3.929Z" transform="translate(-454.154 -375.803)" fill="#ffb09e"/>
          <path id="Trazado_1032560" data-name="Trazado 1032560" d="M381.8,281.349v11.089c0,.8-1.3,1.448-2.1,1.448l.677-1.809-.936-.89v-9.838a1.449,1.449,0,0,1,.854-1.319A1.339,1.339,0,0,1,381.8,281.349Z" transform="translate(-378.304 -279.901)" fill="#ffcebf"/>
          <path id="Trazado_1032561" data-name="Trazado 1032561" d="M408.067,332.17v3.638c0,.587-.953,1.094-1.456,1.321a1.451,1.451,0,0,1-.857-1.321l-.353-.078v-3.435l.353-.125a1.451,1.451,0,0,1,.857-1.32C407.825,331.005,408.067,331.584,408.067,332.17Z" transform="translate(-401.604 -325.518)" fill="#ffcebf"/>
          <path id="Trazado_1032562" data-name="Trazado 1032562" d="M437.669,332.17v3.858c0,.586-1.059,1.093-1.563,1.32a1.449,1.449,0,0,1-.857-1.32l-.345-.22v-3.482l.345-.156a1.451,1.451,0,0,1,.857-1.32C437.478,331.036,437.669,331.584,437.669,332.17Z" transform="translate(-428.088 -325.518)" fill="#ffcebf"/>
          <path id="Trazado_1032563" data-name="Trazado 1032563" d="M389.941,280.218v10.5a.655.655,0,0,1-1.3,0v-10.5a1.451,1.451,0,0,0-.853-1.319,1.425,1.425,0,0,1,.594-.129h.116A1.452,1.452,0,0,1,389.941,280.218Z" transform="translate(-385.792 -278.77)" fill="#ffb09e"/>
          <path id="Trazado_1032564" data-name="Trazado 1032564" d="M419.378,331.048v3.638a1.452,1.452,0,0,1-1.448,1.449h-.117a1.414,1.414,0,0,1-.591-.128,1.451,1.451,0,0,0,.857-1.321v-3.638a1.451,1.451,0,0,0-.857-1.32,1.414,1.414,0,0,1,.591-.128h.117A1.452,1.452,0,0,1,419.378,331.048Z" transform="translate(-412.217 -324.396)" fill="#ffb09e"/>
          <path id="Trazado_1032565" data-name="Trazado 1032565" d="M448.8,331.048v3.858a1.452,1.452,0,0,1-1.449,1.448h-.116a1.41,1.41,0,0,1-.591-.128,1.45,1.45,0,0,0,.856-1.32v-3.858a1.451,1.451,0,0,0-.856-1.32,1.41,1.41,0,0,1,.591-.128h.116A1.453,1.453,0,0,1,448.8,331.048Z" transform="translate(-438.625 -324.396)" fill="#ffb09e"/>
          <path id="Trazado_1032566" data-name="Trazado 1032566" d="M389.6,367.065a3.107,3.107,0,0,1-.066.637c-.146.7-.751,1.345-2.019,1.547-.575.092-3.458-.4-4.078-.338l-1.108,1.7-2.895-1.514v-1.309l2.566-1.845a2.875,2.875,0,0,1,1.643-.535l4.26-.04A1.7,1.7,0,0,1,389.6,367.065Z" transform="translate(-378.301 -356.503)" fill="#ffb09e"/>
          <path id="Trazado_1032567" data-name="Trazado 1032567" d="M380.888,380.927,382.1,379.3a.307.307,0,0,1,.21-.122l2.619-.318a2.079,2.079,0,0,0,1.433-1.994.7.7,0,0,0-.7-.684H381.8a2.6,2.6,0,0,0-1.493.47l-3.326,2.328Z" transform="translate(-376.098 -366.207)" fill="#ffcebf"/>
        </g>
        <g id="Grupo_1174883" data-name="Grupo 1174883" transform="translate(28.512 2.361)">
          <path id="Trazado_1032568" data-name="Trazado 1032568" d="M307.1,38.772a11.926,11.926,0,0,1-11.841,12.11c-2.16,0-6.9-1.585-7.52-3.307l.117-.471a.3.3,0,0,0-.027-.214,11.178,11.178,0,0,1,17.309-13.533A10.612,10.612,0,0,1,307.1,38.772Z" transform="translate(-286.565 -30.57)" fill="#eaf6ff"/>
          <path id="Trazado_1032569" data-name="Trazado 1032569" d="M309.9,68.552A11.2,11.2,0,0,1,293.117,75.7a.306.306,0,0,0-.217-.04l-4.61.878a.308.308,0,0,1-.356-.376l1.025-4.146a12.055,12.055,0,0,0,17.4-14.218A11.151,11.151,0,0,1,309.9,68.552Z" transform="translate(-287.785 -55.012)" fill="#d8ecfe"/>
          <g id="Grupo_1174882" data-name="Grupo 1174882" transform="translate(5.41 2.785)">
            <path id="Trazado_1032570" data-name="Trazado 1032570" d="M349.625,64.2c0,3-3.146,5.893-6.2,5.893-.464,0-.965.315-1.775-.881a6.514,6.514,0,0,0-.8-1.409,5.548,5.548,0,0,1,3.131-9.188C348.178,58.617,349.625,61.537,349.625,64.2Z" transform="translate(-339.409 -58.53)" fill="#ffe177"/>
            <path id="Trazado_1032571" data-name="Trazado 1032571" d="M368.645,63.321a5.529,5.529,0,0,1-1.412,3.7,6.7,6.7,0,0,0-1.344,3.995v.347l-5.586.018v-.306a9.378,9.378,0,0,0-.687-3.052,5.619,5.619,0,0,0,1.344.162c3.057,0,5.7-1.99,5.7-4.986a5.455,5.455,0,0,0-4.549-5.336,5.553,5.553,0,0,1,6.528,5.462Z" transform="translate(-357.548 -57.772)" fill="#ffd15b"/>
            <path id="Trazado_1032572" data-name="Trazado 1032572" d="M370.766,188.445l.868,1.7c0,.92-.551,1.7-2.534,1.7h-.435A1.666,1.666,0,0,1,367,190.171v-1.726h3.766Z" transform="translate(-364.175 -175.067)" fill="#5e6577"/>
            <path id="Trazado_1032573" data-name="Trazado 1032573" d="M390.87,188.446v1.726a1.666,1.666,0,0,1-1.666,1.666h-1.681a1.665,1.665,0,0,0,1.665-1.666v-1.726Z" transform="translate(-382.597 -175.068)" fill="#4d5263"/>
            <path id="Trazado_1032574" data-name="Trazado 1032574" d="M358.114,169.488c0,.369.223.787,0,1.029a6.71,6.71,0,0,1-2.227.528h-4.1a1.289,1.289,0,0,1-1.237-1.335,1.391,1.391,0,0,1,.362-.945,1.192,1.192,0,0,1,.875-.391h4.1C356.571,168.374,358.114,168.75,358.114,169.488Z" transform="translate(-349.412 -157.051)" fill="#73788c"/>
            <path id="Trazado_1032575" data-name="Trazado 1032575" d="M406.14,169.71a1.389,1.389,0,0,1-.362.944,1.192,1.192,0,0,1-.875.391h-2.244a1.19,1.19,0,0,0,.875-.391,1.389,1.389,0,0,0,.362-.944,1.289,1.289,0,0,0-1.237-1.336H404.9A1.289,1.289,0,0,1,406.14,169.71Z" transform="translate(-396.184 -157.051)" fill="#5e6577"/>
          </g>
        </g>
      </g>
      <g id="Grupo_1174892" data-name="Grupo 1174892" transform="translate(8.053 7.5)">
        <line id="Línea_888" data-name="Línea 888" y1="19.21" transform="translate(34.048 23.311)" fill="none" stroke="#000" stroke-linecap="round" stroke-linejoin="round" stroke-miterlimit="10" stroke-width="1.2"/>
        <line id="Línea_889" data-name="Línea 889" y2="6.499" transform="translate(5.54 36.021)" fill="none" stroke="#000" stroke-linecap="round" stroke-linejoin="round" stroke-miterlimit="10" stroke-width="1.2"/>
        <line id="Línea_890" data-name="Línea 890" y2="8.429" transform="translate(5.54 24.009)" fill="none" stroke="#000" stroke-linecap="round" stroke-linejoin="round" stroke-miterlimit="10" stroke-width="1.2"/>
        <path id="Trazado_1032576" data-name="Trazado 1032576" d="M89.187,12.314a10.111,10.111,0,0,0-12.029-4.2h0a2.138,2.138,0,0,1-1.444,0L75.689,8.1a10.1,10.1,0,0,0-13.517,9.5V24.9" transform="translate(-56.632 -7.5)" fill="none" stroke="#000" stroke-linecap="round" stroke-linejoin="round" stroke-miterlimit="10" stroke-width="1.2"/>
        <g id="Grupo_1174885" data-name="Grupo 1174885" transform="translate(0 34.754)">
          <path id="Trazado_1032577" data-name="Trazado 1032577" d="M16.578,416.711a14.741,14.741,0,0,0-5.193,1.881,8.146,8.146,0,0,0-3.332,6.79v.287" transform="translate(-8.053 -409.573)" fill="none" stroke="#000" stroke-linecap="round" stroke-linejoin="round" stroke-miterlimit="10" stroke-width="1.2"/>
          <path id="Trazado_1032578" data-name="Trazado 1032578" d="M136.513,346.985V350.6q0,.035,0,.074A2.458,2.458,0,0,1,134.557,353l-.7.148" transform="translate(-120.982 -346.985)" fill="none" stroke="#000" stroke-linecap="round" stroke-linejoin="round" stroke-miterlimit="10" stroke-width="1.2"/>
          <path id="Trazado_1032579" data-name="Trazado 1032579" d="M246.018,353.161l-.8-.164a2.454,2.454,0,0,1-1.972-2.33c0-.022,0-.044,0-.063v-3.618" transform="translate(-219.171 -346.985)" fill="none" stroke="#000" stroke-linecap="round" stroke-linejoin="round" stroke-miterlimit="10" stroke-width="1.2"/>
          <path id="Trazado_1032580" data-name="Trazado 1032580" d="M318.8,418.878a14.1,14.1,0,0,0-5.589-2.315" transform="translate(-281.974 -409.44)" fill="none" stroke="#000" stroke-linecap="round" stroke-linejoin="round" stroke-miterlimit="10" stroke-width="1.2"/>
        </g>
        <path id="Trazado_1032581" data-name="Trazado 1032581" d="M41.768,434.275c3.937,1.91,3.789,4.093,3.937,6.845v.314" transform="translate(-38.316 -390.584)" fill="none" stroke="#000" stroke-linecap="round" stroke-linejoin="round" stroke-miterlimit="10" stroke-width="1.2"/>
        <path id="Trazado_1032582" data-name="Trazado 1032582" d="M325.344,434.275c-3.937,1.91-3.789,4.093-3.937,6.845v.344" transform="translate(-289.328 -390.584)" fill="none" stroke="#000" stroke-linecap="round" stroke-linejoin="round" stroke-miterlimit="10" stroke-width="1.2"/>
        <line id="Línea_891" data-name="Línea 891" y1="5.02" transform="translate(19.804 0.838)" fill="none" stroke="#000" stroke-linecap="round" stroke-linejoin="round" stroke-miterlimit="10" stroke-width="1.2"/>
        <path id="Trazado_1032583" data-name="Trazado 1032583" d="M49.1,185.419A5.786,5.786,0,0,1,44.68,179.8h0a2.3,2.3,0,0,1,2.309-2.3H49.1" transform="translate(-40.93 -160.102)" fill="none" stroke="#000" stroke-linecap="round" stroke-linejoin="round" stroke-miterlimit="10" stroke-width="1.2"/>
        <path id="Trazado_1032584" data-name="Trazado 1032584" d="M93.628,100.213a7.824,7.824,0,0,0-3.451,4.258l-.884,2.638a1.491,1.491,0,0,1-1.416,1.016v6.832a8.177,8.177,0,0,0,2.6,5.979l3.922,3.658a7.495,7.495,0,0,0,10.213,0l4.216-3.947a8.167,8.167,0,0,0,2.31-5.69v-.642" transform="translate(-79.705 -90.722)" fill="none" stroke="#000" stroke-linecap="round" stroke-linejoin="round" stroke-miterlimit="10" stroke-width="1.2"/>
        <path id="Trazado_1032585" data-name="Trazado 1032585" d="M186.194,72.687a7.819,7.819,0,0,0-2.78-2.834l-5.928-3.495-2.739,1.614" transform="translate(-157.682 -60.333)" fill="none" stroke="#000" stroke-linecap="round" stroke-linejoin="round" stroke-miterlimit="10" stroke-width="1.2"/>
        <g id="Grupo_1174887" data-name="Grupo 1174887" transform="translate(13.403 15.8)">
          <g id="Grupo_1174886" data-name="Grupo 1174886" transform="translate(0)">
            <path id="Trazado_1032586" data-name="Trazado 1032586" d="M193.9,240.769a2.371,2.371,0,0,1-2.15,0" transform="translate(-186.344 -232.688)" fill="none" stroke="#000" stroke-linecap="round" stroke-linejoin="round" stroke-miterlimit="10" stroke-width="1.2"/>
            <path id="Trazado_1032587" data-name="Trazado 1032587" d="M142.908,162.337a4.09,4.09,0,0,0-3.932,0" transform="translate(-138.976 -161.834)" fill="none" stroke="#000" stroke-linecap="round" stroke-linejoin="round" stroke-miterlimit="10" stroke-width="1.2"/>
            <path id="Trazado_1032588" data-name="Trazado 1032588" d="M231.038,162.337a4.09,4.09,0,0,0-3.932,0" transform="translate(-218.084 -161.834)" fill="none" stroke="#000" stroke-linecap="round" stroke-linejoin="round" stroke-miterlimit="10" stroke-width="1.2"/>
            <line id="Línea_892" data-name="Línea 892" y1="1.742" transform="translate(10.988 2.953)" fill="none" stroke="#000" stroke-linecap="round" stroke-linejoin="round" stroke-miterlimit="10" stroke-width="1.2"/>
            <line id="Línea_893" data-name="Línea 893" y1="1.742" transform="translate(1.966 2.953)" fill="none" stroke="#000" stroke-linecap="round" stroke-linejoin="round" stroke-miterlimit="10" stroke-width="1.2"/>
          </g>
          <path id="Trazado_1032589" data-name="Trazado 1032589" d="M182.863,275.4s.466,3.342-2.468,3.342c-2.911,0-2.468-3.342-2.468-3.342Z" transform="translate(-173.917 -263.778)" fill="none" stroke="#000" stroke-linecap="round" stroke-linejoin="round" stroke-miterlimit="10" stroke-width="1.2"/>
        </g>
        <path id="Trazado_1032590" data-name="Trazado 1032590" d="M187.912,452.962v2.624a1.78,1.78,0,0,1-1.784,1.8h0a1.781,1.781,0,0,1-1.784-1.777v-2.6" transform="translate(-166.296 -407.358)" fill="none" stroke="#000" stroke-linecap="round" stroke-linejoin="round" stroke-miterlimit="10" stroke-width="1.2"/>
        <path id="Trazado_1032591" data-name="Trazado 1032591" d="M94.634,399.993l-2.839.614a.6.6,0,0,0-.465.673l.094.619a5.613,5.613,0,0,0,8.03,4.188l3.227-1.589h0a10.434,10.434,0,0,1-7.44-4.273A.6.6,0,0,0,94.634,399.993Z" transform="translate(-82.799 -359.8)" fill="none" stroke="#000" stroke-linecap="round" stroke-linejoin="round" stroke-miterlimit="10" stroke-width="1.2"/>
        <path id="Trazado_1032592" data-name="Trazado 1032592" d="M210.316,399.993l2.839.614a.6.6,0,0,1,.465.673l-.094.619a5.613,5.613,0,0,1-8.03,4.188l-3.227-1.589h0a10.434,10.434,0,0,0,7.44-4.273A.6.6,0,0,1,210.316,399.993Z" transform="translate(-182.386 -359.8)" fill="none" stroke="#000" stroke-linecap="round" stroke-linejoin="round" stroke-miterlimit="10" stroke-width="1.2"/>
        <g id="Grupo_1174890" data-name="Grupo 1174890" transform="translate(36.882 27.8)">
          <g id="Grupo_1174888" data-name="Grupo 1174888" transform="translate(10.177 6.61)">
            <path id="Trazado_1032593" data-name="Trazado 1032593" d="M470.483,345a1.372,1.372,0,0,0-1.372-1.372h0A1.374,1.374,0,0,0,467.736,345v3.081a1.374,1.374,0,0,0,1.374,1.374h0a1.374,1.374,0,0,0,1.374-1.374Z" transform="translate(-467.736 -343.626)" fill="none" stroke="#000" stroke-linecap="round" stroke-linejoin="round" stroke-miterlimit="10" stroke-width="1.2"/>
            <path id="Trazado_1032594" data-name="Trazado 1032594" d="M481.155,400.563" transform="translate(-479.781 -394.734)" fill="none" stroke="#000" stroke-linecap="round" stroke-linejoin="round" stroke-miterlimit="10" stroke-width="1.2"/>
          </g>
          <g id="Grupo_1174889" data-name="Grupo 1174889" transform="translate(11.042 11.105)">
            <path id="Trazado_1032595" data-name="Trazado 1032595" d="M478.064,387.53v4.106a6.669,6.669,0,0,1-.941,3.387h0a6.7,6.7,0,0,0-.942,3.45l0,1.032" transform="translate(-476.181 -387.53)" fill="none" stroke="#000" stroke-linecap="round" stroke-linejoin="round" stroke-miterlimit="10" stroke-width="1.2"/>
          </g>
          <path id="Trazado_1032596" data-name="Trazado 1032596" d="M424.183,414.75a5.617,5.617,0,0,1,1.2,5.135l-.043.164" transform="translate(-418.464 -400.859)" fill="none" stroke="#000" stroke-linecap="round" stroke-linejoin="round" stroke-miterlimit="10" stroke-width="1.2"/>
          <path id="Trazado_1032597" data-name="Trazado 1032597" d="M379.439,291.586V280.5a1.452,1.452,0,0,1,1.448-1.448H381a1.452,1.452,0,0,1,1.448,1.448v9" transform="translate(-378.301 -279.057)" fill="none" stroke="#000" stroke-linecap="round" stroke-linejoin="round" stroke-miterlimit="10" stroke-width="1.2"/>
          <path id="Trazado_1032598" data-name="Trazado 1032598" d="M408.856,331.341a1.452,1.452,0,0,1,1.448-1.448h.116a1.452,1.452,0,0,1,1.448,1.448v3.3" transform="translate(-404.707 -324.689)" fill="none" stroke="#000" stroke-linecap="round" stroke-linejoin="round" stroke-miterlimit="10" stroke-width="1.2"/>
          <path id="Trazado_1032599" data-name="Trazado 1032599" d="M438.271,334.6v-3.26a1.452,1.452,0,0,1,1.448-1.448h.116a1.452,1.452,0,0,1,1.448,1.448v1.382" transform="translate(-431.11 -324.689)" fill="none" stroke="#000" stroke-linecap="round" stroke-linejoin="round" stroke-miterlimit="10" stroke-width="1.2"/>
          <path id="Trazado_1032600" data-name="Trazado 1032600" d="M373.113,381.216l1.291-1.737,2.586-.333a2.079,2.079,0,0,0,1.433-1.975.7.7,0,0,0-.7-.7h-3.69a2.6,2.6,0,0,0-1.493.47l-3.326,2.328a2.078,2.078,0,0,0-.887,1.7v1.7a3.5,3.5,0,0,0,.921,2.365,4.235,4.235,0,0,1,1.114,2.862v1.685" transform="translate(-368.324 -366.496)" fill="none" stroke="#000" stroke-linecap="round" stroke-linejoin="round" stroke-miterlimit="10" stroke-width="1.2"/>
        </g>
        <path id="Trazado_1032601" data-name="Trazado 1032601" d="M308.75,43.731q-.034.189-.075.378a11.194,11.194,0,0,1-16.88,7.086l-5.2.991,1.283-5.194a11.179,11.179,0,1,1,20.937-6.843" transform="translate(-258.052 -28.207)" fill="none" stroke="#000" stroke-linecap="round" stroke-linejoin="round" stroke-miterlimit="10" stroke-width="1.2"/>
        <g id="Grupo_1174891" data-name="Grupo 1174891" transform="translate(34.087 5.668)">
          <path id="Trazado_1032602" data-name="Trazado 1032602" d="M343.362,73.876a6.355,6.355,0,0,0-.948-1.825,5.375,5.375,0,0,1,2.12-8.655" transform="translate(-341.02 -63.342)" fill="none" stroke="#000" stroke-linecap="round" stroke-linejoin="round" stroke-miterlimit="10" stroke-width="1.2"/>
          <path id="Trazado_1032603" data-name="Trazado 1032603" d="M410.351,62.863a5.375,5.375,0,0,1,2.3,8.682,6.638,6.638,0,0,0-.965,1.831" transform="translate(-403.253 -62.863)" fill="none" stroke="#000" stroke-linecap="round" stroke-linejoin="round" stroke-miterlimit="10" stroke-width="1.2"/>
          <line id="Línea_894" data-name="Línea 894" y1="3.829" transform="translate(5.384 6.554)" fill="none" stroke="#000" stroke-linecap="round" stroke-linejoin="round" stroke-miterlimit="10" stroke-width="1.2"/>
          <path id="Trazado_1032604" data-name="Trazado 1032604" d="M373.078,193.7v.532a2.047,2.047,0,0,1-2.047,2.048h-1.191a2.047,2.047,0,0,1-2.047-2.048V193.7" transform="translate(-365.051 -180.307)" fill="none" stroke="#000" stroke-linecap="round" stroke-linejoin="round" stroke-miterlimit="10" stroke-width="1.2"/>
          <path id="Trazado_1032605" data-name="Trazado 1032605" d="M360.823,168.564h-5.278a1.4,1.4,0,0,1-1.4-1.4h0a1.4,1.4,0,0,1,1.4-1.4h5.278a1.4,1.4,0,0,1,1.4,1.4h0A1.4,1.4,0,0,1,360.823,168.564Z" transform="translate(-352.8 -155.227)" fill="none" stroke="#000" stroke-linecap="round" stroke-linejoin="round" stroke-miterlimit="10" stroke-width="1.2"/>
          <line id="Línea_895" data-name="Línea 895" x2="3.447" transform="translate(3.732 6.546)" fill="none" stroke="#000" stroke-linecap="round" stroke-linejoin="round" stroke-miterlimit="10" stroke-width="1.2"/>
        </g>
      </g>
    </g>
  </g>
</svg>
