<svg xmlns="http://www.w3.org/2000/svg" xmlns:xlink="http://www.w3.org/1999/xlink" width="113" height="113" viewBox="0 0 113 113">
  <defs>
    <filter id="Trazado_982547" x="0" y="0" width="113" height="113" filterUnits="userSpaceOnUse">
      <feOffset dy="3" input="SourceAlpha"/>
      <feGaussianBlur stdDeviation="3" result="blur"/>
      <feFlood flood-opacity="0.161"/>
      <feComposite operator="in" in2="blur"/>
      <feComposite in="SourceGraphic"/>
    </filter>
  </defs>
  <g id="Grupo_1175225" data-name="Grupo 1175225" transform="translate(9 6)">
    <g id="Grupo_1172010" data-name="Grupo 1172010">
      <g id="Grupo_1171046" data-name="Grupo 1171046">
        <g id="Grupo_1148525" data-name="Grupo 1148525">
          <g transform="matrix(1, 0, 0, 1, -9, -6)" filter="url(#Trazado_982547)">
            <g id="Trazado_982547-2" data-name="Trazado 982547" transform="translate(9 6)" fill="#f4fdfe">
              <path d="M 47.5 93.5 C 41.28937149047852 93.5 35.26533508300781 92.28397369384766 29.59518623352051 89.88570404052734 C 24.11771965026855 87.56893157958984 19.19813346862793 84.25196075439453 14.97309303283691 80.02691650390625 C 10.74804019927979 75.80186462402344 7.431066513061523 70.88229370117188 5.114293098449707 65.40481567382812 C 2.716026782989502 59.73468017578125 1.5 53.71062850952148 1.5 47.5 C 1.5 41.28937149047852 2.716026782989502 35.26533508300781 5.114293098449707 29.59518623352051 C 7.431066513061523 24.11771965026855 10.74804019927979 19.19813346862793 14.97309303283691 14.97309303283691 C 19.19813346862793 10.74804019927979 24.11771965026855 7.431066513061523 29.59518623352051 5.114293098449707 C 35.26533508300781 2.716026782989502 41.28937149047852 1.5 47.5 1.5 C 53.71062850952148 1.5 59.73468017578125 2.716026782989502 65.40481567382812 5.114293098449707 C 70.88229370117188 7.431066513061523 75.80186462402344 10.74804019927979 80.02691650390625 14.97309303283691 C 84.25196075439453 19.19813346862793 87.56893157958984 24.11771965026855 89.88570404052734 29.59518623352051 C 92.28397369384766 35.26533508300781 93.5 41.28937149047852 93.5 47.5 C 93.5 53.71062850952148 92.28397369384766 59.73468017578125 89.88570404052734 65.40481567382812 C 87.56893157958984 70.88229370117188 84.25196075439453 75.80186462402344 80.02691650390625 80.02691650390625 C 75.80186462402344 84.25196075439453 70.88229370117188 87.56893157958984 65.40481567382812 89.88570404052734 C 59.73468017578125 92.28397369384766 53.71062850952148 93.5 47.5 93.5 Z" stroke="none"/>
              <path d="M 47.5 3 C 41.49121475219727 3 35.66376876831055 4.176155090332031 30.17950439453125 6.495796203613281 C 24.88084411621094 8.736953735351562 20.12152099609375 11.94598388671875 16.03375244140625 16.03375244140625 C 11.94598388671875 20.12152099609375 8.736953735351562 24.88084411621094 6.495796203613281 30.17950439453125 C 4.176155090332031 35.66376876831055 3 41.49121475219727 3 47.5 C 3 53.50878524780273 4.176155090332031 59.33623123168945 6.495796203613281 64.82049560546875 C 8.736953735351562 70.11915588378906 11.94598388671875 74.87847900390625 16.03375244140625 78.96624755859375 C 20.12152099609375 83.05401611328125 24.88084411621094 86.26304626464844 30.17950439453125 88.50419616699219 C 35.66376876831055 90.82384490966797 41.49121475219727 92 47.5 92 C 53.50878524780273 92 59.33623123168945 90.82384490966797 64.82049560546875 88.50419616699219 C 70.11915588378906 86.26304626464844 74.87847900390625 83.05401611328125 78.96624755859375 78.96624755859375 C 83.05401611328125 74.87847900390625 86.26304626464844 70.11915588378906 88.50419616699219 64.82049560546875 C 90.82384490966797 59.33623123168945 92 53.50878524780273 92 47.5 C 92 41.49121475219727 90.82384490966797 35.66376876831055 88.50419616699219 30.17950439453125 C 86.26304626464844 24.88084411621094 83.05401611328125 20.12152099609375 78.96624755859375 16.03375244140625 C 74.87847900390625 11.94598388671875 70.11915588378906 8.736953735351562 64.82049560546875 6.495796203613281 C 59.33623123168945 4.176155090332031 53.50878524780273 3 47.5 3 M 47.5 0 C 73.7335205078125 0 95 21.2664794921875 95 47.5 C 95 73.7335205078125 73.7335205078125 95 47.5 95 C 21.2664794921875 95 0 73.7335205078125 0 47.5 C 0 21.2664794921875 21.2664794921875 0 47.5 0 Z" stroke="none" fill="#56838a"/>
            </g>
          </g>
        </g>
      </g>
    </g>
    <g id="tutor_10491839" transform="translate(16.329 16.329)">
      <g id="Grupo_1172414" data-name="Grupo 1172414" transform="translate(1.005 1.006)">
        <g id="Grupo_1172396" data-name="Grupo 1172396" transform="translate(6.033 52.286)">
          <path id="Trazado_1026515" data-name="Trazado 1026515" d="M64.044,428.022H56V424h6.033v2.011A2.01,2.01,0,0,0,64.044,428.022Z" transform="translate(-56 -424)" fill="#e6e9ed"/>
        </g>
        <g id="Grupo_1172397" data-name="Grupo 1172397" transform="translate(0 33.182)">
          <path id="Trazado_1026516" data-name="Trazado 1026516" d="M20.066,285.085a2.013,2.013,0,0,0-1.561,1.1l-.45.9V291.1H12.022A4.023,4.023,0,0,1,8,287.083v-6.967a7.038,7.038,0,0,1,6.043-6.968L22.077,272l3.017,3.017L28.11,272l8.034,1.148a7.038,7.038,0,0,1,6.043,6.968v.6l-.212-.567a2.011,2.011,0,0,0-3.6,1.8l1.926,5.133h-.127a2.01,2.01,0,0,0-2.011,2.011V291.1a2.01,2.01,0,0,0,2.011,2.011H37.16a1,1,0,0,0-1.006,1.006v1.006H28.11a2.01,2.01,0,0,0,2.011-2.011V279.038a2.01,2.01,0,0,0-2.011-2.011H22.077a2.01,2.01,0,0,0-2.011,2.011Z" transform="translate(-8 -272)" fill="#e6e9ed"/>
        </g>
        <g id="Grupo_1172398" data-name="Grupo 1172398" transform="translate(12.066 38.209)">
          <path id="Trazado_1026517" data-name="Trazado 1026517" d="M114.055,314.011v14.077a2.01,2.01,0,0,1-2.011,2.011h-6.033A2.01,2.01,0,0,1,104,328.088v-2.011h2.011a2.01,2.01,0,0,0,2.011-2.011v-2.011a2.01,2.01,0,0,0-2.011-2.011h-1.773a2.117,2.117,0,0,0-.238.014v-6.047A2.01,2.01,0,0,1,106.011,312h6.033A2.01,2.01,0,0,1,114.055,314.011Z" transform="translate(-104 -312)" fill="#969faa"/>
        </g>
        <g id="Grupo_1172399" data-name="Grupo 1172399" transform="translate(2.011)">
          <path id="Trazado_1026518" data-name="Trazado 1026518" d="M49.138,21.072l-1.7-1.278a5.529,5.529,0,0,0-5.066-.822l-2.242.748a6.772,6.772,0,0,1-7.93-2.913,6.035,6.035,0,0,0-3.474,4.968l-.109,1.308H27.017a2.981,2.981,0,0,0-1.383.337h0A9.955,9.955,0,0,1,33.955,8H44.211a9.953,9.953,0,0,1,8.321,15.418h0a2.981,2.981,0,0,0-1.383-.337H49.361Z" transform="translate(-24 -8)" fill="#b27946"/>
        </g>
        <g id="Grupo_1172400" data-name="Grupo 1172400" transform="translate(33.182 16.088)">
          <path id="Trazado_1026519" data-name="Trazado 1026519" d="M277.027,148.066h-3.017a1.993,1.993,0,0,0-.89.207A8.144,8.144,0,0,1,272,144.15v-.684a4.412,4.412,0,0,1,3.342-4.28l.68-.17A4.412,4.412,0,0,1,280.207,136h7.775a8.149,8.149,0,0,1,7.028,12.273,1.993,1.993,0,0,0-.89-.207H291.1a3.864,3.864,0,0,0-2.926-3.748l-1.1-.274a7.922,7.922,0,0,1-5.608,3.466Z" transform="translate(-272 -136)" fill="#656d78"/>
        </g>
        <g id="Grupo_1172401" data-name="Grupo 1172401" transform="translate(28.154 54.297)">
          <path id="Trazado_1026520" data-name="Trazado 1026520" d="M242.682,440h20.488a1,1,0,0,1,1.005,1.005v1.005a2.01,2.01,0,0,1-2.011,2.011H251.1a2.011,2.011,0,1,1-4.022,0H234.011A2.01,2.01,0,0,1,232,442.011v-1.005A1,1,0,0,1,233.006,440h9.677Z" transform="translate(-232 -440)" fill="#cf9e76"/>
        </g>
        <g id="Grupo_1172402" data-name="Grupo 1172402" transform="translate(35.561 42.231)">
          <path id="Trazado_1026521" data-name="Trazado 1026521" d="M311.677,351.506v4.56H294.205l-3.275-8.737a7.019,7.019,0,0,1,3.958-2.651L297.6,344a3.017,3.017,0,0,0,6.033,0l2.712.679A7.038,7.038,0,0,1,311.677,351.506Z" transform="translate(-290.93 -344)" fill="#fcd770"/>
        </g>
        <g id="Grupo_1172403" data-name="Grupo 1172403" transform="translate(30.165 40.22)">
          <path id="Trazado_1026522" data-name="Trazado 1026522" d="M253.4,333.34l3.275,8.737h-5.655a1,1,0,0,0,1.006-1.006V337.05a1,1,0,0,0-1.006-1.005h-.879l-1.926-5.133a2.011,2.011,0,0,1,3.6-1.8l.212.567Z" transform="translate(-247.999 -328)" fill="#f29ed0"/>
        </g>
        <g id="Grupo_1172404" data-name="Grupo 1172404" transform="translate(6.033 8.806)">
          <path id="Trazado_1026523" data-name="Trazado 1026523" d="M78.072,90.932A8.061,8.061,0,0,1,72.89,99.37l-2.813,1.055v2.011l-3.017,3.017-3.017-3.017v-2.011L61.231,99.37A8.061,8.061,0,0,1,56,91.822v-.109c0-.225.009-.449.028-.672l.057-.67.505-6.033.109-1.308a6.035,6.035,0,0,1,3.474-4.968,6.767,6.767,0,0,0,7.93,2.913l2.242-.748a5.529,5.529,0,0,1,5.066.822l1.7,1.278.224,2.011.67,6.033Z" transform="translate(-56 -78.06)" fill="#f0d0b4"/>
        </g>
        <g id="Grupo_1172405" data-name="Grupo 1172405" transform="translate(19.768 13.529)">
          <ellipse id="Elipse_12334" data-name="Elipse 12334" cx="3.639" cy="4.159" rx="3.639" ry="4.159" transform="translate(0 0)" fill="#69d6f4"/>
        </g>
        <g id="Grupo_1172406" data-name="Grupo 1172406" transform="translate(7.291 13.529)">
          <circle id="Elipse_12335" data-name="Elipse 12335" cx="4.159" cy="4.159" r="4.159" transform="translate(0 0)" fill="#69d6f4"/>
        </g>
        <g id="Grupo_1172407" data-name="Grupo 1172407" transform="translate(27.372 15.083)">
          <path id="Trazado_1026524" data-name="Trazado 1026524" d="M228.95,128.337a3.016,3.016,0,0,1-1.383,5.7H226.45L225.78,128h1.787A2.981,2.981,0,0,1,228.95,128.337Z" transform="translate(-225.78 -128)" fill="#f0d0b4"/>
        </g>
        <g id="Grupo_1172408" data-name="Grupo 1172408" transform="translate(2.011 15.083)">
          <path id="Trazado_1026525" data-name="Trazado 1026525" d="M28.611,128l-.505,6.033h-1.09a3.015,3.015,0,0,1-1.383-5.7A2.981,2.981,0,0,1,27.017,128Z" transform="translate(-24 -128)" fill="#f0d0b4"/>
        </g>
        <g id="Grupo_1172409" data-name="Grupo 1172409" transform="translate(10.055 46.253)">
          <path id="Trazado_1026526" data-name="Trazado 1026526" d="M94.033,378.011v2.011a2.01,2.01,0,0,1-2.011,2.011H88v-4.022l.45-.9a2.013,2.013,0,0,1,1.561-1.1,2.118,2.118,0,0,1,.238-.014h1.773A2.01,2.01,0,0,1,94.033,378.011Z" transform="translate(-88 -376)" fill="#f0d0b4"/>
        </g>
        <g id="Grupo_1172410" data-name="Grupo 1172410" transform="translate(30.165 48.264)">
          <path id="Trazado_1026527" data-name="Trazado 1026527" d="M252.022,393.005v4.022a1,1,0,0,1-1.006,1.005h-1.005A2.01,2.01,0,0,1,248,396.022v-2.011A2.01,2.01,0,0,1,250.011,392h1.005A1,1,0,0,1,252.022,393.005Z" transform="translate(-248 -392)" fill="#f0d0b4"/>
        </g>
        <g id="Grupo_1172411" data-name="Grupo 1172411" transform="translate(52.286 28.154)">
          <path id="Trazado_1026528" data-name="Trazado 1026528" d="M428.439,232.588a2.012,2.012,0,0,1-1.423,3.434H424.67L424,232h3.017a2.017,2.017,0,0,1,1.423.588Z" transform="translate(-424 -232)" fill="#f0d0b4"/>
        </g>
        <g id="Grupo_1172412" data-name="Grupo 1172412" transform="translate(37.204 24.132)">
          <path id="Trazado_1026529" data-name="Trazado 1026529" d="M320.016,209.623a5.294,5.294,0,0,1-3.255,5.785l-1.7.68V218.1a3.017,3.017,0,0,1-6.033,0v-2.011l-1.7-.68a5.3,5.3,0,0,1-3.255-5.785l.263-1.579h0l.67-4.022,4.447-.556A7.922,7.922,0,0,0,315.061,200l1.1.274a3.864,3.864,0,0,1,2.926,3.748l.67,4.022h0Z" transform="translate(-304 -200)" fill="#f0d0b4"/>
        </g>
        <g id="Grupo_1172413" data-name="Grupo 1172413" transform="translate(33.182 28.154)">
          <path id="Trazado_1026530" data-name="Trazado 1026530" d="M277.027,232l-.67,4.022h-2.347a2.011,2.011,0,1,1,0-4.022Z" transform="translate(-272 -232)" fill="#f0d0b4"/>
        </g>
      </g>
      <g id="Grupo_1172415" data-name="Grupo 1172415" transform="translate(0 0)">
        <path id="Trazado_1026531" data-name="Trazado 1026531" d="M60.33,54.3H58.319V50.743a8.032,8.032,0,0,0-6.093-7.8l-1.951-.488v-.545l1.068-.427A6.3,6.3,0,0,0,55.217,34.6l-.068-.408h1.159a3.014,3.014,0,0,0,2.173-5.106A9.154,9.154,0,0,0,50.17,16.088H42.394a5.409,5.409,0,0,0-4.93,3.172l-.179.045a5.409,5.409,0,0,0-4.1,5.255v.683a9.162,9.162,0,0,0,.844,3.838A3.014,3.014,0,0,0,36.2,34.187h1.159l-.068.408a6.3,6.3,0,0,0,3.874,6.884l1.068.427v.545l-1.951.488a8.061,8.061,0,0,0-3.344,1.75L36.2,42.722V42.3a8.044,8.044,0,0,0-6.906-7.963l-7.171-1.024v-.442l2.161-.81a9.109,9.109,0,0,0,5.883-8.489c0-.148-.005-.3-.012-.447h.012a4.02,4.02,0,0,0,2.717-6.984A10.957,10.957,0,0,0,23.228,0H12.971A10.957,10.957,0,0,0,3.316,16.143a4.02,4.02,0,0,0,2.717,6.984H6.04c0,.112-.007.225-.007.337v.109a9.109,9.109,0,0,0,5.883,8.489l2.161.81v.442L6.906,34.34A8.044,8.044,0,0,0,0,42.3V49.27A5.033,5.033,0,0,0,5.027,54.3H6.033v4.022H28.327a3.021,3.021,0,0,0,2.844,2.011H43.409a3.017,3.017,0,0,0,5.688,0H59.325a3.02,3.02,0,0,0,3.017-3.017V56.308A2.013,2.013,0,0,0,60.33,54.3ZM56.308,32.176H54.814l-.335-2.011h1.83a1.006,1.006,0,1,1,0,2.011ZM35.193,24.56a3.4,3.4,0,0,1,2.58-3.3l1.216-.3.175-.524A3.4,3.4,0,0,1,42.394,18.1H50.17a7.142,7.142,0,0,1,6.512,10.079,3.032,3.032,0,0,0-.374-.024H55.024a7.451,7.451,0,0,0,.227-5.346l-1.908.636a5.468,5.468,0,0,1,.135,3.01,4.862,4.862,0,0,0-2.869-2.018l-1.783-.446-.393.589a6.911,6.911,0,0,1-4.9,3.026l-3.316.415v-.872a2.013,2.013,0,0,1,2.011-2.011V23.127a4.027,4.027,0,0,0-4.022,4.022v1.006H36.2a3.032,3.032,0,0,0-.374.024,7.149,7.149,0,0,1-.632-2.935ZM36.2,32.176a1.006,1.006,0,0,1,0-2.011h1.83l-.335,2.011Zm5.712,7.436a4.287,4.287,0,0,1-2.637-4.686l.81-4.861,3.7-.463a8.92,8.92,0,0,0,5.9-3.324l.438.109a2.854,2.854,0,0,1,2.165,2.773v.083l.947,5.683A4.288,4.288,0,0,1,50.6,39.612l-2.332.933v2.692a2.011,2.011,0,1,1-4.022,0V40.545ZM40.768,44.89l1.659-.415a4.021,4.021,0,0,0,7.652,0l1.659.415a6.025,6.025,0,0,1,4.57,5.853V54.3H40.539l-2.83-7.547a6.05,6.05,0,0,1,3.059-1.86Zm-8.592,8.4V51.281a1.007,1.007,0,0,1,1.006-1.006h1.006V54.3H33.182A1.007,1.007,0,0,1,32.176,53.292Zm2.011-5.028H34l-1.681-4.481-.042-.1a1.005,1.005,0,0,1,1.778-.939L38.392,54.3H36.2V50.275A2.013,2.013,0,0,0,34.187,48.264ZM29.007,36.33a6.066,6.066,0,0,1,4.829,3.961,3.021,3.021,0,0,0-2,.247,3.021,3.021,0,0,0-1.374,3.995l1.5,3.992a3.021,3.021,0,0,0-1.79,2.755v2.011a3,3,0,0,0,.173,1.006h-.173a2.013,2.013,0,0,0-2.011,2.011H23.959a3,3,0,0,0,.173-1.006V41.226a3.02,3.02,0,0,0-3.017-3.017h-2.6l2.956-2.955ZM24.132,14.077A5.029,5.029,0,0,0,19.776,16.6a3.01,3.01,0,0,0-3.355,0A5.021,5.021,0,0,0,8.7,15.377l.043-.512a5.037,5.037,0,0,1,2.173-3.728,7.772,7.772,0,0,0,8.546,2.541l2.242-.747a4.526,4.526,0,0,1,4.146.673L27.2,14.62l.062.556A5,5,0,0,0,24.132,14.077ZM27.149,19.1a3.017,3.017,0,1,1-3.017-3.017A3.02,3.02,0,0,1,27.149,19.1Zm-12.066,0a3.017,3.017,0,1,1-3.017-3.017A3.02,3.02,0,0,1,15.083,19.1Zm15.083,2.011h-.217L29.5,17.094h.664a2.011,2.011,0,1,1,0,4.022ZM4.022,10.96A8.959,8.959,0,0,1,12.97,2.011H23.228A8.946,8.946,0,0,1,31.109,15.2a4.014,4.014,0,0,0-.944-.113h-.888l-.118-1.061v-.85a7.279,7.279,0,0,0-5.836-7.119l-.394,1.972a5.266,5.266,0,0,1,4.077,3.935,6.538,6.538,0,0,0-5.941-.937l-2.242.747A5.764,5.764,0,0,1,12,9.162L9.923,5.534l-1.746,1,1.659,2.9a7.054,7.054,0,0,0-3.1,5.261l-.032.386h-.67a4.014,4.014,0,0,0-.944.113A8.92,8.92,0,0,1,4.022,10.96Zm0,8.145a2.013,2.013,0,0,1,2.011-2.011h.5L6.2,21.116H6.033A2.013,2.013,0,0,1,4.022,19.1Zm8.6,11.075a7.089,7.089,0,0,1-4.578-6.607v-.109c0-.2.008-.394.025-.589l.055-.656a5.025,5.025,0,0,0,8.97-3.114,1.006,1.006,0,1,1,2.011,0,5.025,5.025,0,0,0,8.946,3.145l.06.545a7.055,7.055,0,0,1-4.535,7.386l-3.466,1.3v2.291L18.1,35.782l-2.011-2.011V31.479ZM2.011,49.27V42.3a6.063,6.063,0,0,1,5.18-5.972l7.536-1.077,2.956,2.956h-2.6a3.02,3.02,0,0,0-3.017,3.017v5.293a2.985,2.985,0,0,0-.888.615,3.007,3.007,0,0,0-2.128-.881H8.044V40.22H6.033v6.033H4.022v2.011H9.05a1.007,1.007,0,0,1,1.006,1.006v3.017H5.028A3.02,3.02,0,0,1,2.011,49.27Zm10.055,3.017V49.507l.344-.687a1,1,0,0,1,.9-.556h1.774a1.007,1.007,0,0,1,1.006,1.006v2.011a1.007,1.007,0,0,1-1.006,1.006ZM8.044,54.3h4.022V55.3a3,3,0,0,0,.173,1.006H8.044Zm7.039,2.011A1.007,1.007,0,0,1,14.077,55.3V54.3h1.006A3.02,3.02,0,0,0,18.1,51.281V49.27a3.02,3.02,0,0,0-3.017-3.017H14.077V41.226a1.007,1.007,0,0,1,1.006-1.006h6.033a1.007,1.007,0,0,1,1.006,1.006V55.3a1.007,1.007,0,0,1-1.006,1.006ZM60.33,57.314a1.007,1.007,0,0,1-1.006,1.006H47.259v1.006a1.006,1.006,0,1,1-2.011,0V58.319H31.171a1.007,1.007,0,0,1-1.006-1.006V56.308H60.33Z" transform="translate(0 0)"/>
        <ellipse id="Elipse_12340" data-name="Elipse 12340" cx="0.52" cy="1.56" rx="0.52" ry="1.56" transform="translate(16.615 41.568)"/>
      </g>
    </g>
  </g>
</svg>
