<svg xmlns="http://www.w3.org/2000/svg" xmlns:xlink="http://www.w3.org/1999/xlink" width="400" height="337" viewBox="0 0 400 337">
  <defs>
    <clipPath id="clip-path">
      <rect id="Rectángulo_415246" data-name="Rectángulo 415246" width="400" height="337" transform="translate(180 1019)" fill="#fff" stroke="#707070" stroke-width="1" opacity="0.45"/>
    </clipPath>
    <clipPath id="clip-path-2">
      <rect id="Rectángulo_415245" data-name="Rectángulo 415245" width="373.752" height="494.449" transform="translate(-4 18)" fill="none"/>
    </clipPath>
    <clipPath id="clip-path-3">
      <rect id="Rectángulo_415208" data-name="Rectángulo 415208" width="368.089" height="519.936" fill="none"/>
    </clipPath>
    <clipPath id="clip-path-4">
      <rect id="Rectángulo_415184" data-name="Rectángulo 415184" width="350.423" height="349.597" fill="none"/>
    </clipPath>
    <clipPath id="clip-path-5">
      <rect id="Rectángulo_415187" data-name="Rectángulo 415187" width="16.295" height="16.296" fill="none"/>
    </clipPath>
    <clipPath id="clip-path-6">
      <rect id="Rectángulo_415190" data-name="Rectángulo 415190" width="16.295" height="16.295" fill="none"/>
    </clipPath>
    <clipPath id="clip-path-9">
      <rect id="Rectángulo_415197" data-name="Rectángulo 415197" width="58.684" height="31.785" fill="none"/>
    </clipPath>
    <clipPath id="clip-path-10">
      <rect id="Rectángulo_415198" data-name="Rectángulo 415198" width="42.016" height="23.17" fill="none"/>
    </clipPath>
    <clipPath id="clip-path-11">
      <rect id="Rectángulo_415200" data-name="Rectángulo 415200" width="15.855" height="11.929" fill="none"/>
    </clipPath>
    <clipPath id="clip-path-12">
      <rect id="Rectángulo_415202" data-name="Rectángulo 415202" width="249.426" height="150.693" fill="none"/>
    </clipPath>
    <clipPath id="clip-path-13">
      <rect id="Rectángulo_415204" data-name="Rectángulo 415204" width="241.568" height="139.518" fill="none"/>
    </clipPath>
    <clipPath id="clip-path-14">
      <rect id="Rectángulo_415231" data-name="Rectángulo 415231" width="382.221" height="362.398" fill="none"/>
    </clipPath>
    <clipPath id="clip-path-15">
      <rect id="Rectángulo_415209" data-name="Rectángulo 415209" width="85.943" height="55.225" fill="none"/>
    </clipPath>
    <clipPath id="clip-path-16">
      <rect id="Rectángulo_415210" data-name="Rectángulo 415210" width="27.974" height="24.2" fill="none"/>
    </clipPath>
    <clipPath id="clip-path-17">
      <rect id="Rectángulo_415211" data-name="Rectángulo 415211" width="30.426" height="16.725" fill="none"/>
    </clipPath>
    <clipPath id="clip-path-18">
      <rect id="Rectángulo_415212" data-name="Rectángulo 415212" width="51.6" height="57.046" fill="none"/>
    </clipPath>
    <clipPath id="clip-path-19">
      <rect id="Rectángulo_415213" data-name="Rectángulo 415213" width="14.074" height="21.711" fill="none"/>
    </clipPath>
    <clipPath id="clip-path-20">
      <rect id="Rectángulo_415214" data-name="Rectángulo 415214" width="6.362" height="8.587" fill="none"/>
    </clipPath>
    <clipPath id="clip-path-21">
      <rect id="Rectángulo_415215" data-name="Rectángulo 415215" width="16.85" height="20.041" fill="none"/>
    </clipPath>
    <clipPath id="clip-path-22">
      <rect id="Rectángulo_415216" data-name="Rectángulo 415216" width="8.286" height="6.813" fill="none"/>
    </clipPath>
    <clipPath id="clip-path-23">
      <rect id="Rectángulo_415229" data-name="Rectángulo 415229" width="45.524" height="15.42" fill="none"/>
    </clipPath>
    <clipPath id="clip-path-24">
      <rect id="Rectángulo_415217" data-name="Rectángulo 415217" width="0.726" height="0.726" fill="none"/>
    </clipPath>
    <clipPath id="clip-path-36">
      <rect id="Rectángulo_415230" data-name="Rectángulo 415230" width="75.264" height="35.137" fill="none"/>
    </clipPath>
    <clipPath id="clip-path-37">
      <path id="Trazado_1032907" data-name="Trazado 1032907" d="M161.153,326.747a6.825,6.825,0,1,0,1.929-.279,6.833,6.833,0,0,0-1.929.279" transform="translate(-156.243 -326.468)" fill="none"/>
    </clipPath>
    <clipPath id="clip-path-38">
      <rect id="Rectángulo_415232" data-name="Rectángulo 415232" width="362.398" height="362.398" fill="none"/>
    </clipPath>
    <clipPath id="clip-path-39">
      <path id="Trazado_1032914" data-name="Trazado 1032914" d="M126.014,336.072a6.827,6.827,0,1,0,2.066-.321,6.834,6.834,0,0,0-2.066.321" transform="translate(-121.243 -335.751)" fill="none"/>
    </clipPath>
    <clipPath id="clip-path-41">
      <rect id="Rectángulo_415233" data-name="Rectángulo 415233" width="14.355" height="16.189" fill="none"/>
    </clipPath>
    <clipPath id="clip-path-42">
      <rect id="Rectángulo_415234" data-name="Rectángulo 415234" width="119.45" height="127.466" fill="none"/>
    </clipPath>
    <clipPath id="clip-path-43">
      <rect id="Rectángulo_415235" data-name="Rectángulo 415235" width="25.616" height="30.726" fill="none"/>
    </clipPath>
    <clipPath id="clip-path-44">
      <path id="Trazado_1032935" data-name="Trazado 1032935" d="M368.387,149.079a7.874,7.874,0,1,0,8.17-7.565c-.1,0-.205-.006-.307-.006a7.873,7.873,0,0,0-7.863,7.571" transform="translate(-368.381 -141.508)" fill="none"/>
    </clipPath>
    <clipPath id="clip-path-46">
      <path id="Trazado_1032942" data-name="Trazado 1032942" d="M326.747,146.545a7.874,7.874,0,1,0,8.007-7.738h-.138a7.873,7.873,0,0,0-7.868,7.739" transform="translate(-326.745 -138.806)" fill="none"/>
    </clipPath>
    <clipPath id="clip-path-48">
      <rect id="Rectángulo_415238" data-name="Rectángulo 415238" width="16.665" height="16.665" fill="none"/>
    </clipPath>
    <clipPath id="clip-path-49">
      <rect id="Rectángulo_415239" data-name="Rectángulo 415239" width="13.953" height="13.953" fill="none"/>
    </clipPath>
    <clipPath id="clip-path-50">
      <rect id="Rectángulo_415240" data-name="Rectángulo 415240" width="125.98" height="123.168" fill="none"/>
    </clipPath>
    <clipPath id="clip-path-51">
      <rect id="Rectángulo_415241" data-name="Rectángulo 415241" width="19.988" height="28.279" fill="none"/>
    </clipPath>
    <clipPath id="clip-path-52">
      <rect id="Rectángulo_415242" data-name="Rectángulo 415242" width="10.161" height="10.194" fill="none"/>
    </clipPath>
    <clipPath id="clip-path-53">
      <rect id="Rectángulo_415243" data-name="Rectángulo 415243" width="18.415" height="16.761" fill="none"/>
    </clipPath>
  </defs>
  <g id="Enmascarar_grupo_1098743" data-name="Enmascarar grupo 1098743" transform="translate(-180 -1019)" clip-path="url(#clip-path)">
    <g id="Grupo_1175130" data-name="Grupo 1175130" transform="translate(201.624 1000.741)" clip-path="url(#clip-path-2)">
      <g id="Grupo_1175018" data-name="Grupo 1175018" transform="translate(1.664 -7.487)">
        <g id="Grupo_1175017" data-name="Grupo 1175017" clip-path="url(#clip-path-3)">
          <g id="Grupo_1174989" data-name="Grupo 1174989" transform="translate(11.678 5.01)" opacity="0.25" style="mix-blend-mode: screen;isolation: isolate">
            <g id="Grupo_1174988" data-name="Grupo 1174988">
              <g id="Grupo_1174987" data-name="Grupo 1174987" clip-path="url(#clip-path-4)">
                <path id="Trazado_1032834" data-name="Trazado 1032834" d="M16.577,182.422c-2.492-16.654,5.111-34.784,20.694-43.5,12.456-6.965,26.775-9.134,30.151-25.245,4.483-21.394,1.492-43.8,7.127-64.96C79.895,28.65,92.217,6.146,115.966,6.932,133.073,7.5,147.838,18.1,164.334,21.45c23.234,4.721,46.935-5.594,70.633-4.874,13.514.41,22.43,5.653,28.191,18.055,4.547,9.791,7.125,20.853,10.569,31.087,2.84,8.444,6.859,14.036,15.548,17.074,23.351,8.164,49.08,15.866,65.365,36.159,8.221,10.244,11.563,21.919,7.94,34.8-5.024,17.858-19.13,31.553-23.965,49.451-2.57,9.513,2.183,15.14,9.8,20.3,44.626,30.2-3.633,84.2-33.048,103.655-8.555,5.659-18.084,11.259-28.044,14.033-17.444,4.858-35.911-1.678-53.635.71-19.459,2.622-37.819,10.381-57.32,12.772-23.6,2.893-53.785,4.457-72.972-11.792C86.68,328.712,79.785,306.109,74.92,285.543c-3.615-15.277-7.086-31.451-13.881-45.977-3.262-6.974-7.315-14.52-12.861-19.962-5.788-5.679-13.612-8.763-19.576-14.247a38.6,38.6,0,0,1-12.026-22.935" transform="translate(-16.112 -6.912)" fill="#583266"/>
              </g>
            </g>
          </g>
          <g id="Grupo_1174992" data-name="Grupo 1174992" transform="translate(26.63 71.621)" opacity="0.35">
            <g id="Grupo_1174991" data-name="Grupo 1174991">
              <g id="Grupo_1174990" data-name="Grupo 1174990" clip-path="url(#clip-path-5)">
                <rect id="Rectángulo_415185" data-name="Rectángulo 415185" width="15.595" height="4.724" transform="translate(3.581 14.896) rotate(-72.766)" fill="#ce88c4"/>
                <rect id="Rectángulo_415186" data-name="Rectángulo 415186" width="4.724" height="15.595" transform="translate(0 8.094) rotate(-72.766)" fill="#ce88c4"/>
              </g>
            </g>
          </g>
          <g id="Grupo_1174995" data-name="Grupo 1174995" transform="translate(335.359 44.789)" opacity="0.35">
            <g id="Grupo_1174994" data-name="Grupo 1174994">
              <g id="Grupo_1174993" data-name="Grupo 1174993" clip-path="url(#clip-path-6)">
                <rect id="Rectángulo_415188" data-name="Rectángulo 415188" width="15.595" height="4.724" transform="translate(3.581 14.895) rotate(-72.766)" fill="#ce88c4"/>
                <rect id="Rectángulo_415189" data-name="Rectángulo 415189" width="4.724" height="15.595" transform="translate(0 8.093) rotate(-72.766)" fill="#ce88c4"/>
              </g>
            </g>
          </g>
          <g id="Grupo_1174998" data-name="Grupo 1174998" transform="translate(217.097 275.642)" opacity="0.35">
            <g id="Grupo_1174997" data-name="Grupo 1174997">
              <g id="Grupo_1174996" data-name="Grupo 1174996" clip-path="url(#clip-path-6)">
                <rect id="Rectángulo_415191" data-name="Rectángulo 415191" width="15.595" height="4.724" transform="translate(3.582 14.895) rotate(-72.766)" fill="#ce88c4"/>
                <rect id="Rectángulo_415192" data-name="Rectángulo 415192" width="4.724" height="15.595" transform="translate(0 8.093) rotate(-72.766)" fill="#ce88c4"/>
              </g>
            </g>
          </g>
          <g id="Grupo_1175001" data-name="Grupo 1175001" transform="translate(20.23 301.595)" opacity="0.35">
            <g id="Grupo_1175000" data-name="Grupo 1175000">
              <g id="Grupo_1174999" data-name="Grupo 1174999" clip-path="url(#clip-path-6)">
                <rect id="Rectángulo_415194" data-name="Rectángulo 415194" width="15.595" height="4.724" transform="translate(3.581 14.895) rotate(-72.766)" fill="#ce88c4"/>
                <rect id="Rectángulo_415195" data-name="Rectángulo 415195" width="4.725" height="15.595" transform="translate(0 8.094) rotate(-72.769)" fill="#ce88c4"/>
              </g>
            </g>
          </g>
          <g id="Grupo_1175004" data-name="Grupo 1175004" transform="translate(55.099 33.607)" opacity="0.35">
            <g id="Grupo_1175003" data-name="Grupo 1175003">
              <g id="Grupo_1175002" data-name="Grupo 1175002" clip-path="url(#clip-path-9)">
                <path id="Trazado_1032835" data-name="Trazado 1032835" d="M79.765,62.58l-9.331,2.281q-.985.24-1.845-1.575a9.516,9.516,0,0,1-.582-1.526,1.062,1.062,0,0,1,0-.744q4.709-8.032,4.139-10.365a1.619,1.619,0,0,0-.7-1.082,1.866,1.866,0,0,0-1.389-.077,5.1,5.1,0,0,0-1.688.77,5.614,5.614,0,0,0-1.213,1.071,7.918,7.918,0,0,1-2.2-2.411,3.269,3.269,0,0,1-.357-.851,2.2,2.2,0,0,1-.049-.807q.047-.786,1.758-1.89A12.338,12.338,0,0,1,70.1,43.763q6.3-1.538,7.664,4.055a9.318,9.318,0,0,1-.461,5.429,20.513,20.513,0,0,1-2.859,5.361L80.068,57q.5,1.456.773,2.551a3.691,3.691,0,0,1,0,1.966,1.443,1.443,0,0,1-1.08,1.068" transform="translate(-64.536 -33.105)" fill="#ce88c4"/>
                <path id="Trazado_1032836" data-name="Trazado 1032836" d="M101.838,41.389l1.154,4.722,4.75-1.161q.506-.124.931.636a3.089,3.089,0,0,1,.4,1.63q-.025.871-.531.994l-4.75,1.161,1.175,4.806q.124.507-.636.93a3.019,3.019,0,0,1-.788.312l-.842.087q-.871-.025-.994-.531l-1.175-4.807L95.75,51.336q-.506.124-.93-.636a3.122,3.122,0,0,1-.4-1.63q.026-.87.531-.994l4.779-1.168-1.154-4.722c-.083-.338.129-.647.636-.93a3.029,3.029,0,0,1,.787-.312l.843-.087c.58.018.911.194.994.532" transform="translate(-72.76 -32.396)" fill="#ce88c4"/>
                <path id="Trazado_1032837" data-name="Trazado 1032837" d="M138.049,48.333l-9.331,2.281q-.985.24-1.845-1.575a9.588,9.588,0,0,1-.582-1.526,1.071,1.071,0,0,1,0-.744q4.709-8.032,4.139-10.365a1.618,1.618,0,0,0-.7-1.082,1.869,1.869,0,0,0-1.389-.077,5.1,5.1,0,0,0-1.688.77,5.616,5.616,0,0,0-1.213,1.071,7.918,7.918,0,0,1-2.2-2.411,3.269,3.269,0,0,1-.357-.851,2.195,2.195,0,0,1-.049-.807q.047-.786,1.758-1.89a12.338,12.338,0,0,1,3.791-1.612q6.3-1.538,7.664,4.055A9.318,9.318,0,0,1,135.589,39a20.492,20.492,0,0,1-2.859,5.361l5.622-1.612q.5,1.456.773,2.551a3.691,3.691,0,0,1,0,1.966,1.441,1.441,0,0,1-1.08,1.068" transform="translate(-80.576 -29.184)" fill="#ce88c4"/>
              </g>
            </g>
          </g>
          <g id="Grupo_1175007" data-name="Grupo 1175007" transform="translate(175.362 37.914)" opacity="0.35">
            <g id="Grupo_1175006" data-name="Grupo 1175006">
              <g id="Grupo_1175005" data-name="Grupo 1175005" clip-path="url(#clip-path-10)">
                <path id="Trazado_1032838" data-name="Trazado 1032838" d="M298.5,42.663q-.074.361-2.235-.08t-2.086-.8l2.142-10.493-2.3-.448q-.639-.132-.222-2.174a6.765,6.765,0,0,1,.417-1.334c.181-.421.386-.608.613-.562l5.832,1.191a1.009,1.009,0,0,1,.553.28.478.478,0,0,1,.143.439Z" transform="translate(-293.631 -26.762)" fill="#ce88c4"/>
                <path id="Trazado_1032839" data-name="Trazado 1032839" d="M302.692,42.769a3.824,3.824,0,0,1,.574-1.29,8.385,8.385,0,0,1,.823-1.1c.246-.267.383-.4.412-.393a5.036,5.036,0,0,0,2.445,1.275,2.518,2.518,0,0,0,1.443-.06,1.1,1.1,0,0,0,.715-.84.75.75,0,0,0-.321-.875,6.17,6.17,0,0,0-1.475-.545l-.766-.156c-.17-.036-.286-.277-.35-.726a3.69,3.69,0,0,1,.027-1.27q.2-1,.8-.9l.621.105a2.639,2.639,0,0,0,1.271-.085.987.987,0,0,0,.8-.712q.183-.9-1.414-1.221a5.948,5.948,0,0,0-2.395,0,6.3,6.3,0,0,1-.408-2.888q.2-.969,1.65-1.182a10.291,10.291,0,0,1,3.495.2,5.381,5.381,0,0,1,3.02,1.5,2.787,2.787,0,0,1,.675,2.555,4.5,4.5,0,0,1-3.022,3.507,3.848,3.848,0,0,1,1.932,4.229,4.21,4.21,0,0,1-2.094,2.975,6.146,6.146,0,0,1-4.34.411,9.475,9.475,0,0,1-2.967-1.1q-1.287-.762-1.152-1.422" transform="translate(-296.121 -27.609)" fill="#ce88c4"/>
                <path id="Trazado_1032840" data-name="Trazado 1032840" d="M330.51,32.661a.419.419,0,0,1,.464-.149,1.643,1.643,0,0,1,.618.281,2.028,2.028,0,0,1,.848,1.061.575.575,0,0,1,.028.294.458.458,0,0,1-.086.2L318.918,49.584a.491.491,0,0,1-.491.122,1.551,1.551,0,0,1-.608-.28,2.17,2.17,0,0,1-.869-1.065.558.558,0,0,1-.014-.258.429.429,0,0,1,.109-.209Z" transform="translate(-300.042 -28.34)" fill="#ce88c4"/>
                <path id="Trazado_1032841" data-name="Trazado 1032841" d="M343.794,52.594l-7.066-1.443q-.747-.152-.747-1.66a7.023,7.023,0,0,1,.095-1.223.792.792,0,0,1,.236-.505q5.77-3.944,6.132-5.71a1.212,1.212,0,0,0-.126-.957,1.4,1.4,0,0,0-.918-.5,3.82,3.82,0,0,0-1.393-.017,4.177,4.177,0,0,0-1.167.338,5.962,5.962,0,0,1-.719-2.343,2.44,2.44,0,0,1,.03-.693,1.652,1.652,0,0,1,.225-.562q.284-.52,1.8-.72a9.275,9.275,0,0,1,3.09.121q4.767.973,3.9,5.209a6.989,6.989,0,0,1-2.053,3.538,15.44,15.44,0,0,1-3.66,2.724l4.334.706q-.124,1.151-.293,1.981a2.783,2.783,0,0,1-.628,1.335,1.086,1.086,0,0,1-1.076.379" transform="translate(-305.286 -29.448)" fill="#ce88c4"/>
              </g>
            </g>
          </g>
          <g id="Grupo_1175010" data-name="Grupo 1175010" transform="translate(346.246 96.581)" opacity="0.46">
            <g id="Grupo_1175009" data-name="Grupo 1175009">
              <g id="Grupo_1175008" data-name="Grupo 1175008" clip-path="url(#clip-path-11)">
                <rect id="Rectángulo_415199" data-name="Rectángulo 415199" width="4.724" height="15.596" transform="translate(0 4.084) rotate(-59.796)" fill="#ce88c4"/>
              </g>
            </g>
          </g>
          <g id="Grupo_1175013" data-name="Grupo 1175013" transform="translate(17.941 122.975)" style="isolation: isolate">
            <g id="Grupo_1175012" data-name="Grupo 1175012">
              <g id="Grupo_1175011" data-name="Grupo 1175011" clip-path="url(#clip-path-12)">
                <rect id="Rectángulo_415201" data-name="Rectángulo 415201" width="249.427" height="150.693" transform="translate(-0.001)" fill="#7168ba"/>
              </g>
            </g>
          </g>
          <g id="Grupo_1175016" data-name="Grupo 1175016" transform="translate(21.871 128.563)" style="isolation: isolate">
            <g id="Grupo_1175015" data-name="Grupo 1175015">
              <g id="Grupo_1175014" data-name="Grupo 1175014" clip-path="url(#clip-path-13)">
                <rect id="Rectángulo_415203" data-name="Rectángulo 415203" width="241.568" height="139.518" transform="translate(0)" fill="#f4eaef"/>
              </g>
            </g>
          </g>
          <path id="Trazado_1032842" data-name="Trazado 1032842" d="M73.751,367.123H38.969v-6.011a2.938,2.938,0,0,1,2.938-2.938H70.813a2.938,2.938,0,0,1,2.938,2.938Z" transform="translate(-10.724 -98.571)" fill="#c9358f"/>
          <rect id="Rectángulo_415205" data-name="Rectángulo 415205" width="15.595" height="4.724" transform="translate(204.665 195.634) rotate(-72.766)" fill="#ebca4f"/>
          <rect id="Rectángulo_415206" data-name="Rectángulo 415206" width="4.724" height="15.595" transform="translate(201.083 188.832) rotate(-72.766)" fill="#ebca4f"/>
          <path id="Trazado_1032843" data-name="Trazado 1032843" d="M87.266,283.64c-1.242.2-1.863.3-3.105.5l.705,4.313c1.377-.225,2.066-.336,3.444-.556.083.518.125.778.207,1.3-1.786.286-2.679.43-4.463.724-.788-4.784-1.181-7.177-1.97-11.961,1.737-.286,2.606-.427,4.344-.7.083.518.125.778.207,1.3-1.321.211-1.981.318-3.3.534.247,1.512.37,2.268.618,3.78,1.243-.2,1.865-.3,3.109-.5.082.511.122.767.2,1.279" transform="translate(-22.59 -76.301)" fill="#7168ba"/>
          <path id="Trazado_1032844" data-name="Trazado 1032844" d="M90.838,284.506l-.169-1.065c2.451-.388,3.678-.578,6.131-.95.065.427.1.64.162,1.067-2.451.371-3.675.561-6.124.949m.552,3.482-.169-1.065c2.442-.387,3.663-.577,6.107-.947.065.427.1.64.162,1.067-2.441.37-3.661.559-6.1.945" transform="translate(-24.952 -77.742)" fill="#7168ba"/>
          <path id="Trazado_1032845" data-name="Trazado 1032845" d="M107.893,280.73c-.3-1.666-.655-3.667-.856-5.165l-.036.005c-.075,1.446-.195,2.989-.362,4.7-.231,2.41-.345,3.615-.569,6.024l-.779.113c-.849-2.209-1.274-3.314-2.129-5.522-.63-1.634-1.181-3.134-1.618-4.523l-.024,0c.2,1.5.437,3.517.633,5.324.22,2.069.331,3.1.553,5.172l-.979.146c-.5-4.828-.746-7.242-1.237-12.071l1.327-.2c.893,2.239,1.338,3.358,2.224,5.6.549,1.428,1.013,2.7,1.4,3.921l.036-.005c.025-1.239.117-2.6.256-4.162.235-2.4.354-3.606.6-6.009l1.329-.188c.879,4.772,1.318,7.159,2.193,11.932l-1,.142c-.38-2.1-.57-3.145-.95-5.242" transform="translate(-27.655 -75.378)" fill="#7168ba"/>
          <path id="Trazado_1032846" data-name="Trazado 1032846" d="M120.565,284.064a3.71,3.71,0,0,1-2.029.852c-2.246.3-4.234-1.6-4.783-5.534-.524-3.758.834-6.546,3.338-6.883a3.189,3.189,0,0,1,1.989.278l-.083,1.3a2.794,2.794,0,0,0-1.695-.282c-1.891.255-2.9,2.229-2.462,5.382.407,2.94,1.792,4.671,3.733,4.409a3.02,3.02,0,0,0,1.616-.723c.151.481.225.721.376,1.2" transform="translate(-31.275 -74.982)" fill="#7168ba"/>
          <path id="Trazado_1032847" data-name="Trazado 1032847" d="M124.913,274.683c-.033-.2-.049-.3-.082-.5.153-.28.23-.42.386-.7.943-1.65,1.4-2.507,1.273-3.413-.083-.611-.4-1.149-1.123-1.04a1.483,1.483,0,0,0-.942.669c-.12-.217-.179-.325-.3-.54a1.889,1.889,0,0,1,1.274-.826c1.046-.156,1.608.681,1.724,1.545.149,1.115-.37,2.1-1.157,3.469l-.3.5,0,.018c.826-.127,1.237-.188,2.063-.3l.091.678c-1.165.154-1.748.241-2.909.433" transform="translate(-34.16 -73.841)" fill="#7168ba"/>
          <path id="Trazado_1032848" data-name="Trazado 1032848" d="M71.215,291.938a.725.725,0,0,1-.629-.365l-7.162-12.548a.725.725,0,1,1,1.258-.72l6.084,10.659,2.306-18.425a.725.725,0,0,1,.594-.624L96.1,265.971a.725.725,0,1,1,.251,1.428L74.444,271.25,71.934,291.3a.724.724,0,0,1-.578.62.672.672,0,0,1-.141.015" transform="translate(-17.428 -73.193)" fill="#7168ba"/>
          <path id="Trazado_1032849" data-name="Trazado 1032849" d="M187.061,292.044l-5.835,1.427q-.616.151-1.154-.985a6.031,6.031,0,0,1-.364-.954.669.669,0,0,1,0-.466q2.945-5.023,2.589-6.482a1.011,1.011,0,0,0-.436-.676,1.167,1.167,0,0,0-.869-.049,3.178,3.178,0,0,0-1.055.482,3.5,3.5,0,0,0-.758.67A4.937,4.937,0,0,1,177.8,283.5a2.025,2.025,0,0,1-.223-.532,1.371,1.371,0,0,1-.03-.505q.029-.491,1.1-1.181a7.719,7.719,0,0,1,2.371-1.008q3.938-.962,4.793,2.536a5.827,5.827,0,0,1-.288,3.4,12.807,12.807,0,0,1-1.788,3.352l3.517-1.008q.315.911.483,1.6a2.3,2.3,0,0,1,0,1.229.9.9,0,0,1-.675.668" transform="translate(-48.859 -77.076)" fill="#ce88c4"/>
          <path id="Trazado_1032850" data-name="Trazado 1032850" d="M200.865,278.792l.722,2.953,2.971-.726q.315-.077.581.4a2.017,2.017,0,0,1,.2.492,2,2,0,0,1,.054.527c-.011.363-.122.57-.333.622l-2.97.726.734,3.006c.052.212-.081.406-.4.582a1.9,1.9,0,0,1-.492.195l-.527.054q-.545-.015-.622-.333l-.735-3.006-2.988.731c-.211.051-.4-.08-.581-.4a2.05,2.05,0,0,1-.195-.493,2.021,2.021,0,0,1-.054-.527q.016-.544.332-.621l2.989-.731-.722-2.953c-.051-.212.08-.405.4-.582a1.887,1.887,0,0,1,.493-.195l.527-.054c.362.011.57.121.621.333" transform="translate(-54.002 -76.633)" fill="#ce88c4"/>
          <path id="Trazado_1032851" data-name="Trazado 1032851" d="M223.512,283.134l-5.835,1.427q-.616.151-1.154-.986a6,6,0,0,1-.364-.953.669.669,0,0,1,0-.466q2.945-5.023,2.589-6.482a1.011,1.011,0,0,0-.436-.676,1.168,1.168,0,0,0-.869-.049,3.19,3.19,0,0,0-1.055.481,3.5,3.5,0,0,0-.758.67,4.953,4.953,0,0,1-1.375-1.508,2.014,2.014,0,0,1-.223-.532,1.371,1.371,0,0,1-.03-.505q.029-.491,1.1-1.181a7.706,7.706,0,0,1,2.371-1.009q3.938-.962,4.793,2.536a5.833,5.833,0,0,1-.288,3.4,12.853,12.853,0,0,1-1.788,3.352l3.516-1.008q.315.911.483,1.6a2.3,2.3,0,0,1,0,1.229.9.9,0,0,1-.676.668" transform="translate(-58.89 -74.624)" fill="#ce88c4"/>
          <path id="Trazado_1032852" data-name="Trazado 1032852" d="M160.743,231.369q-.057.278-1.724-.062t-1.61-.62l1.654-8.1-1.778-.346q-.494-.1-.172-1.677a5.255,5.255,0,0,1,.322-1.03c.141-.325.3-.47.474-.434l4.5.919a.777.777,0,0,1,.426.216.369.369,0,0,1,.111.338Z" transform="translate(-43.203 -60.296)" fill="#c9358f"/>
          <path id="Trazado_1032853" data-name="Trazado 1032853" d="M163.979,231.451a2.952,2.952,0,0,1,.443-1,6.5,6.5,0,0,1,.635-.846q.285-.31.319-.3a3.88,3.88,0,0,0,1.887.984,1.935,1.935,0,0,0,1.113-.046.842.842,0,0,0,.552-.648.578.578,0,0,0-.247-.676,4.79,4.79,0,0,0-1.139-.421l-.591-.12c-.131-.028-.222-.214-.27-.561a2.887,2.887,0,0,1,.02-.98q.159-.771.62-.694l.48.081a2.044,2.044,0,0,0,.981-.065.763.763,0,0,0,.618-.549q.141-.691-1.092-.942a4.6,4.6,0,0,0-1.849,0,4.876,4.876,0,0,1-.315-2.229q.152-.747,1.273-.912a7.931,7.931,0,0,1,2.7.157,4.149,4.149,0,0,1,2.33,1.161,2.149,2.149,0,0,1,.522,1.971,3.47,3.47,0,0,1-2.332,2.707,2.972,2.972,0,0,1,1.49,3.264,3.251,3.251,0,0,1-1.616,2.3,4.744,4.744,0,0,1-3.351.317,7.293,7.293,0,0,1-2.29-.852q-.993-.588-.889-1.1" transform="translate(-45.125 -60.95)" fill="#c9358f"/>
          <path id="Trazado_1032854" data-name="Trazado 1032854" d="M185.451,223.649a.324.324,0,0,1,.358-.115,1.27,1.27,0,0,1,.477.217,1.565,1.565,0,0,1,.654.819.447.447,0,0,1,.022.227.365.365,0,0,1-.067.157L176.5,236.711a.377.377,0,0,1-.378.094,1.194,1.194,0,0,1-.469-.215,1.678,1.678,0,0,1-.671-.822.441.441,0,0,1-.011-.2.33.33,0,0,1,.085-.162Z" transform="translate(-48.152 -61.514)" fill="#c9358f"/>
          <path id="Trazado_1032855" data-name="Trazado 1032855" d="M195.7,239.034l-5.454-1.114c-.384-.078-.576-.5-.578-1.281a5.7,5.7,0,0,1,.073-.944.618.618,0,0,1,.183-.39q4.454-3.044,4.733-4.407a.935.935,0,0,0-.1-.739,1.077,1.077,0,0,0-.709-.384,2.917,2.917,0,0,0-1.074-.014,3.21,3.21,0,0,0-.9.261,4.585,4.585,0,0,1-.555-1.808,1.908,1.908,0,0,1,.023-.535,1.263,1.263,0,0,1,.175-.434q.217-.4,1.389-.556a7.165,7.165,0,0,1,2.385.094q3.68.751,3.012,4.021a5.4,5.4,0,0,1-1.584,2.731,11.908,11.908,0,0,1-2.825,2.1l3.346.545q-.1.889-.226,1.529a2.147,2.147,0,0,1-.484,1.031.838.838,0,0,1-.831.293" transform="translate(-52.198 -62.369)" fill="#c9358f"/>
          <rect id="Rectángulo_415207" data-name="Rectángulo 415207" width="15.595" height="4.724" transform="translate(187.409 148.309) rotate(-24.316)" fill="#9a92de"/>
          <path id="Trazado_1032856" data-name="Trazado 1032856" d="M67.862,211.948H48.89V192.977H67.862Zm-18.247-.725H67.137V193.7H49.615Z" transform="translate(-13.455 -53.108)" fill="#9a92de"/>
          <path id="Trazado_1032857" data-name="Trazado 1032857" d="M101.472,211.762H83.152L92.311,192.3Zm-17.178-.725H100.33L92.311,194Z" transform="translate(-22.884 -52.922)" fill="#9a92de"/>
          <path id="Trazado_1032858" data-name="Trazado 1032858" d="M121.586,211.947a9.485,9.485,0,1,1,9.485-9.485,9.5,9.5,0,0,1-9.485,9.485m0-18.246a8.761,8.761,0,1,0,8.761,8.761,8.77,8.77,0,0,0-8.761-8.761" transform="translate(-30.851 -53.108)" fill="#9a92de"/>
        </g>
      </g>
      <g id="Grupo_1175086" data-name="Grupo 1175086" transform="translate(-12.469 -7.486)">
        <g id="Grupo_1175085" data-name="Grupo 1175085" transform="translate(0)" clip-path="url(#clip-path-14)">
          <path id="Trazado_1032859" data-name="Trazado 1032859" d="M63.45,480.173c-6.827-.7-43.539,7.03-45.008,14.9a3.065,3.065,0,0,0,.32,2.082c1.571,2.932,8.895,4.334,15.814,4.984s13.449.559,13.449.559l16.333-7.489s3.316-8.082,2.1-12.4a3.284,3.284,0,0,0-3.01-2.637" transform="translate(9.073 -132.134)" fill="#fff"/>
          <path id="Trazado_1032860" data-name="Trazado 1032860" d="M63.45,480.173c-6.827-.7-43.539,7.03-45.008,14.9a3.065,3.065,0,0,0,.32,2.082c6.4-4.108,23.017-12.917,47.7-14.345a3.284,3.284,0,0,0-3.01-2.637" transform="translate(9.073 -132.134)" fill="#ebca4f"/>
          <path id="Trazado_1032861" data-name="Trazado 1032861" d="M48.655,502.145a21.512,21.512,0,0,1-3.55,6.069c-1,1.2-2.912-.127-1.937-1.421a22.071,22.071,0,0,0,3.07-5.545,1.289,1.289,0,1,1,2.417.9" transform="translate(2.327 -137.713)" fill="#ebca4f"/>
          <path id="Trazado_1032862" data-name="Trazado 1032862" d="M42.692,501.287c-.854,2.276-2.01,4.956-3.823,6.607a.91.91,0,0,1-1.423-1.036c.866-2.2,2.172-4.165,2.985-6.413a1.207,1.207,0,1,1,2.261.843" transform="translate(3.845 -137.505)" fill="#ebca4f"/>
          <path id="Trazado_1032863" data-name="Trazado 1032863" d="M101.559,474.453l-9.11,2.289L68.265,499.2s6.354,21.838,23.336,28.934l13.571-7.423-4.41,12.153s24.923,12.353,38.56,6.548l10.6-24.129a44.334,44.334,0,0,0,3.63-20.923L153.379,489Z" transform="translate(-4.654 -130.572)" fill="#ebca4f"/>
          <g id="Grupo_1175021" data-name="Grupo 1175021" transform="translate(14.133 302.454)" style="isolation: isolate">
            <g id="Grupo_1175020" data-name="Grupo 1175020">
              <g id="Grupo_1175019" data-name="Grupo 1175019" clip-path="url(#clip-path-15)">
                <path id="Trazado_1032864" data-name="Trazado 1032864" d="M85.943,432.262c-.525-.435-1.055-.86-1.576-1.305A93.811,93.811,0,0,1,69.128,417.3c-1.067,1.033-2.834,2.141-4.011,3.275-13.405,12.9-38.485,23.741-38.485,23.741s-13.508-2.393-15.775.486,5.639,3.933,5.639,3.933S-.929,451.79.039,454.637s14.357.2,14.357.2-16.075,5.2-13.709,8.587c1.473,1.937,14.634-3.907,14.634-3.907S2.548,466.3,3.986,468.444s13.42-4.883,13.42-4.883S7.958,470.09,9.591,472.2s18.35-6.644,23.059-10.436c0,0,28.578-10.449,53.293-29.5" transform="translate(0 -417.296)" fill="#e7b69c"/>
              </g>
            </g>
          </g>
          <path id="Trazado_1032865" data-name="Trazado 1032865" d="M29.626,477.208a.426.426,0,0,0-.2-.315c-.084-.054-8.529-5.445-6.408-12.435a.43.43,0,1,0-.823-.252c-2.32,7.625,6.683,13.359,6.775,13.417a.43.43,0,0,0,.592-.138.425.425,0,0,0,.063-.278" transform="translate(8.13 -127.668)" fill="#be696d"/>
          <path id="Trazado_1032866" data-name="Trazado 1032866" d="M94.939,403.131a5.449,5.449,0,0,0-1.229.244c-14.734,7.909-59.882,29.954-59.882,29.954l22.227,20.506,41.578-22.35-2.429-26.7Z" transform="translate(4.823 -110.944)" fill="#c9358f"/>
          <g id="Grupo_1175024" data-name="Grupo 1175024" transform="translate(104.618 275.569)" style="isolation: isolate">
            <g id="Grupo_1175023" data-name="Grupo 1175023">
              <g id="Grupo_1175022" data-name="Grupo 1175022" clip-path="url(#clip-path-16)">
                <path id="Trazado_1032867" data-name="Trazado 1032867" d="M127.084,380.2l-.672,7.277-1.57,16.923,24.216-.331s3.868-19.988,3.755-20.707Z" transform="translate(-124.842 -380.203)" fill="#e7b69c"/>
              </g>
            </g>
          </g>
          <path id="Trazado_1032868" data-name="Trazado 1032868" d="M155.636,387.044c-.427,3.488-1.872,6.733-2.572,11.318-.923.639-12.927,3-18.94-6.62a83.667,83.667,0,0,0,19-3.92c.677-.2,1.528-.452,2.511-.777" transform="translate(-22.779 -106.517)" fill="#be696d"/>
          <g id="Grupo_1175027" data-name="Grupo 1175027" transform="translate(105.227 291.981)" style="isolation: isolate">
            <g id="Grupo_1175026" data-name="Grupo 1175026">
              <g id="Grupo_1175025" data-name="Grupo 1175025" clip-path="url(#clip-path-17)">
                <path id="Trazado_1032869" data-name="Trazado 1032869" d="M125.791,402.846c-.839,7.425,3.181,14.657,13.269,16.4,9.964,1.72,15.19-3.589,17.048-10.71-2.508-.4-4.539-1.068-7.068-1.49-10.169-1.7-13.5-2.232-23.249-4.2" transform="translate(-125.683 -402.846)" fill="#e7b69c"/>
              </g>
            </g>
          </g>
          <path id="Trazado_1032870" data-name="Trazado 1032870" d="M153.116,416.658c-.881-2.6-6.071-7.42-8.047-9.12-1.394,2.986-2.386,6.35-4.781,8.734-2.658,2.646-6.635,2.719-10.031,1.634a14.5,14.5,0,0,1-5.677-3.559,22.045,22.045,0,0,1-3.882-5.25,25.045,25.045,0,0,1-1.319-2.849c-.094-.242-.789-2.7-.868-2.707L113,403.131,99.439,459.96l62.519,9.411s-.151-27.16-8.842-52.713" transform="translate(-13.233 -110.944)" fill="#c9358f"/>
          <g id="Grupo_1175030" data-name="Grupo 1175030" transform="translate(161.295 281.033)" style="isolation: isolate">
            <g id="Grupo_1175029" data-name="Grupo 1175029">
              <g id="Grupo_1175028" data-name="Grupo 1175028" clip-path="url(#clip-path-18)">
                <path id="Trazado_1032871" data-name="Trazado 1032871" d="M215.992,444.787a226.572,226.572,0,0,0,21.7-23.652c5.021-3.37,18.348-16.728,16.82-18.914s-10.569,4.893-10.569,4.893,10.275-9.35,8.651-11.36-11.894,8.168-11.894,8.168,9.493-10.828,8.081-12.811c-2.526-3.264-12.274,10.536-12.274,10.536s6.509-12,4.078-13.767-10.533,13.957-10.533,13.957,1.345-7.861-2.078-6.554-5.155,14.917-5.155,14.917-8.949,8.076-19.788,16.074a101.465,101.465,0,0,1,12.954,18.511" transform="translate(-203.039 -387.741)" fill="#e7b69c"/>
              </g>
            </g>
          </g>
          <path id="Trazado_1032872" data-name="Trazado 1032872" d="M253.974,418.836a.425.425,0,0,1-.241-.284c-.028-.1-2.664-9.762-9.968-9.815a.43.43,0,0,1,.005-.86c7.97.052,10.768,10.353,10.8,10.457a.431.431,0,0,1-.591.5" transform="translate(-52.835 -112.25)" fill="#be696d"/>
          <path id="Trazado_1032873" data-name="Trazado 1032873" d="M164.74,424.623l-2.346-15.412,4.173,1.013c6.889,2.029,19.038,10.854,19.038,10.854l7.979,6.1,10.768-9.848,18.039,20.831-13.217,15.808a20.621,20.621,0,0,1-25.476,5.35l-11.863-5.848Z" transform="translate(-30.559 -112.617)" fill="#c9358f"/>
          <path id="Trazado_1032874" data-name="Trazado 1032874" d="M160.692,498.148a363.584,363.584,0,0,1-60.592-15.31l.353-.949a362.524,362.524,0,0,0,60.4,15.259Z" transform="translate(-13.415 -132.618)" fill="#be696d"/>
          <path id="Trazado_1032875" data-name="Trazado 1032875" d="M122.822,524.385l-.731-.7c7.7-8.048,13.705-28.827,13.765-29.035l.973.278c-.247.864-6.137,21.229-14.007,29.458" transform="translate(-19.467 -136.13)" fill="#be696d"/>
          <path id="Trazado_1032876" data-name="Trazado 1032876" d="M132.191,515.637q-.2-.018-.4-.049l.149-1a5.661,5.661,0,0,0,4.341-1.157c5.338-4.018,7.049-16.451,7.066-16.576l1,.133c-.07.528-1.784,12.977-7.46,17.251a6.616,6.616,0,0,1-4.7,1.4" transform="translate(-22.136 -136.737)" fill="#be696d"/>
          <path id="Trazado_1032877" data-name="Trazado 1032877" d="M90.094,493.706a12.4,12.4,0,0,1-4.2-1.167l.433-.915c9.454,4.481,17.951-5.943,18.036-6.048l.79.632c-.077.1-6.728,8.26-15.055,7.5" transform="translate(-9.504 -133.633)" fill="#be696d"/>
          <path id="Trazado_1032878" data-name="Trazado 1032878" d="M75.589,393.485l5.008,2.959c.331-.368.668-.718.98-1.079.73-.824,2.5-2.18,2.851-3.207-.472,1.43-.944,3.836-1.918,5.423l4.015,2.374,4.208-10.4-2.456,10.97,11.071,5.034s10.12-34.826,10.84-36.409a7.356,7.356,0,0,0-3.79-4.271c-2.906-1.232-6.647-.105-8.961,2.931q-10.922,12.829-21.85,25.671" transform="translate(-6.669 -100.283)"/>
          <path id="Trazado_1032879" data-name="Trazado 1032879" d="M202.528,385.424l-3.106,4.919c-.462-.178-.922-.335-1.365-.514-1.026-.4-3.222-.8-4-1.553,1.073,1.057,2.592,2.983,4.181,3.95l-2.489,3.945-8.489-7.328,7.191,8.639-7.552,9.533s-24.9-26.368-26.263-27.448a7.354,7.354,0,0,1,1.423-5.53c2.023-2.422,5.867-3.127,9.311-1.481q15.573,6.43,31.158,12.868" transform="translate(-30.056 -102.284)"/>
          <g id="Grupo_1175033" data-name="Grupo 1175033" transform="translate(145.606 238.036)" style="isolation: isolate">
            <g id="Grupo_1175032" data-name="Grupo 1175032">
              <g id="Grupo_1175031" data-name="Grupo 1175031" clip-path="url(#clip-path-19)">
                <path id="Trazado_1032880" data-name="Trazado 1032880" d="M182.037,343.111a19.269,19.269,0,0,1,.006-9.906c1.1-3.957,3.568-7.339,9.133-2.118,9.893,9.28.667,21.794-7.483,18.505Z" transform="translate(-181.393 -328.419)" fill="#e7b69c"/>
              </g>
            </g>
          </g>
          <g id="Grupo_1175036" data-name="Grupo 1175036" transform="translate(148.161 244.19)" style="mix-blend-mode: multiply;isolation: isolate">
            <g id="Grupo_1175035" data-name="Grupo 1175035">
              <g id="Grupo_1175034" data-name="Grupo 1175034" clip-path="url(#clip-path-20)">
                <path id="Trazado_1032881" data-name="Trazado 1032881" d="M190.821,337.074a4.812,4.812,0,0,0-4.721,1.35,4.557,4.557,0,0,0-.88,4.705,4.753,4.753,0,0,0,1.771,2.278.654.654,0,0,0,.884-.238.661.661,0,0,0-.238-.884,3.49,3.49,0,0,1-1.3-3.723.454.454,0,0,0,.223.037,4.126,4.126,0,0,1,.575-.023c.091,0,.183.009.273.018l.064.007.125.021a4.18,4.18,0,0,1,.531.136c.087.028.173.062.259.094-.134-.049.033.015.049.022l.124.059a4.509,4.509,0,0,1,.477.273l.113.077c.011.008.083.064.084.064.057.047.114.093.169.142a4.162,4.162,0,0,1,.383.391c.028.033.055.067.082.1.008.01.019.024.032.043.058.082.113.167.165.252a.647.647,0,1,0,1.123-.643,4.954,4.954,0,0,0-4.115-2.343,3.509,3.509,0,0,1,3.408-.965.648.648,0,0,0,.34-1.25" transform="translate(-184.918 -336.909)" fill="#be696d"/>
              </g>
            </g>
          </g>
          <path id="Trazado_1032882" data-name="Trazado 1032882" d="M102.528,361.49c13.815,8.555,28.093,4.732,36.257,2.548,4.561-1.224,18.675-5,22.267-15.021.257-.718.4-1.323.569-1.97a23.472,23.472,0,0,0,.666-5.006,35.719,35.719,0,0,0-.449-6.257,58.763,58.763,0,0,0-2.006-8.587c-.122-.407-.245-.812-.373-1.21-.685-2.127-1.43-4.117-2.2-5.961-.9-2.172-1.851-4.155-2.777-5.948a63.556,63.556,0,0,0-7.433-11.344,42.788,42.788,0,0,0-5.466-5.564,22.791,22.791,0,0,0-2.9-2.065,35.4,35.4,0,0,0-12.572-4.224,17.552,17.552,0,0,0-4.578-.208c-23.7,1.242-33.91,12.519-36.646,26.709a47.788,47.788,0,0,0-.756,10.678c0,.14.015.332.022.581.239,4.214,2.163,22.823,18.374,32.85" transform="translate(-9.011 -79.978)" fill="#e7b69c"/>
          <path id="Trazado_1032883" data-name="Trazado 1032883" d="M125.082,291.178a74.02,74.02,0,0,0,6.3,7.262c.282.291.565.583.87.855a71.335,71.335,0,0,0,7.292,6.308,75.831,75.831,0,0,0,30.726,13.958,30.477,30.477,0,0,0-3-16.235,28.283,28.283,0,0,0-2.288-3.8,30.876,30.876,0,0,0-7.71-7.639,28.786,28.786,0,0,0-30.153-1.863c-.794.409-1.479.809-2.033,1.149" transform="translate(-20.29 -78.883)"/>
          <path id="Trazado_1032884" data-name="Trazado 1032884" d="M76.294,327.6c0,.223.017.452.037.668a25.334,25.334,0,0,0,3.759,12.937c2.6,4,4.307,5.869,9.07,6.243,13.259-7.79,22.938-21.162,26.9-35.994a58.281,58.281,0,0,0,1.786-10.311c.043-.484.072-.974.1-1.464a56.106,56.106,0,0,0-.138-8c-1.382-.184-2.769-.326-4.124-.409-9.224-.625-17.8.97-24.843,7.306a37.426,37.426,0,0,0-7.866,10.035A38.109,38.109,0,0,0,76.294,327.6" transform="translate(-6.861 -80.125)"/>
          <g id="Grupo_1175039" data-name="Grupo 1175039" transform="translate(75.936 263.031)" style="isolation: isolate">
            <g id="Grupo_1175038" data-name="Grupo 1175038">
              <g id="Grupo_1175037" data-name="Grupo 1175037" clip-path="url(#clip-path-21)">
                <path id="Trazado_1032885" data-name="Trazado 1032885" d="M99.954,373.4a19.28,19.28,0,0,0-5.431-8.285c-3.085-2.71-7-4.185-8.8,3.23-3.195,13.183,11.379,18.6,16.4,11.385Z" transform="translate(-85.269 -362.905)" fill="#e7b69c"/>
              </g>
            </g>
          </g>
          <g id="Grupo_1175042" data-name="Grupo 1175042" transform="translate(79.333 269.212)" style="mix-blend-mode: multiply;isolation: isolate">
            <g id="Grupo_1175041" data-name="Grupo 1175041">
              <g id="Grupo_1175040" data-name="Grupo 1175040" clip-path="url(#clip-path-22)">
                <path id="Trazado_1032886" data-name="Trazado 1032886" d="M90.119,373.021a4.811,4.811,0,0,1,4.689-1.456,4.554,4.554,0,0,1,3.313,3.454,4.749,4.749,0,0,1-.234,2.876.653.653,0,0,1-.87.285.662.662,0,0,1-.285-.871,3.491,3.491,0,0,0-.95-3.828.464.464,0,0,1-.167.153,4.213,4.213,0,0,0-.5.3c-.075.053-.147.108-.219.165l-.049.041c-.032.028-.063.057-.093.086a4.256,4.256,0,0,0-.37.4c-.057.072-.11.146-.165.22.085-.114-.02.031-.029.046q-.037.058-.072.117a4.429,4.429,0,0,0-.249.489c-.019.042-.036.084-.053.127-.005.012-.034.1-.035.1-.022.07-.045.14-.065.212a4.089,4.089,0,0,0-.106.537c-.006.043-.009.086-.014.129,0,.013,0,.03,0,.053,0,.1,0,.2,0,.3a.647.647,0,0,1-1.292.078,4.952,4.952,0,0,1,2.16-4.215,3.511,3.511,0,0,0-3.38,1.06.648.648,0,0,1-.968-.86" transform="translate(-89.957 -371.432)" fill="#be696d"/>
              </g>
            </g>
          </g>
          <g id="Grupo_1175081" data-name="Grupo 1175081" transform="translate(99.436 242.84)" opacity="0.38">
            <g id="Grupo_1175080" data-name="Grupo 1175080">
              <g id="Grupo_1175079" data-name="Grupo 1175079" clip-path="url(#clip-path-23)">
                <g id="Grupo_1175045" data-name="Grupo 1175045" transform="translate(44.799)" style="mix-blend-mode: multiply;isolation: isolate">
                  <g id="Grupo_1175044" data-name="Grupo 1175044">
                    <g id="Grupo_1175043" data-name="Grupo 1175043" clip-path="url(#clip-path-24)">
                      <path id="Trazado_1032887" data-name="Trazado 1032887" d="M179.507,335.476a.363.363,0,1,0,.291-.423.363.363,0,0,0-.291.423" transform="translate(-179.501 -335.047)" fill="#be696d"/>
                    </g>
                  </g>
                </g>
                <g id="Grupo_1175048" data-name="Grupo 1175048" transform="translate(21.168 5.866)" style="mix-blend-mode: multiply;isolation: isolate">
                  <g id="Grupo_1175047" data-name="Grupo 1175047">
                    <g id="Grupo_1175046" data-name="Grupo 1175046" clip-path="url(#clip-path-24)">
                      <path id="Trazado_1032888" data-name="Trazado 1032888" d="M146.9,343.57a.363.363,0,1,0,.291-.423.364.364,0,0,0-.291.423" transform="translate(-146.898 -343.14)" fill="#be696d"/>
                    </g>
                  </g>
                </g>
                <g id="Grupo_1175051" data-name="Grupo 1175051" transform="translate(32.69 7.202)" style="mix-blend-mode: multiply;isolation: isolate">
                  <g id="Grupo_1175050" data-name="Grupo 1175050">
                    <g id="Grupo_1175049" data-name="Grupo 1175049" clip-path="url(#clip-path-24)">
                      <path id="Trazado_1032889" data-name="Trazado 1032889" d="M162.8,345.413a.363.363,0,1,0,.291-.423.364.364,0,0,0-.291.423" transform="translate(-162.795 -344.983)" fill="#be696d"/>
                    </g>
                  </g>
                </g>
                <g id="Grupo_1175054" data-name="Grupo 1175054" transform="translate(36.737 5.297)" style="mix-blend-mode: multiply;isolation: isolate">
                  <g id="Grupo_1175053" data-name="Grupo 1175053">
                    <g id="Grupo_1175052" data-name="Grupo 1175052" clip-path="url(#clip-path-24)">
                      <path id="Trazado_1032890" data-name="Trazado 1032890" d="M168.385,342.785a.363.363,0,1,0,.291-.423.364.364,0,0,0-.291.423" transform="translate(-168.378 -342.355)" fill="#be696d"/>
                    </g>
                  </g>
                </g>
                <g id="Grupo_1175057" data-name="Grupo 1175057" transform="translate(32.51 4.061)" style="mix-blend-mode: multiply;isolation: isolate">
                  <g id="Grupo_1175056" data-name="Grupo 1175056">
                    <g id="Grupo_1175055" data-name="Grupo 1175055" clip-path="url(#clip-path-24)">
                      <path id="Trazado_1032891" data-name="Trazado 1032891" d="M162.553,341.08a.363.363,0,1,0,.291-.423.364.364,0,0,0-.291.423" transform="translate(-162.546 -340.65)" fill="#be696d"/>
                    </g>
                  </g>
                </g>
                <g id="Grupo_1175060" data-name="Grupo 1175060" transform="translate(40.573 2.833)" style="mix-blend-mode: multiply;isolation: isolate">
                  <g id="Grupo_1175059" data-name="Grupo 1175059">
                    <g id="Grupo_1175058" data-name="Grupo 1175058" clip-path="url(#clip-path-24)">
                      <path id="Trazado_1032892" data-name="Trazado 1032892" d="M173.678,339.385a.363.363,0,1,0,.29-.423.363.363,0,0,0-.29.423" transform="translate(-173.671 -338.956)" fill="#be696d"/>
                    </g>
                  </g>
                </g>
                <g id="Grupo_1175063" data-name="Grupo 1175063" transform="translate(17.217 9.304)" style="mix-blend-mode: multiply;isolation: isolate">
                  <g id="Grupo_1175062" data-name="Grupo 1175062">
                    <g id="Grupo_1175061" data-name="Grupo 1175061" clip-path="url(#clip-path-24)">
                      <path id="Trazado_1032893" data-name="Trazado 1032893" d="M141.453,348.313a.363.363,0,1,0,.291-.423.363.363,0,0,0-.291.423" transform="translate(-141.446 -347.884)" fill="#be696d"/>
                    </g>
                  </g>
                </g>
                <g id="Grupo_1175066" data-name="Grupo 1175066" transform="translate(0 14.694)" style="mix-blend-mode: multiply;isolation: isolate">
                  <g id="Grupo_1175065" data-name="Grupo 1175065">
                    <g id="Grupo_1175064" data-name="Grupo 1175064" clip-path="url(#clip-path-24)">
                      <path id="Trazado_1032894" data-name="Trazado 1032894" d="M117.7,355.75a.363.363,0,1,0,.291-.423.362.362,0,0,0-.291.423" transform="translate(-117.692 -355.32)" fill="#be696d"/>
                    </g>
                  </g>
                </g>
                <g id="Grupo_1175069" data-name="Grupo 1175069" transform="translate(0.881 10.449)" style="mix-blend-mode: multiply;isolation: isolate">
                  <g id="Grupo_1175068" data-name="Grupo 1175068">
                    <g id="Grupo_1175067" data-name="Grupo 1175067" clip-path="url(#clip-path-24)">
                      <path id="Trazado_1032895" data-name="Trazado 1032895" d="M118.913,349.892a.363.363,0,1,0,.291-.423.363.363,0,0,0-.291.423" transform="translate(-118.907 -349.463)" fill="#be696d"/>
                    </g>
                  </g>
                </g>
                <g id="Grupo_1175072" data-name="Grupo 1175072" transform="translate(17.139 5.853)" style="mix-blend-mode: multiply;isolation: isolate">
                  <g id="Grupo_1175071" data-name="Grupo 1175071">
                    <g id="Grupo_1175070" data-name="Grupo 1175070" clip-path="url(#clip-path-24)">
                      <path id="Trazado_1032896" data-name="Trazado 1032896" d="M141.344,343.553a.363.363,0,1,0,.29-.423.364.364,0,0,0-.29.423" transform="translate(-141.338 -343.123)" fill="#be696d"/>
                    </g>
                  </g>
                </g>
                <path id="Trazado_1032897" data-name="Trazado 1032897" d="M124.688,354.944a.363.363,0,1,0,.291-.423.364.364,0,0,0-.291.423" transform="translate(-119.616 -340.404)" fill="#be696d"/>
                <g id="Grupo_1175075" data-name="Grupo 1175075" transform="translate(13.152 11.247)" style="mix-blend-mode: multiply;isolation: isolate">
                  <g id="Grupo_1175074" data-name="Grupo 1175074">
                    <g id="Grupo_1175073" data-name="Grupo 1175073" clip-path="url(#clip-path-24)">
                      <path id="Trazado_1032898" data-name="Trazado 1032898" d="M135.844,350.995a.363.363,0,1,0,.291-.423.363.363,0,0,0-.291.423" transform="translate(-135.838 -350.565)" fill="#be696d"/>
                    </g>
                  </g>
                </g>
                <g id="Grupo_1175078" data-name="Grupo 1175078" transform="translate(28.668 2.481)" style="mix-blend-mode: multiply;isolation: isolate">
                  <g id="Grupo_1175077" data-name="Grupo 1175077">
                    <g id="Grupo_1175076" data-name="Grupo 1175076" clip-path="url(#clip-path-24)">
                      <path id="Trazado_1032899" data-name="Trazado 1032899" d="M157.252,338.9a.363.363,0,1,0,.291-.423.363.363,0,0,0-.291.423" transform="translate(-157.245 -338.47)" fill="#be696d"/>
                    </g>
                  </g>
                </g>
              </g>
            </g>
          </g>
          <g id="Grupo_1175084" data-name="Grupo 1175084" transform="translate(69.424 213.01)" opacity="0.43">
            <g id="Grupo_1175083" data-name="Grupo 1175083">
              <g id="Grupo_1175082" data-name="Grupo 1175082" clip-path="url(#clip-path-36)">
                <path id="Trazado_1032900" data-name="Trazado 1032900" d="M134.969,301.292a71.254,71.254,0,0,0,7.292,6.308c.263-.221.521-.429.784-.65a20.15,20.15,0,0,0,2.333-2.361,27.6,27.6,0,0,0,12.583.731c.869-.153,1.725-.341,2.591-.584a25.341,25.341,0,0,0,7.146-3.208,30.872,30.872,0,0,0-7.71-7.638,13.97,13.97,0,0,1-2.078,1.573,17.356,17.356,0,0,1-12.831,1.867,14.748,14.748,0,0,1-5.067-2.245,12.391,12.391,0,0,1-2.68,4.232,13.819,13.819,0,0,1-2.365,1.976" transform="translate(-92.435 -293.89)" fill="#fff"/>
                <path id="Trazado_1032901" data-name="Trazado 1032901" d="M76.294,331.012c0,.223.017.452.037.668.665-.615,1.3-1.273,1.925-1.953l.006-.012a32.832,32.832,0,0,0,5.057-7.505,13.449,13.449,0,0,0,12.006.631c3.805-1.691,7.3-5.078,7.681-8.845a22.909,22.909,0,0,0,13.053.871,58.281,58.281,0,0,0,1.786-10.311,14.55,14.55,0,0,1-3.37,1.385,15.13,15.13,0,0,1-10.811-1.273,11.926,11.926,0,0,1-1.75-1.136,14.035,14.035,0,0,1-1.148,2.07l-.006.012a16.965,16.965,0,0,1-9.654,6.733,17.86,17.86,0,0,1-10.13-.326,38.109,38.109,0,0,0-4.682,18.992" transform="translate(-76.285 -296.543)" fill="#fff"/>
              </g>
            </g>
          </g>
          <path id="Trazado_1032902" data-name="Trazado 1032902" d="M143.587,369.212a10.8,10.8,0,0,0,6.3,1.137c4.9-.487,7.547-2.872,8.519-5.279.884-2.165.428-4.331-.932-5.158a2.8,2.8,0,0,0-2.382-.17c-5.38,1.742-13.552,1.092-13.552,1.092a2.072,2.072,0,0,0-1.01.135c-2.214.884-1.227,5.9,3.054,8.244" transform="translate(-24.227 -98.953)" fill="#222221"/>
          <path id="Trazado_1032903" data-name="Trazado 1032903" d="M140.967,360.969a7.142,7.142,0,0,0,3.143,1.567,17.019,17.019,0,0,0,13.8-2.624,2.8,2.8,0,0,0-2.382-.17c-5.38,1.741-13.552,1.092-13.552,1.092a2.073,2.073,0,0,0-1.01.135" transform="translate(-24.662 -98.953)" fill="#fff"/>
          <path id="Trazado_1032904" data-name="Trazado 1032904" d="M145.181,370.969a10.8,10.8,0,0,0,6.3,1.137c4.9-.487,7.547-2.872,8.519-5.279a11.2,11.2,0,0,0-3.821-.87,14.347,14.347,0,0,0-6.967,1.558,10.26,10.26,0,0,0-2.885,1.983,7.493,7.493,0,0,0-1.149,1.471" transform="translate(-25.821 -100.71)" fill="#be696d"/>
          <path id="Trazado_1032905" data-name="Trazado 1032905" d="M169.635,331.377A6.834,6.834,0,1,0,165,339.859a6.833,6.833,0,0,0,4.631-8.482" transform="translate(-28.866 -89.846)" fill="#fff"/>
        </g>
      </g>
      <g id="Grupo_1175088" data-name="Grupo 1175088" transform="translate(114.908 229.136)">
        <g id="Grupo_1175087" data-name="Grupo 1175087" clip-path="url(#clip-path-37)">
          <path id="Trazado_1032906" data-name="Trazado 1032906" d="M167.064,331.048l2-1.761a4.183,4.183,0,1,1-1.7-.836Z" transform="translate(-157.893 -326.984)"/>
        </g>
      </g>
      <g id="Grupo_1175090" data-name="Grupo 1175090" transform="translate(7.354 -7.486)">
        <g id="Grupo_1175089" data-name="Grupo 1175089" clip-path="url(#clip-path-38)">
          <path id="Trazado_1032908" data-name="Trazado 1032908" d="M169.583,331.251A6.842,6.842,0,0,0,156.47,335.1a6.841,6.841,0,1,1,13.113-3.852" transform="translate(-48.637 -89.72)"/>
          <path id="Trazado_1032909" data-name="Trazado 1032909" d="M169.911,326.5a2.931,2.931,0,0,0,2.3-.81,2.754,2.754,0,0,0,.7-1.089,1.849,1.849,0,0,0-.036-1.273,7.268,7.268,0,0,1-1.328,1.658c-.493.473-1.042.9-1.629,1.514" transform="translate(-52.451 -88.982)"/>
          <path id="Trazado_1032910" data-name="Trazado 1032910" d="M172.476,328.373a2.931,2.931,0,0,0,2.4-.419,2.762,2.762,0,0,0,.867-.958,1.851,1.851,0,0,0,.175-1.262,7.259,7.259,0,0,1-1.584,1.416c-.565.384-1.179.716-1.858,1.223" transform="translate(-53.156 -89.644)"/>
          <path id="Trazado_1032911" data-name="Trazado 1032911" d="M173.965,331.046a2.929,2.929,0,0,0,2.431-.149,2.749,2.749,0,0,0,.968-.856,1.856,1.856,0,0,0,.315-1.234,7.3,7.3,0,0,1-1.732,1.23c-.6.319-1.25.581-1.982,1.009" transform="translate(-53.566 -90.49)"/>
          <path id="Trazado_1032912" data-name="Trazado 1032912" d="M121.565,344.652a6.833,6.833,0,1,1,8.579,4.449,6.832,6.832,0,0,1-8.579-4.449" transform="translate(-39.057 -92.401)" fill="#fff"/>
        </g>
      </g>
      <g id="Grupo_1175092" data-name="Grupo 1175092" transform="translate(89.54 235.864)">
        <g id="Grupo_1175091" data-name="Grupo 1175091" clip-path="url(#clip-path-39)">
          <path id="Trazado_1032913" data-name="Trazado 1032913" d="M133.243,340.025l.171-2.662a4.183,4.183,0,1,0,1.7.84Z" transform="translate(-123.178 -336.164)"/>
        </g>
      </g>
      <g id="Grupo_1175103" data-name="Grupo 1175103" transform="translate(7.354 -7.486)">
        <g id="Grupo_1175102" data-name="Grupo 1175102" clip-path="url(#clip-path-38)">
          <path id="Trazado_1032915" data-name="Trazado 1032915" d="M121.51,344.526a6.841,6.841,0,1,1,13.028-4.13,6.842,6.842,0,0,0-13.028,4.13" transform="translate(-39.002 -92.276)"/>
          <path id="Trazado_1032916" data-name="Trazado 1032916" d="M120.471,341.495c-.848-.01-1.539.081-2.222.1a7.242,7.242,0,0,1-2.113-.214,1.849,1.849,0,0,0,.884.918,2.752,2.752,0,0,0,1.264.265,2.928,2.928,0,0,0,2.187-1.072" transform="translate(-37.651 -93.951)"/>
          <path id="Trazado_1032917" data-name="Trazado 1032917" d="M119.991,343.885c-.839.13-1.5.335-2.174.469a7.269,7.269,0,0,1-2.119.14,1.852,1.852,0,0,0,1.023.758,2.743,2.743,0,0,0,1.291.052,2.93,2.93,0,0,0,1.979-1.419" transform="translate(-37.531 -94.639)"/>
          <path id="Trazado_1032918" data-name="Trazado 1032918" d="M119.91,346.653c-.745.2-1.327.456-1.919.644a6.586,6.586,0,0,1-1.9.341,1.688,1.688,0,0,0,1,.583,2.511,2.511,0,0,0,1.174-.083,2.67,2.67,0,0,0,1.646-1.484" transform="translate(-37.638 -95.401)"/>
          <line id="Línea_902" data-name="Línea 902" y1="10.104" x2="3.507" transform="translate(71.735 315.523)" fill="none" stroke="#f4eaef" stroke-linecap="round" stroke-miterlimit="10" stroke-width="1"/>
          <line id="Línea_903" data-name="Línea 903" x1="4.015" y1="24.249" transform="translate(123.806 312.939)" fill="none" stroke="#f4eaef" stroke-linecap="round" stroke-miterlimit="10" stroke-width="1"/>
          <line id="Línea_904" data-name="Línea 904" x1="5.5" y2="4.679" transform="translate(137.702 314.562)" fill="none" stroke="#f4eaef" stroke-linecap="round" stroke-miterlimit="10" stroke-width="1"/>
          <path id="Trazado_1032919" data-name="Trazado 1032919" d="M151.981,343.454a2.332,2.332,0,0,1,.22.544,16.74,16.74,0,0,0,.691,2.261c.03.077.358,1.013.477,1,2.664-.246,3.681,1.134,2.345,2.685a4.436,4.436,0,0,1-2.592,1.216,2.47,2.47,0,0,1-2.815-1.86c-.268-1.119-.481-2.253-.67-3.388-.161-.954-.727-2.99.33-3.659.742-.47,1.6.435,2.015,1.2" transform="translate(-46.79 -94.155)" fill="#be696d"/>
          <path id="Trazado_1032920" data-name="Trazado 1032920" d="M145.593,434l4.72,9.21,10.553-.873-6.452,7.212,5.751,6.931-10.636-2.093-6.011,6.583-.923-10.213-8.2-3.3,9.154-3.164Z" transform="translate(-42.676 -119.44)" fill="#ebca4f"/>
          <path id="Trazado_1032921" data-name="Trazado 1032921" d="M242.793,87.849s.467,5.142-1.3,7.973c-.817,1.308-2.827,1.577-4.3,1.592,0,0,3.249-.117,4.563,2.332.806,1.5,1.26,4.269,1.485,7.628.243-3.081-.1-6.277.915-8.161.751-1.4,2.586-1.824,4.154-2.248,0,0-3.228.452-4.191-.8-1.1-1.428-1.219-4.154-1.329-8.316" transform="translate(-70.968 -24.177)" fill="#fff"/>
          <path id="Trazado_1032922" data-name="Trazado 1032922" d="M178.655,55.136s.659,7.265-1.836,11.263c-1.155,1.848-3.993,2.229-6.069,2.25,0,0,4.589-.165,6.445,3.295,1.139,2.122,1.781,6.03,2.1,10.776.343-4.352-.136-8.869,1.292-11.529,1.06-1.975,3.652-2.577,5.867-3.176,0,0-4.56.639-5.921-1.131-1.551-2.017-1.723-5.868-1.878-11.748" transform="translate(-52.681 -15.174)" fill="#fff"/>
          <path id="Trazado_1032923" data-name="Trazado 1032923" d="M144.168,124.032s.467,5.142-1.3,7.973c-.817,1.308-2.827,1.577-4.3,1.592,0,0,3.249-.117,4.563,2.332.806,1.5,1.26,4.268,1.485,7.628.243-3.081-.1-6.278.915-8.162.751-1.4,2.586-1.824,4.154-2.248,0,0-3.228.452-4.191-.8-1.1-1.428-1.219-4.154-1.329-8.316" transform="translate(-43.826 -34.135)" fill="#fff"/>
          <g id="Grupo_1175095" data-name="Grupo 1175095" transform="translate(140.186 124.437)" style="isolation: isolate">
            <g id="Grupo_1175094" data-name="Grupo 1175094">
              <g id="Grupo_1175093" data-name="Grupo 1175093" clip-path="url(#clip-path-41)">
                <path id="Trazado_1032924" data-name="Trazado 1032924" d="M215.621,187.363c-.423.011-7.642-4.741-7.987-5.464-.406-.85-2.76-5.234-3.407-6.661-.339-.747-1.358-3.675-2.624-3.548-1.313.132,1.613,9.949,2.053,11.115.641,1.7,1.508,3.405,2.279,5.071" transform="translate(-201.266 -171.686)" fill="#e7b69c"/>
              </g>
            </g>
          </g>
          <path id="Trazado_1032925" data-name="Trazado 1032925" d="M361.964,59.152c-.27-4.208,3.753-9.214,6.2-12.54,2.889-3.931,8.08-6.556,12.688-7.971a31.8,31.8,0,0,1,33.666,9.4c6.612,7.317,8.55,17.223,8.55,26.793,0,3.775-.043,7.554,0,11.329.054,4.8,1.911,9.057,3.287,13.57,3.66,12,5.037,23.13,2.179,35.512-1.987,8.607-7.823,15.727-10.541,23.991-2.263,6.882.534,14.081-6.117,19.31-8.931,7.022-24.573,4.889-34.639,2.485-8.6-2.053-15.118-7.892-14.629-17.294.209-4.006,1.553-7.629,2.421-11.557,1.961-8.874,2.266-17.736,2.652-26.841.659-15.533,2.609-33.022-.81-48.216-.623-2.77-2.2-5.342-2.654-8.005" transform="translate(-105.301 -10.222)" fill="#c9358f"/>
          <path id="Trazado_1032926" data-name="Trazado 1032926" d="M381.936,59.443s16.368-14.955,27.64,7.478l-10.655,1.848Z" transform="translate(-110.801 -15.016)" fill="#ebca4f"/>
          <path id="Trazado_1032927" data-name="Trazado 1032927" d="M318.753,116.932c-.5-3.8-3.25-6.905-4.573-10.541A28.073,28.073,0,0,1,312.8,92.3c1.031-6.008,5.648-10.76,10.454-14.113,4.926-3.438,9.72-4.254,15.114-6.264,4.477-1.669,8.472-5.328,12.817-7.4A35.678,35.678,0,0,1,366.67,61.3c9.458.022,16,2.506,23.781,7.477,16.169,10.33,16.077,30.489,16.1,48,.009,8.134-3.372,17.212-7.8,23.949-1.961,2.985-3.759,6.2-5.951,9.021-2.534,3.264-6.4,4.075-9.02,6.505-3.275,3.036.528,7.908-1.343,11.5-1.059,2.035-3.481,2.432-5.434,2.016-2.792-.594-5.894-2.932-8.387-4.259-3.172-1.688-6.743-3.253-9.454-5.654-7.46-6.606-12.877-15.924-19.5-23.376-4.8-5.4-9.253-11.055-14.795-15.687a34.514,34.514,0,0,0-6.11-3.859" transform="translate(-91.675 -16.87)" fill="#c9358f"/>
          <g id="Grupo_1175098" data-name="Grupo 1175098" transform="translate(240.205 175.196)" style="isolation: isolate">
            <g id="Grupo_1175097" data-name="Grupo 1175097">
              <g id="Grupo_1175096" data-name="Grupo 1175096" clip-path="url(#clip-path-42)">
                <path id="Trazado_1032928" data-name="Trazado 1032928" d="M384.03,241.719s-3.715,12.29-.314,19.045c3.574,7.1,46.7,52.248,49.482,58.09l-57.1,13.108s-24.159-4.019-28.315,3.033-9.727,21.068-8.3,25.55,7.984,6.654,8.482,8.639a8.394,8.394,0,0,0,.569-6.043,9.467,9.467,0,0,0-3.683-5.42s7.765-5.661,9.858-11.041c6.468,6.865-5.887,13.764-1.4,21.677a46.174,46.174,0,0,1,4.938-8.314c2.94-3.715,9.093-8.574,9.093-8.574s1.834-1.126,7.958-4.9c0,0,71.446-7.8,81.7-16.494S427.968,267.2,427.968,267.2Z" transform="translate(-339.261 -241.719)" fill="#e7b69c"/>
              </g>
            </g>
          </g>
          <g id="Grupo_1175101" data-name="Grupo 1175101" transform="translate(263.15 133.46)" style="isolation: isolate">
            <g id="Grupo_1175100" data-name="Grupo 1175100">
              <g id="Grupo_1175099" data-name="Grupo 1175099" clip-path="url(#clip-path-43)">
                <path id="Trazado_1032929" data-name="Trazado 1032929" d="M370.919,199.164l.774,15.7,24.842-2.485-1.076-28.242s-11.811,14.782-24.54,15.029" transform="translate(-370.919 -184.135)" fill="#e7b69c"/>
              </g>
            </g>
          </g>
          <path id="Trazado_1032930" data-name="Trazado 1032930" d="M356.647,84.4s-29.056-4.991-33.336,27.088,3.984,63.856,28.765,64.969S385,153.463,385,153.463s11.945-24.759,8.758-25.3-5.1,4.153-5.1,4.153,4.813-41.563-32.008-47.918" transform="translate(-94.371 -23.149)" fill="#e7b69c"/>
          <path id="Trazado_1032931" data-name="Trazado 1032931" d="M396.334,128.291S345.2,119.505,350.526,80.5c0,0,5.641-14.739,23.986-10.1,24.09,6.088,30.152,33.841,26.97,52.72,0,0-3.528.211-5.148,5.171" transform="translate(-102.049 -19.127)" fill="#c9358f"/>
          <path id="Trazado_1032932" data-name="Trazado 1032932" d="M420.294,153.206c-2.939,1.052-4.255,4.255-5.058,7.033l-.309,1.257-.23-.408a3.565,3.565,0,0,1,1.562,5.682,3.112,3.112,0,0,1-1.939.938,3.116,3.116,0,0,0,.142-5.949l-.3-.118.07-.29c.715-3.294,2.36-7.445,6.063-8.145" transform="translate(-119.669 -42.164)" fill="#be696d"/>
          <path id="Trazado_1032933" data-name="Trazado 1032933" d="M384.124,149.684a7.874,7.874,0,1,0-8.171,7.566,7.874,7.874,0,0,0,8.171-7.566" transform="translate(-107.07 -38.944)" fill="#fff"/>
        </g>
      </g>
      <g id="Grupo_1175105" data-name="Grupo 1175105" transform="translate(268.665 95.077)">
        <g id="Grupo_1175104" data-name="Grupo 1175104" clip-path="url(#clip-path-44)">
          <path id="Trazado_1032934" data-name="Trazado 1032934" d="M373.638,152.551l2.835-1.188a4.821,4.821,0,1,1-1.555-1.538Z" transform="translate(-368.159 -143.601)" fill="#222221"/>
        </g>
      </g>
      <g id="Grupo_1175107" data-name="Grupo 1175107" transform="translate(7.354 -7.486)">
        <g id="Grupo_1175106" data-name="Grupo 1175106" clip-path="url(#clip-path-38)">
          <path id="Trazado_1032936" data-name="Trazado 1032936" d="M384.123,149.555a7.882,7.882,0,0,0-15.737-.6,7.881,7.881,0,1,1,15.737.6" transform="translate(-107.07 -38.815)" fill="#222221"/>
          <path id="Trazado_1032937" data-name="Trazado 1032937" d="M386.879,144.074a3.377,3.377,0,0,0,2.806-.042,3.189,3.189,0,0,0,1.16-.934,2.134,2.134,0,0,0,.427-1.4,8.39,8.39,0,0,1-2.058,1.323c-.713.335-1.471.6-2.336,1.056" transform="translate(-112.161 -38.995)" fill="#222221"/>
          <path id="Trazado_1032938" data-name="Trazado 1032938" d="M389.069,147.126a3.377,3.377,0,0,0,2.775.423,3.167,3.167,0,0,0,1.3-.728,2.132,2.132,0,0,0,.655-1.313,8.365,8.365,0,0,1-2.249.964c-.758.213-1.55.351-2.479.655" transform="translate(-112.764 -40.045)" fill="#222221"/>
          <path id="Trazado_1032939" data-name="Trazado 1032939" d="M389.77,150.63a3.375,3.375,0,0,0,2.71.729,3.171,3.171,0,0,0,1.371-.58,2.137,2.137,0,0,0,.8-1.233,8.348,8.348,0,0,1-2.343.708c-.776.127-1.579.176-2.535.375" transform="translate(-112.957 -41.156)" fill="#222221"/>
          <path id="Trazado_1032940" data-name="Trazado 1032940" d="M326.746,146.545a7.874,7.874,0,1,1,7.739,8.007,7.874,7.874,0,0,1-7.739-8.007" transform="translate(-95.612 -38.201)" fill="#fff"/>
        </g>
      </g>
      <g id="Grupo_1175109" data-name="Grupo 1175109" transform="translate(238.488 93.119)">
        <g id="Grupo_1175108" data-name="Grupo 1175108" clip-path="url(#clip-path-46)">
          <path id="Trazado_1032941" data-name="Trazado 1032941" d="M333.4,149.946l1.164-2.845a4.819,4.819,0,1,0,1.551,1.542Z" transform="translate(-326.872 -140.89)" fill="#222221"/>
        </g>
      </g>
      <g id="Grupo_1175129" data-name="Grupo 1175129" transform="translate(7.354 -7.486)">
        <g id="Grupo_1175128" data-name="Grupo 1175128" clip-path="url(#clip-path-38)">
          <path id="Trazado_1032943" data-name="Trazado 1032943" d="M326.741,146.417a7.881,7.881,0,1,1,15.746.269,7.882,7.882,0,0,0-15.746-.269" transform="translate(-95.607 -38.073)" fill="#222221"/>
          <path id="Trazado_1032944" data-name="Trazado 1032944" d="M327.817,141.9c-.923-.323-1.712-.475-2.465-.7a8.371,8.371,0,0,1-2.23-1.008,2.136,2.136,0,0,0,.628,1.326,3.176,3.176,0,0,0,1.284.754,3.377,3.377,0,0,0,2.782-.369" transform="translate(-94.615 -38.581)" fill="#222221"/>
          <path id="Trazado_1032945" data-name="Trazado 1032945" d="M326.33,144.585c-.964-.165-1.766-.186-2.547-.286a8.378,8.378,0,0,1-2.366-.625,2.139,2.139,0,0,0,.839,1.2,3.182,3.182,0,0,0,1.391.531,3.377,3.377,0,0,0,2.683-.824" transform="translate(-94.146 -39.541)" fill="#222221"/>
          <path id="Trazado_1032946" data-name="Trazado 1032946" d="M325.174,147.736c-.888-.052-1.616.011-2.332,0a7.631,7.631,0,0,1-2.2-.326,1.946,1.946,0,0,0,.881,1,2.892,2.892,0,0,0,1.313.34,3.077,3.077,0,0,0,2.343-1.018" transform="translate(-93.931 -40.568)" fill="#222221"/>
          <path id="Trazado_1032947" data-name="Trazado 1032947" d="M339.588,127.717a6.116,6.116,0,0,0-2.436-4.7,6.675,6.675,0,0,0-5.833-1.059,6.786,6.786,0,0,0-4.484,3.813,6.257,6.257,0,0,0,.062,5.277,18.278,18.278,0,0,1,2.772-3.446,6.733,6.733,0,0,1,2.785-1.524,6.083,6.083,0,0,1,3.122-.115,15.235,15.235,0,0,1,4.012,1.753" transform="translate(-95.485 -33.494)" fill="#222221"/>
          <path id="Trazado_1032948" data-name="Trazado 1032948" d="M370.681,131.819a6.115,6.115,0,0,1,2.059-4.876,6.674,6.674,0,0,1,5.732-1.514,6.789,6.789,0,0,1,4.771,3.448,6.257,6.257,0,0,1,.352,5.265,18.308,18.308,0,0,0-3.035-3.217,6.727,6.727,0,0,0-2.9-1.3,6.068,6.068,0,0,0-3.121.13,15.213,15.213,0,0,0-3.862,2.063" transform="translate(-107.7 -34.482)" fill="#222221"/>
          <g id="Grupo_1175112" data-name="Grupo 1175112" transform="translate(260.89 119.656)" opacity="0.25" style="isolation: isolate">
            <g id="Grupo_1175111" data-name="Grupo 1175111">
              <g id="Grupo_1175110" data-name="Grupo 1175110" clip-path="url(#clip-path-48)">
                <path id="Trazado_1032949" data-name="Trazado 1032949" d="M384.12,175.789a8.33,8.33,0,1,0-10.354,5.622,8.331,8.331,0,0,0,10.354-5.622" transform="translate(-367.8 -165.09)" fill="#be696d"/>
              </g>
            </g>
          </g>
          <g id="Grupo_1175115" data-name="Grupo 1175115" transform="translate(231.467 117.234)" opacity="0.25" style="isolation: isolate">
            <g id="Grupo_1175114" data-name="Grupo 1175114">
              <g id="Grupo_1175113" data-name="Grupo 1175113" clip-path="url(#clip-path-49)">
                <path id="Trazado_1032950" data-name="Trazado 1032950" d="M340.871,170.706a6.975,6.975,0,1,0-8.669,4.706,6.975,6.975,0,0,0,8.669-4.706" transform="translate(-327.206 -161.748)" fill="#be696d"/>
              </g>
            </g>
          </g>
          <path id="Trazado_1032951" data-name="Trazado 1032951" d="M352.892,127.457c4.1,1.27,3.453,24.792,2.066,34.779a4.992,4.992,0,0,1-5.3,4.3,8.976,8.976,0,0,1-5.456-1.937c-2.994-2.859-1.218-5.835,4.191-5.864,0,0,3.43-5.861,2.644-31.263a5.809,5.809,0,0,1,1.855-.01" transform="translate(-100.018 -35.055)" fill="#be696d"/>
          <path id="Trazado_1032952" data-name="Trazado 1032952" d="M318.839,167.631a12.088,12.088,0,1,0,7.92,19.972l.921,1.232a13.6,13.6,0,1,1-9.125-22.741Z" transform="translate(-89.366 -45.702)" fill="#ebca4f"/>
          <g id="Grupo_1175118" data-name="Grupo 1175118" transform="translate(121.97 126.647)" style="isolation: isolate">
            <g id="Grupo_1175117" data-name="Grupo 1175117">
              <g id="Grupo_1175116" data-name="Grupo 1175116" clip-path="url(#clip-path-50)">
                <path id="Trazado_1032953" data-name="Trazado 1032953" d="M295.466,219.08s8.089,4.792,6.42,22.256-9.117,22.985-9.117,22.985-46.8,32.808-61.057,33.578-22.536-84.02-26.966-92.667c-4.1-7.994-17.616-9.582-28.155-22.327-1.042-1.259-.179-2.351,1.3-1.666,4.47,2.063,11.575,5.443,12.533,6.513,0,0,11.847-7.2,20.963-2.06,0,0,7.019,1.25,5.623-9.2a1.545,1.545,0,0,1,2.7-1.212,12.527,12.527,0,0,1,3.07,10.072,69.732,69.732,0,0,1-3.724,15.153s6.1,47.125,19.967,69.083c40.255-18.876,40.063-51.124,56.435-50.505" transform="translate(-176.133 -174.736)" fill="#e7b69c"/>
              </g>
            </g>
          </g>
          <path id="Trazado_1032954" data-name="Trazado 1032954" d="M391.895,380.665s35.825,112.613,39.293,137.653c2.9,20.928,3.373,85.553,3.451,106.214H379.918c2.641-23.472,11.295-103.979,7.355-117.77-4.623-16.179-23.113-54.631-23.113-54.631l-4.276,6.975-4.969,150.7H306.761s8.029-136.561,6.325-159.675,10.881-59.067,18.072-66.13c0,0,36.853-5.778,60.736-3.338" transform="translate(-90.112 -104.596)" fill="#ce88c4"/>
          <path id="Trazado_1032955" data-name="Trazado 1032955" d="M387.465,446.371s4.683-48.149,3.013-57.664" transform="translate(-112.322 -106.974)" fill="none" stroke="#583266" stroke-linecap="round" stroke-miterlimit="10" stroke-width="1"/>
          <path id="Trazado_1032956" data-name="Trazado 1032956" d="M377.8,394.042a2.7,2.7,0,1,1,2.7,2.7,2.7,2.7,0,0,1-2.7-2.7" transform="translate(-109.663 -107.701)" fill="#583266"/>
          <path id="Trazado_1032957" data-name="Trazado 1032957" d="M327.6,235.283s-9.051-4.633-13.707,1.542l-20.981,29.635,15.2,28.492L324.8,283.692l10.176-13.8,1.555-9.976v-17.6l-3.633-6.9Z" transform="translate(-86.302 -64.292)" fill="#efd860"/>
          <path id="Trazado_1032958" data-name="Trazado 1032958" d="M406.112,226.527s19.663,2.309,22.5,6.938l14.924,24.5,3.526,4.366-22.448,23.731-4.359-7.126-2.429-13.595-3.794-9.643-4.888-7.671-2.26-6.245-.774-6.911Z" transform="translate(-117.454 -62.342)" fill="#efd860"/>
          <path id="Trazado_1032959" data-name="Trazado 1032959" d="M359.688,216.812l27.819,3.1a119.942,119.942,0,0,0,6.678,18.363c4.109,8.6,19.132,19.646,18.234,30.56s-8.732,19.775-10.144,23.242-6.421,31.2-3.467,43.658c0,0-53.433,2.321-60.736,3.338,0,0-3.112-49.035-6.193-60.592,0,0,12.1-24.584,6.451-47.825l14.1-3.392a9.289,9.289,0,0,0,7.088-8.3Z" transform="translate(-97.024 -59.668)" fill="#efd860"/>
          <path id="Trazado_1032960" data-name="Trazado 1032960" d="M348.236,195.48a10.471,10.471,0,0,0,5.938,1.82c4.771.095,7.6-1.9,8.809-4.1,1.1-1.982.91-4.121-.3-5.074a2.712,2.712,0,0,0-2.274-.437c-5.38,1.057-13.172-.509-13.172-.509a2.021,2.021,0,0,0-.989.014c-2.234.6-1.861,5.542,1.992,8.288" transform="translate(-100.6 -51.498)" fill="#222221"/>
          <path id="Trazado_1032961" data-name="Trazado 1032961" d="M346.765,187.192a6.91,6.91,0,0,0,2.846,1.87,16.5,16.5,0,0,0,13.589-.938,2.713,2.713,0,0,0-2.274-.437c-5.38,1.057-13.172-.509-13.172-.509a2.012,2.012,0,0,0-.989.014" transform="translate(-101.121 -51.498)" fill="#fff"/>
          <path id="Trazado_1032962" data-name="Trazado 1032962" d="M349.514,197.238a10.471,10.471,0,0,0,5.938,1.82c4.771.095,7.6-1.9,8.809-4.1a10.862,10.862,0,0,0-3.579-1.277,13.906,13.906,0,0,0-6.887.7,9.945,9.945,0,0,0-3.006,1.577,7.267,7.267,0,0,0-1.275,1.284" transform="translate(-101.878 -53.256)" fill="#be696d"/>
          <g id="Grupo_1175121" data-name="Grupo 1175121" transform="translate(288.689 104.609)" style="isolation: isolate">
            <g id="Grupo_1175120" data-name="Grupo 1175120">
              <g id="Grupo_1175119" data-name="Grupo 1175119" clip-path="url(#clip-path-51)">
                <path id="Trazado_1032963" data-name="Trazado 1032963" d="M407.006,161.182a25.8,25.8,0,0,1,4.5-12.475c3.176-4.487,7.821-7.626,12.464,1.473,8.255,16.175-9.04,27.755-17.815,19.918Z" transform="translate(-406.154 -144.33)" fill="#e7b69c"/>
              </g>
            </g>
          </g>
          <g id="Grupo_1175124" data-name="Grupo 1175124" transform="translate(293.379 113.323)" style="mix-blend-mode: multiply;isolation: isolate">
            <g id="Grupo_1175123" data-name="Grupo 1175123">
              <g id="Grupo_1175122" data-name="Grupo 1175122" clip-path="url(#clip-path-52)">
                <path id="Trazado_1032964" data-name="Trazado 1032964" d="M422.427,157.485a6.441,6.441,0,0,0-6.559-.44,6.1,6.1,0,0,0-3.241,5.527,6.358,6.358,0,0,0,1.2,3.673.874.874,0,0,0,1.221.1.885.885,0,0,0,.1-1.221,4.672,4.672,0,0,1,.048-5.279.628.628,0,0,0,.265.148,5.415,5.415,0,0,1,.736.231c.114.045.225.094.336.147l.077.038c.049.027.1.054.148.083a5.666,5.666,0,0,1,.608.412c.1.075.189.156.283.234-.146-.122.036.035.052.051.043.043.087.086.13.13a6.045,6.045,0,0,1,.476.56c.037.049.073.1.108.149.01.014.075.118.076.118.051.085.1.169.149.256a5.471,5.471,0,0,1,.3.667c.021.054.04.109.059.164.005.016.012.038.02.068.036.13.067.261.094.393a.867.867,0,1,0,1.707-.3,6.631,6.631,0,0,0-4.121-4.816,4.7,4.7,0,0,1,4.73.329.867.867,0,0,0,.994-1.42" transform="translate(-412.625 -156.352)" fill="#be696d"/>
              </g>
            </g>
          </g>
          <path id="Trazado_1032965" data-name="Trazado 1032965" d="M411.627,200.569a13.6,13.6,0,1,0,3.221-26.622l.07,1.508a12.089,12.089,0,1,1-2.862,23.668A11.994,11.994,0,0,1,406,195.015q-.295-.375-.56-.77a7.47,7.47,0,0,0,.092,2.543,13.494,13.494,0,0,0,6.1,3.781" transform="translate(-117.25 -47.868)" fill="#ebca4f"/>
          <path id="Trazado_1032966" data-name="Trazado 1032966" d="M220.159,121.435a4.681,4.681,0,0,0-5.177-3.262l-9.588-31.731a4.671,4.671,0,1,0-7.123-4.045L163.246,92.981a4.671,4.671,0,1,0-7.62,5.234l-2.465,4.027a4.668,4.668,0,1,0-1.2,9.093l9.591,31.74a4.67,4.67,0,1,0,6.816,4.554l36.434-11.01a4.672,4.672,0,1,0,6.994-5.524l2.38-3.888a4.671,4.671,0,0,0,5.98-5.772m-1.711,2.832a3.134,3.134,0,1,1-3.668-4.48,3.152,3.152,0,0,1,.908-.136,3.133,3.133,0,0,1,2.76,4.616m-6.517,12.162a3.134,3.134,0,1,1-3.668-4.479,3.117,3.117,0,0,1,2.386.238,3.114,3.114,0,0,1,1.521,1.855h0a3.113,3.113,0,0,1-.238,2.385m-48.212,7.647a3.14,3.14,0,0,1,3,2.227,3.133,3.133,0,1,1-3-2.227m-.027-49.624L198.5,83.934a4.645,4.645,0,0,0,1.228,1.928l-2.035,3.324a4.66,4.66,0,0,0-6.383,4.6l-29.894,9.034-1-3.3a4.651,4.651,0,0,0,3.273-5.067m36.246-11.076a3.132,3.132,0,1,1,3.906,2.094,3.111,3.111,0,0,1-3.906-2.094m-6.967,11.052a3.133,3.133,0,1,1,3.907,2.094,3.115,3.115,0,0,1-3.907-2.094m-24.017,40.28a3.13,3.13,0,1,1-.238,2.386,3.117,3.117,0,0,1,.238-2.386m7.082-.29a4.708,4.708,0,0,0-4.339-2.9,4.588,4.588,0,0,0-1.333.2c-.067.02-.133.042-.2.065l-8.306-27.488,29.79-9a4.649,4.649,0,0,0,5.24,2.809l8.311,27.505Zm35.1-10.605-4.458,1.347-8.343-27.61a4.658,4.658,0,0,0,.678-7.569l2-3.261a4.628,4.628,0,0,0,2.958.306l9.557,31.626a4.673,4.673,0,0,0-2.389,5.162m-52.261-24.1,1.074,3.552-4.111,1.242a4.647,4.647,0,0,0-1.308-1.548l2.324-3.8a4.662,4.662,0,0,0,2.021.552m-2.559,6.256,4.077-1.232,8.4,27.81a4.657,4.657,0,0,0-.439,6.878l-2.294,3.747a4.683,4.683,0,0,0-2.345-.629,4.63,4.63,0,0,0-.7.053l-9.549-31.6a4.706,4.706,0,0,0,2.845-5.024m3.652-7.92a3.131,3.131,0,1,1,2.095-3.907,3.137,3.137,0,0,1-2.095,3.907m-5.5,10.1a3.13,3.13,0,1,1,.238-2.386,3.113,3.113,0,0,1-.238,2.386m15.137,32.19a4.66,4.66,0,0,0,6.779-4.421l29.272-8.845,1.16,3.846A4.7,4.7,0,0,0,204.5,135.1l-36.254,10.955c-.017-.067-.035-.133-.055-.2a4.586,4.586,0,0,0-.934-1.7Zm39.568-10.063a4.645,4.645,0,0,0-.915.091l-1.13-3.74,4.6-1.389a4.673,4.673,0,0,0,1.107,1.231l-2.431,3.971a4.638,4.638,0,0,0-1.226-.165" transform="translate(-46.152 -21.411)" fill="#ebca4f"/>
          <path id="Trazado_1032967" data-name="Trazado 1032967" d="M332.689,296.807s8.188-10.125,8.829-23.03" transform="translate(-97.248 -75.345)" fill="none" stroke="#853b35" stroke-linecap="round" stroke-miterlimit="10" stroke-width="1"/>
          <path id="Trazado_1032968" data-name="Trazado 1032968" d="M415.784,319.94s-15.655-2.248-21.936,0" transform="translate(-114.079 -87.774)" fill="none" stroke="#853b35" stroke-linecap="round" stroke-miterlimit="10" stroke-width="1"/>
          <path id="Trazado_1032969" data-name="Trazado 1032969" d="M420.071,71.613c11.226,6.564,15.443,19.943,16.854,32.124,1.385,11.953.422,25.2-6.1,35.628" transform="translate(-121.295 -19.709)" fill="none" stroke="#ff6e93" stroke-linecap="round" stroke-miterlimit="10" stroke-width="1"/>
          <path id="Trazado_1032970" data-name="Trazado 1032970" d="M376.441,61.293s-5.614-.428-14.471,4.5" transform="translate(-105.306 -16.866)" fill="none" stroke="#ff6e93" stroke-linecap="round" stroke-miterlimit="10" stroke-width="1"/>
          <path id="Trazado_1032971" data-name="Trazado 1032971" d="M417.842,246.427c9.389,9.257,22.7,23.794,16.486,38.258" transform="translate(-120.682 -67.818)" fill="none" stroke="#853b35" stroke-linecap="round" stroke-miterlimit="10" stroke-width="1"/>
          <line id="Línea_905" data-name="Línea 905" x1="4.251" y2="1.986" transform="translate(180.617 221.496)" fill="none" stroke="#853b35" stroke-linecap="round" stroke-miterlimit="10" stroke-width="1"/>
          <line id="Línea_906" data-name="Línea 906" y1="0.826" x2="3.82" transform="translate(334.142 251.506)" fill="none" stroke="#853b35" stroke-linecap="round" stroke-miterlimit="10" stroke-width="1"/>
          <path id="Trazado_1032972" data-name="Trazado 1032972" d="M371.233,207.009a30.979,30.979,0,0,0,20.312-11.15c-3.17,3.874-5.271,8.211-9.856,10.807a42.368,42.368,0,0,1-10.256,4.379Z" transform="translate(-107.855 -53.902)" fill="#be696d"/>
          <g id="Grupo_1175127" data-name="Grupo 1175127" transform="translate(127.977 125.791)" style="isolation: isolate">
            <g id="Grupo_1175126" data-name="Grupo 1175126">
              <g id="Grupo_1175125" data-name="Grupo 1175125" clip-path="url(#clip-path-53)">
                <path id="Trazado_1032973" data-name="Trazado 1032973" d="M202.836,187.25a18.133,18.133,0,0,1-3.8-2.516c-2.285-2.124-3.517-4.963-5.387-7.4a21.561,21.561,0,0,0-3.182-3.138,2.064,2.064,0,0,0-1.849-.627c-.369.033-.715.09-.9.453-.166.325-.424,1.712-.033,1.8-1.7-1.213-3.6-.8-3.214,1.163a17.97,17.97,0,0,0,1.626,3.988c.726,1.512,1.558,3.009,2.293,4.534A19.779,19.779,0,0,0,190,188.558c1.068,1.47,1.651,1.584,3.611,1.647a37.1,37.1,0,0,0,7.676-.175c.391-.072,1.094-.17,1.265-.557" transform="translate(-184.421 -173.555)" fill="#e7b69c"/>
              </g>
            </g>
          </g>
          <path id="Trazado_1032974" data-name="Trazado 1032974" d="M334.024,156.894a11.593,11.593,0,0,1-11.535-11.613c-.133-6.53,4.826-11.945,11.054-12.072s11.4,5.083,11.534,11.613-4.826,11.945-11.053,12.071m-.438-21.56a9.736,9.736,0,1,0,9.366,9.532,9.469,9.469,0,0,0-9.366-9.532" transform="translate(-94.44 -36.66)" fill="#583266"/>
          <path id="Trazado_1032975" data-name="Trazado 1032975" d="M375.438,159.584c-6.228.127-11.4-5.083-11.534-11.613s4.825-11.945,11.053-12.072,11.4,5.083,11.534,11.613-4.826,11.945-11.054,12.071M375,138.024a9.736,9.736,0,1,0,9.367,9.532A9.468,9.468,0,0,0,375,138.024" transform="translate(-105.837 -37.4)" fill="#583266"/>
          <path id="Trazado_1032976" data-name="Trazado 1032976" d="M361.478,153.758a1.06,1.06,0,0,1-.776-.313,6.8,6.8,0,0,0-8.322-.8,1.063,1.063,0,0,1-1.2-1.757,8.9,8.9,0,0,1,11.026,1.055,1.062,1.062,0,0,1-.732,1.811" transform="translate(-102.21 -41.131)" fill="#583266"/>
          <path id="Trazado_1032977" data-name="Trazado 1032977" d="M405.873,154.094c.013-.028.025-.056.038-.083a14.567,14.567,0,0,1,1.046-1.747,14.906,14.906,0,0,0-4.437-1.373,15.141,15.141,0,0,0-10.473,2.442,1.062,1.062,0,1,0,1.194,1.758A12.987,12.987,0,0,1,402.226,153a12.777,12.777,0,0,1,3.646,1.1" transform="translate(-113.455 -41.488)" fill="#583266"/>
        </g>
      </g>
    </g>
  </g>
</svg>
