<svg xmlns="http://www.w3.org/2000/svg" xmlns:xlink="http://www.w3.org/1999/xlink" width="113" height="113" viewBox="0 0 113 113">
  <defs>
    <filter id="Trazado_982547" x="0" y="0" width="113" height="113" filterUnits="userSpaceOnUse">
      <feOffset dy="3" input="SourceAlpha"/>
      <feGaussianBlur stdDeviation="3" result="blur"/>
      <feFlood flood-opacity="0.161"/>
      <feComposite operator="in" in2="blur"/>
      <feComposite in="SourceGraphic"/>
    </filter>
  </defs>
  <g id="Grupo_1175353" data-name="Grupo 1175353" transform="translate(-324 -1962.175)">
    <g id="Grupo_1173868" data-name="Grupo 1173868" transform="translate(333 1968.175)">
      <g id="Grupo_1172010" data-name="Grupo 1172010">
        <g id="Grupo_1171046" data-name="Grupo 1171046">
          <g id="Grupo_1148525" data-name="Grupo 1148525">
            <g transform="matrix(1, 0, 0, 1, -9, -6)" filter="url(#Trazado_982547)">
              <g id="Trazado_982547-2" data-name="Trazado 982547" transform="translate(9 6)" fill="#f4fdfe">
                <path d="M 47.5 93.5 C 41.28937149047852 93.5 35.26533508300781 92.28397369384766 29.59518623352051 89.88570404052734 C 24.11771965026855 87.56893157958984 19.19813346862793 84.25196075439453 14.97309303283691 80.02691650390625 C 10.74804019927979 75.80186462402344 7.431066513061523 70.88229370117188 5.114293098449707 65.40481567382812 C 2.716026782989502 59.73468017578125 1.5 53.71062850952148 1.5 47.5 C 1.5 41.28937149047852 2.716026782989502 35.26533508300781 5.114293098449707 29.59518623352051 C 7.431066513061523 24.11771965026855 10.74804019927979 19.19813346862793 14.97309303283691 14.97309303283691 C 19.19813346862793 10.74804019927979 24.11771965026855 7.431066513061523 29.59518623352051 5.114293098449707 C 35.26533508300781 2.716026782989502 41.28937149047852 1.5 47.5 1.5 C 53.71062850952148 1.5 59.73468017578125 2.716026782989502 65.40481567382812 5.114293098449707 C 70.88229370117188 7.431066513061523 75.80186462402344 10.74804019927979 80.02691650390625 14.97309303283691 C 84.25196075439453 19.19813346862793 87.56893157958984 24.11771965026855 89.88570404052734 29.59518623352051 C 92.28397369384766 35.26533508300781 93.5 41.28937149047852 93.5 47.5 C 93.5 53.71062850952148 92.28397369384766 59.73468017578125 89.88570404052734 65.40481567382812 C 87.56893157958984 70.88229370117188 84.25196075439453 75.80186462402344 80.02691650390625 80.02691650390625 C 75.80186462402344 84.25196075439453 70.88229370117188 87.56893157958984 65.40481567382812 89.88570404052734 C 59.73468017578125 92.28397369384766 53.71062850952148 93.5 47.5 93.5 Z" stroke="none"/>
                <path d="M 47.5 3 C 41.49121475219727 3 35.66376876831055 4.176155090332031 30.17950439453125 6.495796203613281 C 24.88084411621094 8.736953735351562 20.12152099609375 11.94598388671875 16.03375244140625 16.03375244140625 C 11.94598388671875 20.12152099609375 8.736953735351562 24.88084411621094 6.495796203613281 30.17950439453125 C 4.176155090332031 35.66376876831055 3 41.49121475219727 3 47.5 C 3 53.50878524780273 4.176155090332031 59.33623123168945 6.495796203613281 64.82049560546875 C 8.736953735351562 70.11915588378906 11.94598388671875 74.87847900390625 16.03375244140625 78.96624755859375 C 20.12152099609375 83.05401611328125 24.88084411621094 86.26304626464844 30.17950439453125 88.50419616699219 C 35.66376876831055 90.82384490966797 41.49121475219727 92 47.5 92 C 53.50878524780273 92 59.33623123168945 90.82384490966797 64.82049560546875 88.50419616699219 C 70.11915588378906 86.26304626464844 74.87847900390625 83.05401611328125 78.96624755859375 78.96624755859375 C 83.05401611328125 74.87847900390625 86.26304626464844 70.11915588378906 88.50419616699219 64.82049560546875 C 90.82384490966797 59.33623123168945 92 53.50878524780273 92 47.5 C 92 41.49121475219727 90.82384490966797 35.66376876831055 88.50419616699219 30.17950439453125 C 86.26304626464844 24.88084411621094 83.05401611328125 20.12152099609375 78.96624755859375 16.03375244140625 C 74.87847900390625 11.94598388671875 70.11915588378906 8.736953735351562 64.82049560546875 6.495796203613281 C 59.33623123168945 4.176155090332031 53.50878524780273 3 47.5 3 M 47.5 0 C 73.7335205078125 0 95 21.2664794921875 95 47.5 C 95 73.7335205078125 73.7335205078125 95 47.5 95 C 21.2664794921875 95 0 73.7335205078125 0 47.5 C 0 21.2664794921875 21.2664794921875 0 47.5 0 Z" stroke="none" fill="#56838a"/>
              </g>
            </g>
          </g>
        </g>
      </g>
    </g>
    <g id="communications_6541108" transform="translate(344.27 1979.554)">
      <path id="Trazado_1031897" data-name="Trazado 1031897" d="M42.325,270.9a5.3,5.3,0,0,1-5.311,5.28h-24.2A5.3,5.3,0,0,1,7.5,270.9a6.085,6.085,0,0,1,2.612-4.3v-1.741a6.565,6.565,0,0,1-.871-3.483,5.171,5.171,0,0,1,2.674-4.889,1.715,1.715,0,0,0,.883-1.223,5.224,5.224,0,0,1,5.148-4.335,5.282,5.282,0,0,1,1.073.11l.024,0a1.722,1.722,0,0,0,1.7-.651,5.223,5.223,0,0,1,8.336,0,1.711,1.711,0,0,0,1.711.651,5.316,5.316,0,0,1,1.576-.091,5.048,5.048,0,0,1,4.7,4.261,1.739,1.739,0,0,0,.885,1.3,5.173,5.173,0,0,1,2.636,4.868,6.555,6.555,0,0,1-.871,3.483v1.741A6.085,6.085,0,0,1,42.325,270.9Z" transform="translate(0 -213.081)" fill="#ffb25a"/>
      <path id="Trazado_1031898" data-name="Trazado 1031898" d="M21.892,296.162H12.811a5.3,5.3,0,0,1-5.311-5.28,6.085,6.085,0,0,1,2.612-4.3v-1.741a6.565,6.565,0,0,1-.871-3.483,5.171,5.171,0,0,1,2.674-4.889,1.715,1.715,0,0,0,.883-1.223,5.224,5.224,0,0,1,5.148-4.335,5.288,5.288,0,0,1,1.073.11l.024,0C17.854,273.417,12.041,286.472,21.892,296.162Z" transform="translate(0 -233.059)" fill="#ff9c20"/>
      <circle id="Elipse_12358" data-name="Elipse 12358" cx="3.482" cy="3.482" r="3.482" transform="translate(34.489 49.174)" fill="#ffcbbe"/>
      <circle id="Elipse_12359" data-name="Elipse 12359" cx="3.482" cy="3.482" r="3.482" transform="translate(8.37 49.174)" fill="#ffbbae"/>
      <path id="Trazado_1031899" data-name="Trazado 1031899" d="M86.495,344.284a12.189,12.189,0,0,1-12.381,12.187q-.453-.007-.9-.047l-9.864-7.31L65.758,339a4.363,4.363,0,0,0,3.894-1.325,1.713,1.713,0,0,1,2.206-.241,4.356,4.356,0,0,0,4.9,0,1.712,1.712,0,0,1,2.205.241,4.361,4.361,0,0,0,4.549,1.164,1.739,1.739,0,0,1,2.165,1.034A12.159,12.159,0,0,1,86.495,344.284Z" transform="translate(-49.394 -291.628)" fill="#ffddcf"/>
      <path id="Trazado_1031900" data-name="Trazado 1031900" d="M63.783,368.757a12.2,12.2,0,0,1-10.27-16.564,1.735,1.735,0,0,1,2.159-1.019,4.354,4.354,0,0,0,.653.161A18.829,18.829,0,0,0,63.783,368.757Z" transform="translate(-39.961 -303.961)" fill="#ffcbbe"/>
      <circle id="Elipse_12360" data-name="Elipse 12360" cx="3.482" cy="3.482" r="3.482" transform="translate(57.995 21.315)" fill="#ffcbbe"/>
      <circle id="Elipse_12361" data-name="Elipse 12361" cx="3.482" cy="3.482" r="3.482" transform="translate(30.136 21.315)" fill="#ffbbae"/>
      <path id="Trazado_1031901" data-name="Trazado 1031901" d="M267.914,50.564a13.059,13.059,0,0,1-13.059,13.059c-.432,0-.861-.021-1.283-.062l-8.718-5.209-2.942-9.531a13.06,13.06,0,0,1,26,1.744Z" transform="translate(-207.308 -26.637)" fill="#ffddcf"/>
      <path id="Trazado_1031902" data-name="Trazado 1031902" d="M252.688,78.356a13.06,13.06,0,0,1-5.558-24.121C245.139,59.778,242.612,71.37,252.688,78.356Z" transform="translate(-206.424 -41.433)" fill="#ffcbbe"/>
      <path id="Trazado_1031903" data-name="Trazado 1031903" d="M240.4,22.185a3.48,3.48,0,0,1-3.035-1.777.846.846,0,0,0-1.059-.361,5.227,5.227,0,0,1-6.437-2.072.867.867,0,0,0-1-.372,5.237,5.237,0,0,1-3.063,0,.869.869,0,0,0-1,.372,5.222,5.222,0,0,1-6.018,2.224c-.142-.044-.281-.095-.417-.151a.846.846,0,0,0-1.059.361,3.482,3.482,0,0,1-6.517-1.8,3.419,3.419,0,0,1,1.085-2.4,3.593,3.593,0,0,1,2.469-.982.858.858,0,0,0,.85-.738,5.223,5.223,0,0,1,6.386-4.342c.108.024.213.053.317.086a.869.869,0,0,0,1-.372,5.222,5.222,0,0,1,8.874,0,.867.867,0,0,0,1,.372,5.227,5.227,0,0,1,6.7,4.256.857.857,0,0,0,.85.738,3.53,3.53,0,0,1,3.553,3.386A3.482,3.482,0,0,1,240.4,22.185Z" transform="translate(-179.794 0)" fill="#7888af"/>
      <path id="Trazado_1031904" data-name="Trazado 1031904" d="M221.591,30.118a32.161,32.161,0,0,0-2.8,10.058c-.142-.044-.281-.095-.417-.151a.846.846,0,0,0-1.059.361,3.482,3.482,0,0,1-6.517-1.8,3.419,3.419,0,0,1,1.085-2.4,3.593,3.593,0,0,1,2.469-.982.858.858,0,0,0,.85-.738,5.223,5.223,0,0,1,6.386-4.342Z" transform="translate(-179.794 -19.978)" fill="#5972a5"/>
      <path id="Trazado_1031905" data-name="Trazado 1031905" d="M357.946,312.034v9.6a3.469,3.469,0,0,1-3.469,3.469c-4.368,0-4.058-.008-4.178.017a.864.864,0,0,0-.443.236l-4.361,4.343a.867.867,0,0,1-1.479-.614v-3.115a.868.868,0,0,0-.867-.867h-.888a3.469,3.469,0,0,1-3.469-3.469v-9.6a3.469,3.469,0,0,1,3.469-3.469h12.216A3.469,3.469,0,0,1,357.946,312.034Z" transform="translate(-292.986 -266.355)" fill="#b4e9f1"/>
      <path id="Trazado_1031906" data-name="Trazado 1031906" d="M350.3,325.123a.864.864,0,0,0-.443.236l-4.361,4.343a.867.867,0,0,1-1.479-.614v-3.115a.867.867,0,0,0-.867-.867h-.888a3.469,3.469,0,0,1-3.469-3.469v-9.6a3.469,3.469,0,0,1,3.469-3.469h3.475C345.063,310.353,342.755,318.132,350.3,325.123Z" transform="translate(-292.986 -266.355)" fill="#81d8e7"/>
      <path id="Trazado_1031907" data-name="Trazado 1031907" d="M26.656,25.914v9.6a3.469,3.469,0,0,1-3.469,3.469H22.3a.867.867,0,0,0-.867.867v3.114a.867.867,0,0,1-1.479.614l-4.361-4.343a.867.867,0,0,0-.612-.252H10.971A3.469,3.469,0,0,1,7.5,35.518v-9.6a3.469,3.469,0,0,1,3.469-3.469H23.187A3.469,3.469,0,0,1,26.656,25.914Z" transform="translate(-0.002 -13.319)" fill="#ace094"/>
      <path id="Trazado_1031908" data-name="Trazado 1031908" d="M21.432,40.965v2a.867.867,0,0,1-1.479.614l-4.361-4.343a.867.867,0,0,0-.612-.252H10.971A3.469,3.469,0,0,1,7.5,35.518v-9.6a3.469,3.469,0,0,1,3.469-3.469h3.475C13.709,24.4,11.013,33.541,21.432,40.965Z" transform="translate(-0.002 -13.319)" fill="#8dd470"/>
      <path id="Trazado_1031910" data-name="Trazado 1031910" d="M465,130.332a3.483,3.483,0,1,1-2.751,6.4" transform="translate(-402.164 -108.731)" fill="none" stroke="#000" stroke-linecap="round" stroke-linejoin="round" stroke-miterlimit="10" stroke-width="1.3"/>
      <path id="Trazado_1031911" data-name="Trazado 1031911" d="M205.325,130.584a3.483,3.483,0,0,0,2.739,6.4" transform="translate(-173.128 -108.954)" fill="none" stroke="#000" stroke-linecap="round" stroke-linejoin="round" stroke-miterlimit="10" stroke-width="1.3"/>
      <path id="Trazado_1031912" data-name="Trazado 1031912" d="M243.488,146.534A13.024,13.024,0,0,1,241,137.189" transform="translate(-206.415 -114.795)" fill="none" stroke="#000" stroke-linecap="round" stroke-linejoin="round" stroke-miterlimit="10" stroke-width="1.3"/>
      <path id="Trazado_1031913" data-name="Trazado 1031913" d="M308.814,137.19a13.059,13.059,0,0,1-20.552,12.176" transform="translate(-248.299 -114.796)" fill="none" stroke="#000" stroke-linecap="round" stroke-linejoin="round" stroke-miterlimit="10" stroke-width="1.3"/>
      <path id="Trazado_1031914" data-name="Trazado 1031914" d="M240.325,15.34a.858.858,0,0,1-.85-.739,5.227,5.227,0,0,0-6.7-4.256.869.869,0,0,1-1-.372,5.223,5.223,0,0,0-8.874,0,.869.869,0,0,1-1,.372,5.227,5.227,0,0,0-6.7,4.256.858.858,0,0,1-.85.739,3.53,3.53,0,0,0-3.554,3.385,3.482,3.482,0,0,0,6.517,1.8.846.846,0,0,1,1.059-.361,5.224,5.224,0,0,0,6.436-2.071.869.869,0,0,1,1-.372,5.232,5.232,0,0,0,3.063,0,.869.869,0,0,1,1,.372,5.224,5.224,0,0,0,6.436,2.071.846.846,0,0,1,1.059.361,3.482,3.482,0,0,0,6.517-1.8A3.53,3.53,0,0,0,240.325,15.34Z" transform="translate(-179.791 -0.107)" fill="none" stroke="#000" stroke-linecap="round" stroke-linejoin="round" stroke-miterlimit="10" stroke-width="1.3"/>
      <path id="Trazado_1031915" data-name="Trazado 1031915" d="M354.48,308.672H342.265a3.469,3.469,0,0,0-3.469,3.469v9.6a3.469,3.469,0,0,0,3.469,3.469h.888a.867.867,0,0,1,.867.867v3.114a.867.867,0,0,0,1.479.615l4.361-4.343a.867.867,0,0,1,.612-.253h4.008a3.469,3.469,0,0,0,3.469-3.469v-9.6A3.469,3.469,0,0,0,354.48,308.672Z" transform="translate(-292.989 -266.45)" fill="none" stroke="#000" stroke-linecap="round" stroke-linejoin="round" stroke-miterlimit="10" stroke-width="1.3"/>
      <path id="Trazado_1031916" data-name="Trazado 1031916" d="M10.971,22.555H23.187a3.469,3.469,0,0,1,3.469,3.469v9.6A3.469,3.469,0,0,1,23.187,39.1H22.3a.867.867,0,0,0-.867.867v3.114a.867.867,0,0,1-1.479.614l-4.361-4.343a.867.867,0,0,0-.612-.253H10.971A3.469,3.469,0,0,1,7.5,35.628v-9.6A3.469,3.469,0,0,1,10.971,22.555Z" transform="translate(-0.002 -13.416)" fill="none" stroke="#000" stroke-linecap="round" stroke-linejoin="round" stroke-miterlimit="10" stroke-width="1.3"/>
      <path id="Trazado_1031917" data-name="Trazado 1031917" d="M8.911,416.231A5.171,5.171,0,0,0,7.5,419.409a5.3,5.3,0,0,0,5.311,5.28h1.219" transform="translate(0 -361.572)" fill="none" stroke="#000" stroke-linecap="round" stroke-linejoin="round" stroke-miterlimit="10" stroke-width="1.3"/>
      <path id="Trazado_1031918" data-name="Trazado 1031918" d="M223.922,416.532a5.143,5.143,0,0,1,1.381,3.143,5.3,5.3,0,0,1-5.311,5.28H214.4" transform="translate(-182.979 -361.838)" fill="none" stroke="#000" stroke-linecap="round" stroke-linejoin="round" stroke-miterlimit="10" stroke-width="1.3"/>
      <path id="Trazado_1031919" data-name="Trazado 1031919" d="M22.759,263.31a8.674,8.674,0,0,1-.2-1.815,5.171,5.171,0,0,1,2.674-4.889,1.715,1.715,0,0,0,.883-1.223,5.227,5.227,0,0,1,6.221-4.225,1.722,1.722,0,0,0,1.724-.646,5.223,5.223,0,0,1,8.336,0,1.711,1.711,0,0,0,1.711.651,5.178,5.178,0,0,1,6.272,4.17,1.739,1.739,0,0,0,.885,1.3,4.887,4.887,0,0,1,2.277,2.661" transform="translate(-13.321 -213.179)" fill="none" stroke="#000" stroke-linecap="round" stroke-linejoin="round" stroke-miterlimit="10" stroke-width="1.3"/>
      <path id="Trazado_1031920" data-name="Trazado 1031920" d="M260.6,369.1a3.483,3.483,0,1,1-.056,6.55" transform="translate(-223.786 -319.718)" fill="none" stroke="#000" stroke-linecap="round" stroke-linejoin="round" stroke-miterlimit="10" stroke-width="1.3"/>
      <path id="Trazado_1031921" data-name="Trazado 1031921" d="M19.745,369.128a3.483,3.483,0,1,0,.014,6.508" transform="translate(-6.658 -319.716)" fill="none" stroke="#000" stroke-linecap="round" stroke-linejoin="round" stroke-miterlimit="10" stroke-width="1.3"/>
      <path id="Trazado_1031922" data-name="Trazado 1031922" d="M77.058,344.395a12.188,12.188,0,1,1-23.549-4.424,1.734,1.734,0,0,1,2.159-1.018,4.353,4.353,0,0,0,4.548-1.164,1.713,1.713,0,0,1,2.206-.241,4.353,4.353,0,0,0,4.9,0,1.712,1.712,0,0,1,2.205.241,4.354,4.354,0,0,0,4.549,1.164,1.739,1.739,0,0,1,2.165,1.034A12.155,12.155,0,0,1,77.058,344.395Z" transform="translate(-39.957 -291.725)" fill="none" stroke="#000" stroke-linecap="round" stroke-linejoin="round" stroke-miterlimit="10" stroke-width="1.3"/>
      <path id="Trazado_1031926" data-name="Trazado 1031926" d="M143.49,415.73a2.237,2.237,0,0,1,3.377,0" transform="translate(-120.266 -360.449)" fill="none" stroke="#000" stroke-linecap="round" stroke-linejoin="round" stroke-miterlimit="10" stroke-width="1.3"/>
      <path id="Trazado_1031927" data-name="Trazado 1031927" d="M143.49,415.73a2.237,2.237,0,0,1,3.377,0" transform="translate(-97.226 -386.665)" fill="none" stroke="#000" stroke-linecap="round" stroke-linejoin="round" stroke-miterlimit="10" stroke-width="1.3"/>
    </g>
  </g>
</svg>
