<svg xmlns="http://www.w3.org/2000/svg" xmlns:xlink="http://www.w3.org/1999/xlink" width="113" height="113" viewBox="0 0 113 113">
  <defs>
    <filter id="Trazado_982547" x="0" y="0" width="113" height="113" filterUnits="userSpaceOnUse">
      <feOffset dy="3" input="SourceAlpha"/>
      <feGaussianBlur stdDeviation="3" result="blur"/>
      <feFlood flood-opacity="0.161"/>
      <feComposite operator="in" in2="blur"/>
      <feComposite in="SourceGraphic"/>
    </filter>
  </defs>
  <g id="Grupo_1176364" data-name="Grupo 1176364" transform="translate(-272 -2361.422)">
    <g id="Grupo_1176098" data-name="Grupo 1176098" transform="translate(0.5 -245.593)">
      <g id="Grupo_1173988" data-name="Grupo 1173988" transform="translate(280.5 2613.015)">
        <g id="Grupo_1172010" data-name="Grupo 1172010">
          <g id="Grupo_1171046" data-name="Grupo 1171046">
            <g id="Grupo_1148525" data-name="Grupo 1148525">
              <g transform="matrix(1, 0, 0, 1, -9, -6)" filter="url(#Trazado_982547)">
                <g id="Trazado_982547-2" data-name="Trazado 982547" transform="translate(9 6)" fill="#f4fdfe">
                  <path d="M 47.5 93.5 C 41.28937149047852 93.5 35.26533508300781 92.28397369384766 29.59518623352051 89.88570404052734 C 24.11771965026855 87.56893157958984 19.19813346862793 84.25196075439453 14.97309303283691 80.02691650390625 C 10.74804019927979 75.80186462402344 7.431066513061523 70.88229370117188 5.114293098449707 65.40481567382812 C 2.716026782989502 59.73468017578125 1.5 53.71062850952148 1.5 47.5 C 1.5 41.28937149047852 2.716026782989502 35.26533508300781 5.114293098449707 29.59518623352051 C 7.431066513061523 24.11771965026855 10.74804019927979 19.19813346862793 14.97309303283691 14.97309303283691 C 19.19813346862793 10.74804019927979 24.11771965026855 7.431066513061523 29.59518623352051 5.114293098449707 C 35.26533508300781 2.716026782989502 41.28937149047852 1.5 47.5 1.5 C 53.71062850952148 1.5 59.73468017578125 2.716026782989502 65.40481567382812 5.114293098449707 C 70.88229370117188 7.431066513061523 75.80186462402344 10.74804019927979 80.02691650390625 14.97309303283691 C 84.25196075439453 19.19813346862793 87.56893157958984 24.11771965026855 89.88570404052734 29.59518623352051 C 92.28397369384766 35.26533508300781 93.5 41.28937149047852 93.5 47.5 C 93.5 53.71062850952148 92.28397369384766 59.73468017578125 89.88570404052734 65.40481567382812 C 87.56893157958984 70.88229370117188 84.25196075439453 75.80186462402344 80.02691650390625 80.02691650390625 C 75.80186462402344 84.25196075439453 70.88229370117188 87.56893157958984 65.40481567382812 89.88570404052734 C 59.73468017578125 92.28397369384766 53.71062850952148 93.5 47.5 93.5 Z" stroke="none"/>
                  <path d="M 47.5 3 C 41.49121475219727 3 35.66376876831055 4.176155090332031 30.17950439453125 6.495796203613281 C 24.88084411621094 8.736953735351562 20.12152099609375 11.94598388671875 16.03375244140625 16.03375244140625 C 11.94598388671875 20.12152099609375 8.736953735351562 24.88084411621094 6.495796203613281 30.17950439453125 C 4.176155090332031 35.66376876831055 3 41.49121475219727 3 47.5 C 3 53.50878524780273 4.176155090332031 59.33623123168945 6.495796203613281 64.82049560546875 C 8.736953735351562 70.11915588378906 11.94598388671875 74.87847900390625 16.03375244140625 78.96624755859375 C 20.12152099609375 83.05401611328125 24.88084411621094 86.26304626464844 30.17950439453125 88.50419616699219 C 35.66376876831055 90.82384490966797 41.49121475219727 92 47.5 92 C 53.50878524780273 92 59.33623123168945 90.82384490966797 64.82049560546875 88.50419616699219 C 70.11915588378906 86.26304626464844 74.87847900390625 83.05401611328125 78.96624755859375 78.96624755859375 C 83.05401611328125 74.87847900390625 86.26304626464844 70.11915588378906 88.50419616699219 64.82049560546875 C 90.82384490966797 59.33623123168945 92 53.50878524780273 92 47.5 C 92 41.49121475219727 90.82384490966797 35.66376876831055 88.50419616699219 30.17950439453125 C 86.26304626464844 24.88084411621094 83.05401611328125 20.12152099609375 78.96624755859375 16.03375244140625 C 74.87847900390625 11.94598388671875 70.11915588378906 8.736953735351562 64.82049560546875 6.495796203613281 C 59.33623123168945 4.176155090332031 53.50878524780273 3 47.5 3 M 47.5 0 C 73.7335205078125 0 95 21.2664794921875 95 47.5 C 95 73.7335205078125 73.7335205078125 95 47.5 95 C 21.2664794921875 95 0 73.7335205078125 0 47.5 C 0 21.2664794921875 21.2664794921875 0 47.5 0 Z" stroke="none" fill="#56838a"/>
                </g>
              </g>
            </g>
          </g>
        </g>
      </g>
    </g>
    <g id="perception_5894067" transform="translate(288.339 2383.146)">
      <g id="Grupo_1176359" data-name="Grupo 1176359" transform="translate(13.013 1.244)">
        <path id="Trazado_1034142" data-name="Trazado 1034142" d="M72.961,44.272l-2.826-7.057-2.75-12.407C64.687,14.9,56.574,10.02,44.868,10.02a24.076,24.076,0,0,0-12.536,3.5C24.9,18.37,21.8,24.633,21.788,33.154c0,8.326,3.093,15.672,9.493,20.025a3.826,3.826,0,0,1,1.689,3.157V69.82a1.265,1.265,0,0,0,1.265,1.265H54.223a1.266,1.266,0,0,0,1.266-1.266v-3.17a2.531,2.531,0,0,1,2.531-2.531h3.89a5.945,5.945,0,0,0,5.945-5.945V49.518A1.244,1.244,0,0,1,69.1,48.274h1.153a2.918,2.918,0,0,0,2.709-4Z" transform="translate(-21.788 -10.02)" fill="#ffdcd5"/>
        <path id="Trazado_1034143" data-name="Trazado 1034143" d="M81.456,62.482A14.48,14.48,0,1,0,92.824,85.929V67.994a14.454,14.454,0,0,0-11.369-5.512Z" transform="translate(-61.368 -55.97)" fill="#ff7d97"/>
        <path id="Trazado_1034144" data-name="Trazado 1034144" d="M129.091,116.878a7.728,7.728,0,1,0,6.008,12.588v-9.721A7.711,7.711,0,0,0,129.091,116.878Z" transform="translate(-109.003 -103.614)" fill="#a0e5a5"/>
        <path id="Trazado_1034145" data-name="Trazado 1034145" d="M224.759,95.174H204.072V91.72a1.387,1.387,0,0,0-2.231-1.1l-12.573,9.633a1.387,1.387,0,0,0,0,2.2l12.573,9.633a1.387,1.387,0,0,0,2.231-1.1v-3.454h20.687a1.387,1.387,0,0,0,1.387-1.387V96.561a1.387,1.387,0,0,0-1.387-1.387Z" transform="translate(-168.003 -80.361)" fill="#ffea60"/>
      </g>
      <g id="Grupo_1176360" data-name="Grupo 1176360" transform="translate(11.769 0)">
        <path id="Trazado_1034146" data-name="Trazado 1034146" d="M69.769,14.813H59.548A19.485,19.485,0,0,0,51.4,3.876C47.4,1.3,42.245,0,36.093,0A25.39,25.39,0,0,0,22.911,3.678l-.035.022c-7.567,4.944-11.1,11.514-11.107,20.678S15.334,41.028,21.806,45.43a2.583,2.583,0,0,1,1.145,2.128V61.044a2.511,2.511,0,0,0,2.508,2.508h4.215a1.244,1.244,0,1,0,0-2.487H25.459a.021.021,0,0,1-.021-.021V47.558a5.068,5.068,0,0,0-2.233-4.185c-5.771-3.925-8.949-10.671-8.949-18.995.01-8.351,3.083-14.084,9.963-18.586A22.9,22.9,0,0,1,36.093,2.487c7.628,0,17.247,2.187,20.835,12.325h-6.6V12.6a2.631,2.631,0,0,0-4.231-2.088L44.678,11.6a15.723,15.723,0,1,0,0,21.275l1.416,1.085a2.631,2.631,0,0,0,4.231-2.088V29.658H60.508l2.523,6.3a1.674,1.674,0,0,1-1.554,2.3H60.324a2.49,2.49,0,0,0-2.487,2.487V49.4a4.706,4.706,0,0,1-4.7,4.7h-3.89a3.779,3.779,0,0,0-3.775,3.775v3.171a.023.023,0,0,1-.022.021H40.89a1.244,1.244,0,1,0,0,2.487h4.559a2.512,2.512,0,0,0,2.51-2.508V57.872a1.289,1.289,0,0,1,1.287-1.287h3.89A7.2,7.2,0,0,0,60.324,49.4V40.742h1.153a4.161,4.161,0,0,0,3.863-5.708l-2.152-5.375h6.581A2.634,2.634,0,0,0,72.4,27.027V17.444a2.634,2.634,0,0,0-2.631-2.631ZM33.1,35.471a13.236,13.236,0,1,1,9.594-22.353l-3.413,2.615a8.972,8.972,0,1,0,0,13.005l3.413,2.615A13.153,13.153,0,0,1,33.1,35.471Zm.42-11.147L37.272,27.2a6.485,6.485,0,1,1,0-9.925l-3.751,2.874a2.631,2.631,0,0,0,0,4.177Zm36.391,2.7a.144.144,0,0,1-.144.144H49.082a1.244,1.244,0,0,0-1.244,1.244v3.454a.144.144,0,0,1-.231.114L35.034,22.35a.144.144,0,0,1,0-.228l12.573-9.633a.131.131,0,0,1,.083-.032.153.153,0,0,1,.068.018.128.128,0,0,1,.08.129v3.454A1.244,1.244,0,0,0,49.082,17.3H69.769a.144.144,0,0,1,.144.144v9.583Z" transform="translate(-11.769 0)"/>
        <circle id="Elipse_12386" data-name="Elipse 12386" cx="1.244" cy="1.244" r="1.244" transform="translate(22.269 61.065)"/>
      </g>
    </g>
  </g>
</svg>
