<svg xmlns="http://www.w3.org/2000/svg" xmlns:xlink="http://www.w3.org/1999/xlink" width="400" height="341" viewBox="0 0 400 341">
  <defs>
    <clipPath id="clip-path">
      <rect id="Rectángulo_415327" data-name="Rectángulo 415327" width="400" height="341" transform="translate(1020 1174)" fill="#fff" stroke="#707070" stroke-width="1" opacity="0.38"/>
    </clipPath>
    <clipPath id="clip-path-2">
      <rect id="Rectángulo_415326" data-name="Rectángulo 415326" width="400" height="341.228" fill="none"/>
    </clipPath>
    <clipPath id="clip-path-4">
      <rect id="Rectángulo_415301" data-name="Rectángulo 415301" width="298.075" height="206.768" fill="none"/>
    </clipPath>
    <clipPath id="clip-path-5">
      <rect id="Rectángulo_415302" data-name="Rectángulo 415302" width="38.098" height="101.886" fill="none"/>
    </clipPath>
    <clipPath id="clip-path-6">
      <rect id="Rectángulo_415303" data-name="Rectángulo 415303" width="24.829" height="87.054" fill="none"/>
    </clipPath>
    <clipPath id="clip-path-7">
      <rect id="Rectángulo_415304" data-name="Rectángulo 415304" width="11.374" height="14.413" fill="none"/>
    </clipPath>
    <clipPath id="clip-path-8">
      <rect id="Rectángulo_415305" data-name="Rectángulo 415305" width="11.373" height="14.413" fill="none"/>
    </clipPath>
    <clipPath id="clip-path-9">
      <rect id="Rectángulo_415306" data-name="Rectángulo 415306" width="6.34" height="11.321" fill="none"/>
    </clipPath>
    <clipPath id="clip-path-10">
      <rect id="Rectángulo_415307" data-name="Rectángulo 415307" width="12.53" height="6.527" fill="none"/>
    </clipPath>
    <clipPath id="clip-path-12">
      <rect id="Rectángulo_415309" data-name="Rectángulo 415309" width="42.096" height="63.408" fill="none"/>
    </clipPath>
    <clipPath id="clip-path-13">
      <rect id="Rectángulo_415315" data-name="Rectángulo 415315" width="20.295" height="24.435" fill="none"/>
    </clipPath>
    <clipPath id="clip-path-14">
      <rect id="Rectángulo_415316" data-name="Rectángulo 415316" width="36.379" height="24.435" fill="none"/>
    </clipPath>
    <clipPath id="clip-path-15">
      <rect id="Rectángulo_415317" data-name="Rectángulo 415317" width="94.728" height="24.435" fill="none"/>
    </clipPath>
    <clipPath id="clip-path-16">
      <rect id="Rectángulo_415318" data-name="Rectángulo 415318" width="32.019" height="3.072" fill="none"/>
    </clipPath>
    <clipPath id="clip-path-17">
      <rect id="Rectángulo_415319" data-name="Rectángulo 415319" width="25.691" height="17.257" fill="none"/>
    </clipPath>
    <clipPath id="clip-path-18">
      <rect id="Rectángulo_415320" data-name="Rectángulo 415320" width="25.301" height="16.994" fill="none"/>
    </clipPath>
    <clipPath id="clip-path-19">
      <rect id="Rectángulo_415321" data-name="Rectángulo 415321" width="33.714" height="16.995" fill="none"/>
    </clipPath>
    <clipPath id="clip-path-20">
      <rect id="Rectángulo_415323" data-name="Rectángulo 415323" width="24.426" height="61.617" fill="none"/>
    </clipPath>
    <clipPath id="clip-path-21">
      <rect id="Rectángulo_415324" data-name="Rectángulo 415324" width="145.727" height="12.872" fill="none"/>
    </clipPath>
  </defs>
  <g id="Enmascarar_grupo_1098740" data-name="Enmascarar grupo 1098740" transform="translate(-1020 -1174)" clip-path="url(#clip-path)">
    <g id="Grupo_1175287" data-name="Grupo 1175287" transform="translate(1020 1173.938)">
      <g id="Grupo_1175286" data-name="Grupo 1175286" clip-path="url(#clip-path-2)">
        <rect id="Rectángulo_415300" data-name="Rectángulo 415300" width="307.747" height="218.5" transform="translate(36.578 26.813)" fill="#fff2e3"/>
        <path id="Trazado_1033143" data-name="Trazado 1033143" d="M298.074,0H0V206.768H298.074Z" transform="translate(41.415 32.68)" fill="#2c4556"/>
        <g id="Grupo_1175285" data-name="Grupo 1175285">
          <g id="Grupo_1175284" data-name="Grupo 1175284" clip-path="url(#clip-path-2)">
            <g id="Grupo_1175232" data-name="Grupo 1175232" transform="translate(41.415 32.332)" opacity="0.46">
              <g id="Grupo_1175231" data-name="Grupo 1175231">
                <g id="Grupo_1175230" data-name="Grupo 1175230" clip-path="url(#clip-path-4)">
                  <path id="Trazado_1033144" data-name="Trazado 1033144" d="M44.349,34.623s236.463,5.254,264.274,21.691-8.061,17.876-35.734,41.443,66.045,95.477,69.534,143.634V34.623Z" transform="translate(-44.349 -34.623)" fill="#1a2d38"/>
                </g>
              </g>
            </g>
            <path id="Trazado_1033145" data-name="Trazado 1033145" d="M349.393,272.2H35.6A4.708,4.708,0,0,1,30.89,267.5v-.1a4.708,4.708,0,0,1,4.708-4.707h313.8A4.708,4.708,0,0,1,354.1,267.4v.1a4.708,4.708,0,0,1-4.707,4.707" transform="translate(-2.044 -17.38)" fill="#b5aaa0"/>
            <path id="Trazado_1033146" data-name="Trazado 1033146" d="M86.131,186.956v17.211l14.9,8.6,14.9-8.6V186.956l-14.9-8.605Z" transform="translate(-5.699 -11.8)" fill="#2c4556"/>
            <path id="Trazado_1033147" data-name="Trazado 1033147" d="M86.131,186.956v17.211l14.9,8.6,14.9-8.6V186.956l-14.9-8.605Z" transform="translate(-5.699 -11.8)" fill="none" stroke="#d3cabe" stroke-miterlimit="10" stroke-width="1"/>
            <line id="Línea_919" data-name="Línea 919" x2="13.601" y2="9.334" transform="translate(110.241 192.366)" fill="#2c4556"/>
            <line id="Línea_920" data-name="Línea 920" x2="13.601" y2="9.334" transform="translate(110.241 192.366)" fill="none" stroke="#d3cabe" stroke-miterlimit="10" stroke-width="1"/>
            <line id="Línea_921" data-name="Línea 921" x1="15.043" y1="9.005" transform="translate(65.389 166.151)" fill="#2c4556"/>
            <line id="Línea_922" data-name="Línea 922" x1="15.043" y1="9.005" transform="translate(65.389 166.151)" fill="none" stroke="#d3cabe" stroke-miterlimit="10" stroke-width="1"/>
            <line id="Línea_923" data-name="Línea 923" y2="19.542" transform="translate(95.337 200.971)" fill="#2c4556"/>
            <line id="Línea_924" data-name="Línea 924" y2="19.542" transform="translate(95.337 200.971)" fill="none" stroke="#d3cabe" stroke-miterlimit="10" stroke-width="1"/>
            <path id="Trazado_1033148" data-name="Trazado 1033148" d="M69.829,175.006a2.724,2.724,0,1,1-2.724,2.724,2.724,2.724,0,0,1,2.724-2.724" transform="translate(-4.44 -11.579)" fill="#2c4556"/>
            <path id="Trazado_1033149" data-name="Trazado 1033149" d="M69.829,175.006a2.724,2.724,0,1,1-2.724,2.724A2.724,2.724,0,0,1,69.829,175.006Z" transform="translate(-4.44 -11.579)" fill="none" stroke="#d3cabe" stroke-miterlimit="10" stroke-width="1"/>
            <path id="Trazado_1033150" data-name="Trazado 1033150" d="M85.938,184.146a2.724,2.724,0,1,1-2.723,2.724,2.724,2.724,0,0,1,2.723-2.724" transform="translate(-5.506 -12.184)" fill="#2c4556"/>
            <path id="Trazado_1033151" data-name="Trazado 1033151" d="M85.938,184.146a2.724,2.724,0,1,1-2.723,2.724A2.724,2.724,0,0,1,85.938,184.146Z" transform="translate(-5.506 -12.184)" fill="none" stroke="#d3cabe" stroke-miterlimit="10" stroke-width="1"/>
            <path id="Trazado_1033152" data-name="Trazado 1033152" d="M101.909,233.221a2.724,2.724,0,1,1-2.724,2.723,2.724,2.724,0,0,1,2.724-2.723" transform="translate(-6.562 -15.43)" fill="#2c4556"/>
            <path id="Trazado_1033153" data-name="Trazado 1033153" d="M101.909,233.221a2.724,2.724,0,1,1-2.724,2.723A2.724,2.724,0,0,1,101.909,233.221Z" transform="translate(-6.562 -15.43)" fill="none" stroke="#d3cabe" stroke-miterlimit="10" stroke-width="1"/>
            <path id="Trazado_1033154" data-name="Trazado 1033154" d="M101.448,212.293a2.724,2.724,0,1,1-2.724,2.724,2.724,2.724,0,0,1,2.724-2.724" transform="translate(-6.532 -14.046)" fill="#2c4556"/>
            <path id="Trazado_1033155" data-name="Trazado 1033155" d="M101.448,212.293a2.724,2.724,0,1,1-2.724,2.724A2.724,2.724,0,0,1,101.448,212.293Z" transform="translate(-6.532 -14.046)" fill="none" stroke="#d3cabe" stroke-miterlimit="10" stroke-width="1"/>
            <path id="Trazado_1033156" data-name="Trazado 1033156" d="M117.514,202.842a2.724,2.724,0,1,1-2.724,2.724,2.724,2.724,0,0,1,2.724-2.724" transform="translate(-7.595 -13.421)" fill="#2c4556"/>
            <path id="Trazado_1033157" data-name="Trazado 1033157" d="M117.514,202.842a2.724,2.724,0,1,1-2.724,2.724A2.724,2.724,0,0,1,117.514,202.842Z" transform="translate(-7.595 -13.421)" fill="none" stroke="#d3cabe" stroke-miterlimit="10" stroke-width="1"/>
            <path id="Trazado_1033158" data-name="Trazado 1033158" d="M132.647,213.227a2.724,2.724,0,1,1-2.724,2.724,2.724,2.724,0,0,1,2.724-2.724" transform="translate(-8.596 -14.108)" fill="#2c4556"/>
            <path id="Trazado_1033159" data-name="Trazado 1033159" d="M132.647,213.227a2.724,2.724,0,1,1-2.724,2.724A2.724,2.724,0,0,1,132.647,213.227Z" transform="translate(-8.596 -14.108)" fill="none" stroke="#d3cabe" stroke-miterlimit="10" stroke-width="1"/>
            <path id="Trazado_1033160" data-name="Trazado 1033160" d="M308.1,159.454l-.2,29.141a20.115,20.115,0,1,0,13.8.047l.473-29.14" transform="translate(-19.492 -10.55)" fill="none" stroke="#d3cabe" stroke-miterlimit="10" stroke-width="1"/>
            <path id="Trazado_1033161" data-name="Trazado 1033161" d="M298.056,207.346a17.314,17.314,0,1,0,33.768.115" transform="translate(-19.691 -13.719)" fill="none" stroke="#d3cabe" stroke-miterlimit="10" stroke-width="1"/>
            <path id="Trazado_1033162" data-name="Trazado 1033162" d="M332.21,207.309c-.006,1.23-7.648,2.2-17.071,2.169s-17.059-1.055-17.056-2.285,7.647-2.2,17.071-2.169S332.214,206.079,332.21,207.309Z" transform="translate(-19.722 -13.565)" fill="none" stroke="#d3cabe" stroke-miterlimit="10" stroke-width="1"/>
            <path id="Trazado_1033163" data-name="Trazado 1033163" d="M325.549,156.544a2.6,2.6,0,0,1-2.607,2.59l-14.074-.049a2.6,2.6,0,1,1,.018-5.2l14.074.048A2.6,2.6,0,0,1,325.549,156.544Z" transform="translate(-20.264 -10.182)" fill="none" stroke="#d3cabe" stroke-miterlimit="10" stroke-width="1"/>
            <path id="Trazado_1033164" data-name="Trazado 1033164" d="M312.934,217.63a1.831,1.831,0,1,1-.765-2.473A1.829,1.829,0,0,1,312.934,217.63Z" transform="translate(-20.476 -14.221)" fill="none" stroke="#d3cabe" stroke-miterlimit="10" stroke-width="1"/>
            <path id="Trazado_1033165" data-name="Trazado 1033165" d="M325.737,216.975a1.831,1.831,0,1,1-.765-2.474A1.831,1.831,0,0,1,325.737,216.975Z" transform="translate(-21.323 -14.178)" fill="none" stroke="#d3cabe" stroke-miterlimit="10" stroke-width="1"/>
            <path id="Trazado_1033166" data-name="Trazado 1033166" d="M319.511,224.578a1.831,1.831,0,1,1-.765-2.474A1.832,1.832,0,0,1,319.511,224.578Z" transform="translate(-20.911 -14.681)" fill="none" stroke="#d3cabe" stroke-miterlimit="10" stroke-width="1"/>
            <path id="Trazado_1033167" data-name="Trazado 1033167" d="M321.681,83.891h-19.3l-9.652,16.718,9.652,16.718h19.3l9.652-16.718Z" transform="translate(-19.367 -5.55)" fill="none" stroke="#d3cabe" stroke-miterlimit="10" stroke-width="1"/>
            <path id="Trazado_1033168" data-name="Trazado 1033168" d="M307.821,70.893H293.806L286.8,83.03l7.008,12.137h14.015l7.008-12.137Z" transform="translate(-18.975 -4.69)" fill="none" stroke="#d3cabe" stroke-miterlimit="10" stroke-width="1"/>
            <path id="Trazado_1033169" data-name="Trazado 1033169" d="M69.346,147.893a2.825,2.825,0,1,1-2.826-2.826A2.826,2.826,0,0,1,69.346,147.893Z" transform="translate(-4.214 -9.598)" fill="none" stroke="#d3cabe" stroke-miterlimit="10" stroke-width="0.5"/>
            <path id="Trazado_1033170" data-name="Trazado 1033170" d="M353.914,57.662a9.014,9.014,0,1,1-9.014-9.014A9.014,9.014,0,0,1,353.914,57.662Z" transform="translate(-22.223 -3.219)" fill="none" stroke="#d3cabe" stroke-miterlimit="10" stroke-width="1.268"/>
            <path id="Trazado_1033171" data-name="Trazado 1033171" d="M279.785,53.156a4.507,4.507,0,1,1-4.507-4.507A4.507,4.507,0,0,1,279.785,53.156Z" transform="translate(-17.915 -3.219)" fill="none" stroke="#d3cabe" stroke-miterlimit="10" stroke-width="0.634"/>
            <path id="Trazado_1033172" data-name="Trazado 1033172" d="M130.433,50.495a2.811,2.811,0,1,1-2.811-2.811A2.811,2.811,0,0,1,130.433,50.495Z" transform="translate(-8.258 -3.155)" fill="none" stroke="#d3cabe" stroke-miterlimit="10" stroke-width="0.634"/>
            <path id="Trazado_1033173" data-name="Trazado 1033173" d="M349.725,137.853a4.507,4.507,0,1,1-4.507-4.507A4.507,4.507,0,0,1,349.725,137.853Z" transform="translate(-22.542 -8.823)" fill="none" stroke="#d3cabe" stroke-miterlimit="10" stroke-width="1"/>
            <path id="Trazado_1033174" data-name="Trazado 1033174" d="M242.665,254.3l-40.3,1.372-40.3-1.372s-30.716,63.4-1.169,101.886h82.942c29.547-38.491-1.169-101.886-1.169-101.886" transform="translate(-9.796 -16.825)" fill="#2c4556"/>
            <g id="Grupo_1175235" data-name="Grupo 1175235" transform="translate(138.261 237.474)" opacity="0.45">
              <g id="Grupo_1175234" data-name="Grupo 1175234">
                <g id="Grupo_1175233" data-name="Grupo 1175233" clip-path="url(#clip-path-5)">
                  <path id="Trazado_1033175" data-name="Trazado 1033175" d="M160.893,356.185h11.34c-20.942-38.572,13.923-101.066,13.923-101.066l-24.093-.82s-30.716,63.4-1.169,101.886" transform="translate(-148.057 -254.299)" fill="#1b2e38"/>
                </g>
              </g>
            </g>
            <path id="Trazado_1033176" data-name="Trazado 1033176" d="M264.845,147.59c-1.812-12.83-8.3-27.019-21.283-31.4-5.744-1.937-21.735-7.546-29.548-14.641s-3.66-20.529-3.66-20.529H192.845s4.152,13.434-3.66,20.529-23.8,12.7-29.548,14.641c-12.981,4.378-19.471,18.567-21.283,31.4-1.178,8.349-1.654,49.169-1.842,76.664a19.258,19.258,0,0,0,24.537,18.652l.249-.071s20.83,11.321,40.3,11.321,40.3-11.321,40.3-11.321l24.905,7.094s-.15-89.509-1.962-102.339" transform="translate(-9.032 -5.361)" fill="#4b72b7"/>
            <path id="Trazado_1033177" data-name="Trazado 1033177" d="M272.154,150.062c-1.812-12.83-8.3-27.019-21.283-31.4-.254-.085-.535-.181-.828-.281-1.955,15.264-6.189,55.026.828,68.01,3.974,7.353,13.548,9.438,22.818,9.524-.285-20.654-.756-40.341-1.535-45.856" transform="translate(-16.341 -7.833)" fill="#fff2e3"/>
            <path id="Trazado_1033178" data-name="Trazado 1033178" d="M138.278,150.062c1.812-12.83,8.3-27.019,21.283-31.4.254-.085.536-.181.828-.281,1.956,15.264,6.19,55.026-.828,68.01-3.974,7.353-13.548,9.438-22.818,9.524.285-20.654.756-40.341,1.535-45.856" transform="translate(-9.047 -7.833)" fill="#fff2e3"/>
            <path id="Trazado_1033179" data-name="Trazado 1033179" d="M160.4,214.816l35.738,13.8s-.373,11.321,14.392,4.981l9.783-2.265s7.416,44.174,34.22,53.89A164.378,164.378,0,0,0,243.1,249.9L268.009,257s-.051-30.473-.454-58.407L154.666,187.853Z" transform="translate(-10.233 -12.429)" fill="#2c4556"/>
            <path id="Trazado_1033180" data-name="Trazado 1033180" d="M206.211,121.056s7.778,16.775,19.776,11.793,1.093-23.668,1.093-23.668Z" transform="translate(-13.643 -7.224)" fill="#fff2e3"/>
            <path id="Trazado_1033181" data-name="Trazado 1033181" d="M204.422,121.033s-7.778,16.775-19.776,11.793-.52-23.986-.52-23.986Z" transform="translate(-11.855 -7.201)" fill="#fff2e3"/>
            <path id="Trazado_1033182" data-name="Trazado 1033182" d="M272.311,150.2c-1.618-11.466-6.979-24.011-17.365-29.675-1.894,7.582-4.293,21.076-4.824,42.052-.9,35.773-.755,82.868-.755,82.868l24.905,7.094s-.15-89.509-1.962-102.339" transform="translate(-16.498 -7.975)" fill="#e48464"/>
            <path id="Trazado_1033183" data-name="Trazado 1033183" d="M138.355,150.2c1.618-11.466,6.979-24.011,17.365-29.675,1.894,7.582,4.293,21.076,4.824,42.052.9,35.773.755,82.868.755,82.868l-.249.071a19.258,19.258,0,0,1-24.537-18.652c.188-27.495.664-68.315,1.842-76.664" transform="translate(-9.032 -7.975)" fill="#e48464"/>
            <line id="Línea_925" data-name="Línea 925" y2="134.963" transform="translate(192.568 113.832)" fill="none" stroke="#2c4556" stroke-miterlimit="10" stroke-width="0.776"/>
            <path id="Trazado_1033184" data-name="Trazado 1033184" d="M202.192,147.219a3.357,3.357,0,1,1-3.357-3.357,3.357,3.357,0,0,1,3.357,3.357" transform="translate(-12.933 -9.518)" fill="#fff2e3"/>
            <path id="Trazado_1033185" data-name="Trazado 1033185" d="M202.192,179.87a3.357,3.357,0,1,1-3.357-3.357,3.357,3.357,0,0,1,3.357,3.357" transform="translate(-12.933 -11.679)" fill="#fff2e3"/>
            <path id="Trazado_1033186" data-name="Trazado 1033186" d="M202.192,212.52a3.357,3.357,0,1,1-3.357-3.357,3.357,3.357,0,0,1,3.357,3.357" transform="translate(-12.933 -13.839)" fill="#fff2e3"/>
            <path id="Trazado_1033187" data-name="Trazado 1033187" d="M202.192,245.171a3.357,3.357,0,1,1-3.357-3.357,3.357,3.357,0,0,1,3.357,3.357" transform="translate(-12.933 -15.999)" fill="#fff2e3"/>
            <path id="Trazado_1033188" data-name="Trazado 1033188" d="M141.489,241.384s-8.51-6.25-16.359-19.231-21.736-59.482-25.962-66.571-16.9-22.805-18.415-29.278c-1.359-5.787,1.207-7.486,1.66-8.6,3.169-4.679,5.283-6.943,7.7-6.943-3.924-13.283-3.321-19.439.906-14.248s10.566,23.264,11.472,23.586c5.131-.584,8.778,3.982,9.069,12.718-.012,7.83-.315,4.509,1.5,9.641s26.777,49.135,33.313,59.133,12.923,32.288,8.673,42.729c-6.666,1.685-9.458.672-13.552-2.933" transform="translate(-5.317 -6.264)" fill="#e48464"/>
            <path id="Trazado_1033189" data-name="Trazado 1033189" d="M103.263,121.9s-6.34,3.19-8.3,5.454-4.227,4.528-1.962,6.491,5.736.9,7.849,0a16.166,16.166,0,0,0-1.057,10.565" transform="translate(-6.09 -8.065)" fill="none" stroke="#a0533f" stroke-miterlimit="10" stroke-width="0.75"/>
            <line id="Línea_926" data-name="Línea 926" x2="5.494" y2="13.509" transform="translate(84.795 104.494)" fill="none" stroke="#a0533f" stroke-miterlimit="10" stroke-width="0.75"/>
            <line id="Línea_927" data-name="Línea 927" x2="6.379" y2="15.188" transform="translate(79.583 108.023)" fill="none" stroke="#a0533f" stroke-miterlimit="10" stroke-width="0.75"/>
            <line id="Línea_928" data-name="Línea 928" x2="6.396" y2="15.335" transform="translate(76.377 112.555)" fill="none" stroke="#a0533f" stroke-miterlimit="10" stroke-width="0.75"/>
            <line id="Línea_929" data-name="Línea 929" y1="4.566" x2="5.895" transform="translate(80.41 125.087)" fill="none" stroke="#a0533f" stroke-miterlimit="10" stroke-width="0.75"/>
            <path id="Trazado_1033190" data-name="Trazado 1033190" d="M185.045,16.428s-.952-13.065,14.8-15.783,27.6,3.4,34.018,13.585,1.434,30.717,11.4,46.716-1.133,30.944-1.133,30.944-20.6-11.863-37.811-14.943c-19.7-46.415-21.274-60.519-21.274-60.519" transform="translate(-12.242 0)" fill="#7c2e25"/>
            <g id="Grupo_1175238" data-name="Grupo 1175238" transform="translate(212.343 4.835)" opacity="0.17" style="mix-blend-mode: overlay;isolation: isolate">
              <g id="Grupo_1175237" data-name="Grupo 1175237">
                <g id="Grupo_1175236" data-name="Grupo 1175236" clip-path="url(#clip-path-6)">
                  <path id="Trazado_1033191" data-name="Trazado 1033191" d="M236.669,14.572a30.063,30.063,0,0,0-9.28-9.394s9.958,13.855,9.28,27.926,3.083,22.412,5.433,30.373c2.486,8.418-1.861,18.537-4.349,23.981,5.516,2.667,9.18,4.774,9.18,4.774s11.094-14.943,1.133-30.943-4.981-36.529-11.4-46.717" transform="translate(-227.388 -5.178)" fill="#fff"/>
                </g>
              </g>
            </g>
            <path id="Trazado_1033192" data-name="Trazado 1033192" d="M222.815,16.428s.952-13.065-14.8-15.783-27.6,3.4-34.018,13.585-1.434,30.717-11.4,46.716,1.133,30.944,1.133,30.944,20.6-11.863,37.811-14.943c19.7-46.415,21.274-60.519,21.274-60.519" transform="translate(-10.483 0)" fill="#872a21"/>
            <path id="Trazado_1033193" data-name="Trazado 1033193" d="M217.188,101.553c-7.812-7.094-3.66-20.529-3.66-20.529H196.018s4.152,13.434-3.66,20.529A43.619,43.619,0,0,1,184.477,107a23.614,23.614,0,0,0,41.164.317,44.884,44.884,0,0,1-8.454-5.765" transform="translate(-12.205 -5.361)" fill="#e48464"/>
            <path id="Trazado_1033194" data-name="Trazado 1033194" d="M213.383,86.232a29.056,29.056,0,0,1,.963-5.208H196.836s2.39,7.747.12,14.583c9.126-1.029,15.039-7.66,16.426-9.375" transform="translate(-13.023 -5.361)" fill="#380403"/>
            <path id="Trazado_1033195" data-name="Trazado 1033195" d="M243.826,56.572c-1.98,4.864-6.746,7.521-10.646,5.934s-5.455-6.817-3.475-11.681,6.747-7.521,10.646-5.934,5.455,6.817,3.475,11.681" transform="translate(-15.141 -2.94)" fill="#e48464"/>
            <path id="Trazado_1033196" data-name="Trazado 1033196" d="M202.9,79.513l-1.189-11.724L178.733,54.354l-4.792,4.528s-4.979,19.812,3.376,30.193c7.273-3.326,16.628-7.007,25.152-8.532.149-.351.288-.683.434-1.03" transform="translate(-11.411 -3.596)" fill="#420e0c"/>
            <g id="Grupo_1175241" data-name="Grupo 1175241" transform="translate(218.17 45.61)" opacity="0.32">
              <g id="Grupo_1175240" data-name="Grupo 1175240">
                <g id="Grupo_1175239" data-name="Grupo 1175239" clip-path="url(#clip-path-7)">
                  <path id="Trazado_1033197" data-name="Trazado 1033197" d="M244.142,56.864a10.549,10.549,0,0,0,.2-7.824c-3.733-.965-8.01,1.65-9.859,6.192a10.546,10.546,0,0,0-.2,7.823c3.733.965,8.01-1.649,9.859-6.191" transform="translate(-233.627 -48.841)" fill="#590a06"/>
                </g>
              </g>
            </g>
            <path id="Trazado_1033198" data-name="Trazado 1033198" d="M167.475,56.572c1.98,4.864,6.746,7.521,10.646,5.934s5.455-6.817,3.475-11.681S174.85,43.3,170.95,44.89s-5.455,6.817-3.475,11.681" transform="translate(-11.024 -2.94)" fill="#e48464"/>
            <path id="Trazado_1033199" data-name="Trazado 1033199" d="M224.3,17.592c-1.314,4.034-4.425,11.422-9.954,13.048-5.736.755,2.113-4.227,1.51-9.812-17.986,10.179-28.877,13.079-34.838,13.134-.84,14.191.983,28.824,4.234,34.994,3.924,7.449,7.812,13.733,19.283,14.664,11.471-.931,15.359-7.215,19.283-14.664s5.774-27.236,3.359-43.686a18.917,18.917,0,0,0-2.877-7.678" transform="translate(-11.963 -1.164)" fill="#e48464"/>
            <g id="Grupo_1175244" data-name="Grupo 1175244" transform="translate(155.592 45.61)" opacity="0.32">
              <g id="Grupo_1175243" data-name="Grupo 1175243">
                <g id="Grupo_1175242" data-name="Grupo 1175242" clip-path="url(#clip-path-8)">
                  <path id="Trazado_1033200" data-name="Trazado 1033200" d="M167.475,56.864a10.549,10.549,0,0,1-.2-7.824c3.733-.965,8.01,1.65,9.859,6.192a10.546,10.546,0,0,1,.2,7.823c-3.733.965-8.01-1.649-9.859-6.191" transform="translate(-166.616 -48.841)" fill="#590a06"/>
                </g>
              </g>
            </g>
            <path id="Trazado_1033201" data-name="Trazado 1033201" d="M211.678,52.449c1.53-2.952,5.907-8.905,14.856-4.366a1.635,1.635,0,0,1,.741,2.124c-2.266,5.048-9.366,5.6-14.732,4.192a1.37,1.37,0,0,1-.865-1.951" transform="translate(-13.995 -3.072)" fill="#fff2e3"/>
            <path id="Trazado_1033202" data-name="Trazado 1033202" d="M215.762,47.934a4.782,4.782,0,0,0,2.01,7.128,14.724,14.724,0,0,0,5.062-.788,4.75,4.75,0,0,0-.747-7.739,8.8,8.8,0,0,0-6.325,1.4" transform="translate(-14.218 -3.072)" fill="#651d13"/>
            <path id="Trazado_1033203" data-name="Trazado 1033203" d="M211.688,52.382a4.846,4.846,0,0,1,.212-.785,8.755,8.755,0,0,1,.936-1.94,7.818,7.818,0,0,1,.874-1.171,9.5,9.5,0,0,1,1.182-1.162l.727-.512a3.7,3.7,0,0,1,.792-.462c.28-.131.558-.28.851-.4l.913-.267.46-.12.472-.052.938-.084c.618,0,1.222.1,1.8.158.561.14,1.093.313,1.589.47a11.348,11.348,0,0,1,1.31.642l.561.3c.17.111.318.239.463.346.289.217.529.422.726.586.392.334.6.536.6.536s-.3-.064-.785-.2c-.244-.069-.539-.148-.864-.257a7.585,7.585,0,0,0-1.108-.284c-.409-.077-.837-.2-1.29-.283-.462-.047-.941-.09-1.426-.172l-1.49.027c-.248.037-.5.08-.747.107l-.376.045-.363.106-.732.194-.7.287a11.047,11.047,0,0,0-1.335.665c-.389.3-.826.514-1.176.819-.368.278-.706.564-1.017.838-.611.556-1.116,1.056-1.456,1.425s-.541.59-.541.59" transform="translate(-14.006 -3.006)" fill="#590a06"/>
            <path id="Trazado_1033204" data-name="Trazado 1033204" d="M199.619,52.449c-1.531-2.952-5.907-8.905-14.857-4.366a1.635,1.635,0,0,0-.74,2.124c2.265,5.048,9.365,5.6,14.732,4.192a1.371,1.371,0,0,0,.865-1.951" transform="translate(-12.166 -3.072)" fill="#fff2e3"/>
            <path id="Trazado_1033205" data-name="Trazado 1033205" d="M195.981,47.934a4.782,4.782,0,0,1-2.01,7.128,14.724,14.724,0,0,1-5.062-.788,4.75,4.75,0,0,1,.747-7.739,8.8,8.8,0,0,1,6.325,1.4" transform="translate(-12.389 -3.072)" fill="#651d13"/>
            <path id="Trazado_1033206" data-name="Trazado 1033206" d="M199.643,52.382s-.191-.227-.541-.59-.845-.869-1.456-1.425c-.311-.274-.649-.559-1.017-.838-.349-.305-.786-.523-1.176-.819a11.045,11.045,0,0,0-1.335-.665l-.7-.287-.732-.194-.363-.106-.376-.045c-.25-.027-.5-.07-.747-.107l-1.491-.027c-.484.082-.963.125-1.425.172-.453.082-.881.206-1.29.283a7.581,7.581,0,0,0-1.108.284c-.325.109-.62.188-.864.257-.489.134-.785.2-.785.2s.208-.2.6-.536c.2-.164.437-.37.727-.586.145-.107.293-.235.463-.346l.561-.3a11.351,11.351,0,0,1,1.31-.642c.5-.157,1.028-.33,1.589-.47.577-.053,1.181-.161,1.8-.158l.938.084.472.052.46.12.913.267c.292.116.571.265.851.4a3.7,3.7,0,0,1,.792.462l.727.512a9.5,9.5,0,0,1,1.182,1.162,7.821,7.821,0,0,1,.874,1.171,8.759,8.759,0,0,1,.936,1.94,4.846,4.846,0,0,1,.212.785" transform="translate(-12.19 -3.006)" fill="#590a06"/>
            <path id="Trazado_1033207" data-name="Trazado 1033207" d="M215.673,39.346c3.064-.538,8.308-.812,12.134,2.413-3.953-6.583-7.9-6.735-12.555-6.667a2.123,2.123,0,0,0-2.091,2.121v.049a2.127,2.127,0,0,0,2.511,2.084" transform="translate(-14.103 -2.321)" fill="#651d13"/>
            <path id="Trazado_1033208" data-name="Trazado 1033208" d="M195.712,39.346c-3.064-.538-8.308-.812-12.134,2.413,3.953-6.583,7.9-6.735,12.555-6.667a2.123,2.123,0,0,1,2.091,2.121v.049a2.127,2.127,0,0,1-2.511,2.084" transform="translate(-12.146 -2.321)" fill="#651d13"/>
            <g id="Grupo_1175247" data-name="Grupo 1175247" transform="translate(190.304 55.286)" opacity="0.62">
              <g id="Grupo_1175246" data-name="Grupo 1175246">
                <g id="Grupo_1175245" data-name="Grupo 1175245" clip-path="url(#clip-path-9)">
                  <path id="Trazado_1033209" data-name="Trazado 1033209" d="M208.315,59.2v9.661l-4.528-.755,6.34,2.415Z" transform="translate(-203.787 -59.203)" fill="#651d13"/>
                </g>
              </g>
            </g>
            <path id="Trazado_1033210" data-name="Trazado 1033210" d="M199.261,73.546s11.454,1.66,13.736-.6c-3.3,4.075-8.755,4.83-13.736.6" transform="translate(-13.184 -4.826)" fill="#fff2e3"/>
            <g id="Grupo_1175250" data-name="Grupo 1175250" transform="translate(199.813 55.476)" opacity="0.32">
              <g id="Grupo_1175249" data-name="Grupo 1175249">
                <g id="Grupo_1175248" data-name="Grupo 1175248" clip-path="url(#clip-path-10)">
                  <path id="Trazado_1033211" data-name="Trazado 1033211" d="M226.5,62.67c0-1.8-2.805-3.264-6.265-3.264s-6.265,1.461-6.265,3.264,2.8,3.264,6.265,3.264,6.265-1.461,6.265-3.264" transform="translate(-213.97 -59.407)" fill="#af0808"/>
                </g>
              </g>
            </g>
            <g id="Grupo_1175253" data-name="Grupo 1175253" transform="translate(172.793 55.476)" opacity="0.32">
              <g id="Grupo_1175252" data-name="Grupo 1175252">
                <g id="Grupo_1175251" data-name="Grupo 1175251" clip-path="url(#clip-path-10)">
                  <path id="Trazado_1033212" data-name="Trazado 1033212" d="M185.035,62.67c0-1.8,2.8-3.264,6.264-3.264s6.265,1.461,6.265,3.264-2.8,3.264-6.265,3.264-6.264-1.461-6.264-3.264" transform="translate(-185.035 -59.407)" fill="#af0808"/>
                </g>
              </g>
            </g>
            <g id="Grupo_1175256" data-name="Grupo 1175256" transform="translate(174.196 16.428)" opacity="0.17" style="mix-blend-mode: overlay;isolation: isolate">
              <g id="Grupo_1175255" data-name="Grupo 1175255">
                <g id="Grupo_1175254" data-name="Grupo 1175254" clip-path="url(#clip-path-12)">
                  <path id="Trazado_1033213" data-name="Trazado 1033213" d="M224.674,17.592c-1.314,4.034-4.425,11.422-9.954,13.048-5.736.755,2.113-4.227,1.51-9.812-13.485,7.631-22.981,11.172-29.4,12.489-.571,14.012-3.056,50.917,27.777,47.455,4.535-2.712,7.059-7.018,9.587-11.816,3.925-7.448,5.774-27.236,3.359-43.686a18.918,18.918,0,0,0-2.877-7.678" transform="translate(-186.538 -17.592)" fill="#fff"/>
                </g>
              </g>
            </g>
            <path id="Trazado_1033214" data-name="Trazado 1033214" d="M199.135,158.607s-16.664-12.287-38.332-16.629v8.241Z" transform="translate(-10.639 -9.394)" fill="#fff2e3"/>
            <path id="Trazado_1033215" data-name="Trazado 1033215" d="M198.729,161.028v-2.185s-29.246-12.161-44.063-13.28l3.635,37.6,40.429-11.184Z" transform="translate(-10.233 -9.631)" fill="#d1beae"/>
            <path id="Trazado_1033216" data-name="Trazado 1033216" d="M210.75,159.785a5.622,5.622,0,0,1-8.9,0v2.185s.622,7.6,3.936,7.6,4.962-7.6,4.962-7.6Z" transform="translate(-13.355 -10.572)" fill="#ececec"/>
            <path id="Trazado_1033217" data-name="Trazado 1033217" d="M211.38,158.607s16.663-12.287,38.332-16.629v8.241Z" transform="translate(-13.985 -9.394)" fill="#fff2e3"/>
            <path id="Trazado_1033218" data-name="Trazado 1033218" d="M211.38,161.028v-2.185s29.245-12.161,44.063-13.28l-3.635,37.6L211.38,171.984Z" transform="translate(-13.985 -9.631)" fill="#d1beae"/>
            <path id="Trazado_1033219" data-name="Trazado 1033219" d="M206.345,166.086h-.089a4.4,4.4,0,0,1-4.383-3.962h-.022v57.735a4.405,4.405,0,0,0,4.4,4.4h.089a4.405,4.405,0,0,0,4.4-4.4V162.124h-.023a4.4,4.4,0,0,1-4.382,3.962" transform="translate(-13.355 -10.727)" fill="#e5ac3c"/>
            <path id="Trazado_1033220" data-name="Trazado 1033220" d="M211.38,161.238l51.868-12.512-10.009,57.552L211.38,218.972Z" transform="translate(-13.985 -9.84)" fill="#ffcb57"/>
            <path id="Trazado_1033221" data-name="Trazado 1033221" d="M198.177,161.238l-51.868-12.512,10.009,57.552,41.859,12.694Z" transform="translate(-9.68 -9.84)" fill="#bc8d2f"/>
            <path id="Trazado_1033222" data-name="Trazado 1033222" d="M263.248,148.623l-1.348-1.46L211.38,158.95v2.185Z" transform="translate(-13.985 -9.737)" fill="#f9d180"/>
            <path id="Trazado_1033223" data-name="Trazado 1033223" d="M146.309,148.623l1.348-1.46,50.521,11.786v2.185Z" transform="translate(-9.68 -9.737)" fill="#f9d180"/>
            <path id="Trazado_1033224" data-name="Trazado 1033224" d="M233.524,192.523s4.387-15.7,3.9-22.8c-3.352,4.367-8.874,3.1-8.874,3.1l-9.4-12.68-.415,13.359-3.113-6.189s-3.075,13.736-2.473,16.817a48.734,48.734,0,0,0,6.945,17.6,45.1,45.1,0,0,1,5.974,13.575l5.852-1.774Z" transform="translate(-14.098 -10.596)" fill="#2c4556"/>
            <path id="Trazado_1033225" data-name="Trazado 1033225" d="M271.758,254.946s-2.123,13.887-12.457,13.736-16.675-11.321-20.75-24.905-11.774-38.793-16.3-43.471-9.811-13.284-10.717-19.17,1.509-4.679,1.509-4.679-2.566-7.4.151-8c-1.057-8-.453-9.67,1.207-8.759s8.6,15.516,8.6,15.516S217.871,160,219.229,157.89s2.717-.765,4.378,1.806,7.094,14.646,7.094,14.646,3.169,1.056,4.377-1.736,4.227-5.057,5.736-5.057,2.967,2.265.729,5.057-2.843,12.906-2.54,15.17,2.336,13.124,7.961,19.921,23.284,31.1,24.793,47.248" transform="translate(-13.982 -10.377)" fill="#e48464"/>
            <path id="Trazado_1033226" data-name="Trazado 1033226" d="M213.324,169.278s3.056,8.868,4.64,12.038" transform="translate(-14.114 -11.2)" fill="none" stroke="#a0533f" stroke-miterlimit="10" stroke-width="0.75"/>
            <path id="Trazado_1033227" data-name="Trazado 1033227" d="M213.162,177.845s1.17,6.189,2.472,8.792" transform="translate(-14.103 -11.767)" fill="none" stroke="#a0533f" stroke-miterlimit="10" stroke-width="0.75"/>
            <path id="Trazado_1033228" data-name="Trazado 1033228" d="M250.15,212.19c.291-.682,12.354,13.954,17.914,27.662" transform="translate(-16.551 -14.038)" fill="none" stroke="#a0533f" stroke-miterlimit="10" stroke-width="1"/>
            <path id="Trazado_1033229" data-name="Trazado 1033229" d="M259.178,260.582a14.521,14.521,0,0,0-11.5,5.66c3.606,5.594,8.177,9.218,14.032,9.3,5.383.079,8.534-3.65,10.323-7.243a14.553,14.553,0,0,0-12.85-7.72" transform="translate(-16.387 -17.241)" fill="#c6684f"/>
            <path id="Trazado_1033230" data-name="Trazado 1033230" d="M137.461,186.338s13.907,19.78,17.379,30.7" transform="translate(-9.095 -12.329)" fill="none" stroke="#a0533f" stroke-miterlimit="10" stroke-width="1"/>
            <path id="Trazado_1033231" data-name="Trazado 1033231" d="M142.09,234.985a14.6,14.6,0,0,0-9,3.1,64.271,64.271,0,0,0,11.892,12.58c3.551,3.126,6.127,4.3,11.1,3.457a14.675,14.675,0,0,0-13.983-19.14" transform="translate(-8.805 -15.547)" fill="#c6684f"/>
            <path id="Trazado_1033232" data-name="Trazado 1033232" d="M233.315,261.181s16.783,54.705,1.547,95.46" transform="translate(-15.437 -17.28)" fill="none" stroke="#fff2e3" stroke-miterlimit="10" stroke-width="0.97"/>
            <path id="Trazado_1033233" data-name="Trazado 1033233" d="M174.822,14.23c-2.5,3.978-3.271,9.536-3.869,15.782,2.333-1.849,6-3.9,11.789-5.82,12-3.982,17.911-17.319,20.217-24.165-12.83-.457-22.547,5.325-28.137,14.2" transform="translate(-11.311 0)" fill="#541610"/>
            <path id="Trazado_1033234" data-name="Trazado 1033234" d="M0,273.422l2.852-1.848h79.7l34.415,67.368H44.286Z" transform="translate(0 -17.968)" fill="#b2b2b2"/>
            <rect id="Rectángulo_415310" data-name="Rectángulo 415310" width="122.597" height="7.382" transform="translate(33.116 320.974)" fill="#cecece"/>
            <path id="Trazado_1033235" data-name="Trazado 1033235" d="M80.905,273.553H0l33.116,65.52h80.9Z" transform="translate(0 -18.099)" fill="#cecece"/>
            <path id="Trazado_1033236" data-name="Trazado 1033236" d="M65.573,314.924c-3.168,4.345-10.036,4.735-15.341.868s-7.039-10.523-3.873-14.869,10.034-4.734,15.339-.868,7.041,10.523,3.874,14.869" transform="translate(-2.963 -19.676)" fill="#fff"/>
            <line id="Línea_930" data-name="Línea 930" x2="83.848" transform="translate(33.116 320.974)" fill="none" stroke="#b2b2b2" stroke-miterlimit="10" stroke-width="0.97"/>
            <rect id="Rectángulo_415311" data-name="Rectángulo 415311" width="57.526" height="7.382" transform="translate(116.965 320.974)" fill="#b2b2b2"/>
            <rect id="Rectángulo_415312" data-name="Rectángulo 415312" width="16.642" height="3.169" transform="translate(86.399 323.228)" fill="#b2b2b2"/>
            <rect id="Rectángulo_415313" data-name="Rectángulo 415313" width="8.717" height="3.169" transform="translate(120.926 323.228)" fill="#7a7774"/>
            <rect id="Rectángulo_415314" data-name="Rectángulo 415314" width="8.717" height="3.169" transform="translate(134.285 323.228)" fill="#7a7774"/>
            <path id="Trazado_1033237" data-name="Trazado 1033237" d="M273.677,349.747h42.831a12.217,12.217,0,1,0,0-24.435H273.677Z" transform="translate(-18.107 -21.523)" fill="#af1018"/>
            <path id="Trazado_1033238" data-name="Trazado 1033238" d="M273.677,349.747h42.831a12.217,12.217,0,1,0,0-24.435H273.677Z" transform="translate(-18.107 -21.523)" fill="#db5e1f"/>
            <path id="Trazado_1033239" data-name="Trazado 1033239" d="M270.666,347.956h-53.64v-19.4h53.64a9.206,9.206,0,0,1,9.206,9.206v.988a9.206,9.206,0,0,1-9.206,9.206" transform="translate(-14.359 -21.738)" fill="#fff"/>
            <path id="Trazado_1033240" data-name="Trazado 1033240" d="M270.666,328.556a9.2,9.2,0,0,1,9.2,9.186,9.19,9.19,0,0,0-8.986-7.272H217.026v-1.914Z" transform="translate(-14.359 -21.738)" fill="#d6c7b4"/>
            <g id="Grupo_1175259" data-name="Grupo 1175259" transform="translate(276.921 303.789)" opacity="0.35">
              <g id="Grupo_1175258" data-name="Grupo 1175258">
                <g id="Grupo_1175257" data-name="Grupo 1175257" clip-path="url(#clip-path-13)">
                  <path id="Trazado_1033241" data-name="Trazado 1033241" d="M308.758,337.529h0a12.218,12.218,0,0,0-12.217-12.217h8.078a12.217,12.217,0,1,1,0,24.435h-8.078a12.217,12.217,0,0,0,12.217-12.217" transform="translate(-296.541 -325.312)" fill="#590a06"/>
                </g>
              </g>
            </g>
            <path id="Trazado_1033242" data-name="Trazado 1033242" d="M222.213,341.343l2.251-.088c1.432-.037,3.478-.126,5.933-.167s5.318-.121,8.387-.139l9.616-.061,9.615.06c3.069.016,5.933.1,8.388.139s4.5.131,5.933.167l2.25.089-2.25.089c-1.432.036-3.479.127-5.933.167s-5.319.123-8.388.139l-9.615.06-9.616-.061c-3.069-.018-5.933-.1-8.387-.139s-4.5-.13-5.933-.167l-2.251-.088" transform="translate(-14.702 -22.554)" fill="#d3cabe"/>
            <path id="Trazado_1033243" data-name="Trazado 1033243" d="M217.364,338.911l2.251-.088c1.432-.037,3.478-.126,5.933-.167s5.318-.121,8.387-.139l9.616-.06,9.615.059c3.069.016,5.933.1,8.387.139s4.5.131,5.933.167l2.251.089-2.251.089c-1.432.036-3.478.127-5.933.167s-5.318.123-8.387.139l-9.615.06-9.616-.061c-3.069-.018-5.933-.1-8.387-.139s-4.5-.13-5.933-.167l-2.251-.088" transform="translate(-14.381 -22.393)" fill="#d3cabe"/>
            <path id="Trazado_1033244" data-name="Trazado 1033244" d="M219.721,334.312l2.251-.088c1.432-.037,3.478-.126,5.933-.167s5.318-.121,8.388-.139l9.615-.061,9.615.06c3.069.015,5.933.1,8.388.139s4.5.131,5.933.167l2.25.089-2.25.089c-1.432.036-3.479.127-5.933.167s-5.319.123-8.388.139l-9.615.059-9.615-.06c-3.07-.018-5.933-.1-8.388-.139s-4.5-.13-5.933-.167l-2.251-.088" transform="translate(-14.537 -22.089)" fill="#d3cabe"/>
            <path id="Trazado_1033245" data-name="Trazado 1033245" d="M268.828,346.717a9.188,9.188,0,1,0,0-18.376h-53.95v-3.029h54.2a12.217,12.217,0,1,1,0,24.435h-54.2v-3.029Z" transform="translate(-14.217 -21.523)" fill="#f27740"/>
            <g id="Grupo_1175262" data-name="Grupo 1175262" transform="translate(274.24 303.789)" opacity="0.2" style="mix-blend-mode: multiply;isolation: isolate">
              <g id="Grupo_1175261" data-name="Grupo 1175261">
                <g id="Grupo_1175260" data-name="Grupo 1175260" clip-path="url(#clip-path-14)">
                  <path id="Trazado_1033246" data-name="Trazado 1033246" d="M293.67,325.312h24.161a12.217,12.217,0,1,1,0,24.435c0-22.7-24.161-24.435-24.161-24.435" transform="translate(-293.67 -325.312)" fill="#560410"/>
                </g>
              </g>
            </g>
            <g id="Grupo_1175265" data-name="Grupo 1175265" transform="translate(215.89 303.789)" opacity="0.16" style="mix-blend-mode: multiply;isolation: isolate">
              <g id="Grupo_1175264" data-name="Grupo 1175264">
                <g id="Grupo_1175263" data-name="Grupo 1175263" clip-path="url(#clip-path-15)">
                  <path id="Trazado_1033247" data-name="Trazado 1033247" d="M235.688,325.312H270.16c.237,0,.473.008.706.021v-.021H313.7a12.217,12.217,0,1,1,0,24.435H270.866v-.021c-.233.013-.469.021-.706.021L231.186,325.72Z" transform="translate(-231.186 -325.312)" fill="#1b2942"/>
                </g>
              </g>
            </g>
            <path id="Trazado_1033248" data-name="Trazado 1033248" d="M269.931,306.031h30.248a8.628,8.628,0,1,0,0-17.256H269.931Z" transform="translate(-17.859 -19.106)" fill="#af1018"/>
            <path id="Trazado_1033249" data-name="Trazado 1033249" d="M269.931,306.031h30.248a8.628,8.628,0,1,0,0-17.256H269.931Z" transform="translate(-17.859 -19.106)" fill="#6fb590"/>
            <path id="Trazado_1033250" data-name="Trazado 1033250" d="M267.8,304.766H229.923v-13.7H267.8a6.5,6.5,0,0,1,6.5,6.5v.7a6.5,6.5,0,0,1-6.5,6.5" transform="translate(-15.212 -19.258)" fill="#fff"/>
            <path id="Trazado_1033251" data-name="Trazado 1033251" d="M267.8,291.065a6.5,6.5,0,0,1,6.5,6.487,6.49,6.49,0,0,0-6.346-5.135H229.923v-1.352Z" transform="translate(-15.212 -19.258)" fill="#d6c7b4"/>
            <g id="Grupo_1175268" data-name="Grupo 1175268" transform="translate(258.929 276.858)" opacity="0.49" style="mix-blend-mode: multiply;isolation: isolate">
              <g id="Grupo_1175267" data-name="Grupo 1175267">
                <g id="Grupo_1175266" data-name="Grupo 1175266" clip-path="url(#clip-path-16)">
                  <path id="Trazado_1033252" data-name="Trazado 1033252" d="M309.293,297.912a8.707,8.707,0,0,1-.159,1.633H277.274v-3.072h31.89a8.6,8.6,0,0,1,.13,1.439" transform="translate(-277.274 -296.473)" fill="#1b2942"/>
                </g>
              </g>
            </g>
            <path id="Trazado_1033253" data-name="Trazado 1033253" d="M266.507,303.892a6.489,6.489,0,0,0,0-12.978h-38.1v-2.139h38.28a8.628,8.628,0,0,1,0,17.256h-38.28v-2.139Z" transform="translate(-15.112 -19.106)" fill="#2d4f3b"/>
            <g id="Grupo_1175271" data-name="Grupo 1175271" transform="translate(265.258 269.668)" opacity="0.49" style="mix-blend-mode: multiply;isolation: isolate">
              <g id="Grupo_1175270" data-name="Grupo 1175270">
                <g id="Grupo_1175269" data-name="Grupo 1175269" clip-path="url(#clip-path-17)">
                  <path id="Trazado_1033254" data-name="Trazado 1033254" d="M284.051,288.774h17.062a8.628,8.628,0,1,1,0,17.256c0-16.031-17.062-17.256-17.062-17.256" transform="translate(-284.051 -288.774)" fill="#1b2942"/>
                </g>
              </g>
            </g>
            <path id="Trazado_1033255" data-name="Trazado 1033255" d="M234.615,301.7l1.5-.1c.952-.043,2.312-.146,3.945-.193s3.536-.134,5.576-.168,4.216-.052,6.392-.063c2.176.01,4.352.018,6.392.063s3.945.121,5.576.167,2.992.152,3.945.194l1.5.1-1.5.1c-.952.043-2.312.148-3.945.194s-3.536.136-5.576.167-4.216.052-6.392.063c-2.176-.011-4.353-.019-6.392-.063s-3.945-.121-5.576-.167-2.993-.151-3.945-.194l-1.5-.1" transform="translate(-15.523 -19.927)" fill="#d3cabe"/>
            <path id="Trazado_1033256" data-name="Trazado 1033256" d="M231.842,298.382l1.5-.044,3.945-.1,5.576-.081,6.392-.035,6.392.035,5.576.08c3.265.071,5.441.148,5.441.148s-2.176.078-5.441.148l-5.576.08-6.392.035-6.392-.036-5.576-.08-3.945-.1-1.5-.044" transform="translate(-15.339 -19.724)" fill="#d3cabe"/>
            <path id="Trazado_1033257" data-name="Trazado 1033257" d="M259.271,324.248H229.482a8.5,8.5,0,0,1,0-16.995h29.789Z" transform="translate(-14.621 -20.329)" fill="#af1018"/>
            <path id="Trazado_1033258" data-name="Trazado 1033258" d="M259.271,324.248H229.482a8.5,8.5,0,0,1,0-16.995h29.789Z" transform="translate(-14.621 -20.329)" fill="#fdb03e"/>
            <path id="Trazado_1033259" data-name="Trazado 1033259" d="M260.982,323h37.306V309.51H260.982a6.4,6.4,0,0,0-6.4,6.4v.687a6.4,6.4,0,0,0,6.4,6.4" transform="translate(-16.844 -20.478)" fill="#fff"/>
            <path id="Trazado_1033260" data-name="Trazado 1033260" d="M260.982,309.51a6.4,6.4,0,0,0-6.4,6.388,6.392,6.392,0,0,1,6.25-5.057h37.458V309.51Z" transform="translate(-16.844 -20.478)" fill="#d6c7b4"/>
            <path id="Trazado_1033261" data-name="Trazado 1033261" d="M232.593,315.751h0a8.5,8.5,0,0,1,8.5-8.5h-5.618a8.5,8.5,0,1,0,0,16.994h5.618a8.5,8.5,0,0,1-8.5-8.5" transform="translate(-15.017 -20.329)" fill="#bc8d2f"/>
            <path id="Trazado_1033262" data-name="Trazado 1033262" d="M262.085,322.141a6.39,6.39,0,1,1,0-12.781h37.522v-2.107h-37.7a8.5,8.5,0,1,0,0,16.994h37.7v-2.107Z" transform="translate(-16.766 -20.329)" fill="#bc8d2f"/>
            <g id="Grupo_1175274" data-name="Grupo 1175274" transform="translate(206.364 286.925)" opacity="0.2" style="mix-blend-mode: overlay;isolation: isolate">
              <g id="Grupo_1175273" data-name="Grupo 1175273">
                <g id="Grupo_1175272" data-name="Grupo 1175272" clip-path="url(#clip-path-18)">
                  <path id="Trazado_1033263" data-name="Trazado 1033263" d="M246.286,307.254h-16.8a8.5,8.5,0,0,0,0,16.995c0-15.788,16.8-16.995,16.8-16.995" transform="translate(-220.985 -307.254)" fill="#fefefe"/>
                </g>
              </g>
            </g>
            <path id="Trazado_1033264" data-name="Trazado 1033264" d="M260.243,320.057l1.557-.079c.992-.034,2.407-.114,4.106-.151s3.68-.11,5.8-.126l6.654-.054,6.653.054c2.124.013,4.105.091,5.8.125s3.113.119,4.105.151l1.557.08-1.557.08c-.992.033-2.406.115-4.105.151s-3.681.112-5.8.125l-6.653.054-6.654-.054c-2.124-.016-4.105-.092-5.8-.126s-3.114-.118-4.106-.151l-1.557-.079" transform="translate(-17.218 -21.149)" fill="#d3cabe"/>
            <path id="Trazado_1033265" data-name="Trazado 1033265" d="M257.87,318.164l1.558-.079c.991-.034,2.407-.114,4.105-.151s3.68-.11,5.8-.126l6.654-.054,6.653.054c2.124.013,4.105.091,5.8.125s3.114.119,4.105.151l1.557.08-1.557.08c-.991.033-2.406.115-4.105.151s-3.681.112-5.8.125l-6.653.054-6.654-.054c-2.124-.016-4.105-.092-5.8-.126s-3.114-.118-4.105-.151l-1.558-.079" transform="translate(-17.061 -21.023)" fill="#d3cabe"/>
            <path id="Trazado_1033266" data-name="Trazado 1033266" d="M261.364,313.641l1.558-.079c.991-.034,2.406-.114,4.105-.151s3.68-.11,5.8-.126l6.654-.054,6.653.054c2.124.013,4.105.091,5.8.125s3.115.119,4.106.151l1.557.08-1.557.08c-.991.033-2.406.115-4.106.151s-3.68.112-5.8.125l-6.653.054L272.831,314c-2.124-.016-4.105-.092-5.8-.126s-3.114-.118-4.105-.151l-1.558-.079" transform="translate(-17.293 -20.724)" fill="#d3cabe"/>
            <g id="Grupo_1175277" data-name="Grupo 1175277" transform="translate(249.125 286.925)" opacity="0.16" style="mix-blend-mode: multiply;isolation: isolate">
              <g id="Grupo_1175276" data-name="Grupo 1175276">
                <g id="Grupo_1175275" data-name="Grupo 1175275" clip-path="url(#clip-path-19)">
                  <path id="Trazado_1033267" data-name="Trazado 1033267" d="M300.49,307.254v2.107h-1.4v12.781h1.4v2.108h-5.655l-28.059-16.995Z" transform="translate(-266.776 -307.254)" fill="#1b2942"/>
                </g>
              </g>
            </g>
            <rect id="Rectángulo_415322" data-name="Rectángulo 415322" width="5.043" height="7.613" transform="translate(221.181 276.305)" fill="#f27740"/>
            <path id="Trazado_1033268" data-name="Trazado 1033268" d="M243.621,295.867s-.563.065-1.407.116c-.422.017-.914.054-1.442.063l-1.654.027-1.654-.027c-.528-.007-1.02-.046-1.442-.063-.844-.049-1.407-.116-1.407-.116s.563-.066,1.407-.116c.422-.017.914-.056,1.442-.063l1.654-.027,1.654.027c.528.008,1.02.046,1.442.063.844.05,1.407.116,1.407.116" transform="translate(-15.523 -19.562)" fill="#d3cabe"/>
            <path id="Trazado_1033269" data-name="Trazado 1033269" d="M379.846,196.222s-34.126,41.534-12.259,90.693c37.951-32.851,12.834-74.477,12.259-90.693" transform="translate(-23.836 -12.983)" fill="#599172"/>
            <path id="Trazado_1033270" data-name="Trazado 1033270" d="M380.318,196.222s-16.341,58.561-12.259,90.693" transform="translate(-24.308 -12.983)" fill="none" stroke="#427824" stroke-miterlimit="10" stroke-width="1"/>
            <path id="Trazado_1033271" data-name="Trazado 1033271" d="M371.873,235.645s8.248-7.032,15.522-8.288" transform="translate(-24.604 -15.043)" fill="none" stroke="#427824" stroke-miterlimit="10" stroke-width="1"/>
            <path id="Trazado_1033272" data-name="Trazado 1033272" d="M368.027,266.05a31.1,31.1,0,0,1,20.5-11.564" transform="translate(-24.35 -16.837)" fill="none" stroke="#427824" stroke-miterlimit="10" stroke-width="1"/>
            <path id="Trazado_1033273" data-name="Trazado 1033273" d="M369.526,248.676s-2.435-5.751-7.761-8.1" transform="translate(-23.935 -15.917)" fill="none" stroke="#427824" stroke-miterlimit="10" stroke-width="1"/>
            <path id="Trazado_1033274" data-name="Trazado 1033274" d="M374.688,221.658s-1.8-6.146-4.255-7.608" transform="translate(-24.509 -14.162)" fill="none" stroke="#427824" stroke-miterlimit="10" stroke-width="1"/>
            <path id="Trazado_1033275" data-name="Trazado 1033275" d="M338.916,198.863s-13.995,51.9,26.175,87.7c21.056-45.564-18.975-73.154-26.175-87.7" transform="translate(-22.267 -13.157)" fill="#6fb590"/>
            <path id="Trazado_1033276" data-name="Trazado 1033276" d="M339.083,198.863s9.224,60.094,26.175,87.7" transform="translate(-22.435 -13.157)" fill="none" stroke="#448260" stroke-miterlimit="10" stroke-width="1"/>
            <path id="Trazado_1033277" data-name="Trazado 1033277" d="M347.03,238.189s4.62-9.8,10.732-13.944" transform="translate(-22.96 -14.837)" fill="none" stroke="#448260" stroke-miterlimit="10" stroke-width="1"/>
            <path id="Trazado_1033278" data-name="Trazado 1033278" d="M356.141,267.334a31.1,31.1,0,0,1,13.921-18.98" transform="translate(-23.563 -16.432)" fill="none" stroke="#448260" stroke-miterlimit="10" stroke-width="1"/>
            <path id="Trazado_1033279" data-name="Trazado 1033279" d="M350.016,251.483s-4.587-4.237-10.407-4.183" transform="translate(-22.469 -16.362)" fill="none" stroke="#448260" stroke-miterlimit="10" stroke-width="1"/>
            <path id="Trazado_1033280" data-name="Trazado 1033280" d="M343.593,224.737s-4.174-4.858-7.01-5.181" transform="translate(-22.269 -14.526)" fill="none" stroke="#448260" stroke-miterlimit="10" stroke-width="1"/>
            <path id="Trazado_1033281" data-name="Trazado 1033281" d="M409.875,218.631s9.281-13.1,15.417-7.969-4.259,12.208-15.417,7.969" transform="translate(-27.118 -13.859)" fill="#417556"/>
            <path id="Trazado_1033282" data-name="Trazado 1033282" d="M398.4,253.364s.39-16.046,8.344-15.218,3.28,12.506-8.344,15.218" transform="translate(-26.359 -15.754)" fill="#417556"/>
            <path id="Trazado_1033283" data-name="Trazado 1033283" d="M396.256,215.23s.39-16.046,8.344-15.218,3.28,12.506-8.344,15.218" transform="translate(-26.217 -13.231)" fill="#417556"/>
            <path id="Trazado_1033284" data-name="Trazado 1033284" d="M381.834,265.963s-13.979-7.889-9.508-14.519,12.58,2.985,9.508,14.519" transform="translate(-24.576 -16.492)" fill="#417556"/>
            <path id="Trazado_1033285" data-name="Trazado 1033285" d="M379.919,292.687s15.505-9.9,9.38-35.916,18.055-37.331,23.379-39.457" transform="translate(-25.136 -14.378)" fill="none" stroke="#133f1a" stroke-linecap="round" stroke-miterlimit="10" stroke-width="2"/>
            <path id="Trazado_1033286" data-name="Trazado 1033286" d="M394.96,230.527s-.942-11.491,4.7-19.109" transform="translate(-26.128 -13.988)" fill="none" stroke="#133f1a" stroke-linecap="round" stroke-miterlimit="10" stroke-width="2"/>
            <path id="Trazado_1033287" data-name="Trazado 1033287" d="M389.964,258.779s9.166-2.519,12.58-11.105" transform="translate(-25.801 -16.387)" fill="none" stroke="#133f1a" stroke-linecap="round" stroke-miterlimit="10" stroke-width="2"/>
            <path id="Trazado_1033288" data-name="Trazado 1033288" d="M390.357,276.207s-8.573-5.32-11.062-18.039" transform="translate(-25.095 -17.081)" fill="none" stroke="#133f1a" stroke-linecap="round" stroke-miterlimit="10" stroke-width="2"/>
            <path id="Trazado_1033289" data-name="Trazado 1033289" d="M366.816,285.637H342.585s3.735,43.832,13.183,61.617h22.1c9.448-17.786,13.183-61.617,13.183-61.617Z" transform="translate(-22.666 -18.898)" fill="#2c4556"/>
            <g id="Grupo_1175280" data-name="Grupo 1175280" transform="translate(319.919 266.738)" opacity="0.45">
              <g id="Grupo_1175279" data-name="Grupo 1175279">
                <g id="Grupo_1175278" data-name="Grupo 1175278" clip-path="url(#clip-path-20)">
                  <path id="Trazado_1033290" data-name="Trazado 1033290" d="M342.585,285.637s3.735,43.832,13.183,61.617h11.243c-9.448-17.786-13.183-61.617-13.183-61.617Z" transform="translate(-342.585 -285.637)" fill="#1b2e38"/>
                </g>
              </g>
            </g>
            <path id="Trazado_1033291" data-name="Trazado 1033291" d="M342.585,285.637s.307,3.606.968,9.162h46.526c.66-5.556.968-9.162.968-9.162H342.585Z" transform="translate(-22.666 -18.898)" fill="#4b72b7"/>
            <path id="Trazado_1033292" data-name="Trazado 1033292" d="M379.317,358.056a6.436,6.436,0,0,1-6.436,6.436H28.321a6.436,6.436,0,1,1,0-12.872h344.56a6.436,6.436,0,0,1,6.436,6.436" transform="translate(-1.448 -23.264)" fill="#4b72b7"/>
            <g id="Grupo_1175283" data-name="Grupo 1175283" transform="translate(20.437 328.356)" opacity="0.52">
              <g id="Grupo_1175282" data-name="Grupo 1175282">
                <g id="Grupo_1175281" data-name="Grupo 1175281" clip-path="url(#clip-path-21)">
                  <path id="Trazado_1033293" data-name="Trazado 1033293" d="M167.612,358.056a6.436,6.436,0,0,1-6.436,6.436H28.321a6.436,6.436,0,1,1,0-12.872H161.176a6.436,6.436,0,0,1,6.436,6.436" transform="translate(-21.885 -351.62)" fill="#2c4556"/>
                </g>
              </g>
            </g>
          </g>
        </g>
        <path id="Trazado_1033294" data-name="Trazado 1033294" d="M41.363-7H39.247V3.036h2.116V1.042a4.531,4.531,0,0,0,3.831,2.274,4.4,4.4,0,0,0,3.387-1.557,5.445,5.445,0,0,0,1.4-3.783A5.328,5.328,0,0,0,48.57-5.7a4.345,4.345,0,0,0-3.327-1.575,4.233,4.233,0,0,0-2.238.645,4.586,4.586,0,0,0-1.642,1.678Zm-.292,5.048A3.2,3.2,0,0,1,42.058-4.3a3.238,3.238,0,0,1,2.364-.979,3.247,3.247,0,0,1,2.34.973,3.09,3.09,0,0,1,1,2.287A3.334,3.334,0,0,1,46.786.4a3.183,3.183,0,0,1-2.364,1A3.218,3.218,0,0,1,42.058.4,3.222,3.222,0,0,1,41.071-1.951ZM28.867-16.31H26.775v7.736a4.266,4.266,0,0,0-3.868-2.262,4.439,4.439,0,0,0-3.375,1.557,5.283,5.283,0,0,0-1.429,3.7,5.49,5.49,0,0,0,1.4,3.74,4.249,4.249,0,0,0,3.278,1.6,4.4,4.4,0,0,0,2.287-.645,4.647,4.647,0,0,0,1.7-1.751V-.522h2.092ZM20.341-5.582a3.2,3.2,0,0,1,.985-2.353,3.257,3.257,0,0,1,2.384-.979,3.2,3.2,0,0,1,2.341.991,3.2,3.2,0,0,1,.991,2.341A3.192,3.192,0,0,1,26.051-3.2a3.358,3.358,0,0,1-2.439.967,3.118,3.118,0,0,1-2.3-.985A3.25,3.25,0,0,1,20.341-5.582ZM1.046-.029v2.42a6.317,6.317,0,0,0,3.138.924A4.994,4.994,0,0,0,7.827,1.753,4.967,4.967,0,0,0,9.39-1.865,5.22,5.22,0,0,0,7.833-5.739a5.329,5.329,0,0,0-3.9-1.539,6.513,6.513,0,0,0-2.883.73v2.36A5.637,5.637,0,0,1,4.062-5.21a3.254,3.254,0,0,1,2.3.924,2.88,2.88,0,0,1,.985,2.165A3.253,3.253,0,0,1,6.422.233a3.028,3.028,0,0,1-2.262.955A5.682,5.682,0,0,1,1.046-.029Z" transform="translate(66.203 75.901)" fill="#fff"/>
      </g>
    </g>
  </g>
</svg>
