<svg xmlns="http://www.w3.org/2000/svg" xmlns:xlink="http://www.w3.org/1999/xlink" width="113" height="113" viewBox="0 0 113 113">
  <defs>
    <filter id="Trazado_982547" x="0" y="0" width="113" height="113" filterUnits="userSpaceOnUse">
      <feOffset dy="3" input="SourceAlpha"/>
      <feGaussianBlur stdDeviation="3" result="blur"/>
      <feFlood flood-opacity="0.161"/>
      <feComposite operator="in" in2="blur"/>
      <feComposite in="SourceGraphic"/>
    </filter>
  </defs>
  <g id="Grupo_1175227" data-name="Grupo 1175227" transform="translate(-271.5 -2607.015)">
    <g id="Grupo_1173988" data-name="Grupo 1173988" transform="translate(280.5 2613.015)">
      <g id="Grupo_1172010" data-name="Grupo 1172010">
        <g id="Grupo_1171046" data-name="Grupo 1171046">
          <g id="Grupo_1148525" data-name="Grupo 1148525">
            <g transform="matrix(1, 0, 0, 1, -9, -6)" filter="url(#Trazado_982547)">
              <g id="Trazado_982547-2" data-name="Trazado 982547" transform="translate(9 6)" fill="#f4fdfe">
                <path d="M 47.5 93.5 C 41.28937149047852 93.5 35.26533508300781 92.28397369384766 29.59518623352051 89.88570404052734 C 24.11771965026855 87.56893157958984 19.19813346862793 84.25196075439453 14.97309303283691 80.02691650390625 C 10.74804019927979 75.80186462402344 7.431066513061523 70.88229370117188 5.114293098449707 65.40481567382812 C 2.716026782989502 59.73468017578125 1.5 53.71062850952148 1.5 47.5 C 1.5 41.28937149047852 2.716026782989502 35.26533508300781 5.114293098449707 29.59518623352051 C 7.431066513061523 24.11771965026855 10.74804019927979 19.19813346862793 14.97309303283691 14.97309303283691 C 19.19813346862793 10.74804019927979 24.11771965026855 7.431066513061523 29.59518623352051 5.114293098449707 C 35.26533508300781 2.716026782989502 41.28937149047852 1.5 47.5 1.5 C 53.71062850952148 1.5 59.73468017578125 2.716026782989502 65.40481567382812 5.114293098449707 C 70.88229370117188 7.431066513061523 75.80186462402344 10.74804019927979 80.02691650390625 14.97309303283691 C 84.25196075439453 19.19813346862793 87.56893157958984 24.11771965026855 89.88570404052734 29.59518623352051 C 92.28397369384766 35.26533508300781 93.5 41.28937149047852 93.5 47.5 C 93.5 53.71062850952148 92.28397369384766 59.73468017578125 89.88570404052734 65.40481567382812 C 87.56893157958984 70.88229370117188 84.25196075439453 75.80186462402344 80.02691650390625 80.02691650390625 C 75.80186462402344 84.25196075439453 70.88229370117188 87.56893157958984 65.40481567382812 89.88570404052734 C 59.73468017578125 92.28397369384766 53.71062850952148 93.5 47.5 93.5 Z" stroke="none"/>
                <path d="M 47.5 3 C 41.49121475219727 3 35.66376876831055 4.176155090332031 30.17950439453125 6.495796203613281 C 24.88084411621094 8.736953735351562 20.12152099609375 11.94598388671875 16.03375244140625 16.03375244140625 C 11.94598388671875 20.12152099609375 8.736953735351562 24.88084411621094 6.495796203613281 30.17950439453125 C 4.176155090332031 35.66376876831055 3 41.49121475219727 3 47.5 C 3 53.50878524780273 4.176155090332031 59.33623123168945 6.495796203613281 64.82049560546875 C 8.736953735351562 70.11915588378906 11.94598388671875 74.87847900390625 16.03375244140625 78.96624755859375 C 20.12152099609375 83.05401611328125 24.88084411621094 86.26304626464844 30.17950439453125 88.50419616699219 C 35.66376876831055 90.82384490966797 41.49121475219727 92 47.5 92 C 53.50878524780273 92 59.33623123168945 90.82384490966797 64.82049560546875 88.50419616699219 C 70.11915588378906 86.26304626464844 74.87847900390625 83.05401611328125 78.96624755859375 78.96624755859375 C 83.05401611328125 74.87847900390625 86.26304626464844 70.11915588378906 88.50419616699219 64.82049560546875 C 90.82384490966797 59.33623123168945 92 53.50878524780273 92 47.5 C 92 41.49121475219727 90.82384490966797 35.66376876831055 88.50419616699219 30.17950439453125 C 86.26304626464844 24.88084411621094 83.05401611328125 20.12152099609375 78.96624755859375 16.03375244140625 C 74.87847900390625 11.94598388671875 70.11915588378906 8.736953735351562 64.82049560546875 6.495796203613281 C 59.33623123168945 4.176155090332031 53.50878524780273 3 47.5 3 M 47.5 0 C 73.7335205078125 0 95 21.2664794921875 95 47.5 C 95 73.7335205078125 73.7335205078125 95 47.5 95 C 21.2664794921875 95 0 73.7335205078125 0 47.5 C 0 21.2664794921875 21.2664794921875 0 47.5 0 Z" stroke="none" fill="#56838a"/>
              </g>
            </g>
          </g>
        </g>
      </g>
    </g>
    <g id="zookeeper_4633180" transform="translate(297 2629.516)">
      <g id="Grupo_1176271" data-name="Grupo 1176271">
        <g id="Grupo_1176252" data-name="Grupo 1176252">
          <path id="Trazado_1033805" data-name="Trazado 1033805" d="M25,5h2A14.01,14.01,0,0,1,40.42,15H28.61C27,7.249,21,5,21,5Z" fill="#ef7385"/>
        </g>
        <g id="Grupo_1176253" data-name="Grupo 1176253">
          <path id="Trazado_1033806" data-name="Trazado 1033806" d="M17,5h4s-8,3-8,14H1A14,14,0,0,1,15,5Z" fill="#ef7385"/>
        </g>
        <g id="Grupo_1176254" data-name="Grupo 1176254">
          <path id="Trazado_1033807" data-name="Trazado 1033807" d="M25,3V5H17V3a2.006,2.006,0,0,1,2-2h4A2.006,2.006,0,0,1,25,3Z" fill="#ed5565"/>
        </g>
        <g id="Grupo_1176255" data-name="Grupo 1176255">
          <path id="Trazado_1033808" data-name="Trazado 1033808" d="M28.61,15H19a2.006,2.006,0,0,0-2,2v2H13C13,8,21,5,21,5s6,2.25,7.61,10Z" fill="#ed5565"/>
        </g>
        <g id="Grupo_1176256" data-name="Grupo 1176256">
          <path id="Trazado_1033809" data-name="Trazado 1033809" d="M41,15v4H17V17a2.006,2.006,0,0,1,2-2H41Z" fill="#ed5565"/>
        </g>
        <g id="Grupo_1176257" data-name="Grupo 1176257">
          <path id="Trazado_1033810" data-name="Trazado 1033810" d="M41,36.379v.01a13.717,13.717,0,0,0-6.53,7.34L34,45l4.43,1.85-2.87,6.46a3.083,3.083,0,0,0-1.41,1.4L34,55l-3.89-.33a8.191,8.191,0,0,1-1.64-.31l.99-3.48a5.565,5.565,0,0,0,.22-1.57,5.8,5.8,0,0,0-.41-2.13,5.722,5.722,0,0,0-4.68-3.56L19,43h4A12,12,0,0,0,35,31V23a4,4,0,0,0-4-4H41v17.38Z" fill="#fcd770"/>
        </g>
        <g id="Grupo_1176258" data-name="Grupo 1176258">
          <path id="Trazado_1033811" data-name="Trazado 1033811" d="M7,31a11.994,11.994,0,0,0,11.38,11.98V43h-.22A4.18,4.18,0,0,0,14,47.179,13.72,13.72,0,0,0,14.54,51H12.39a6.214,6.214,0,0,1-6.15-5.34L6,44a6.213,6.213,0,0,1-5-6.1V19H11a4,4,0,0,0-4,4Z" fill="#fcd770"/>
        </g>
        <g id="Grupo_1176259" data-name="Grupo 1176259">
          <path id="Trazado_1033812" data-name="Trazado 1033812" d="M19,43l5.59.62a5.722,5.722,0,0,1,4.68,3.56,5.8,5.8,0,0,1,.41,2.13,5.565,5.565,0,0,1-.22,1.57l-.99,3.48a8.492,8.492,0,0,1-6.11-7.4l-.02-.22A4.061,4.061,0,0,0,18.38,43v-.02c.21.01.41.02.62.02Z" fill="#4fc1e9"/>
        </g>
        <g id="Grupo_1176260" data-name="Grupo 1176260">
          <path id="Trazado_1033813" data-name="Trazado 1033813" d="M18.38,43a4.061,4.061,0,0,1,3.96,3.74l.02.22a8.492,8.492,0,0,0,6.11,7.4,8.191,8.191,0,0,0,1.64.31L34,55v6H27.8A13.826,13.826,0,0,1,14,47.179,4.18,4.18,0,0,1,18.16,43h.12Z" fill="#4fc1e9"/>
        </g>
        <g id="Grupo_1176261" data-name="Grupo 1176261">
          <path id="Trazado_1033814" data-name="Trazado 1033814" d="M40,57v.91A3.083,3.083,0,0,1,36.92,61H34V55l.15-.29A3.085,3.085,0,0,1,40,56.089Z" fill="#f0d0b4"/>
        </g>
        <g id="Grupo_1176262" data-name="Grupo 1176262">
          <path id="Trazado_1033815" data-name="Trazado 1033815" d="M13,19H31a4,4,0,0,1,4,4v8A12,12,0,0,1,23,43H19c-.21,0-.41-.01-.62-.02A11.994,11.994,0,0,1,7,31V23a4,4,0,0,1,4-4h2Z" fill="#f0d0b4"/>
        </g>
        <g id="Grupo_1176263" data-name="Grupo 1176263">
          <path id="Trazado_1033816" data-name="Trazado 1033816" d="M26,33v1a5,5,0,0,1-10,0V33Z" fill="#ef7385"/>
        </g>
        <g id="Grupo_1176264" data-name="Grupo 1176264">
          <path id="Trazado_1033817" data-name="Trazado 1033817" d="M43,48.749V57H40v-.91a3.081,3.081,0,0,0-.53-1.74l2.66-5.96Z" fill="#b27946"/>
        </g>
        <g id="Grupo_1176265" data-name="Grupo 1176265">
          <path id="Trazado_1033818" data-name="Trazado 1033818" d="M51,44V57H47v-9.67l.3-.79A13.433,13.433,0,0,0,47.98,44Z" fill="#b27946"/>
        </g>
        <g id="Grupo_1176266" data-name="Grupo 1176266">
          <path id="Trazado_1033819" data-name="Trazado 1033819" d="M55,44h4V57H55Z" fill="#b27946"/>
        </g>
        <g id="Grupo_1176267" data-name="Grupo 1176267">
          <path id="Trazado_1033820" data-name="Trazado 1033820" d="M52.9,29.489l-.28,1.41A5.431,5.431,0,0,1,49,35l-.85,5.96a13.666,13.666,0,0,0-.68-3.56l-.1-.28a2.847,2.847,0,0,0-2.7-1.95,2.724,2.724,0,0,0-.69.09A13.191,13.191,0,0,0,41,36.389V14.2A1.2,1.2,0,0,1,42.2,13a10.231,10.231,0,0,1,6.08,2H53a8,8,0,0,1,8,8V34a6,6,0,0,1-6,6,1,1,0,0,1-1-1V37a1,1,0,0,1,1-1,2.015,2.015,0,0,0,2-2V30l-4.03-.5c-.02,0-.05-.01-.07-.01Z" fill="#969faa"/>
        </g>
        <g id="Grupo_1176268" data-name="Grupo 1176268">
          <path id="Trazado_1033821" data-name="Trazado 1033821" d="M47.98,44a13.433,13.433,0,0,1-.68,2.54l-.3.79v.01L46,50l-1-6a6.835,6.835,0,0,0-4.83-2H40l-6,3,.47-1.27A13.717,13.717,0,0,1,41,36.389a13.191,13.191,0,0,1,2.98-1.13,2.724,2.724,0,0,1,.69-.09,2.847,2.847,0,0,1,2.7,1.95l.1.28a13.666,13.666,0,0,1,.68,3.56A13.435,13.435,0,0,1,47.98,44Z" fill="#ccd1d9"/>
        </g>
        <g id="Grupo_1176269" data-name="Grupo 1176269">
          <path id="Trazado_1033822" data-name="Trazado 1033822" d="M45,44l1,6-3-1.25-.87-.36-3.7-1.54L34,45l6-3h.17A6.835,6.835,0,0,1,45,44Z" fill="#aab2bd"/>
        </g>
        <g id="Grupo_1176270" data-name="Grupo 1176270">
          <path id="Trazado_1033823" data-name="Trazado 1033823" d="M42.13,48.389l-2.66,5.96a3.1,3.1,0,0,0-3.91-1.04l2.87-6.46Z" fill="#969faa"/>
        </g>
      </g>
      <g id="Grupo_1176272" data-name="Grupo 1176272">
        <path id="Trazado_1033824" data-name="Trazado 1033824" d="M12,27a2,2,0,0,1,4,0v1h2V27a4,4,0,0,0-8,0v1h2Z"/>
        <path id="Trazado_1033825" data-name="Trazado 1033825" d="M26,27a2,2,0,0,1,4,0v1h2V27a4,4,0,0,0-8,0v1h2Z"/>
        <path id="Trazado_1033826" data-name="Trazado 1033826" d="M15,34a6,6,0,0,0,12,0V32H15Zm10,0a4,4,0,0,1-8,0Z"/>
        <path id="Trazado_1033827" data-name="Trazado 1033827" d="M19,10h4v2H19Z"/>
        <path id="Trazado_1033828" data-name="Trazado 1033828" d="M55,35a2,2,0,0,0-2,2v2a2,2,0,0,0,2,2,7.009,7.009,0,0,0,7-7V23a9.01,9.01,0,0,0-9-9H48.553A11.251,11.251,0,0,0,42.2,12a2.19,2.19,0,0,0-1.6.7A15.1,15.1,0,0,0,27,4H26V3a3,3,0,0,0-3-3H19a3,3,0,0,0-3,3V4H15A15.017,15.017,0,0,0,0,19V37.9a7.239,7.239,0,0,0,5.1,6.9l.143,1A7.255,7.255,0,0,0,12.394,52H13.82a14.831,14.831,0,0,0,13.982,10l9.112,0a4.087,4.087,0,0,0,4.076-4H62V56H60V45h2V43H49.1a14.841,14.841,0,0,0,.039-1.921l.765-5.36A6.461,6.461,0,0,0,53.6,31.094l.1-.5,2.3.288V34A1,1,0,0,1,55,35ZM36.4,44.917,40.236,43a5.877,5.877,0,0,1,3.833,1.495l.648,3.887Zm4.4,4-1.667,3.751a4.055,4.055,0,0,0-1.907-.633l1.727-3.887Zm-.215,5.411L42,51.137V56H40.991A4.056,4.056,0,0,0,40.583,54.325ZM44,50.249l2,.833V56H44Zm2.373-4.1-.439-2.634-.227-.227A7.883,7.883,0,0,0,40.172,41h-.408l-3.83,1.915a12.689,12.689,0,0,1,8.285-6.69,1.852,1.852,0,0,1,2.206,1.212l.094.279A12.742,12.742,0,0,1,46.373,46.153ZM33.538,43.382l-.813,2.169L37.1,47.376,34.783,52.6a4.066,4.066,0,0,0-1.361,1.35l-3.229-.275c-.16-.014-.316-.038-.472-.062l.7-2.455a6.7,6.7,0,0,0-3.381-7.808A13.018,13.018,0,0,0,36,31V23a4.948,4.948,0,0,0-1.026-3H40V35.81A14.676,14.676,0,0,0,33.538,43.382ZM8,23a3,3,0,0,1,3-3H31a3,3,0,0,1,3,3v8A11.013,11.013,0,0,1,23,42H19A11.013,11.013,0,0,1,8,31ZM21,6.094A12.594,12.594,0,0,1,27.327,14H19a3,3,0,0,0-3,3v1H14.044C14.443,9.808,19.575,6.773,21,6.094ZM40,16v2H18V17a1,1,0,0,1,1-1ZM24.481,44.615A4.722,4.722,0,0,1,28.5,50.606l-.7,2.45a7.5,7.5,0,0,1-4.446-6.189l-.021-.223A5.142,5.142,0,0,0,22.57,44.4ZM38.994,14H29.388A15.043,15.043,0,0,0,24.47,6H27a13.086,13.086,0,0,1,11.994,8ZM18,3a1,1,0,0,1,1-1h4a1,1,0,0,1,1,1V4H18ZM15,6h2.523c-2.356,1.953-5.2,5.629-5.478,12H2.038A13.018,13.018,0,0,1,15,6ZM12.4,50a5.245,5.245,0,0,1-5.167-4.481l-.338-2.36L6.2,43.019A5.235,5.235,0,0,1,2,37.9V20H7.026A4.948,4.948,0,0,0,6,23v8a13.012,13.012,0,0,0,8.8,12.29A5.147,5.147,0,0,0,13,47.18,14.787,14.787,0,0,0,13.277,50H12.4ZM15,47.181A3.186,3.186,0,0,1,18.165,44H18.3a3.063,3.063,0,0,1,3.043,2.826l.021.223a9.5,9.5,0,0,0,8.662,8.614L33,55.918V60l-5.193,0A12.832,12.832,0,0,1,15,47.181ZM39,57.908A2.091,2.091,0,0,1,36.915,60H35V55.237l.042-.083a2.091,2.091,0,0,1,3.96.937ZM52,56V45h2V56Zm6,0H56V45h2ZM50,45V56H48V47.515l.234-.625A14.459,14.459,0,0,0,48.787,45H50Zm3.093-16.5A3.537,3.537,0,0,1,50,25H48a5.536,5.536,0,0,0,3.736,5.222l-.1.481a4.458,4.458,0,0,1-2.956,3.348l-.586.2L47.861,35.9a3.792,3.792,0,0,0-4.127-1.615A14.514,14.514,0,0,0,42,34.836V23.979c.067.006.132.02.2.02h1.557a11.169,11.169,0,0,0,7.949-3.293l-1.414-1.414A9.18,9.18,0,0,1,43.758,22H42.2a.2.2,0,0,1-.2-.2V14.2a.2.2,0,0,1,.2-.2,9.293,9.293,0,0,1,7.928,4.491l.017.027,1.695-1.061A11.012,11.012,0,0,0,50.775,16H53a7.009,7.009,0,0,1,7,7V34a5.006,5.006,0,0,1-5,5V37a3,3,0,0,0,3-3V29.115Z"/>
        <circle id="Elipse_12381" data-name="Elipse 12381" cx="1" cy="1" r="1" transform="translate(55 21.999)"/>
      </g>
    </g>
  </g>
</svg>
