<svg xmlns="http://www.w3.org/2000/svg" xmlns:xlink="http://www.w3.org/1999/xlink" width="103" height="103" viewBox="0 0 103 103">
  <defs>
    <filter id="Trazado_978624" x="0" y="0" width="103" height="103" filterUnits="userSpaceOnUse">
      <feOffset dy="3" input="SourceAlpha"/>
      <feGaussianBlur stdDeviation="3" result="blur"/>
      <feFlood flood-opacity="0.161"/>
      <feComposite operator="in" in2="blur"/>
      <feComposite in="SourceGraphic"/>
    </filter>
  </defs>
  <g id="Grupo_1176121" data-name="Grupo 1176121" transform="translate(-171 -2866)">
    <g id="Grupo_1175148" data-name="Grupo 1175148" transform="translate(0 1580)">
      <g id="Grupo_1173798" data-name="Grupo 1173798" transform="translate(-3 -3520)">
        <g id="Grupo_1171925" data-name="Grupo 1171925" transform="translate(-22 -2246)">
          <g id="Grupo_1164524" data-name="Grupo 1164524" transform="translate(205 7058)">
            <g id="Grupo_1144123" data-name="Grupo 1144123">
              <g transform="matrix(1, 0, 0, 1, -9, -6)" filter="url(#Trazado_978624)">
                <g id="Trazado_978624-2" data-name="Trazado 978624" transform="translate(9 6)" fill="#ebe9f0">
                  <path d="M 42.5 83.5 C 36.96437835693359 83.5 31.59512901306152 82.41617584228516 26.54141235351562 80.27863311767578 C 21.65934181213379 78.21369171142578 17.27447128295898 75.25723266601562 13.50862312316895 71.49137878417969 C 9.742764472961426 67.72553253173828 6.786305904388428 63.34066009521484 4.721364498138428 58.45858764648438 C 2.583823442459106 53.40486907958984 1.5 48.03562164306641 1.5 42.5 C 1.5 36.96437835693359 2.583823442459106 31.59512901306152 4.721364498138428 26.54141235351562 C 6.786305904388428 21.65934181213379 9.742764472961426 17.27447128295898 13.50862312316895 13.50862312316895 C 17.27447128295898 9.742764472961426 21.65934181213379 6.786305904388428 26.54141235351562 4.721364498138428 C 31.59512901306152 2.583823442459106 36.96437835693359 1.5 42.5 1.5 C 48.03562164306641 1.5 53.40486907958984 2.583823442459106 58.45858764648438 4.721364498138428 C 63.34066009521484 6.786305904388428 67.72553253173828 9.742764472961426 71.49137878417969 13.50862312316895 C 75.25723266601562 17.27447128295898 78.21369171142578 21.65934181213379 80.27863311767578 26.54141235351562 C 82.41617584228516 31.59512901306152 83.5 36.96437835693359 83.5 42.5 C 83.5 48.03562164306641 82.41617584228516 53.40486907958984 80.27863311767578 58.45858764648438 C 78.21369171142578 63.34066009521484 75.25723266601562 67.72553253173828 71.49137878417969 71.49137878417969 C 67.72553253173828 75.25723266601562 63.34066009521484 78.21369171142578 58.45858764648438 80.27863311767578 C 53.40486907958984 82.41617584228516 48.03562164306641 83.5 42.5 83.5 Z" stroke="none"/>
                  <path d="M 42.5 3 C 37.16621398925781 3 31.99356079101562 4.043960571289062 27.125732421875 6.102882385253906 C 22.42246627807617 8.092185974121094 18.19785308837891 10.94070434570312 14.56928253173828 14.56928253173828 C 10.94070434570312 18.19785308837891 8.092185974121094 22.42246627807617 6.102882385253906 27.125732421875 C 4.043960571289062 31.99356079101562 3 37.16621398925781 3 42.5 C 3 47.83378601074219 4.043960571289062 53.00643920898438 6.102882385253906 57.87425231933594 C 8.092185974121094 62.57753372192383 10.94070434570312 66.80213165283203 14.56928253173828 70.43071746826172 C 18.19786834716797 74.05929565429688 22.42246627807617 76.90781402587891 27.125732421875 78.89711761474609 C 31.99356079101562 80.95603942871094 37.16621398925781 82 42.5 82 C 47.83378601074219 82 53.00642395019531 80.95603942871094 57.87425231933594 78.89711761474609 C 62.57753372192383 76.90781402587891 66.80213165283203 74.05929565429688 70.43071746826172 70.43071746826172 C 74.05929565429688 66.80213165283203 76.90781402587891 62.57753372192383 78.89711761474609 57.87425231933594 C 80.95603942871094 53.00642395019531 82 47.83378601074219 82 42.5 C 82 37.16621398925781 80.95603942871094 31.99356079101562 78.89711761474609 27.125732421875 C 76.90781402587891 22.42246627807617 74.05929565429688 18.19786834716797 70.43071746826172 14.56928253173828 C 66.80213165283203 10.94070434570312 62.57753372192383 8.092185974121094 57.87425231933594 6.102882385253906 C 53.00643920898438 4.043960571289062 47.83378601074219 3 42.5 3 M 42.5 0 C 65.97209167480469 0 85 19.02789306640625 85 42.5 C 85 65.97209167480469 65.97209167480469 85 42.5 85 C 19.02789306640625 85 0 65.97209167480469 0 42.5 C 0 19.02789306640625 19.02789306640625 0 42.5 0 Z" stroke="none" fill="#c6c0d6"/>
                </g>
              </g>
            </g>
          </g>
        </g>
      </g>
    </g>
    <g id="brain_10491723" transform="translate(193.61 2885.61)">
      <g id="Grupo_1176119" data-name="Grupo 1176119" transform="translate(0.851 0.851)">
        <g id="Grupo_1176105" data-name="Grupo 1176105" transform="translate(18.728)">
          <path id="Trazado_1033764" data-name="Trazado 1033764" d="M194.237,20.181a5.51,5.51,0,0,0-3.247,2.783l-.18.36h-1.7a3.4,3.4,0,0,0-3.405,3.405l-.579-.868a6.693,6.693,0,0,1,.215-7.727l1.215-1.621-.131-.044A3.543,3.543,0,0,1,184,13.108a5.449,5.449,0,0,0,4.188-1.962l.305-.365A7.726,7.726,0,0,1,198.716,9.3l.608.4.828-.552A6.85,6.85,0,0,1,203.944,8h.009a6.793,6.793,0,0,1,6.665,5.482l.138.7a7.665,7.665,0,0,0,2.1,3.94l.094.094a5.758,5.758,0,0,1,1.7,4.1,6.16,6.16,0,0,1-1.035,3.4l-.67,1a3.4,3.4,0,0,0-3.405-3.405h-1.7l-.18-.36a5.51,5.51,0,0,0-3.779-2.924h0a3.456,3.456,0,0,1-2.907,1.582h-2.3a3.078,3.078,0,0,0-2.755,1.7,3.078,3.078,0,0,1-1.7-2.755,3.606,3.606,0,0,1,.021-.387Z" transform="translate(-184 -8)" fill="#656d78"/>
        </g>
        <g id="Grupo_1176106" data-name="Grupo 1176106" transform="translate(25.539 33.819)">
          <path id="Trazado_1033765" data-name="Trazado 1033765" d="M256.512,332.146a13.353,13.353,0,0,1-1.489,1.389l-.213.17v9.364H248V326.149l1.811-.339a16.144,16.144,0,0,0,1.594,5.341,5.812,5.812,0,0,1,3.21-1.632A13.539,13.539,0,0,0,256.512,332.146Z" transform="translate(-248 -325.81)" fill="#b4dd7f"/>
        </g>
        <g id="Grupo_1176107" data-name="Grupo 1176107" transform="translate(32.349 33.819)">
          <path id="Trazado_1033766" data-name="Trazado 1033766" d="M313.7,332.146a13.413,13.413,0,0,0,1.9-2.627h0a5.812,5.812,0,0,1,3.21,1.632,16.144,16.144,0,0,0,1.594-5.341l3.38.633a8.514,8.514,0,0,1,6.944,8.367v8.259h-6.81a3.405,3.405,0,1,0-3.405-3.405,3.406,3.406,0,0,0,3.405,3.405H312V333.7l.213-.17A13.359,13.359,0,0,0,313.7,332.146Z" transform="translate(-312 -325.81)" fill="#b4dd7f"/>
        </g>
        <g id="Grupo_1176108" data-name="Grupo 1176108" transform="translate(35.948 33.201)">
          <path id="Trazado_1033767" data-name="Trazado 1033767" d="M347.329,320l3.3.618a16.144,16.144,0,0,1-1.594,5.341,5.812,5.812,0,0,0-3.21-1.632h0A13.506,13.506,0,0,0,347.329,320Z" transform="translate(-345.82 -320)" fill="#a0d468"/>
        </g>
        <g id="Grupo_1176109" data-name="Grupo 1176109" transform="translate(27.35 33.201)">
          <path id="Trazado_1033768" data-name="Trazado 1033768" d="M268.317,320a13.548,13.548,0,0,0,1.508,4.327,5.812,5.812,0,0,0-3.21,1.632,16.145,16.145,0,0,1-1.594-5.341Z" transform="translate(-265.02 -320)" fill="#a0d468"/>
        </g>
        <g id="Grupo_1176110" data-name="Grupo 1176110" transform="translate(40.699 44.068)">
          <ellipse id="Elipse_12377" data-name="Elipse 12377" cx="3.5" cy="3" rx="3.5" ry="3" transform="translate(-0.16 0.471)" fill="#ccd1d9"/>
        </g>
        <g id="Grupo_1176111" data-name="Grupo 1176111" transform="translate(1.703 25.539)">
          <path id="Trazado_1033769" data-name="Trazado 1033769" d="M29.108,266.728a1.7,1.7,0,0,0-1.7-1.7H24V248.851a.851.851,0,0,1,.851-.851H46.985a.852.852,0,0,1,.825.638.877.877,0,0,1,.027.213v24.688H27.405a1.7,1.7,0,0,0,1.7-1.7Z" transform="translate(-24 -248)" fill="#e6e9ed"/>
        </g>
        <g id="Grupo_1176112" data-name="Grupo 1176112" transform="translate(0 42.565)">
          <path id="Trazado_1033770" data-name="Trazado 1033770" d="M14.81,409.7v5.108a1.7,1.7,0,0,1-1.7,1.7H9.7a1.7,1.7,0,0,1-1.7-1.7V409.7A1.7,1.7,0,0,1,9.7,408h3.405A1.7,1.7,0,0,1,14.81,409.7Z" transform="translate(-8 -408)" fill="#f0d0b4"/>
        </g>
        <g id="Grupo_1176113" data-name="Grupo 1176113" transform="translate(42.565 15.323)">
          <path id="Trazado_1033771" data-name="Trazado 1033771" d="M408,157.108V152h1.7a3.405,3.405,0,1,1,0,6.81H408Z" transform="translate(-408 -152)" fill="#f0d0b4"/>
        </g>
        <g id="Grupo_1176114" data-name="Grupo 1176114" transform="translate(25.539 12.038)">
          <path id="Trazado_1033772" data-name="Trazado 1033772" d="M265.026,131.225v2.484a6.111,6.111,0,0,1-5.108,6.029v2.554a13.545,13.545,0,0,1-3.406,6.954,13.545,13.545,0,0,1-3.4-6.954v-2.554A6.105,6.105,0,0,1,248,133.709v-9.294l.18-.36a5.51,5.51,0,0,1,3.247-2.783,3.6,3.6,0,0,0-.021.387,3.078,3.078,0,0,0,1.7,2.755,3.078,3.078,0,0,1,2.755-1.7h2.3a3.456,3.456,0,0,0,2.907-1.582h0a5.51,5.51,0,0,1,3.779,2.924l.18.36v6.81Z" transform="translate(-248 -121.13)" fill="#f0d0b4"/>
        </g>
        <g id="Grupo_1176115" data-name="Grupo 1176115" transform="translate(20.431 15.323)">
          <path id="Trazado_1033773" data-name="Trazado 1033773" d="M205.108,157.108v1.7h-1.7a3.405,3.405,0,1,1,0-6.81h1.7Z" transform="translate(-200 -152)" fill="#f0d0b4"/>
        </g>
        <g id="Grupo_1176116" data-name="Grupo 1176116" transform="translate(30.647 23.836)">
          <path id="Trazado_1033774" data-name="Trazado 1033774" d="M296,232h6.81a3.405,3.405,0,0,1-6.81,0Z" transform="translate(-296 -232)" fill="#ff826e"/>
        </g>
        <g id="Grupo_1176117" data-name="Grupo 1176117" transform="translate(28.944 20.431)">
          <path id="Trazado_1033775" data-name="Trazado 1033775" d="M290.216,202.554v.851H280v-.851A2.555,2.555,0,0,1,282.554,200h5.108A2.555,2.555,0,0,1,290.216,202.554Z" transform="translate(-280 -200)" fill="#969faa"/>
        </g>
        <g id="Grupo_1176118" data-name="Grupo 1176118" transform="translate(5.108 28.944)">
          <path id="Trazado_1033776" data-name="Trazado 1033776" d="M57.979,292.961a4.256,4.256,0,0,1,1.892-7.835,3.406,3.406,0,0,1,4.642-4.67,3.406,3.406,0,0,1,4.642,4.67,4.256,4.256,0,0,1,1.892,7.835,4.257,4.257,0,0,1-6.534,4.916,4.257,4.257,0,0,1-6.534-4.916Z" transform="translate(-56 -280)" fill="#ecc19c"/>
        </g>
      </g>
      <g id="Grupo_1176120" data-name="Grupo 1176120" transform="translate(0 0)">
        <circle id="Elipse_12378" data-name="Elipse 12378" cx="1" cy="1" r="1" transform="translate(37.39 16.39)"/>
        <path id="Trazado_1033777" data-name="Trazado 1033777" d="M280.513,163.405h-1.7V160h-1.7v3.405h-1.7A3.409,3.409,0,0,0,272,166.81v1.7h1.788a4.257,4.257,0,0,0,8.342,0h1.788v-1.7A3.409,3.409,0,0,0,280.513,163.405Zm-3.405,3.405v-1.7h1.7v1.7Zm-1.7-1.7v1.7h-1.7A1.7,1.7,0,0,1,275.405,165.108Zm2.554,5.108a2.558,2.558,0,0,1-2.407-1.7h4.815A2.558,2.558,0,0,1,277.959,170.216Zm2.554-3.405v-1.7a1.7,1.7,0,0,1,1.7,1.7Z" transform="translate(-243.056 -142.974)"/>
        <path id="Trazado_1033778" data-name="Trazado 1033778" d="M45.142,34.467l-.234-.044a7.706,7.706,0,0,0-3.678-3.2,6.942,6.942,0,0,0,3.038-5.758V23.836h.851a4.261,4.261,0,0,0,4.247-3.984l.537-.8a7,7,0,0,0,1.179-3.869,6.581,6.581,0,0,0-1.95-4.707l-.094-.094a6.788,6.788,0,0,1-1.867-3.5l-.138-.7A7.658,7.658,0,0,0,39.531,0h-.009a7.679,7.679,0,0,0-4.264,1.294l-.356.237-.135-.09A8.579,8.579,0,0,0,23.419,3.087l-.3.365A4.589,4.589,0,0,1,19.58,5.108h-.851v.851A4.389,4.389,0,0,0,20.817,9.7l-.58.773A7.543,7.543,0,0,0,20,19.184l.445.668a4.261,4.261,0,0,0,4.247,3.984h.851v1.632c0,.024,0,.047,0,.071H3.405a1.7,1.7,0,0,0-1.7,1.7v15.47A2.558,2.558,0,0,0,0,45.119v5.108A2.557,2.557,0,0,0,2.554,52.78H52.78V43.671a9.369,9.369,0,0,0-7.638-9.2Zm-.023,16.611a2.554,2.554,0,1,1,2.554-2.554A2.557,2.557,0,0,1,45.119,51.078ZM27.241,35.716l.245-.046a16.923,16.923,0,0,0,1.547,4.722l.528,1.056.835-.835a4.926,4.926,0,0,1,2.184-1.273,14.388,14.388,0,0,0,1.165,1.632q-.413.4-.864.758l-.532.426v8.922H27.241Zm3.587-.673a14.361,14.361,0,0,0,.937,2.765,6.587,6.587,0,0,0-1.659.836,15.212,15.212,0,0,1-.945-3.288Zm3.223,7.93a14.378,14.378,0,0,0,3.175-3.633,4.924,4.924,0,0,1,2.182,1.273l.835.835.528-1.056a16.923,16.923,0,0,0,1.547-4.722l1.457.273a5.922,5.922,0,0,1,.491,2.365v6.045a4.254,4.254,0,0,0-2.552,6.725H34.052Zm4.927-7.929,1.666.312a15.2,15.2,0,0,1-.945,3.288,6.587,6.587,0,0,0-1.658-.835A14.38,14.38,0,0,0,38.979,35.044Zm.181-1.7v-.934a5.941,5.941,0,0,1,3.2,1.535Zm-.991-2.687-.711.119v3.2A12.663,12.663,0,0,1,34.9,39.7a12.641,12.641,0,0,1-2.554-5.724v-3.2l-.711-.119a5.245,5.245,0,0,1-4.4-5.19V16.376l.09-.18a4.684,4.684,0,0,1,1.717-1.877,3.906,3.906,0,0,0,2.069,2.617l.213.107a.852.852,0,1,0,.626.118l.3-.605a2.217,2.217,0,0,1,1.993-1.232h2.295a4.3,4.3,0,0,0,3.234-1.464A4.631,4.631,0,0,1,42.475,16.2l.09.18v9.093A5.245,5.245,0,0,1,38.168,30.658Zm6.95-8.525h-.851v-.65a1.893,1.893,0,0,1,1.7-1.052v-1.7a3.606,3.606,0,0,0-1.7.424V17.026h.851a2.554,2.554,0,1,1,0,5.108ZM21.6,11.5,23.523,8.93l-1.252-.417a2.689,2.689,0,0,1-1.727-1.776,6.285,6.285,0,0,0,3.877-2.195l.3-.365a6.876,6.876,0,0,1,9.1-1.319l1.079.72,1.3-.867A5.981,5.981,0,0,1,39.525,1.7h.007a5.953,5.953,0,0,1,5.829,4.8l.138.7a8.484,8.484,0,0,0,2.334,4.378l.094.094a4.891,4.891,0,0,1,1.451,3.5,5.3,5.3,0,0,1-.547,2.33,4.259,4.259,0,0,0-3.569-2.175,4.967,4.967,0,0,0-.745-6.066l-.5-.5-1.2,1.2.5.5a3.258,3.258,0,0,1,.285,4.283,6.31,6.31,0,0,0-2.954-2.386,4.311,4.311,0,0,0-2.732-5.446l-.186-.062-.539,1.615.186.062a2.612,2.612,0,0,1-.826,5.09H34.253a3.907,3.907,0,0,0-2.973,1.357,2.216,2.216,0,0,1-.633-1.558,2.756,2.756,0,0,1,.813-1.961l.641-.641-1.2-1.2-.641.641a4.447,4.447,0,0,0-1.2,2.152,6.413,6.413,0,0,0-2.85,2.343,3.259,3.259,0,0,1,.284-4.285l.5-.5-1.2-1.2-.5.5a4.966,4.966,0,0,0-.745,6.066,4.259,4.259,0,0,0-3.559,2.157A5.841,5.841,0,0,1,21.6,11.5Zm3.088,10.638a2.554,2.554,0,0,1,0-5.108h.851v2.127a3.606,3.606,0,0,0-1.7-.424v1.7a1.893,1.893,0,0,1,1.7,1.052v.65Zm5.959,10.048v1.164l-3.405.638V30.039a6.934,6.934,0,0,0,3.405,2.142ZM6.81,50.226a.852.852,0,0,1-.851.851H2.554a.852.852,0,0,1-.851-.851V45.119a.852.852,0,0,1,.851-.851H5.959a.852.852,0,0,1,.851.851Zm4.9-12.9.424-1.649a2.554,2.554,0,1,1,1.49-4.881V47.214a3.373,3.373,0,0,1-1.7.458,3.409,3.409,0,0,1-3.405-3.405c0-.1,0-.193.012-.289a5.083,5.083,0,0,0,1.69.289v-1.7a3.406,3.406,0,0,1-.782-6.72,4.243,4.243,0,0,0,2.273,1.478Zm5.532,0a4.244,4.244,0,0,0,2.273-1.478,3.406,3.406,0,0,1-.782,6.72v1.7a5.084,5.084,0,0,0,1.69-.289c.008.1.012.192.012.289a3.407,3.407,0,0,1-5.108,2.95V30.793a2.554,2.554,0,1,1,1.49,4.881Zm-8.725,12.9V48.07a5.1,5.1,0,0,0,5.959.622,5.063,5.063,0,0,0,2.554.683,5.11,5.11,0,0,0,4.969-6.292,5.106,5.106,0,0,0-1.707-8.789A4.254,4.254,0,0,0,14.472,29.3a4.256,4.256,0,0,0-5.816,4.993,5.106,5.106,0,0,0-2.2,8.32,2.559,2.559,0,0,0-.5-.049H3.405V27.241H25.539V51.078H8.367A2.541,2.541,0,0,0,8.513,50.226Zm42.565.851H48.521a4.254,4.254,0,0,0-2.552-6.725V38.308a7.646,7.646,0,0,0-.25-1.943,7.666,7.666,0,0,1,5.358,7.306Z" transform="translate(0 0)"/>
        <ellipse id="Elipse_12379" data-name="Elipse 12379" cx="0.5" cy="1" rx="0.5" ry="1" transform="translate(36.39 44.39)"/>
        <ellipse id="Elipse_12380" data-name="Elipse 12380" cx="0.5" cy="1" rx="0.5" ry="1" transform="translate(36.39 47.39)"/>
      </g>
    </g>
  </g>
</svg>
