<svg xmlns="http://www.w3.org/2000/svg" xmlns:xlink="http://www.w3.org/1999/xlink" width="113" height="113" viewBox="0 0 113 113">
  <defs>
    <filter id="Trazado_982547" x="0" y="0" width="113" height="113" filterUnits="userSpaceOnUse">
      <feOffset dy="3" input="SourceAlpha"/>
      <feGaussianBlur stdDeviation="3" result="blur"/>
      <feFlood flood-opacity="0.161"/>
      <feComposite operator="in" in2="blur"/>
      <feComposite in="SourceGraphic"/>
    </filter>
  </defs>
  <g id="Grupo_1175224" data-name="Grupo 1175224" transform="translate(9 6)">
    <g id="Grupo_1172010" data-name="Grupo 1172010">
      <g id="Grupo_1171046" data-name="Grupo 1171046">
        <g id="Grupo_1148525" data-name="Grupo 1148525">
          <g transform="matrix(1, 0, 0, 1, -9, -6)" filter="url(#Trazado_982547)">
            <g id="Trazado_982547-2" data-name="Trazado 982547" transform="translate(9 6)" fill="#f4fdfe">
              <path d="M 47.5 93.5 C 41.28937149047852 93.5 35.26533508300781 92.28397369384766 29.59518623352051 89.88570404052734 C 24.11771965026855 87.56893157958984 19.19813346862793 84.25196075439453 14.97309303283691 80.02691650390625 C 10.74804019927979 75.80186462402344 7.431066513061523 70.88229370117188 5.114293098449707 65.40481567382812 C 2.716026782989502 59.73468017578125 1.5 53.71062850952148 1.5 47.5 C 1.5 41.28937149047852 2.716026782989502 35.26533508300781 5.114293098449707 29.59518623352051 C 7.431066513061523 24.11771965026855 10.74804019927979 19.19813346862793 14.97309303283691 14.97309303283691 C 19.19813346862793 10.74804019927979 24.11771965026855 7.431066513061523 29.59518623352051 5.114293098449707 C 35.26533508300781 2.716026782989502 41.28937149047852 1.5 47.5 1.5 C 53.71062850952148 1.5 59.73468017578125 2.716026782989502 65.40481567382812 5.114293098449707 C 70.88229370117188 7.431066513061523 75.80186462402344 10.74804019927979 80.02691650390625 14.97309303283691 C 84.25196075439453 19.19813346862793 87.56893157958984 24.11771965026855 89.88570404052734 29.59518623352051 C 92.28397369384766 35.26533508300781 93.5 41.28937149047852 93.5 47.5 C 93.5 53.71062850952148 92.28397369384766 59.73468017578125 89.88570404052734 65.40481567382812 C 87.56893157958984 70.88229370117188 84.25196075439453 75.80186462402344 80.02691650390625 80.02691650390625 C 75.80186462402344 84.25196075439453 70.88229370117188 87.56893157958984 65.40481567382812 89.88570404052734 C 59.73468017578125 92.28397369384766 53.71062850952148 93.5 47.5 93.5 Z" stroke="none"/>
              <path d="M 47.5 3 C 41.49121475219727 3 35.66376876831055 4.176155090332031 30.17950439453125 6.495796203613281 C 24.88084411621094 8.736953735351562 20.12152099609375 11.94598388671875 16.03375244140625 16.03375244140625 C 11.94598388671875 20.12152099609375 8.736953735351562 24.88084411621094 6.495796203613281 30.17950439453125 C 4.176155090332031 35.66376876831055 3 41.49121475219727 3 47.5 C 3 53.50878524780273 4.176155090332031 59.33623123168945 6.495796203613281 64.82049560546875 C 8.736953735351562 70.11915588378906 11.94598388671875 74.87847900390625 16.03375244140625 78.96624755859375 C 20.12152099609375 83.05401611328125 24.88084411621094 86.26304626464844 30.17950439453125 88.50419616699219 C 35.66376876831055 90.82384490966797 41.49121475219727 92 47.5 92 C 53.50878524780273 92 59.33623123168945 90.82384490966797 64.82049560546875 88.50419616699219 C 70.11915588378906 86.26304626464844 74.87847900390625 83.05401611328125 78.96624755859375 78.96624755859375 C 83.05401611328125 74.87847900390625 86.26304626464844 70.11915588378906 88.50419616699219 64.82049560546875 C 90.82384490966797 59.33623123168945 92 53.50878524780273 92 47.5 C 92 41.49121475219727 90.82384490966797 35.66376876831055 88.50419616699219 30.17950439453125 C 86.26304626464844 24.88084411621094 83.05401611328125 20.12152099609375 78.96624755859375 16.03375244140625 C 74.87847900390625 11.94598388671875 70.11915588378906 8.736953735351562 64.82049560546875 6.495796203613281 C 59.33623123168945 4.176155090332031 53.50878524780273 3 47.5 3 M 47.5 0 C 73.7335205078125 0 95 21.2664794921875 95 47.5 C 95 73.7335205078125 73.7335205078125 95 47.5 95 C 21.2664794921875 95 0 73.7335205078125 0 47.5 C 0 21.2664794921875 21.2664794921875 0 47.5 0 Z" stroke="none" fill="#56838a"/>
            </g>
          </g>
        </g>
      </g>
    </g>
    <g id="tutoring_12925163" transform="translate(12.07 12.071)">
      <g id="Grupo_1172366" data-name="Grupo 1172366" transform="translate(7.5 7.5)">
        <path id="Trazado_1026374" data-name="Trazado 1026374" d="M305.916,92.037H285.365V86.488a3.765,3.765,0,0,1,3.765-3.765h13.022a3.765,3.765,0,0,1,3.765,3.765Z" transform="translate(-254.135 -74.269)" fill="#809096"/>
        <path id="Trazado_1026375" data-name="Trazado 1026375" d="M415.547,86.492v5.549h-2.905V86.492a3.763,3.763,0,0,0-3.764-3.764h2.905A3.764,3.764,0,0,1,415.547,86.492Z" transform="translate(-363.766 -74.273)" fill="#70838c"/>
        <path id="Trazado_1026376" data-name="Trazado 1026376" d="M247.11,319.23v17.288h22.8l6.126-9.144V319.23a3.982,3.982,0,0,0-3.982-3.982H251.409A4.258,4.258,0,0,0,247.11,319.23Z" transform="translate(-220.18 -280.66)" fill="#62dbfb"/>
        <rect id="Rectángulo_414604" data-name="Rectángulo 414604" width="9.079" height="8.644" transform="translate(26.93 47.215)" fill="#ffe5c2"/>
        <path id="Trazado_1026377" data-name="Trazado 1026377" d="M433.926,319.232v8.144L427.8,336.52h-2.81l6.126-9.144v-8.144a3.982,3.982,0,0,0-3.982-3.982h2.81A3.982,3.982,0,0,1,433.926,319.232Z" transform="translate(-378.067 -280.661)" fill="#01d0fb"/>
        <path id="Trazado_1026378" data-name="Trazado 1026378" d="M320.052,147.719v7.218c0,3.081-1.893,5.579-4.974,5.579h-.4v4.024h-5.7v-4.024h-.4a4.975,4.975,0,0,1-4.975-4.975v-7.822a16.768,16.768,0,0,0,7.345-1.929,2.511,2.511,0,0,1,2.576.044,12.245,12.245,0,0,0,3.626,1.486A13.69,13.69,0,0,0,320.052,147.719Z" transform="translate(-270.321 -129.951)" fill="#ffe5c2"/>
        <path id="Trazado_1026379" data-name="Trazado 1026379" d="M384.572,162.439v7.218c0,3.081-1.893,5.579-4.974,5.579h-.4v4.024h-2.9V176.2a.965.965,0,0,1,.965-.965,3.9,3.9,0,0,0,3.362-1.634,6.819,6.819,0,0,0,1.051-3.945V162.04A13.687,13.687,0,0,0,384.572,162.439Z" transform="translate(-334.841 -144.671)" fill="#fed2a4"/>
        <path id="Trazado_1026380" data-name="Trazado 1026380" d="M449.98,170.714h2.6a1.138,1.138,0,0,0,1.138-1.138V166.73a1.138,1.138,0,0,0-1.138-1.138h-2.6Z" transform="translate(-400.249 -147.824)" fill="#ffbd86"/>
        <path id="Trazado_1026381" data-name="Trazado 1026381" d="M309.323,402.846h14.716v-10.56a2.312,2.312,0,0,0-2.312-2.312H311.635a2.312,2.312,0,0,0-2.312,2.312Z" transform="translate(-275.4 -346.988)" fill="#f2fbff"/>
        <path id="Trazado_1026382" data-name="Trazado 1026382" d="M397.292,392.289v10.56h-3.129v-10.56a2.312,2.312,0,0,0-2.312-2.311h3.129A2.312,2.312,0,0,1,397.292,392.289Z" transform="translate(-348.653 -346.99)" fill="#dff6fd"/>
        <path id="Trazado_1026383" data-name="Trazado 1026383" d="M274.047,170.714h-2.6a1.138,1.138,0,0,1-1.138-1.138V166.73a1.138,1.138,0,0,1,1.138-1.138h2.6Z" transform="translate(-240.768 -147.824)" fill="#fed2a4"/>
        <path id="Trazado_1026384" data-name="Trazado 1026384" d="M309.323,365.021v1.739a1.208,1.208,0,0,0,1.207,1.208h16.23a4.5,4.5,0,0,0,4.5-4.5V350.68l-7.22,6.728v4.981l-7.133.567-3.35-1.353a1,1,0,0,0-1.256.452l-.708,1.306-1.468.523A1.208,1.208,0,0,0,309.323,365.021Z" transform="translate(-275.4 -312.109)" fill="#ffe5c2"/>
        <path id="Trazado_1026385" data-name="Trazado 1026385" d="M446.779,350.68v12.788a4.5,4.5,0,0,1-4.5,4.5h-2.81a4.5,4.5,0,0,0,4.5-4.5V353.3Z" transform="translate(-390.92 -312.109)" fill="#fed2a4"/>
        <rect id="Rectángulo_414605" data-name="Rectángulo 414605" width="7.22" height="8.644" transform="translate(48.639 38.571)" fill="#62dbfb"/>
        <rect id="Rectángulo_414606" data-name="Rectángulo 414606" width="2.81" height="8.644" transform="translate(53.049 38.571)" fill="#01d0fb"/>
        <path id="Trazado_1026386" data-name="Trazado 1026386" d="M337.9,297.759l-1.865,2.706a.619.619,0,0,1-1,.021l-2.055-2.727,2.076-2.215Z" transform="translate(-296.398 -263.17)" fill="#0593fc"/>
        <path id="Trazado_1026387" data-name="Trazado 1026387" d="M376.792,297.759l1.865,2.706a.619.619,0,0,0,1,.021l2.055-2.727-2.076-2.215Z" transform="translate(-335.286 -263.17)" fill="#0593fc"/>
        <path id="Trazado_1026388" data-name="Trazado 1026388" d="M32.819,252l-1.408,5.674a4.68,4.68,0,0,0,2.092,5.114l-.621,2.5,6.212,1.542.568-2.29a4.727,4.727,0,0,0,6.123-3.3l1.408-5.675Z" transform="translate(-28.6 -224.523)" fill="#ffe5c2"/>
        <path id="Trazado_1026389" data-name="Trazado 1026389" d="M120.907,276.267l-1.408,5.674a4.7,4.7,0,0,1-5.179,3.514,10.666,10.666,0,0,0,2.769-10.136Z" transform="translate(-102.314 -245.219)" fill="#fed2a4"/>
        <path id="Trazado_1026390" data-name="Trazado 1026390" d="M25.856,220.119s3.7-.6,5.035-3.09l-.046-.011a1.571,1.571,0,0,1-1.146-1.9h0a1.571,1.571,0,0,1,1.9-1.146l.046.011a11.363,11.363,0,0,0,7.9-1.081,2.893,2.893,0,0,0,2.837-1.879,3.291,3.291,0,0,0-.594-3.788,3.879,3.879,0,0,0-3.63-.81,9.176,9.176,0,0,0-6.126-2.487c-4.435.217-5.006,2.155-5.006,2.155s-2.391.433-3.225,2.144C22.522,210.859,21.381,217.916,25.856,220.119Z" transform="translate(-20.953 -181.85)" fill="#fee45a"/>
        <path id="Trazado_1026391" data-name="Trazado 1026391" d="M169.944,229.61a2.893,2.893,0,0,1-2.837,1.879c-.217.12-.434.229-.651.33a8.989,8.989,0,0,0-.087-6.923,3.79,3.79,0,0,1,2.98.926A3.291,3.291,0,0,1,169.944,229.61Z" transform="translate(-148.514 -200.441)" fill="#fed402"/>
        <path id="Trazado_1026392" data-name="Trazado 1026392" d="M20.08,385.346H7.5v-8.97c0-2.588,2.044-4.816,4.282-6.117h0l6.212,1.542c1.378.74,2.086,2.635,2.086,5.043v8.5Z" transform="translate(-7.5 -329.487)" fill="#fea3ce"/>
        <path id="Trazado_1026393" data-name="Trazado 1026393" d="M70.583,433.383,73.072,437h5.756l.779-.352a1.95,1.95,0,0,1,2.133.352h0a.92.92,0,0,1,.861,1.244l-.954,2.536a.92.92,0,0,1-.861.6H68.53l-3.039-4.646,3.024-2.981Z" transform="translate(-58.973 -385.517)" fill="#ffe5c2"/>
        <path id="Trazado_1026394" data-name="Trazado 1026394" d="M183.527,462.334a.925.925,0,0,1-.06.325l-.953,2.537a.922.922,0,0,1-.862.6H179.13a.92.92,0,0,0,.861-.6l.954-2.537a.918.918,0,0,0-.862-1.243q-.066-.061-.135-.115l.525-.237a1.949,1.949,0,0,1,2.133.352A.92.92,0,0,1,183.527,462.334Z" transform="translate(-159.84 -409.934)" fill="#fed2a4"/>
        <path id="Trazado_1026395" data-name="Trazado 1026395" d="M31.575,374.755h0a3.047,3.047,0,0,0-.873,4.22l3.465,5.272L39.26,380.9l-3.465-5.272A3.047,3.047,0,0,0,31.575,374.755Z" transform="translate(-27.65 -333.034)" fill="#fe7ab6"/>
        <g id="Grupo_1172364" data-name="Grupo 1172364" transform="translate(7.904)">
          <g id="Grupo_1172363" data-name="Grupo 1172363">
            <path id="Trazado_1026396" data-name="Trazado 1026396" d="M77.821,26.486V9.709A2.209,2.209,0,0,1,80.03,7.5H94.417a1.638,1.638,0,0,1,1.638,1.638V22.177a1.638,1.638,0,0,1-1.638,1.638H81.064L79,26.849A.646.646,0,0,1,77.821,26.486Z" transform="translate(-77.821 -7.5)" fill="#fff9e2"/>
          </g>
        </g>
        <g id="Grupo_1172365" data-name="Grupo 1172365" transform="translate(21.127)">
          <path id="Trazado_1026397" data-name="Trazado 1026397" d="M200.49,9.139V22.177a1.638,1.638,0,0,1-1.639,1.638H195.48a1.638,1.638,0,0,0,1.639-1.638V9.139A1.639,1.639,0,0,0,195.48,7.5h3.372A1.639,1.639,0,0,1,200.49,9.139Z" transform="translate(-195.48 -7.5)" fill="#fff2bb"/>
        </g>
      </g>
      <g id="Grupo_1172370" data-name="Grupo 1172370" transform="translate(7.5 7.5)">
        <path id="Trazado_1026398" data-name="Trazado 1026398" d="M375.8,82.723h6.622a3.765,3.765,0,0,1,3.765,3.765v5.549" transform="translate(-334.409 -74.269)" fill="none" stroke="#000" stroke-linecap="round" stroke-linejoin="round" stroke-miterlimit="10" stroke-width="1.5"/>
        <path id="Trazado_1026399" data-name="Trazado 1026399" d="M285.365,92.037V86.488a3.765,3.765,0,0,1,3.765-3.765h2.41" transform="translate(-254.135 -74.269)" fill="none" stroke="#000" stroke-linecap="round" stroke-linejoin="round" stroke-miterlimit="10" stroke-width="1.5"/>
        <path id="Trazado_1026400" data-name="Trazado 1026400" d="M248.173,327.857a3.736,3.736,0,0,0-1.063,2.565V347.71h22.8" transform="translate(-220.18 -291.851)" fill="none" stroke="#000" stroke-linecap="round" stroke-linejoin="round" stroke-miterlimit="10" stroke-width="1.5"/>
        <path id="Trazado_1026401" data-name="Trazado 1026401" d="M296.5,315.248h-4.619" transform="translate(-259.917 -280.66)" fill="none" stroke="#000" stroke-linecap="round" stroke-linejoin="round" stroke-miterlimit="10" stroke-width="1.5"/>
        <path id="Trazado_1026402" data-name="Trazado 1026402" d="M430.034,327.374V319.23a3.982,3.982,0,0,0-3.982-3.982H420.6" transform="translate(-374.175 -280.66)" fill="none" stroke="#000" stroke-linecap="round" stroke-linejoin="round" stroke-miterlimit="10" stroke-width="1.5"/>
        <path id="Trazado_1026403" data-name="Trazado 1026403" d="M308.978,162.325v-1.809h-.4a4.974,4.974,0,0,1-4.974-4.975v-7.822a16.768,16.768,0,0,0,7.345-1.929,2.511,2.511,0,0,1,2.576.044,12.246,12.246,0,0,0,3.626,1.486,13.686,13.686,0,0,0,2.9.4v7.218c0,3.081-1.893,5.579-4.974,5.579h-.4v1.809" transform="translate(-270.321 -129.951)" fill="none" stroke="#000" stroke-linecap="round" stroke-linejoin="round" stroke-miterlimit="10" stroke-width="1.5"/>
        <path id="Trazado_1026404" data-name="Trazado 1026404" d="M449.98,170.714h2.6a1.138,1.138,0,0,0,1.138-1.138V166.73a1.138,1.138,0,0,0-1.138-1.138h-2.6Z" transform="translate(-400.249 -147.824)" fill="none" stroke="#000" stroke-linecap="round" stroke-linejoin="round" stroke-miterlimit="10" stroke-width="1.5"/>
        <path id="Trazado_1026405" data-name="Trazado 1026405" d="M324.039,394.2v-1.915a2.312,2.312,0,0,0-2.312-2.312H311.635a2.312,2.312,0,0,0-2.312,2.312V399.9" transform="translate(-275.4 -346.988)" fill="none" stroke="#000" stroke-linecap="round" stroke-linejoin="round" stroke-miterlimit="10" stroke-width="1.5"/>
        <path id="Trazado_1026406" data-name="Trazado 1026406" d="M274.047,170.714h-2.6a1.138,1.138,0,0,1-1.138-1.138V166.73a1.138,1.138,0,0,1,1.138-1.138h2.6Z" transform="translate(-240.768 -147.824)" fill="none" stroke="#000" stroke-linecap="round" stroke-linejoin="round" stroke-miterlimit="10" stroke-width="1.5"/>
        <path id="Trazado_1026407" data-name="Trazado 1026407" d="M324.04,427.585v3.066l-7.133.567-3.35-1.353a1,1,0,0,0-1.256.452l-.708,1.306-1.468.523a1.208,1.208,0,0,0-.8,1.137v1.739a1.208,1.208,0,0,0,1.207,1.208h16.23a4.5,4.5,0,0,0,4.5-4.5v-4.145" transform="translate(-275.401 -380.371)" fill="none" stroke="#000" stroke-linecap="round" stroke-linejoin="round" stroke-miterlimit="10" stroke-width="1.5"/>
        <path id="Trazado_1026408" data-name="Trazado 1026408" d="M440.258,353.154v6.17h7.22V350.68" transform="translate(-391.619 -312.109)" fill="none" stroke="#000" stroke-linecap="round" stroke-linejoin="round" stroke-miterlimit="10" stroke-width="1.5"/>
        <path id="Trazado_1026409" data-name="Trazado 1026409" d="M46.216,290.967l-.621,2.5,6.212,1.542.568-2.29a4.727,4.727,0,0,0,6.123-3.3l1.408-5.674" transform="translate(-41.313 -252.698)" fill="none" stroke="#000" stroke-linecap="round" stroke-linejoin="round" stroke-miterlimit="10" stroke-width="1.5"/>
        <path id="Trazado_1026410" data-name="Trazado 1026410" d="M22.667,213.23c-.108,2.723.6,5.617,3.189,6.89,0,0,3.7-.6,5.035-3.09l-.046-.011a1.571,1.571,0,0,1-1.146-1.9h0a1.571,1.571,0,0,1,1.9-1.146l.046.011a11.363,11.363,0,0,0,7.9-1.081,2.893,2.893,0,0,0,2.837-1.879,3.291,3.291,0,0,0-.594-3.788,3.879,3.879,0,0,0-3.63-.81,9.176,9.176,0,0,0-6.126-2.487c-4.435.217-5.006,2.155-5.006,2.155s-2.391.433-3.225,2.144a9.133,9.133,0,0,0-.463,1.174" transform="translate(-20.953 -181.851)" fill="none" stroke="#000" stroke-linecap="round" stroke-linejoin="round" stroke-miterlimit="10" stroke-width="1.5"/>
        <path id="Trazado_1026411" data-name="Trazado 1026411" d="M17.057,385.346H7.5v-8.97c0-2.588,2.044-4.816,4.282-6.117h0l6.212,1.542c1.378.74,2.086,2.635,2.086,5.043v1.918" transform="translate(-7.5 -329.487)" fill="none" stroke="#000" stroke-linecap="round" stroke-linejoin="round" stroke-miterlimit="10" stroke-width="1.5"/>
        <path id="Trazado_1026412" data-name="Trazado 1026412" d="M70.583,433.383,73.072,437h5.756l.779-.352a1.95,1.95,0,0,1,2.133.352h0a.92.92,0,0,1,.861,1.244l-.954,2.536a.92.92,0,0,1-.861.6H68.53l-3.039-4.646" transform="translate(-58.973 -385.517)" fill="none" stroke="#000" stroke-linecap="round" stroke-linejoin="round" stroke-miterlimit="10" stroke-width="1.5"/>
        <path id="Trazado_1026413" data-name="Trazado 1026413" d="M31.575,374.755h0a3.047,3.047,0,0,0-.873,4.22l3.465,5.272L39.26,380.9l-3.465-5.272A3.047,3.047,0,0,0,31.575,374.755Z" transform="translate(-27.65 -333.034)" fill="none" stroke="#000" stroke-linecap="round" stroke-linejoin="round" stroke-miterlimit="10" stroke-width="1.5"/>
        <g id="Grupo_1172367" data-name="Grupo 1172367" transform="translate(7.904)">
          <path id="Trazado_1026414" data-name="Trazado 1026414" d="M77.821,26.486V9.709A2.209,2.209,0,0,1,80.03,7.5H94.417a1.638,1.638,0,0,1,1.638,1.638V22.177a1.638,1.638,0,0,1-1.638,1.638H81.064L79,26.849A.646.646,0,0,1,77.821,26.486Z" transform="translate(-77.821 -7.5)" fill="none" stroke="#000" stroke-linecap="round" stroke-linejoin="round" stroke-miterlimit="10" stroke-width="1.5"/>
        </g>
        <path id="Trazado_1026415" data-name="Trazado 1026415" d="M337.9,297.759l-1.865,2.706a.619.619,0,0,1-1,.021l-2.055-2.727,2.076-2.215Z" transform="translate(-296.398 -263.17)" fill="none" stroke="#000" stroke-linecap="round" stroke-linejoin="round" stroke-miterlimit="10" stroke-width="1.5"/>
        <path id="Trazado_1026416" data-name="Trazado 1026416" d="M376.792,297.759l1.865,2.706a.619.619,0,0,0,1,.021l2.055-2.727-2.076-2.215Z" transform="translate(-335.286 -263.17)" fill="none" stroke="#000" stroke-linecap="round" stroke-linejoin="round" stroke-miterlimit="10" stroke-width="1.5"/>
        <line id="Línea_752" data-name="Línea 752" x2="1.343" y2="3.915" transform="translate(19.29 47.215)" fill="none" stroke="#000" stroke-linecap="round" stroke-linejoin="round" stroke-miterlimit="10" stroke-width="1.5"/>
        <line id="Línea_755" data-name="Línea 755" y1="4.528" transform="translate(33.923 40.771)" fill="none" stroke="#000" stroke-linecap="round" stroke-linejoin="round" stroke-miterlimit="10" stroke-width="1.5"/>
        <line id="Línea_756" data-name="Línea 756" x2="6.992" y2="0.001" transform="translate(26.93 47.214)" fill="none" stroke="#000" stroke-linecap="round" stroke-linejoin="round" stroke-miterlimit="10" stroke-width="1.5"/>
        <path id="Trazado_1032041" data-name="Trazado 1032041" d="M-.3-.81-.847-7.755H1.309L.763-.81ZM-.749,2.116V.17h1.96V2.116Z" transform="translate(16.699 10.371)"/>
      </g>
    </g>
  </g>
</svg>
